<svg width="353" height="351" viewBox="0 0 353 351" fill="none" xmlns="http://www.w3.org/2000/svg">
<path d="M123.362 49.0332L125.01 48.3268L126.603 48.4198L128.31 49.441L129.414 50.336L130.238 51.4375L128.159 50.5005L126.902 50.8563L125.825 51.6481L125.003 53.2648L124.997 55.2933L125.524 56.6766L126.622 58.1453L128.548 58.8784L131.051 59.3143L133.533 58.7532L136.1 57.4335L138.147 55.6115L139.812 53.3751L140.575 51.4856L140.97 49.2977L140.535 46.582L139.613 44.477L138.179 42.5595L136.172 40.7479L134.371 39.7955L131.922 38.7514L129.253 37.9955L126.657 37.6284L125.138 37.9242L121.705 39.0578L119.681 40.2309L117.962 41.8119L116.46 43.2961L114.889 45.4636L114.128 47.1619L113.337 48.8194L112.876 51.3082L112.642 54.3898L112.843 57.2776L113.892 60.4268L115.611 63.21L117.24 65.6796L119.445 67.8521L116.941 66.1526L114.968 63.9993L113.656 62.2449L112.609 60.3593L111.207 56.8366L110.531 52.1485L111.005 48.321L112.389 44.8364L114.167 42.0735L116.345 39.6496L118.731 37.8939L122.943 36.2503L125.284 35.7925L129.278 35.7005L133.06 36.5865L134.602 37.0964L135.544 37.2889L136.925 36.905L138.052 35.6963L138.345 34.3423L138.16 32.834L137.489 31.9364L136.493 31.0886L134.505 30.274L132.406 29.7947L130.009 29.5971L126.683 29.5144L123.395 30.1622L120.508 30.9579L117.926 32.1616L115.497 33.5693L112.919 35.8452L110.911 38.3978L109.135 40.9695L107.321 45.5289L106.753 47.9705L106.356 50.3497L106.229 54.9332L107.417 59.6251L108.352 61.8461L109.4 63.7317L110.689 66.135L112.39 67.7299L109.06 68.0297L105.894 68.8407L102.226 70.3377L97.3671 73.153L93.6235 75.9071L90.3395 79.082L87.9242 82.0604L85.7815 85.5973L84.3591 88.3513L83.5877 91.0059L83.2446 85.5031L83.7418 79.5718L84.8905 70.6316L87.5649 62.2766L89.482 56.6921L92.1418 51.1305L95.4647 45.7768L98.1506 42.0932L101.707 38.0221L104.772 35.1354L108.456 32.1084L111.463 30.2124L114.997 28.245L117.61 27.0821L122.22 25.7776L124.81 25.2637L127.286 25.2763L132.486 25.2455L136.701 26.1289L140.462 27.4726L143.906 29.5558L146.526 31.9922L148.662 34.848L149.947 37.6338L150.834 40.0805L151.332 44.1412L151.154 47.687L149.888 53.172L147.552 57.4203L145.859 59.4246L143.434 61.9046L141.141 63.5915L138.746 64.6575L135.22 65.8599L132.48 65.9786L130.144 65.8627L127.644 65.2355L125.769 64.0855L123.702 62.001L121.741 58.7002L121.237 56.6679L120.912 55.2629L121.15 53.2535L121.409 52.2411L122.202 50.3924L123.362 49.0332Z" fill="#8C775E" stroke="#8C775E"/>
<path d="M170.742 237.803L172.434 238.248L173.61 239.302L174.324 241.172L174.647 242.57L174.631 243.961L173.58 241.93L172.398 241.444L171.097 241.418L169.504 242.212L168.297 243.839L167.884 245.274L167.863 247.129L168.917 248.903L170.593 250.791L172.843 251.865L175.609 252.383L178.27 252.177L180.882 251.402L182.591 250.353L184.192 248.837L185.465 246.388L186 244.13L186.028 241.707L185.55 239.018L184.723 237.146L183.449 234.801L181.834 232.553L180.045 230.663L178.696 229.967L175.372 228.768L173.113 228.467L170.847 228.681L168.808 228.95L166.31 229.727L164.715 230.624L163.122 231.469L161.292 233.187L159.285 235.519L157.729 237.963L156.674 241.139L156.354 244.432L156.15 247.418L156.567 250.519L155.638 247.614L155.389 244.671L155.415 242.455L155.723 240.296L156.727 236.604L158.981 232.42L161.615 229.636L164.749 227.686L167.76 226.559L170.879 225.949L173.763 226.005L177.991 227.272L180.072 228.344L183.213 230.724L185.61 233.761L186.5 235.118L187.114 235.852L188.408 236.392L189.996 236.114L191.024 235.206L191.775 233.88L191.788 232.746L191.52 231.452L190.467 229.576L189.129 227.9L187.394 226.269L184.872 224.158L181.948 222.658L179.246 221.523L176.537 220.904L173.826 220.542L170.486 220.786L167.421 221.603L164.525 222.578L160.423 225.128L158.537 226.741L156.821 228.409L154.008 232.015L152.146 236.515L151.553 238.875L151.245 241.034L150.818 243.758L151.187 246.085L148.436 244.279L145.509 242.985L141.787 241.933L136.365 241.21L131.84 241.122L127.422 241.655L123.791 242.564L120.04 244.09L117.309 245.429L115.14 247.088L118.135 242.455L122.033 237.994L128.217 231.515L135.234 226.444L140.024 223.135L145.374 220.3L151.114 218.04L155.371 216.731L160.532 215.645L164.61 215.208L169.251 215.04L172.698 215.365L176.594 215.956L179.302 216.627L183.637 218.412L185.943 219.591L187.849 221.123L191.885 224.294L194.619 227.594L196.73 230.986L198.157 234.777L198.738 238.345L198.697 241.953L198.04 244.982L197.275 247.493L195.254 251.062L193.017 253.802L188.789 257.432L184.467 259.411L181.971 259.981L178.627 260.483L175.856 260.43L173.374 259.814L169.937 258.614L167.749 257.025L166.013 255.496L164.453 253.456L163.685 251.379L163.322 248.433L163.763 244.576L164.577 242.632L165.158 241.303L166.533 239.835L167.332 239.18L169.041 238.182L170.742 237.803Z" fill="#8C775E" stroke="#8C775E"/>
<path d="M148.734 107.642L150.387 108.448L151.386 109.837L151.745 112.048L151.796 113.663L151.499 115.208L150.825 112.755L149.706 111.996L148.371 111.729L146.57 112.319L144.999 113.906L144.285 115.427L143.889 117.487L144.618 119.653L145.963 122.062L148.064 123.672L150.809 124.757L153.591 125.017L156.437 124.636L158.408 123.783L160.363 122.392L162.168 119.901L163.174 117.488L163.691 114.798L163.741 111.718L163.266 109.483L162.426 106.641L161.216 103.843L159.755 101.411L158.505 100.388L155.324 98.4428L153.057 97.6916L150.681 97.5127L148.526 97.4375L145.797 97.8416L143.974 98.5461L142.162 99.1934L139.931 100.767L137.394 102.992L135.299 105.425L133.573 108.764L132.579 112.368L131.767 115.652L131.571 119.179L131.201 115.777L131.537 112.457L132.01 109.996L132.762 107.651L134.541 103.728L137.706 99.4892L140.98 96.8766L144.601 95.2842L147.929 94.5842L151.264 94.4798L154.224 95.0727L158.323 97.2608L160.25 98.8355L163.005 102.062L164.862 105.881L165.505 107.555L165.989 108.484L167.214 109.323L168.905 109.305L170.147 108.485L171.188 107.148L171.43 105.889L171.414 104.4L170.708 102.119L169.667 100.009L168.209 97.8746L166.038 95.0624L163.328 92.8556L160.773 91.0958L158.109 89.9082L155.389 89.0068L151.9 88.6642L148.579 89.0093L145.399 89.5608L140.66 91.6422L138.393 93.0898L136.289 94.6294L132.665 98.1227L129.84 102.786L128.754 105.303L128.002 107.648L127.013 110.599L126.924 113.256L124.455 110.741L121.701 108.763L118.08 106.908L112.641 105.105L107.998 104.175L103.34 103.955L99.4171 104.298L95.2461 105.305L92.1637 106.292L89.5956 107.739L93.614 103.136L98.5279 98.8904L106.203 92.8212L114.452 88.4715L120.052 85.6712L126.134 83.5022L132.501 82.0441L137.15 81.371L142.684 81.1128L146.972 81.3776L151.786 82.0448L155.271 83.0402L159.165 84.4146L161.818 85.6594L165.924 88.443L168.061 90.1787L169.715 92.2335L173.233 96.5041L175.384 100.679L176.874 104.84L177.58 109.32L177.46 113.396L176.69 117.402L175.403 120.651L174.109 123.304L171.308 126.902L168.451 129.539L163.365 132.799L158.515 134.204L155.829 134.38L152.285 134.323L149.441 133.753L147.009 132.612L143.711 130.644L141.778 128.474L140.298 126.454L139.102 123.897L138.729 121.445L138.95 118.102L140.181 113.891L141.411 111.88L142.278 110.508L143.989 109.127L144.945 108.546L146.906 107.751L148.734 107.642Z" fill="#8C775E" stroke="#8C775E"/>
<path d="M43.2271 108.615L44.3418 107.663L45.6659 107.37L47.3773 107.803L48.5593 108.273L49.5787 108.975L47.5915 108.696L46.6828 109.275L46.0597 110.164L45.9052 111.664L46.5445 113.308L47.4121 114.307L48.7713 115.243L50.5698 115.392L52.7417 115.167L54.5805 114.14L56.2478 112.478L57.3323 110.53L57.9744 108.335L57.9942 106.628L57.6201 104.765L56.4038 102.666L54.9863 101.173L53.2117 99.9514L51.0045 98.9475L49.2389 98.5918L46.9168 98.3115L44.5076 98.3154L42.2815 98.6173L41.1404 99.2077L38.7114 100.918L37.439 102.336L36.5441 104.013L35.7954 105.562L35.2075 107.68L35.1286 109.231L35.0119 110.756L35.4287 112.878L36.2173 115.428L37.2982 117.721L39.1514 120.029L41.4324 121.887L43.541 123.511L46.0232 124.762L43.4482 123.963L41.1606 122.675L39.5371 121.556L38.0868 120.271L35.8289 117.741L33.7894 114.1L32.9589 110.891L32.9764 107.749L33.5438 105.101L34.543 102.635L35.9247 100.662L38.8249 98.3586L40.5824 97.4472L43.7986 96.4509L47.1534 96.2954L48.5685 96.3525L49.3951 96.2909L50.3958 95.6612L50.9278 94.422L50.7358 93.2576L50.1063 92.0787L49.2756 91.5066L48.1963 91.05L46.3223 90.849L44.4639 90.9455L42.4536 91.3387L39.7242 92.0395L37.2583 93.3232L35.1651 94.6341L33.4494 96.205L31.9225 97.9059L30.5506 100.344L29.7296 102.875L29.1031 105.368L29.0781 109.48L29.3923 111.589L29.8255 113.607L31.1788 117.349L33.6345 120.875L35.1004 122.458L36.5507 123.743L38.3622 125.392L40.2509 126.291L37.6397 127.303L35.3248 128.691L32.8194 130.75L29.7655 134.152L27.5983 137.246L25.9382 140.576L24.9218 143.546L24.3042 146.905L24.0233 149.464L24.2398 151.792L22.2127 147.414L20.7323 142.496L18.8253 134.99L18.344 127.605L18.1277 122.639L18.5222 117.521L19.5216 112.418L20.534 108.814L22.1309 104.696L23.7038 101.65L25.7365 98.348L27.5779 96.1182L29.8247 93.7089L31.5782 92.164L34.9102 90.0432L36.8515 89.0291L38.8676 88.4678L43.0835 87.2425L46.7897 86.9849L50.2733 87.2049L53.7339 88.0972L56.6371 89.4657L59.2801 91.2858L61.2098 93.2454L62.7077 95.0223L64.4024 98.1964L65.3847 101.109L66.0985 105.844L65.5498 109.824L64.8109 111.838L63.6279 114.407L62.3004 116.302L60.6931 117.719L58.2099 119.506L56.0206 120.235L54.0858 120.68L51.8548 120.75L49.9652 120.251L47.6235 119.04L44.9813 116.819L43.9259 115.289L43.2151 114.226L42.7703 112.544L42.6588 111.664L42.7164 109.984L43.2271 108.615Z" fill="#8C775E" stroke="#8C775E"/>
<path d="M198.857 66.1374L199.341 67.7254L199.103 69.175L198.009 70.6271L197.088 71.5412L196.006 72.1752L197.059 70.3727L196.856 69.1813L196.239 68.1079L194.845 67.1769L192.999 66.9483L191.689 67.2792L190.245 68.1246L189.393 69.8097L188.755 72.0551L189.027 74.3915L189.982 76.8896L191.445 78.9656L193.321 80.7366L194.968 81.6435L196.923 82.2457L199.437 82.1453L201.443 81.532L203.327 80.4283L205.17 78.7872L206.21 77.2418L207.396 75.1117L208.341 72.7486L208.925 70.4098L208.802 68.9845L208.099 65.7145L207.226 63.7303L205.951 61.981L204.744 60.4418L202.922 58.7642L201.448 57.8801L200.015 56.9726L197.793 56.2777L195.009 55.7245L192.36 55.5916L189.392 56.2075L186.692 57.4771L184.287 58.6991L182.096 60.4814L183.885 58.373L186.035 56.8011L187.759 55.7914L189.577 55.0384L192.919 54.141L197.253 54.0355L200.693 54.8907L203.733 56.5416L206.078 58.4749L208.076 60.7364L209.445 63.1165L210.537 67.1567L210.729 69.3531L210.429 73.0233L209.258 76.392L208.646 77.7492L208.38 78.5913L208.596 79.8995L209.589 81.0653L210.794 81.4827L212.185 81.4788L213.067 80.9622L213.935 80.1418L214.867 78.4097L215.506 76.5382L215.916 74.3636L216.311 71.3242L216.037 68.2399L215.59 65.5067L214.743 63.0083L213.694 60.6273L211.87 58.0148L209.738 55.8939L207.567 53.9835L203.59 51.821L201.421 51.0324L199.293 50.4073L195.131 49.7878L190.744 50.3609L188.632 50.9744L186.814 51.7274L184.502 52.6453L182.886 54.0287L182.933 50.9435L182.499 47.9532L181.489 44.4269L179.392 39.6649L177.244 35.9315L174.669 32.5732L172.189 30.0326L169.174 27.6804L166.803 26.0744L164.46 25.0759L169.504 25.3657L174.857 26.4727L182.888 28.5071L190.239 31.8755L195.14 34.2458L199.948 37.2941L204.504 40.9274L207.6 43.7935L210.965 47.5002L213.299 50.6255L215.702 54.3349L217.139 57.299L218.591 60.754L219.398 63.2758L220.143 67.6442L220.362 70.0742L220.112 72.342L219.641 77.111L218.431 80.8772L216.846 84.177L214.618 87.1046L212.147 89.2382L209.341 90.882L206.681 91.7542L204.368 92.2981L200.622 92.3085L197.41 91.7565L192.537 89.9938L188.893 87.3864L187.231 85.6147L185.206 83.1196L183.89 80.8329L183.15 78.5212L182.394 75.1578L182.549 72.6332L182.879 70.5055L183.691 68.283L184.918 66.6903L187.015 65.0251L190.21 63.5906L192.109 63.3516L193.419 63.2077L195.226 63.6468L196.123 63.9949L197.73 64.9253L198.857 66.1374Z" fill="#8C775E" stroke="#8C775E"/>
<path d="M271.224 58.8599L272.545 58.3538L273.874 58.5401L275.36 59.542L276.337 60.3943L277.095 61.4078L275.306 60.4545L274.286 60.6812L273.445 61.2994L272.871 62.6527L273.002 64.4184L273.533 65.6576L274.543 67.009L276.192 67.7746L278.299 68.3196L280.322 67.9952L282.365 67.0159L283.942 65.5648L285.173 63.7277L285.68 62.133L285.861 60.2542L285.317 57.861L284.411 55.9674L283.092 54.2031L281.303 52.493L279.744 51.5448L277.641 50.4738L275.374 49.6392L273.194 49.1479L271.952 49.3051L269.179 50.0651L267.577 50.9526L266.256 52.2155L265.109 53.4085L263.95 55.1918L263.432 56.6202L262.887 58.011L262.672 60.1474L262.684 62.815L263.045 65.3426L264.128 68.1539L265.742 70.6907L267.261 72.9486L269.237 74.9859L267.044 73.3407L265.261 71.3354L264.054 69.7212L263.058 68.0102L261.658 64.8505L260.781 60.724L260.917 57.4229L261.832 54.4805L263.123 52.1924L264.768 50.226L266.631 48.8551L270.017 47.7025L271.931 47.4587L275.24 47.6426L278.439 48.664L279.754 49.21L280.549 49.4398L281.67 49.197L282.525 48.2191L282.677 47.0595L282.422 45.7341L281.805 44.9082L280.92 44.1042L279.215 43.2635L277.44 42.7074L275.437 42.377L272.67 42.0851L269.984 42.4317L267.64 42.9337L265.578 43.811L263.655 44.876L261.668 46.6872L260.172 48.7769L258.87 50.8985L257.671 54.7484L257.364 56.8367L257.194 58.8818L257.397 62.8642L258.698 67.0278L259.624 69.0233L260.62 70.7344L261.852 72.9121L263.371 74.4131L260.627 74.454L258.053 74.9508L255.108 76.0117L251.263 78.1417L248.34 80.2921L245.827 82.8392L244.022 85.2728L242.481 88.2106L241.485 90.5144L241.023 92.7746L240.368 87.9608L240.382 82.8296L240.735 75.1216L242.394 68.0239L243.611 63.2884L245.445 58.622L247.844 54.1803L249.827 51.1508L252.506 47.8413L254.856 45.5305L257.712 43.1386L260.081 41.6866L262.883 40.2073L264.973 39.3675L268.713 38.5365L270.829 38.2603L272.885 38.435L277.201 38.7519L280.76 39.7997L283.973 41.2183L286.972 43.2597L289.311 45.5542L291.276 48.1819L292.531 50.6924L293.431 52.8812L294.117 56.4497L294.208 59.5251L293.526 64.217L291.872 67.7615L290.601 69.3947L288.754 71.3935L286.963 72.7106L285.047 73.4804L282.201 74.2943L279.933 74.2165L277.987 73.9611L275.869 73.2498L274.234 72.1245L272.378 70.173L270.529 67.1694L269.973 65.3666L269.609 64.1218L269.672 62.3881L269.818 61.5238L270.353 59.9666L271.224 58.8599Z" fill="#8C775E" stroke="#8C775E"/>
<path d="M208.225 149.86L209.545 149.354L210.874 149.54L212.36 150.542L213.337 151.394L214.095 152.408L212.306 151.455L211.286 151.681L210.445 152.299L209.872 153.653L210.003 155.418L210.533 156.658L211.543 158.009L213.192 158.775L215.299 159.32L217.322 158.995L219.365 158.016L220.942 156.565L222.174 154.728L222.68 153.133L222.861 151.254L222.317 148.861L221.411 146.967L220.092 145.203L218.303 143.493L216.744 142.545L214.641 141.474L212.374 140.639L210.194 140.148L208.952 140.305L206.179 141.065L204.577 141.953L203.256 143.216L202.109 144.408L200.95 146.192L200.432 147.62L199.887 149.011L199.672 151.147L199.684 153.815L200.045 156.343L201.128 159.154L202.742 161.691L204.261 163.949L206.237 165.986L204.044 164.341L202.261 162.335L201.054 160.721L200.058 159.01L198.658 155.85L197.781 151.724L197.918 148.423L198.832 145.48L200.123 143.192L201.768 141.226L203.631 139.855L207.017 138.702L208.931 138.459L212.24 138.643L215.44 139.664L216.754 140.21L217.549 140.44L218.67 140.197L219.525 139.219L219.677 138.06L219.422 136.734L218.805 135.908L217.92 135.104L216.215 134.264L214.44 133.707L212.437 133.377L209.67 133.085L206.984 133.432L204.641 133.934L202.578 134.811L200.656 135.876L198.668 137.687L197.172 139.777L195.87 141.899L194.671 145.748L194.364 147.837L194.194 149.882L194.397 153.864L195.698 158.028L196.624 160.023L197.62 161.734L198.853 163.912L200.372 165.413L197.627 165.454L195.053 165.951L192.108 167.012L188.264 169.142L185.34 171.292L182.827 173.839L181.022 176.273L179.481 179.211L178.485 181.514L178.023 183.775L177.368 178.961L177.383 173.83L177.735 166.122L179.394 159.024L180.611 154.288L182.445 149.622L184.844 145.18L186.827 142.151L189.506 138.841L191.856 136.531L194.712 134.139L197.081 132.687L199.883 131.207L201.974 130.368L205.713 129.537L207.829 129.26L209.886 129.435L214.201 129.752L217.76 130.8L220.973 132.218L223.972 134.26L226.311 136.554L228.276 139.182L229.531 141.692L230.431 143.881L231.117 147.45L231.208 150.525L230.526 155.217L228.872 158.761L227.601 160.395L225.754 162.394L223.964 163.711L222.047 164.48L219.201 165.294L216.933 165.216L214.987 164.961L212.869 164.25L211.234 163.125L209.378 161.173L207.529 158.169L206.973 156.367L206.609 155.122L206.672 153.388L206.818 152.524L207.353 150.967L208.225 149.86Z" fill="#8C775E" stroke="#8C775E"/>
<path d="M245.453 283.081L247.599 282.177L249.686 282.328L251.939 283.706L253.402 284.907L254.5 286.375L251.761 285.102L250.121 285.55L248.726 286.576L247.678 288.696L247.706 291.374L248.42 293.21L249.884 295.168L252.42 296.169L255.705 296.789L258.945 296.091L262.284 294.394L264.932 292.025L267.071 289.101L268.037 286.62L268.515 283.738L267.897 280.146L266.653 277.35L264.741 274.794L262.08 272.367L259.706 271.078L256.48 269.657L252.971 268.612L249.565 268.082L247.58 268.446L243.106 269.882L240.476 271.395L238.253 273.452L236.313 275.385L234.295 278.22L233.328 280.448L232.321 282.623L231.763 285.9L231.511 289.965L231.826 293.781L233.256 297.957L235.556 301.661L237.733 304.95L240.66 307.857L237.35 305.569L234.728 302.692L232.979 300.353L231.574 297.845L229.676 293.17L228.706 286.969L229.259 281.924L231.009 277.348L233.289 273.731L236.097 270.569L239.191 268.293L244.676 266.197L247.735 265.634L252.963 265.582L257.931 266.818L259.959 267.519L261.196 267.789L262.998 267.307L264.452 265.731L264.812 263.948L264.543 261.954L263.648 260.757L262.328 259.62L259.711 258.51L256.953 257.84L253.811 257.537L249.454 257.37L245.16 258.168L241.394 259.167L238.035 260.711L234.879 262.527L231.544 265.487L228.959 268.822L226.679 272.186L224.386 278.173L223.685 281.387L223.208 284.521L223.123 290.57L224.762 296.785L226.027 299.733L227.432 302.241L229.163 305.437L231.419 307.572L227.063 307.909L222.932 308.925L218.155 310.837L211.843 314.468L206.99 318.039L202.746 322.173L199.636 326.063L196.893 330.694L195.08 334.305L194.117 337.796L193.57 330.525L194.115 322.704L195.46 310.921L198.813 299.937L201.224 292.598L204.608 285.302L208.864 278.293L212.315 273.477L216.9 268.164L220.862 264.407L225.633 260.475L229.537 258.025L234.129 255.489L237.53 254L243.543 252.358L246.926 251.725L250.168 251.785L256.977 251.836L262.512 253.076L267.462 254.916L272.009 257.726L275.483 260.989L278.33 264.797L280.063 268.497L281.268 271.743L281.992 277.113L281.823 281.791L280.263 289.01L277.279 294.577L275.098 297.194L271.966 300.425L268.994 302.612L265.877 303.978L261.281 305.503L257.695 305.612L254.635 305.418L251.35 304.546L248.873 302.995L246.13 300.207L243.503 295.815L242.807 293.123L242.356 291.262L242.632 288.614L242.952 287.282L243.959 284.855L245.453 283.081Z" fill="#8C775E" stroke="#8C775E"/>
<path d="M312.11 233.444L313.462 234.424L314.142 235.785L314.127 237.736L313.928 239.124L313.429 240.391L313.2 238.178L312.316 237.333L311.167 236.87L309.471 237.058L307.831 238.137L306.964 239.31L306.299 240.999L306.62 242.978L307.455 245.271L309.085 247.015L311.368 248.424L313.81 249.135L316.405 249.31L318.292 248.928L320.246 248.084L322.232 246.274L323.495 244.39L324.363 242.185L324.874 239.563L324.789 237.571L324.471 234.997L323.815 232.395L322.881 230.061L321.921 228.968L319.378 226.748L317.471 225.708L315.379 225.137L313.469 224.694L310.974 224.559L309.242 224.84L307.528 225.075L305.301 226.026L302.701 227.481L300.465 229.19L298.42 231.737L296.988 234.64L295.766 237.302L295.058 240.279L295.243 237.308L296.046 234.533L296.84 232.515L297.866 230.644L300.046 227.607L303.51 224.544L306.825 222.889L310.295 222.165L313.369 222.153L316.359 222.65L318.908 223.676L322.232 226.266L323.712 227.949L325.68 231.188L326.758 234.776L327.078 236.318L327.369 237.197L328.334 238.129L329.844 238.411L331.077 237.929L332.207 236.97L332.613 235.937L332.825 234.664L332.54 232.592L331.932 230.607L330.955 228.528L329.444 225.745L327.362 223.384L325.351 221.432L323.154 219.949L320.866 218.702L317.806 217.796L314.793 217.506L311.874 217.418L307.333 218.363L305.092 219.2L302.983 220.145L299.222 222.491L295.997 225.977L294.647 227.934L293.621 229.805L292.292 232.151L291.811 234.404L289.99 231.822L287.834 229.649L284.885 227.429L280.308 224.933L276.309 223.323L272.189 222.316L268.639 221.919L264.767 222.046L261.869 222.346L259.359 223.13L263.64 219.906L268.664 217.145L276.428 213.312L284.442 211.048L289.86 209.641L295.612 208.858L301.51 208.732L305.758 208.975L310.731 209.727L314.515 210.707L318.707 212.123L321.663 213.586L324.928 215.444L327.106 216.973L330.345 220.072L331.988 221.93L333.152 223.975L335.643 228.241L336.928 232.184L337.627 235.999L337.578 239.949L336.854 243.408L335.56 246.694L333.921 249.241L332.366 251.279L329.323 253.86L326.376 255.609L321.347 257.499L316.809 257.846L314.388 257.523L311.236 256.852L308.786 255.866L306.79 254.464L304.147 252.203L302.752 250.01L301.738 248.025L301.059 245.631L301.098 243.472L301.801 240.656L303.536 237.277L304.938 235.776L305.918 234.757L307.653 233.879L308.593 233.55L310.462 233.216L312.11 233.444Z" fill="#8C775E" stroke="#8C775E"/>
<path d="M142.224 189.86L143.545 189.354L144.874 189.54L146.359 190.542L147.337 191.394L148.095 192.408L146.306 191.455L145.286 191.681L144.445 192.299L143.871 193.653L144.002 195.418L144.533 196.658L145.543 198.009L147.192 198.775L149.299 199.32L151.322 198.995L153.365 198.016L154.942 196.565L156.173 194.728L156.68 193.133L156.861 191.254L156.317 188.861L155.411 186.967L154.091 185.203L152.303 183.493L150.744 182.545L148.64 181.474L146.374 180.639L144.194 180.148L142.952 180.305L140.179 181.065L138.577 181.953L137.255 183.216L136.108 184.408L134.95 186.192L134.432 187.62L133.886 189.011L133.672 191.147L133.684 193.815L134.045 196.343L135.128 199.154L136.742 201.691L138.26 203.949L140.237 205.986L138.044 204.341L136.261 202.335L135.054 200.721L134.058 199.01L132.657 195.85L131.781 191.724L131.917 188.423L132.832 185.48L134.123 183.192L135.768 181.226L137.631 179.855L141.017 178.702L142.93 178.459L146.24 178.643L149.439 179.664L150.754 180.21L151.549 180.44L152.67 180.197L153.525 179.219L153.677 178.06L153.422 176.734L152.804 175.908L151.92 175.104L150.215 174.264L148.44 173.707L146.437 173.377L143.67 173.085L140.984 173.432L138.64 173.934L136.578 174.811L134.655 175.876L132.668 177.687L131.172 179.777L129.87 181.899L128.671 185.748L128.364 187.837L128.194 189.882L128.397 193.864L129.698 198.028L130.624 200.023L131.62 201.734L132.852 203.912L134.371 205.413L131.626 205.454L129.053 205.951L126.108 207.012L122.263 209.142L119.34 211.292L116.827 213.839L115.022 216.273L113.481 219.211L112.485 221.514L112.023 223.775L111.368 218.961L111.382 213.83L111.735 206.122L113.394 199.024L114.61 194.288L116.445 189.622L118.844 185.18L120.826 182.151L123.506 178.841L125.856 176.531L128.712 174.139L131.081 172.687L133.883 171.207L135.973 170.368L139.713 169.537L141.829 169.26L143.885 169.435L148.2 169.752L151.759 170.8L154.973 172.218L157.972 174.26L160.311 176.554L162.276 179.182L163.53 181.692L164.431 183.881L165.117 187.45L165.208 190.525L164.525 195.217L162.871 198.761L161.601 200.395L159.754 202.394L157.963 203.711L156.047 204.48L153.2 205.294L150.933 205.216L148.986 204.961L146.868 204.25L145.234 203.125L143.378 201.173L141.528 198.169L140.973 196.367L140.609 195.122L140.671 193.388L140.818 192.524L141.353 190.967L142.224 189.86Z" fill="#8C775E" stroke="#8C775E"/>
<path d="M124.275 285.432L125.664 286.245L126.455 287.363L126.644 288.956L126.601 290.087L126.259 291.116L125.809 289.307L124.879 288.608L123.736 288.219L122.143 288.354L120.694 289.218L119.992 290.167L119.536 291.539L120.049 293.157L121.083 295.038L122.818 296.478L125.138 297.651L127.537 298.257L130.025 298.426L131.781 298.134L133.552 297.465L135.253 296.008L136.258 294.483L136.853 292.692L137.065 290.557L136.775 288.931L136.203 286.826L135.306 284.695L134.172 282.781L133.145 281.879L130.492 280.04L128.568 279.172L126.517 278.685L124.653 278.304L122.264 278.168L120.645 278.38L119.038 278.553L117.018 279.307L114.696 280.467L112.747 281.84L111.067 283.898L110.008 286.253L109.124 288.413L108.762 290.836L108.626 288.413L109.1 286.155L109.645 284.516L110.425 283L112.182 280.544L115.158 278.079L118.14 276.762L121.367 276.207L124.291 276.228L127.188 276.665L129.722 277.529L133.157 279.676L134.742 281.065L136.955 283.73L138.357 286.669L138.822 287.931L139.191 288.651L140.207 289.422L141.675 289.668L142.797 289.287L143.772 288.516L144.051 287.677L144.119 286.64L143.631 284.945L142.844 283.319L141.696 281.612L139.967 279.325L137.738 277.377L135.619 275.763L133.374 274.53L131.065 273.488L128.058 272.717L125.159 272.45L122.372 272.349L118.149 273.073L116.104 273.733L114.195 274.483L110.862 276.359L108.157 279.171L107.078 280.755L106.297 282.271L105.278 284.173L105.056 286.007L103.052 283.881L100.773 282.085L97.734 280.242L93.1164 278.158L89.1416 276.803L85.1142 275.939L81.6938 275.579L78.022 275.642L75.2952 275.858L72.9892 276.472L76.7254 273.884L81.2185 271.682L88.2057 268.633L95.5961 266.867L100.606 265.774L105.998 265.194L111.599 265.152L115.667 265.394L120.479 266.059L124.183 266.898L128.321 268.096L131.288 269.321L134.59 270.871L136.823 272.142L140.23 274.704L141.989 276.237L143.311 277.919L146.128 281.426L147.765 284.658L148.829 287.779L149.196 291.002L148.869 293.819L147.982 296.487L146.689 298.55L145.422 300.197L142.796 302.272L140.175 303.67L135.586 305.161L131.304 305.398L128.965 305.11L125.895 304.529L123.46 303.699L121.413 302.534L118.661 300.662L117.104 298.858L115.931 297.227L115.034 295.266L114.845 293.504L115.219 291.213L116.517 288.472L117.693 287.261L118.52 286.44L120.079 285.741L120.94 285.482L122.683 285.228L124.275 285.432Z" fill="#8C775E" stroke="#8C775E"/>
<mask id="path-12-inside-1_68:68" fill="white">
<path d="M190.507 282.706L193.757 280.79L191.988 281.108L189.49 282.207L187.901 283.108L185.738 284.42L183.653 285.918L181.372 287.914L178.672 290.447L176.014 293.593L173.649 296.587L172.312 298.701L170.545 301.494L168.372 305.67L167.214 308.862L166.415 311.24L165.652 314.427L165.218 317.034L165.022 319.263L165.041 321.647L165.264 323.34L165.72 325.84L166.534 328.021L167.982 329.821L169.662 331.191L171.163 331.731L172.496 331.792L173.589 331.488L174.808 330.801L175.859 329.635L174.09 329.953L173.313 329.819L172.476 329.655L171.641 328.906L171.316 327.897L171.333 326.57L171.708 324.924L172.562 323.265L173.619 321.904L174.939 320.801L176.563 319.91L178.033 319.488L179.358 319.616L180.367 319.871L181.57 320.679L182.333 321.635L182.692 322.801L182.992 323.938L183.196 324.978L183.095 326.561L183.65 324.261L183.756 322.73L183.743 321.14L183.784 319.775L183.741 318.171L183.519 316.231L183.368 314.425L182.99 312.854L182.685 311.418L182.181 309.488L181.487 308.355L180.363 307.407L179.107 306.79L177.518 307.196L176.108 308.186L175.021 309.532L174.556 311.134L174.569 312.476L174.701 313.382L175.43 314.087L176.375 314.205L177.349 313.842L178.442 312.796L177.678 314.004L176.626 314.674L175.443 315.181L173.949 314.942L173.171 314.065L172.74 312.765L172.715 311.565L172.852 310.296L173.544 308.212L174.642 306.476L176.178 305.35L177.695 304.315L179.212 303.279L180.407 301.887L181.362 300.378L181.839 299.128L181.833 298.086L181.145 297.5L180.278 297.569L179.185 298.615L178.457 300.137L178.271 299.254L178.528 298.292L179.411 296.896L180.505 296.097L181.855 295.078L183.151 294.33L184.441 293.034L185.134 291.94L185.587 290.481L185.24 289.419L184.851 289.228L183.973 289.687L183.22 290.505L183.733 289.075L184.521 287.829L185.752 286.504L187.962 284.622L190.507 282.706Z"/>
</mask>
<path d="M190.507 282.706L193.757 280.79L191.988 281.108L189.49 282.207L187.901 283.108L185.738 284.42L183.653 285.918L181.372 287.914L178.672 290.447L176.014 293.593L173.649 296.587L172.312 298.701L170.545 301.494L168.372 305.67L167.214 308.862L166.415 311.24L165.652 314.427L165.218 317.034L165.022 319.263L165.041 321.647L165.264 323.34L165.72 325.84L166.534 328.021L167.982 329.821L169.662 331.191L171.163 331.731L172.496 331.792L173.589 331.488L174.808 330.801L175.859 329.635L174.09 329.953L173.313 329.819L172.476 329.655L171.641 328.906L171.316 327.897L171.333 326.57L171.708 324.924L172.562 323.265L173.619 321.904L174.939 320.801L176.563 319.91L178.033 319.488L179.358 319.616L180.367 319.871L181.57 320.679L182.333 321.635L182.692 322.801L182.992 323.938L183.196 324.978L183.095 326.561L183.65 324.261L183.756 322.73L183.743 321.14L183.784 319.775L183.741 318.171L183.519 316.231L183.368 314.425L182.99 312.854L182.685 311.418L182.181 309.488L181.487 308.355L180.363 307.407L179.107 306.79L177.518 307.196L176.108 308.186L175.021 309.532L174.556 311.134L174.569 312.476L174.701 313.382L175.43 314.087L176.375 314.205L177.349 313.842L178.442 312.796L177.678 314.004L176.626 314.674L175.443 315.181L173.949 314.942L173.171 314.065L172.74 312.765L172.715 311.565L172.852 310.296L173.544 308.212L174.642 306.476L176.178 305.35L177.695 304.315L179.212 303.279L180.407 301.887L181.362 300.378L181.839 299.128L181.833 298.086L181.145 297.5L180.278 297.569L179.185 298.615L178.457 300.137L178.271 299.254L178.528 298.292L179.411 296.896L180.505 296.097L181.855 295.078L183.151 294.33L184.441 293.034L185.134 291.94L185.587 290.481L185.24 289.419L184.851 289.228L183.973 289.687L183.22 290.505L183.733 289.075L184.521 287.829L185.752 286.504L187.962 284.622L190.507 282.706Z" fill="#8C775E" stroke="#8C775E" stroke-width="2" mask="url(#path-12-inside-1_68:68)"/>
<mask id="path-13-inside-2_68:68" fill="white">
<path d="M210.661 321.884L208.312 320.114L209.121 321.39L210.684 322.911L211.809 323.792L213.397 324.953L215.079 325.972L217.15 326.934L219.712 327.997L222.657 328.762L225.403 329.359L227.229 329.516L229.642 329.722L233.089 329.655L235.552 329.202L237.366 328.814L239.692 328.048L241.529 327.27L243.041 326.464L244.58 325.42L245.601 324.512L247.066 323.068L248.202 321.476L248.875 319.543L249.191 317.609L249.029 316.178L248.614 315.086L248.045 314.344L247.184 313.667L246.07 313.33L246.879 314.606L247.057 315.285L247.236 316.024L247.035 317.015L246.492 317.71L245.626 318.27L244.431 318.68L243.065 318.714L241.823 318.457L240.658 317.879L239.527 316.965L238.753 315.973L238.384 314.86L238.205 313.944L238.319 312.634L238.678 311.612L239.312 310.821L239.946 310.091L240.551 309.48L241.612 308.876L239.932 309.427L238.903 310.002L237.877 310.699L236.978 311.255L235.953 311.982L234.772 312.997L233.653 313.897L232.763 314.876L231.936 315.741L230.857 316.976L230.36 318.019L230.128 319.326L230.156 320.596L230.961 321.69L232.083 322.39L233.326 322.677L234.523 322.357L235.388 321.767L235.93 321.271L236.139 320.384L235.893 319.578L235.326 318.957L234.276 318.535L235.319 318.624L236.112 319.175L236.844 319.901L237.198 321.198L236.895 322.198L236.199 323.104L235.43 323.641L234.561 324.08L232.974 324.427L231.474 324.298L230.221 323.558L229.033 322.792L227.845 322.027L226.535 321.674L225.231 321.562L224.259 321.72L223.585 322.175L223.44 322.977L223.78 323.64L224.831 324.062L226.066 323.986L225.557 324.516L224.846 324.726L223.639 324.623L222.749 324.095L221.629 323.456L220.702 322.743L219.423 322.271L218.477 322.191L217.377 322.458L216.807 323.194L216.816 323.587L217.413 324.09L218.199 324.339L217.097 324.546L216.022 324.454L214.743 324.043L212.77 323.09L210.661 321.884Z"/>
</mask>
<path d="M210.661 321.884L208.312 320.114L209.121 321.39L210.684 322.911L211.809 323.792L213.397 324.953L215.079 325.972L217.15 326.934L219.712 327.997L222.657 328.762L225.403 329.359L227.229 329.516L229.642 329.722L233.089 329.655L235.552 329.202L237.366 328.814L239.692 328.048L241.529 327.27L243.041 326.464L244.58 325.42L245.601 324.512L247.066 323.068L248.202 321.476L248.875 319.543L249.191 317.609L249.029 316.178L248.614 315.086L248.045 314.344L247.184 313.667L246.07 313.33L246.879 314.606L247.057 315.285L247.236 316.024L247.035 317.015L246.492 317.71L245.626 318.27L244.431 318.68L243.065 318.714L241.823 318.457L240.658 317.879L239.527 316.965L238.753 315.973L238.384 314.86L238.205 313.944L238.319 312.634L238.678 311.612L239.312 310.821L239.946 310.091L240.551 309.48L241.612 308.876L239.932 309.427L238.903 310.002L237.877 310.699L236.978 311.255L235.953 311.982L234.772 312.997L233.653 313.897L232.763 314.876L231.936 315.741L230.857 316.976L230.36 318.019L230.128 319.326L230.156 320.596L230.961 321.69L232.083 322.39L233.326 322.677L234.523 322.357L235.388 321.767L235.93 321.271L236.139 320.384L235.893 319.578L235.326 318.957L234.276 318.535L235.319 318.624L236.112 319.175L236.844 319.901L237.198 321.198L236.895 322.198L236.199 323.104L235.43 323.641L234.561 324.08L232.974 324.427L231.474 324.298L230.221 323.558L229.033 322.792L227.845 322.027L226.535 321.674L225.231 321.562L224.259 321.72L223.585 322.175L223.44 322.977L223.78 323.64L224.831 324.062L226.066 323.986L225.557 324.516L224.846 324.726L223.639 324.623L222.749 324.095L221.629 323.456L220.702 322.743L219.423 322.271L218.477 322.191L217.377 322.458L216.807 323.194L216.816 323.587L217.413 324.09L218.199 324.339L217.097 324.546L216.022 324.454L214.743 324.043L212.77 323.09L210.661 321.884Z" fill="#8C775E" stroke="#8C775E" stroke-width="2" mask="url(#path-13-inside-2_68:68)"/>
<mask id="path-14-inside-3_68:68" fill="white">
<path d="M88.4474 188.129L90.6803 191.17L90.1858 189.442L88.8421 187.067L87.7856 185.577L86.2626 183.557L84.5617 181.634L82.3466 179.564L79.5554 177.133L76.1572 174.805L72.9405 172.753L70.7032 171.635L67.7468 170.158L63.3727 168.417L60.081 167.586L57.6347 167.03L54.3867 166.592L51.7496 166.422L49.512 166.451L47.1416 166.711L45.48 167.102L43.0386 167.807L40.9502 168.837L39.3051 170.458L38.1111 172.268L37.7253 173.815L37.7984 175.148L38.2105 176.205L39.0171 177.349L40.2826 178.277L39.7881 176.549L39.8437 175.762L39.9226 174.913L40.5841 174.007L41.5548 173.582L42.8772 173.465L44.5528 173.673L46.2888 174.355L47.7489 175.27L48.9798 176.473L50.0296 177.999L50.5966 179.419L50.6029 180.75L50.4508 181.78L49.7684 183.058L48.8937 183.913L47.7696 184.388L46.6688 184.8L45.6543 185.108L44.0689 185.167L46.4134 185.487L47.9472 185.439L49.5275 185.266L50.8899 185.17L52.4818 184.966L54.3895 184.549L56.1709 184.217L57.6959 183.684L59.0945 183.235L60.9637 182.54L62.0208 181.735L62.8512 180.521L63.3388 179.21L62.7747 177.669L61.6485 176.366L60.2 175.42L58.5592 175.119L57.2252 175.267L56.337 175.489L55.7091 176.286L55.6869 177.238L56.1455 178.17L57.2963 179.152L56.0178 178.514L55.2447 177.535L54.6212 176.409L54.7093 174.898L55.5035 174.036L56.7539 173.476L57.9449 173.331L59.221 173.339L61.3643 173.818L63.2021 174.736L64.4765 176.15L65.6593 177.556L66.8422 178.962L68.3474 180.01L69.9454 180.809L71.2368 181.158L72.2732 181.046L72.7864 180.303L72.6306 179.448L71.4799 178.465L69.8921 177.894L70.7519 177.62L71.7353 177.779L73.2135 178.517L74.1181 179.525L75.2675 180.765L76.1423 181.98L77.5611 183.133L78.7197 183.712L80.2174 184.016L81.2383 183.564L81.3892 183.158L80.8442 182.33L79.9551 181.664L81.4295 182.031L82.7479 182.689L84.1899 183.78L86.2852 185.79L88.4474 188.129Z"/>
</mask>
<path d="M88.4474 188.129L90.6803 191.17L90.1858 189.442L88.8421 187.067L87.7856 185.577L86.2626 183.557L84.5617 181.634L82.3466 179.564L79.5554 177.133L76.1572 174.805L72.9405 172.753L70.7032 171.635L67.7468 170.158L63.3727 168.417L60.081 167.586L57.6347 167.03L54.3867 166.592L51.7496 166.422L49.512 166.451L47.1416 166.711L45.48 167.102L43.0386 167.807L40.9502 168.837L39.3051 170.458L38.1111 172.268L37.7253 173.815L37.7984 175.148L38.2105 176.205L39.0171 177.349L40.2826 178.277L39.7881 176.549L39.8437 175.762L39.9226 174.913L40.5841 174.007L41.5548 173.582L42.8772 173.465L44.5528 173.673L46.2888 174.355L47.7489 175.27L48.9798 176.473L50.0296 177.999L50.5966 179.419L50.6029 180.75L50.4508 181.78L49.7684 183.058L48.8937 183.913L47.7696 184.388L46.6688 184.8L45.6543 185.108L44.0689 185.167L46.4134 185.487L47.9472 185.439L49.5275 185.266L50.8899 185.17L52.4818 184.966L54.3895 184.549L56.1709 184.217L57.6959 183.684L59.0945 183.235L60.9637 182.54L62.0208 181.735L62.8512 180.521L63.3388 179.21L62.7747 177.669L61.6485 176.366L60.2 175.42L58.5592 175.119L57.2252 175.267L56.337 175.489L55.7091 176.286L55.6869 177.238L56.1455 178.17L57.2963 179.152L56.0178 178.514L55.2447 177.535L54.6212 176.409L54.7093 174.898L55.5035 174.036L56.7539 173.476L57.9449 173.331L59.221 173.339L61.3643 173.818L63.2021 174.736L64.4765 176.15L65.6593 177.556L66.8422 178.962L68.3474 180.01L69.9454 180.809L71.2368 181.158L72.2732 181.046L72.7864 180.303L72.6306 179.448L71.4799 178.465L69.8921 177.894L70.7519 177.62L71.7353 177.779L73.2135 178.517L74.1181 179.525L75.2675 180.765L76.1423 181.98L77.5611 183.133L78.7197 183.712L80.2174 184.016L81.2383 183.564L81.3892 183.158L80.8442 182.33L79.9551 181.664L81.4295 182.031L82.7479 182.689L84.1899 183.78L86.2852 185.79L88.4474 188.129Z" fill="#8C775E" stroke="#8C775E" stroke-width="2" mask="url(#path-14-inside-3_68:68)"/>
<path d="M92.5937 141.322L94.0753 141.502L95.2042 142.289L96.0535 143.859L96.5117 145.061L96.6836 146.299L95.5291 144.629L94.4703 144.347L93.3734 144.49L92.14 145.399L91.3423 146.998L91.1868 148.327L91.4161 149.978L92.5388 151.42L94.1989 152.884L96.2339 153.552L98.628 153.659L100.838 153.137L102.93 152.116L104.226 150.965L105.371 149.414L106.114 147.074L106.263 144.999L105.964 142.843L105.203 140.513L104.259 138.955L102.875 137.034L101.218 135.242L99.4627 133.79L98.2353 133.343L95.2814 132.702L93.342 132.722L91.4662 133.201L89.7875 133.701L87.7911 134.71L86.5704 135.71L85.3433 136.665L84.0338 138.425L82.6577 140.754L81.6758 143.124L81.2123 146.081L81.3815 149.049L81.6079 151.729L82.3716 154.432L81.2041 151.968L80.6026 149.384L80.3287 147.412L80.2996 145.453L80.6517 142.044L81.9893 138.038L83.8327 135.228L86.2073 133.095L88.5884 131.709L91.1286 130.77L93.5608 130.451L97.2841 131.039L99.1761 131.725L102.133 133.441L104.554 135.833L105.482 136.926L106.096 137.5L107.257 137.815L108.554 137.365L109.297 136.427L109.752 135.153L109.612 134.144L109.214 133.028L108.079 131.495L106.73 130.176L105.054 128.948L102.653 127.393L99.9951 126.433L97.5722 125.769L95.213 125.564L92.8856 125.588L90.1101 126.231L87.6431 127.348L85.3382 128.584L82.2294 131.373L80.8594 133.047L79.6389 134.749L77.7543 138.312L76.7888 142.549L76.6049 144.722L76.634 146.68L76.6377 149.156L77.2582 151.177L74.7048 149.923L72.072 149.146L68.8034 148.686L64.1486 148.734L60.3334 149.234L56.6899 150.271L53.7588 151.542L50.8086 153.376L48.6915 154.914L47.0894 156.666L48.9897 152.166L51.6721 147.704L56.0074 141.157L61.23 135.756L64.8156 132.204L68.9354 129.002L73.4592 126.261L76.864 124.554L81.0573 122.931L84.4274 122.023L88.3061 121.282L91.2471 121.131L94.6015 121.159L96.9671 121.41L100.849 122.444L102.945 123.197L104.751 124.316L108.567 126.619L111.305 129.204L113.531 131.949L115.236 135.136L116.201 138.233L116.646 141.445L116.498 144.221L116.19 146.55L114.967 149.98L113.451 152.701L110.38 156.466L107.01 158.776L104.988 159.601L102.245 160.474L99.9079 160.779L97.7394 160.549L94.6902 159.921L92.6391 158.787L90.976 157.65L89.3922 156.036L88.4698 154.288L87.7729 151.716L87.629 148.232L88.0546 146.401L88.3659 145.145L89.3257 143.665L89.9106 142.981L91.2139 141.876L92.5937 141.322Z" fill="#8C775E" stroke="#8C775E"/>
<path d="M312.328 147.23L314.152 146.869L315.725 147.277L317.183 148.613L318.07 149.705L318.624 150.944L316.772 149.616L315.425 149.713L314.153 150.27L312.933 151.683L312.428 153.66L312.616 155.114L313.355 156.765L315.104 157.863L317.503 158.787L320.127 158.734L323.023 157.958L325.52 156.589L327.736 154.739L328.965 153.049L329.898 150.994L330.129 148.259L329.724 146.023L328.758 143.867L327.193 141.701L325.623 140.414L323.427 138.908L320.939 137.639L318.43 136.764L316.835 136.75L313.119 137.172L310.804 137.913L308.693 139.113L306.825 140.261L304.719 142.062L303.54 143.566L302.34 145.025L301.268 147.361L300.276 150.319L299.768 153.175L300.046 156.455L301.083 159.511L302.109 162.244L303.783 164.802L301.693 162.646L300.246 160.153L299.363 158.181L298.777 156.134L298.239 152.419L298.712 147.713L300.128 144.075L302.369 140.952L304.829 138.612L307.605 136.682L310.426 135.445L315.048 134.681L317.506 134.701L321.528 135.406L325.098 137.023L326.517 137.827L327.413 138.203L328.891 138.103L330.317 137.149L330.943 135.887L331.128 134.379L330.676 133.371L329.886 132.345L328.096 131.155L326.111 130.27L323.759 129.6L320.448 128.857L316.997 128.834L313.91 129.035L311.028 129.695L308.25 130.584L305.109 132.29L302.47 134.379L300.06 136.533L297.124 140.619L295.955 142.887L294.973 145.128L293.721 149.572L293.757 154.384L294.149 156.736L294.735 158.783L295.436 161.384L296.747 163.278L293.338 162.907L289.969 163.067L285.927 163.797L280.37 165.575L275.944 167.515L271.875 169.957L268.724 172.381L265.71 175.403L263.609 177.806L262.184 180.241L263.192 174.806L265.147 169.121L268.493 160.632L273.224 153.017L276.516 147.953L280.545 143.059L285.188 138.499L288.783 135.442L293.345 132.18L297.123 129.975L301.557 127.757L305.034 126.507L309.057 125.292L311.959 124.678L316.896 124.324L319.616 124.339L322.093 124.844L327.308 125.849L331.313 127.55L334.75 129.609L337.688 132.327L339.713 135.224L341.151 138.435L341.754 141.407L342.041 143.97L341.542 148.029L340.493 151.451L337.878 156.548L334.495 160.225L332.307 161.843L329.269 163.778L326.558 164.967L323.898 165.529L320.072 166L317.298 165.57L314.987 164.992L312.637 163.883L311.041 162.388L309.484 159.943L308.331 156.334L308.325 154.252L308.344 152.817L309.076 150.905L309.584 149.969L310.833 148.324L312.328 147.23Z" fill="#8C775E" stroke="#8C775E"/>
<mask id="path-17-inside-4_68:68" fill="white">
<path d="M285.236 185.509L281.211 183.211L282.582 184.814L285.251 186.762L287.179 187.903L289.9 189.414L292.787 190.758L296.35 192.055L300.758 193.506L305.838 194.617L310.578 195.511L313.734 195.812L317.904 196.211L323.873 196.339L328.146 195.937L331.294 195.575L335.338 194.783L338.536 193.947L341.171 193.057L343.858 191.878L345.647 190.834L348.216 189.165L350.22 187.295L351.43 184.981L352.02 182.645L351.774 180.891L351.081 179.537L350.113 178.598L348.639 177.721L346.719 177.243L348.089 178.846L348.381 179.684L348.674 180.595L348.303 181.79L347.347 182.604L345.835 183.232L343.758 183.66L341.393 183.618L339.249 183.229L337.245 182.454L335.309 181.273L333.993 180.017L333.38 178.638L333.092 177.512L333.319 175.924L333.965 174.7L335.08 173.776L336.195 172.925L337.256 172.217L339.106 171.547L336.185 172.115L334.392 172.753L332.6 173.539L331.032 174.163L329.24 174.986L327.172 176.15L325.214 177.178L323.652 178.317L322.201 179.32L320.304 180.758L319.419 181.999L318.988 183.578L319.007 185.125L320.375 186.508L322.3 187.428L324.444 187.853L326.523 187.536L328.035 186.871L328.985 186.299L329.366 185.231L328.96 184.235L327.993 183.443L326.185 182.866L327.988 183.038L329.348 183.757L330.598 184.686L331.18 186.287L330.632 187.487L329.407 188.548L328.063 189.156L326.549 189.637L323.795 189.963L321.202 189.715L319.051 188.737L317.012 187.733L314.973 186.728L312.715 186.218L310.461 186.003L308.774 186.136L307.598 186.65L307.329 187.618L307.902 188.446L309.71 189.023L311.849 189.007L310.956 189.621L309.72 189.834L307.635 189.635L306.106 188.937L304.182 188.091L302.594 187.166L300.391 186.514L298.757 186.358L296.846 186.617L295.843 187.479L295.849 187.958L296.87 188.607L298.226 188.958L296.314 189.143L294.454 188.966L292.252 188.387L288.858 187.106L285.236 185.509Z"/>
</mask>
<path d="M285.236 185.509L281.211 183.211L282.582 184.814L285.251 186.762L287.179 187.903L289.9 189.414L292.787 190.758L296.35 192.055L300.758 193.506L305.838 194.617L310.578 195.511L313.734 195.812L317.904 196.211L323.873 196.339L328.146 195.937L331.294 195.575L335.338 194.783L338.536 193.947L341.171 193.057L343.858 191.878L345.647 190.834L348.216 189.165L350.22 187.295L351.43 184.981L352.02 182.645L351.774 180.891L351.081 179.537L350.113 178.598L348.639 177.721L346.719 177.243L348.089 178.846L348.381 179.684L348.674 180.595L348.303 181.79L347.347 182.604L345.835 183.232L343.758 183.66L341.393 183.618L339.249 183.229L337.245 182.454L335.309 181.273L333.993 180.017L333.38 178.638L333.092 177.512L333.319 175.924L333.965 174.7L335.08 173.776L336.195 172.925L337.256 172.217L339.106 171.547L336.185 172.115L334.392 172.753L332.6 173.539L331.032 174.163L329.24 174.986L327.172 176.15L325.214 177.178L323.652 178.317L322.201 179.32L320.304 180.758L319.419 181.999L318.988 183.578L319.007 185.125L320.375 186.508L322.3 187.428L324.444 187.853L326.523 187.536L328.035 186.871L328.985 186.299L329.366 185.231L328.96 184.235L327.993 183.443L326.185 182.866L327.988 183.038L329.348 183.757L330.598 184.686L331.18 186.287L330.632 187.487L329.407 188.548L328.063 189.156L326.549 189.637L323.795 189.963L321.202 189.715L319.051 188.737L317.012 187.733L314.973 186.728L312.715 186.218L310.461 186.003L308.774 186.136L307.598 186.65L307.329 187.618L307.902 188.446L309.71 189.023L311.849 189.007L310.956 189.621L309.72 189.834L307.635 189.635L306.106 188.937L304.182 188.091L302.594 187.166L300.391 186.514L298.757 186.358L296.846 186.617L295.843 187.479L295.849 187.958L296.87 188.607L298.226 188.958L296.314 189.143L294.454 188.966L292.252 188.387L288.858 187.106L285.236 185.509Z" fill="#8C775E" stroke="#8C775E" stroke-width="2" mask="url(#path-17-inside-4_68:68)"/>
<mask id="path-18-inside-5_68:68" fill="white">
<path d="M242.604 48.5619L243.024 52.3111L243.457 50.5666L243.475 47.8383L243.302 46.0195L242.988 43.5094L242.472 40.9941L241.583 38.096L240.375 34.5971L238.588 30.8856L236.822 27.5039L235.439 25.4197L233.613 22.6656L230.688 18.9759L228.248 16.6155L226.404 14.9144L223.807 12.9158L221.605 11.4542L219.65 10.3647L217.466 9.40828L215.831 8.91965L213.362 8.31435L211.039 8.16636L208.804 8.75226L206.867 9.72627L205.762 10.8755L205.161 12.067L204.992 13.1892L205.121 14.5825L205.755 16.0182L206.188 14.2737L206.628 13.6193L207.12 12.9224L208.145 12.4663L209.198 12.5812L210.403 13.1392L211.752 14.1544L212.917 15.6112L213.727 17.1319L214.195 18.7879L214.344 20.6345L214.129 22.1479L213.471 23.3053L212.826 24.122L211.597 24.89L210.413 25.1957L209.201 25.0472L208.041 24.8562L207.009 24.6173L205.605 23.8787L207.478 25.3245L208.831 26.0472L210.288 26.6848L211.517 27.28L212.999 27.8963L214.86 28.4859L216.57 29.0862L218.158 29.3834L219.594 29.6913L221.561 30.0202L222.879 29.8495L224.204 29.2108L225.28 28.3169L225.559 26.7L225.232 25.009L224.447 23.467L223.175 22.3879L221.945 21.8512L221.064 21.6016L220.122 21.9796L219.629 22.7935L219.562 23.8306L220.07 25.2556L219.28 24.0647L219.097 22.8309L219.118 21.5439L219.947 20.2778L221.065 19.9264L222.428 20.0641L223.533 20.5317L224.635 21.1747L226.255 22.6579L227.391 24.3699L227.791 26.2311L228.116 28.0392L228.441 29.8473L229.224 31.5063L230.211 32.995L231.157 33.9413L232.111 34.361L232.926 33.9725L233.217 33.1533L232.709 31.7283L231.617 30.4417L232.499 30.6328L233.273 31.26L234.186 32.6371L234.469 33.9612L234.847 35.6097L235 37.0988L235.655 38.8057L236.371 39.885L237.518 40.895L238.629 41.0116L238.962 40.7349L238.902 39.7457L238.463 38.7248L239.559 39.7774L240.373 41.0056L241.08 42.6699L241.895 45.4563L242.604 48.5619Z"/>
</mask>
<path d="M242.604 48.5619L243.024 52.3111L243.457 50.5666L243.475 47.8383L243.302 46.0195L242.988 43.5094L242.472 40.9941L241.583 38.096L240.375 34.5971L238.588 30.8856L236.822 27.5039L235.439 25.4197L233.613 22.6656L230.688 18.9759L228.248 16.6155L226.404 14.9144L223.807 12.9158L221.605 11.4542L219.65 10.3647L217.466 9.40828L215.831 8.91965L213.362 8.31435L211.039 8.16636L208.804 8.75226L206.867 9.72627L205.762 10.8755L205.161 12.067L204.992 13.1892L205.121 14.5825L205.755 16.0182L206.188 14.2737L206.628 13.6193L207.12 12.9224L208.145 12.4663L209.198 12.5812L210.403 13.1392L211.752 14.1544L212.917 15.6112L213.727 17.1319L214.195 18.7879L214.344 20.6345L214.129 22.1479L213.471 23.3053L212.826 24.122L211.597 24.89L210.413 25.1957L209.201 25.0472L208.041 24.8562L207.009 24.6173L205.605 23.8787L207.478 25.3245L208.831 26.0472L210.288 26.6848L211.517 27.28L212.999 27.8963L214.86 28.4859L216.57 29.0862L218.158 29.3834L219.594 29.6913L221.561 30.0202L222.879 29.8495L224.204 29.2108L225.28 28.3169L225.559 26.7L225.232 25.009L224.447 23.467L223.175 22.3879L221.945 21.8512L221.064 21.6016L220.122 21.9796L219.629 22.7935L219.562 23.8306L220.07 25.2556L219.28 24.0647L219.097 22.8309L219.118 21.5439L219.947 20.2778L221.065 19.9264L222.428 20.0641L223.533 20.5317L224.635 21.1747L226.255 22.6579L227.391 24.3699L227.791 26.2311L228.116 28.0392L228.441 29.8473L229.224 31.5063L230.211 32.995L231.157 33.9413L232.111 34.361L232.926 33.9725L233.217 33.1533L232.709 31.7283L231.617 30.4417L232.499 30.6328L233.273 31.26L234.186 32.6371L234.469 33.9612L234.847 35.6097L235 37.0988L235.655 38.8057L236.371 39.885L237.518 40.895L238.629 41.0116L238.962 40.7349L238.902 39.7457L238.463 38.7248L239.559 39.7774L240.373 41.0056L241.08 42.6699L241.895 45.4563L242.604 48.5619Z" fill="#8C775E" stroke="#8C775E" stroke-width="2" mask="url(#path-18-inside-5_68:68)"/>
<mask id="path-19-inside-6_68:68" fill="white">
<path d="M52.7516 201.846L49.8075 199.487L50.7325 201.028L52.6452 202.973L54.0516 204.14L56.0456 205.696L58.1865 207.114L60.8619 208.539L64.1874 210.165L68.0724 211.533L71.7105 212.682L74.161 213.183L77.3991 213.845L82.075 214.394L85.4695 214.344L87.9763 214.248L91.227 213.83L93.8183 213.312L95.9719 212.704L98.1944 211.84L99.6979 211.031L101.874 209.718L103.624 208.183L104.793 206.191L105.478 204.134L105.45 202.539L105.035 201.271L104.363 200.357L103.288 199.461L101.825 198.892L102.75 200.433L102.9 201.207L103.043 202.048L102.639 203.094L101.812 203.756L100.565 204.211L98.8923 204.444L97.0388 204.235L95.3916 203.729L93.8913 202.886L92.4821 201.684L91.5668 200.459L91.216 199.175L91.0964 198.141L91.4247 196.73L92.0481 195.677L93.0109 194.928L93.9674 194.244L94.8677 193.685L96.3837 193.217L94.0363 193.515L92.5672 193.958L91.0855 194.534L89.7946 194.98L88.3098 195.59L86.575 196.486L84.9402 197.267L83.6054 198.178L82.3707 198.973L80.7452 200.129L79.9324 201.179L79.4446 202.567L79.3132 203.96L80.257 205.302L81.6822 206.269L83.3262 206.808L84.9891 206.674L86.2394 206.186L87.0396 205.741L87.4398 204.809L87.2149 203.884L86.5304 203.102L85.1646 202.451L86.5649 202.737L87.565 203.482L88.4588 204.409L88.765 205.891L88.221 206.929L87.1581 207.793L86.0454 208.242L84.8107 208.565L82.6165 208.657L80.6036 208.246L79.0065 207.21L77.5 206.158L75.9936 205.107L74.2683 204.484L72.518 204.126L71.1802 204.124L70.2081 204.5L69.9048 205.35L70.2766 206.136L71.6425 206.787L73.3241 206.928L72.5645 207.415L71.5736 207.517L69.9546 207.186L68.8201 206.447L67.3886 205.546L66.2291 204.599L64.5601 203.853L63.2911 203.594L61.7658 203.688L60.8968 204.389L60.8561 204.82L61.5968 205.478L62.6282 205.892L61.1091 205.919L59.6651 205.624L57.9898 204.944L55.4457 203.546L52.7516 201.846Z"/>
</mask>
<path d="M52.7516 201.846L49.8075 199.487L50.7325 201.028L52.6452 202.973L54.0516 204.14L56.0456 205.696L58.1865 207.114L60.8619 208.539L64.1874 210.165L68.0724 211.533L71.7105 212.682L74.161 213.183L77.3991 213.845L82.075 214.394L85.4695 214.344L87.9763 214.248L91.227 213.83L93.8183 213.312L95.9719 212.704L98.1944 211.84L99.6979 211.031L101.874 209.718L103.624 208.183L104.793 206.191L105.478 204.134L105.45 202.539L105.035 201.271L104.363 200.357L103.288 199.461L101.825 198.892L102.75 200.433L102.9 201.207L103.043 202.048L102.639 203.094L101.812 203.756L100.565 204.211L98.8923 204.444L97.0388 204.235L95.3916 203.729L93.8913 202.886L92.4821 201.684L91.5668 200.459L91.216 199.175L91.0964 198.141L91.4247 196.73L92.0481 195.677L93.0109 194.928L93.9674 194.244L94.8677 193.685L96.3837 193.217L94.0363 193.515L92.5672 193.958L91.0855 194.534L89.7946 194.98L88.3098 195.59L86.575 196.486L84.9402 197.267L83.6054 198.178L82.3707 198.973L80.7452 200.129L79.9324 201.179L79.4446 202.567L79.3132 203.96L80.257 205.302L81.6822 206.269L83.3262 206.808L84.9891 206.674L86.2394 206.186L87.0396 205.741L87.4398 204.809L87.2149 203.884L86.5304 203.102L85.1646 202.451L86.5649 202.737L87.565 203.482L88.4588 204.409L88.765 205.891L88.221 206.929L87.1581 207.793L86.0454 208.242L84.8107 208.565L82.6165 208.657L80.6036 208.246L79.0065 207.21L77.5 206.158L75.9936 205.107L74.2683 204.484L72.518 204.126L71.1802 204.124L70.2081 204.5L69.9048 205.35L70.2766 206.136L71.6425 206.787L73.3241 206.928L72.5645 207.415L71.5736 207.517L69.9546 207.186L68.8201 206.447L67.3886 205.546L66.2291 204.599L64.5601 203.853L63.2911 203.594L61.7658 203.688L60.8968 204.389L60.8561 204.82L61.5968 205.478L62.6282 205.892L61.1091 205.919L59.6651 205.624L57.9898 204.944L55.4457 203.546L52.7516 201.846Z" fill="#8C775E" stroke="#8C775E" stroke-width="2" mask="url(#path-19-inside-6_68:68)"/>
<mask id="path-20-inside-7_68:68" fill="white">
<path d="M268.507 93.706L271.757 91.7904L269.988 92.1085L267.49 93.2065L265.901 94.1077L263.738 95.4197L261.653 96.9185L259.371 98.9141L256.672 101.447L254.014 104.593L251.649 107.587L250.312 109.701L248.544 112.494L246.372 116.67L245.214 119.862L244.415 122.24L243.652 125.427L243.218 128.034L243.022 130.263L243.041 132.647L243.264 134.34L243.72 136.84L244.534 139.021L245.982 140.821L247.662 142.191L249.163 142.731L250.496 142.792L251.589 142.488L252.808 141.801L253.859 140.635L252.09 140.953L251.313 140.819L250.476 140.655L249.641 139.906L249.315 138.897L249.333 137.57L249.708 135.924L250.562 134.265L251.619 132.904L252.939 131.801L254.563 130.91L256.033 130.488L257.358 130.616L258.367 130.871L259.57 131.679L260.333 132.635L260.692 133.801L260.992 134.938L261.196 135.978L261.095 137.561L261.65 135.261L261.756 133.73L261.743 132.14L261.784 130.775L261.741 129.171L261.519 127.231L261.368 125.425L260.99 123.854L260.684 122.418L260.181 120.488L259.487 119.355L258.363 118.407L257.107 117.79L255.517 118.196L254.108 119.186L253.021 120.532L252.556 122.134L252.568 123.476L252.701 124.382L253.43 125.087L254.375 125.205L255.349 124.842L256.442 123.796L255.678 125.004L254.626 125.674L253.443 126.181L251.949 125.942L251.171 125.065L250.74 123.765L250.715 122.565L250.852 121.296L251.543 119.212L252.642 117.476L254.177 116.35L255.695 115.315L257.212 114.279L258.407 112.887L259.362 111.378L259.839 110.128L259.833 109.086L259.145 108.5L258.278 108.569L257.185 109.615L256.457 111.137L256.271 110.254L256.528 109.292L257.411 107.896L258.504 107.097L259.855 106.078L261.151 105.33L262.441 104.034L263.134 102.94L263.587 101.481L263.24 100.419L262.851 100.228L261.973 100.687L261.22 101.505L261.733 100.075L262.521 98.8293L263.752 97.5043L265.962 95.6219L268.507 93.706Z"/>
</mask>
<path d="M268.507 93.706L271.757 91.7904L269.988 92.1085L267.49 93.2065L265.901 94.1077L263.738 95.4197L261.653 96.9185L259.371 98.9141L256.672 101.447L254.014 104.593L251.649 107.587L250.312 109.701L248.544 112.494L246.372 116.67L245.214 119.862L244.415 122.24L243.652 125.427L243.218 128.034L243.022 130.263L243.041 132.647L243.264 134.34L243.72 136.84L244.534 139.021L245.982 140.821L247.662 142.191L249.163 142.731L250.496 142.792L251.589 142.488L252.808 141.801L253.859 140.635L252.09 140.953L251.313 140.819L250.476 140.655L249.641 139.906L249.315 138.897L249.333 137.57L249.708 135.924L250.562 134.265L251.619 132.904L252.939 131.801L254.563 130.91L256.033 130.488L257.358 130.616L258.367 130.871L259.57 131.679L260.333 132.635L260.692 133.801L260.992 134.938L261.196 135.978L261.095 137.561L261.65 135.261L261.756 133.73L261.743 132.14L261.784 130.775L261.741 129.171L261.519 127.231L261.368 125.425L260.99 123.854L260.684 122.418L260.181 120.488L259.487 119.355L258.363 118.407L257.107 117.79L255.517 118.196L254.108 119.186L253.021 120.532L252.556 122.134L252.568 123.476L252.701 124.382L253.43 125.087L254.375 125.205L255.349 124.842L256.442 123.796L255.678 125.004L254.626 125.674L253.443 126.181L251.949 125.942L251.171 125.065L250.74 123.765L250.715 122.565L250.852 121.296L251.543 119.212L252.642 117.476L254.177 116.35L255.695 115.315L257.212 114.279L258.407 112.887L259.362 111.378L259.839 110.128L259.833 109.086L259.145 108.5L258.278 108.569L257.185 109.615L256.457 111.137L256.271 110.254L256.528 109.292L257.411 107.896L258.504 107.097L259.855 106.078L261.151 105.33L262.441 104.034L263.134 102.94L263.587 101.481L263.24 100.419L262.851 100.228L261.973 100.687L261.22 101.505L261.733 100.075L262.521 98.8293L263.752 97.5043L265.962 95.6219L268.507 93.706Z" fill="#8C775E" stroke="#8C775E" stroke-width="2" mask="url(#path-20-inside-7_68:68)"/>
<mask id="path-21-inside-8_68:68" fill="white">
<path d="M137.236 153.54L134.585 151.88L135.557 153.156L137.351 154.624L138.624 155.454L140.412 156.539L142.288 157.466L144.572 158.297L147.386 159.193L150.58 159.739L153.549 160.126L155.501 160.128L158.08 160.132L161.734 159.754L164.308 159.057L166.199 158.486L168.599 157.47L170.481 156.485L172.014 155.499L173.555 154.259L174.558 153.209L175.985 151.554L177.049 149.772L177.592 147.67L177.755 145.599L177.456 144.101L176.919 142.985L176.249 142.252L175.275 141.613L174.063 141.357L175.035 142.632L175.284 143.334L175.539 144.099L175.414 145.163L174.9 145.946L174.03 146.613L172.798 147.153L171.351 147.311L170.01 147.15L168.721 146.642L167.44 145.778L166.53 144.799L166.039 143.656L165.768 142.704L165.773 141.311L166.064 140.199L166.666 139.308L167.275 138.48L167.862 137.78L168.934 137.049L167.2 137.779L166.159 138.479L165.132 139.306L164.227 139.973L163.204 140.832L162.04 142.009L160.932 143.059L160.075 144.173L159.274 145.16L158.238 146.56L157.802 147.706L157.673 149.108L157.815 150.446L158.767 151.531L160.02 152.17L161.365 152.363L162.607 151.918L163.473 151.219L164.005 150.646L164.147 149.69L163.815 148.861L163.158 148.255L162.005 147.903L163.12 147.905L164.011 148.416L164.853 149.118L165.344 150.456L165.11 151.539L164.452 152.558L163.684 153.194L162.8 153.734L161.147 154.242L159.543 154.24L158.148 153.569L156.818 152.866L155.489 152.163L154.068 151.907L152.674 151.905L151.655 152.158L150.981 152.699L150.898 153.559L151.318 154.229L152.471 154.581L153.775 154.391L153.281 154.996L152.545 155.282L151.256 155.28L150.264 154.801L149.018 154.225L147.97 153.555L146.57 153.171L145.56 153.169L144.415 153.55L143.876 154.378L143.92 154.792L144.599 155.271L145.455 155.463L144.304 155.78L143.154 155.779L141.761 155.458L139.582 154.627L137.236 153.54Z"/>
</mask>
<path d="M137.236 153.54L134.585 151.88L135.557 153.156L137.351 154.624L138.624 155.454L140.412 156.539L142.288 157.466L144.572 158.297L147.386 159.193L150.58 159.739L153.549 160.126L155.501 160.128L158.08 160.132L161.734 159.754L164.308 159.057L166.199 158.486L168.599 157.47L170.481 156.485L172.014 155.499L173.555 154.259L174.558 153.209L175.985 151.554L177.049 149.772L177.592 147.67L177.755 145.599L177.456 144.101L176.919 142.985L176.249 142.252L175.275 141.613L174.063 141.357L175.035 142.632L175.284 143.334L175.539 144.099L175.414 145.163L174.9 145.946L174.03 146.613L172.798 147.153L171.351 147.311L170.01 147.15L168.721 146.642L167.44 145.778L166.53 144.799L166.039 143.656L165.768 142.704L165.773 141.311L166.064 140.199L166.666 139.308L167.275 138.48L167.862 137.78L168.934 137.049L167.2 137.779L166.159 138.479L165.132 139.306L164.227 139.973L163.204 140.832L162.04 142.009L160.932 143.059L160.075 144.173L159.274 145.16L158.238 146.56L157.802 147.706L157.673 149.108L157.815 150.446L158.767 151.531L160.02 152.17L161.365 152.363L162.607 151.918L163.473 151.219L164.005 150.646L164.147 149.69L163.815 148.861L163.158 148.255L162.005 147.903L163.12 147.905L164.011 148.416L164.853 149.118L165.344 150.456L165.11 151.539L164.452 152.558L163.684 153.194L162.8 153.734L161.147 154.242L159.543 154.24L158.148 153.569L156.818 152.866L155.489 152.163L154.068 151.907L152.674 151.905L151.655 152.158L150.981 152.699L150.898 153.559L151.318 154.229L152.471 154.581L153.775 154.391L153.281 154.996L152.545 155.282L151.256 155.28L150.264 154.801L149.018 154.225L147.97 153.555L146.57 153.171L145.56 153.169L144.415 153.55L143.876 154.378L143.92 154.792L144.599 155.271L145.455 155.463L144.304 155.78L143.154 155.779L141.761 155.458L139.582 154.627L137.236 153.54Z" fill="#8C775E" stroke="#8C775E" stroke-width="2" mask="url(#path-21-inside-8_68:68)"/>
<mask id="path-22-inside-9_68:68" fill="white">
<path d="M243.908 159.749L247.177 157.865L245.405 158.166L242.897 159.24L241.299 160.125L239.124 161.416L237.024 162.895L234.723 164.869L231.999 167.375L229.311 170.496L226.918 173.467L225.56 175.567L223.766 178.343L221.553 182.498L220.365 185.679L219.542 188.049L218.749 191.229L218.289 193.831L218.072 196.058L218.068 198.443L218.274 200.137L218.706 202.641L219.499 204.831L220.93 206.644L222.597 208.031L224.092 208.585L225.424 208.659L226.521 208.366L227.746 207.69L228.809 206.535L227.037 206.836L226.261 206.694L225.426 206.522L224.598 205.764L224.282 204.753L224.312 203.425L224.703 201.783L225.573 200.133L226.643 198.782L227.974 197.691L229.606 196.816L231.08 196.409L232.404 196.55L233.41 196.814L234.605 197.633L235.359 198.597L235.707 199.767L235.996 200.906L236.19 201.948L236.074 203.531L236.65 201.236L236.772 199.706L236.774 198.116L236.828 196.751L236.801 195.147L236.597 193.205L236.464 191.398L236.101 189.823L235.809 188.384L235.325 186.449L234.641 185.31L233.526 184.351L232.277 183.722L230.683 184.112L229.264 185.088L228.164 186.424L227.684 188.021L227.683 189.363L227.807 190.271L228.53 190.983L229.473 191.109L230.45 190.756L231.553 189.721L230.778 190.921L229.72 191.582L228.532 192.077L227.04 191.823L226.271 190.939L225.852 189.634L225.839 188.435L225.988 187.167L226.7 185.09L227.815 183.364L229.361 182.254L230.888 181.233L232.416 180.212L233.624 178.832L234.593 177.331L235.083 176.086L235.086 175.044L234.404 174.452L233.537 174.512L232.434 175.548L231.691 177.063L231.514 176.178L231.779 175.218L232.676 173.831L233.777 173.043L235.137 172.037L236.441 171.301L237.743 170.018L238.446 168.93L238.914 167.475L238.577 166.411L238.19 166.216L237.307 166.667L236.547 167.477L237.074 166.052L237.874 164.814L239.117 163.501L241.345 161.64L243.908 159.749Z"/>
</mask>
<path d="M243.908 159.749L247.177 157.865L245.405 158.166L242.897 159.24L241.299 160.125L239.124 161.416L237.024 162.895L234.723 164.869L231.999 167.375L229.311 170.496L226.918 173.467L225.56 175.567L223.766 178.343L221.553 182.498L220.365 185.679L219.542 188.049L218.749 191.229L218.289 193.831L218.072 196.058L218.068 198.443L218.274 200.137L218.706 202.641L219.499 204.831L220.93 206.644L222.597 208.031L224.092 208.585L225.424 208.659L226.521 208.366L227.746 207.69L228.809 206.535L227.037 206.836L226.261 206.694L225.426 206.522L224.598 205.764L224.282 204.753L224.312 203.425L224.703 201.783L225.573 200.133L226.643 198.782L227.974 197.691L229.606 196.816L231.08 196.409L232.404 196.55L233.41 196.814L234.605 197.633L235.359 198.597L235.707 199.767L235.996 200.906L236.19 201.948L236.074 203.531L236.65 201.236L236.772 199.706L236.774 198.116L236.828 196.751L236.801 195.147L236.597 193.205L236.464 191.398L236.101 189.823L235.809 188.384L235.325 186.449L234.641 185.31L233.526 184.351L232.277 183.722L230.683 184.112L229.264 185.088L228.164 186.424L227.684 188.021L227.683 189.363L227.807 190.271L228.53 190.983L229.473 191.109L230.45 190.756L231.553 189.721L230.778 190.921L229.72 191.582L228.532 192.077L227.04 191.823L226.271 190.939L225.852 189.634L225.839 188.435L225.988 187.167L226.7 185.09L227.815 183.364L229.361 182.254L230.888 181.233L232.416 180.212L233.624 178.832L234.593 177.331L235.083 176.086L235.086 175.044L234.404 174.452L233.537 174.512L232.434 175.548L231.691 177.063L231.514 176.178L231.779 175.218L232.676 173.831L233.777 173.043L235.137 172.037L236.441 171.301L237.743 170.018L238.446 168.93L238.914 167.475L238.577 166.411L238.19 166.216L237.307 166.667L236.547 167.477L237.074 166.052L237.874 164.814L239.117 163.501L241.345 161.64L243.908 159.749Z" fill="#8C775E" stroke="#8C775E" stroke-width="2" mask="url(#path-22-inside-9_68:68)"/>
<mask id="path-23-inside-10_68:68" fill="white">
<path d="M169.426 199.264L165.788 198.263L167.248 199.312L169.775 200.342L171.528 200.856L173.975 201.496L176.502 201.951L179.523 202.201L183.221 202.377L187.33 202.096L191.126 201.711L193.574 201.201L196.81 200.526L201.321 199.18L204.419 197.79L206.683 196.71L209.503 195.039L211.677 193.537L213.414 192.127L215.113 190.453L216.174 189.116L217.652 187.049L218.651 184.946L218.937 182.654L218.751 180.494L218.094 179.04L217.211 178.041L216.232 177.467L214.89 177.07L213.321 177.126L214.781 178.175L215.225 178.827L215.69 179.542L215.733 180.663L215.235 181.598L214.27 182.51L212.826 183.386L211.041 183.927L209.328 184.115L207.617 183.935L205.847 183.388L204.522 182.626L203.691 181.586L203.172 180.684L202.915 179.258L203.071 178.044L203.658 176.975L204.266 175.968L204.871 175.098L206.078 174.068L204.04 175.271L202.867 176.26L201.734 177.376L200.725 178.296L199.603 179.444L198.365 180.953L197.173 182.318L196.307 183.683L195.489 184.902L194.453 186.606L194.123 187.893L194.224 189.36L194.655 190.691L196.053 191.55L197.744 191.874L199.467 191.718L200.941 190.937L201.896 189.994L202.455 189.269L202.454 188.254L201.881 187.494L200.943 187.047L199.431 186.99L200.83 186.698L202.043 186.986L203.231 187.483L204.099 188.723L204.01 189.892L203.376 191.106L202.532 191.959L201.526 192.744L199.548 193.697L197.536 194.116L195.659 193.797L193.86 193.428L192.06 193.059L190.229 193.17L188.48 193.534L187.251 194.061L186.507 194.791L186.565 195.693L187.218 196.267L188.73 196.324L190.33 195.788L189.825 196.535L188.955 197.021L187.337 197.358L186.003 197.129L184.332 196.868L182.892 196.458L181.064 196.433L179.796 196.697L178.433 197.387L177.912 198.375L178.046 198.787L178.986 199.099L180.097 199.07L178.713 199.697L177.27 199.998L175.463 200.036L172.573 199.759L169.426 199.264Z"/>
</mask>
<path d="M169.426 199.264L165.788 198.263L167.248 199.312L169.775 200.342L171.528 200.856L173.975 201.496L176.502 201.951L179.523 202.201L183.221 202.377L187.33 202.096L191.126 201.711L193.574 201.201L196.81 200.526L201.321 199.18L204.419 197.79L206.683 196.71L209.503 195.039L211.677 193.537L213.414 192.127L215.113 190.453L216.174 189.116L217.652 187.049L218.651 184.946L218.937 182.654L218.751 180.494L218.094 179.04L217.211 178.041L216.232 177.467L214.89 177.07L213.321 177.126L214.781 178.175L215.225 178.827L215.69 179.542L215.733 180.663L215.235 181.598L214.27 182.51L212.826 183.386L211.041 183.927L209.328 184.115L207.617 183.935L205.847 183.388L204.522 182.626L203.691 181.586L203.172 180.684L202.915 179.258L203.071 178.044L203.658 176.975L204.266 175.968L204.871 175.098L206.078 174.068L204.04 175.271L202.867 176.26L201.734 177.376L200.725 178.296L199.603 179.444L198.365 180.953L197.173 182.318L196.307 183.683L195.489 184.902L194.453 186.606L194.123 187.893L194.224 189.36L194.655 190.691L196.053 191.55L197.744 191.874L199.467 191.718L200.941 190.937L201.896 189.994L202.455 189.269L202.454 188.254L201.881 187.494L200.943 187.047L199.431 186.99L200.83 186.698L202.043 186.986L203.231 187.483L204.099 188.723L204.01 189.892L203.376 191.106L202.532 191.959L201.526 192.744L199.548 193.697L197.536 194.116L195.659 193.797L193.86 193.428L192.06 193.059L190.229 193.17L188.48 193.534L187.251 194.061L186.507 194.791L186.565 195.693L187.218 196.267L188.73 196.324L190.33 195.788L189.825 196.535L188.955 197.021L187.337 197.358L186.003 197.129L184.332 196.868L182.892 196.458L181.064 196.433L179.796 196.697L178.433 197.387L177.912 198.375L178.046 198.787L178.986 199.099L180.097 199.07L178.713 199.697L177.27 199.998L175.463 200.036L172.573 199.759L169.426 199.264Z" fill="#8C775E" stroke="#8C775E" stroke-width="2" mask="url(#path-23-inside-10_68:68)"/>
<mask id="path-24-inside-11_68:68" fill="white">
<path d="M265.908 246.751L267.956 249.919L267.565 248.165L266.365 245.715L265.399 244.164L263.999 242.057L262.415 240.036L260.327 237.839L257.685 235.246L254.431 232.72L251.342 230.481L249.175 229.232L246.311 227.582L242.048 225.584L238.812 224.559L236.403 223.859L233.187 223.228L230.564 222.902L228.329 222.799L225.947 222.917L224.265 223.209L221.786 223.768L219.641 224.671L217.902 226.192L216.603 227.928L216.126 229.45L216.119 230.784L216.468 231.864L217.205 233.053L218.413 234.055L218.022 232.301L218.125 231.519L218.254 230.676L218.968 229.811L219.962 229.444L221.289 229.406L222.95 229.713L224.642 230.497L226.045 231.497L227.203 232.771L228.16 234.357L228.641 235.808L228.569 237.137L228.356 238.156L227.599 239.391L226.675 240.193L225.524 240.6L224.401 240.946L223.37 241.193L221.784 241.158L224.105 241.617L225.639 241.66L227.227 241.581L228.593 241.566L230.194 241.457L232.123 241.154L233.921 240.929L235.475 240.487L236.898 240.122L238.805 239.539L239.908 238.799L240.809 237.636L241.374 236.356L240.902 234.785L239.855 233.417L238.465 232.387L236.845 231.988L235.505 232.057L234.605 232.226L233.931 232.984L233.852 233.933L234.255 234.891L235.345 235.94L234.107 235.226L233.393 234.203L232.838 233.042L233.015 231.539L233.859 230.726L235.141 230.241L236.338 230.167L237.612 230.251L239.723 230.856L241.503 231.882L242.691 233.37L243.788 234.843L244.885 236.316L246.326 237.452L247.874 238.344L249.142 238.769L250.183 238.72L250.74 238.008L250.635 237.145L249.544 236.096L247.993 235.432L248.868 235.21L249.84 235.426L251.272 236.251L252.115 237.31L253.189 238.617L253.99 239.882L255.338 241.117L256.46 241.764L257.937 242.157L258.983 241.766L259.158 241.369L258.663 240.511L257.815 239.793L259.265 240.246L260.542 240.982L261.916 242.157L263.889 244.287L265.908 246.751Z"/>
</mask>
<path d="M265.908 246.751L267.956 249.919L267.565 248.165L266.365 245.715L265.399 244.164L263.999 242.057L262.415 240.036L260.327 237.839L257.685 235.246L254.431 232.72L251.342 230.481L249.175 229.232L246.311 227.582L242.048 225.584L238.812 224.559L236.403 223.859L233.187 223.228L230.564 222.902L228.329 222.799L225.947 222.917L224.265 223.209L221.786 223.768L219.641 224.671L217.902 226.192L216.603 227.928L216.126 229.45L216.119 230.784L216.468 231.864L217.205 233.053L218.413 234.055L218.022 232.301L218.125 231.519L218.254 230.676L218.968 229.811L219.962 229.444L221.289 229.406L222.95 229.713L224.642 230.497L226.045 231.497L227.203 232.771L228.16 234.357L228.641 235.808L228.569 237.137L228.356 238.156L227.599 239.391L226.675 240.193L225.524 240.6L224.401 240.946L223.37 241.193L221.784 241.158L224.105 241.617L225.639 241.66L227.227 241.581L228.593 241.566L230.194 241.457L232.123 241.154L233.921 240.929L235.475 240.487L236.898 240.122L238.805 239.539L239.908 238.799L240.809 237.636L241.374 236.356L240.902 234.785L239.855 233.417L238.465 232.387L236.845 231.988L235.505 232.057L234.605 232.226L233.931 232.984L233.852 233.933L234.255 234.891L235.345 235.94L234.107 235.226L233.393 234.203L232.838 233.042L233.015 231.539L233.859 230.726L235.141 230.241L236.338 230.167L237.612 230.251L239.723 230.856L241.503 231.882L242.691 233.37L243.788 234.843L244.885 236.316L246.326 237.452L247.874 238.344L249.142 238.769L250.183 238.72L250.74 238.008L250.635 237.145L249.544 236.096L247.993 235.432L248.868 235.21L249.84 235.426L251.272 236.251L252.115 237.31L253.189 238.617L253.99 239.882L255.338 241.117L256.46 241.764L257.937 242.157L258.983 241.766L259.158 241.369L258.663 240.511L257.815 239.793L259.265 240.246L260.542 240.982L261.916 242.157L263.889 244.287L265.908 246.751Z" fill="#8C775E" stroke="#8C775E" stroke-width="2" mask="url(#path-24-inside-11_68:68)"/>
<mask id="path-25-inside-12_68:68" fill="white">
<path d="M274.938 303.866L271.588 303.71L273.037 304.319L275.418 304.71L277.038 304.811L279.287 304.888L281.576 304.792L284.265 304.43L287.536 303.878L291.093 302.86L294.359 301.815L296.423 300.919L299.151 299.736L302.889 297.743L305.381 295.981L307.191 294.639L309.394 292.693L311.058 291.012L312.353 289.491L313.572 287.755L314.286 286.424L315.248 284.398L315.786 282.432L315.665 280.442L315.154 278.652L314.344 277.549L313.408 276.873L312.456 276.573L311.216 276.493L309.85 276.838L311.299 277.447L311.793 277.913L312.316 278.429L312.535 279.368L312.25 280.253L311.551 281.206L310.426 282.219L308.949 283.015L307.477 283.499L305.948 283.671L304.308 283.546L303.023 283.153L302.126 282.432L301.526 281.769L301.07 280.613L301.011 279.559L301.353 278.544L301.724 277.578L302.114 276.728L303.006 275.63L301.413 277.032L300.544 278.09L299.731 279.247L298.995 280.216L298.196 281.398L297.354 282.909L296.53 284.287L295.991 285.604L295.47 286.789L294.838 288.425L294.756 289.575L295.081 290.795L295.674 291.838L297.038 292.298L298.574 292.251L300.059 291.792L301.225 290.853L301.91 289.875L302.283 289.156L302.118 288.299L301.493 287.766L300.599 287.566L299.264 287.805L300.443 287.293L301.554 287.306L302.675 287.501L303.636 288.383L303.747 289.387L303.388 290.533L302.785 291.414L302.029 292.267L300.449 293.448L298.753 294.184L297.056 294.27L295.419 294.3L293.781 294.33L292.194 294.771L290.719 295.41L289.726 296.089L289.192 296.847L289.389 297.597L290.054 297.958L291.388 297.719L292.704 296.963L292.383 297.69L291.699 298.266L290.335 298.857L289.128 298.917L287.621 299.014L286.292 298.94L284.685 299.266L283.616 299.73L282.532 300.571L282.235 301.505L282.419 301.827L283.294 301.912L284.263 301.677L283.151 302.469L281.935 302.997L280.356 303.372L277.777 303.686L274.938 303.866Z"/>
</mask>
<path d="M274.938 303.866L271.588 303.71L273.037 304.319L275.418 304.71L277.038 304.811L279.287 304.888L281.576 304.792L284.265 304.43L287.536 303.878L291.093 302.86L294.359 301.815L296.423 300.919L299.151 299.736L302.889 297.743L305.381 295.981L307.191 294.639L309.394 292.693L311.058 291.012L312.353 289.491L313.572 287.755L314.286 286.424L315.248 284.398L315.786 282.432L315.665 280.442L315.154 278.652L314.344 277.549L313.408 276.873L312.456 276.573L311.216 276.493L309.85 276.838L311.299 277.447L311.793 277.913L312.316 278.429L312.535 279.368L312.25 280.253L311.551 281.206L310.426 282.219L308.949 283.015L307.477 283.499L305.948 283.671L304.308 283.546L303.023 283.153L302.126 282.432L301.526 281.769L301.07 280.613L301.011 279.559L301.353 278.544L301.724 277.578L302.114 276.728L303.006 275.63L301.413 277.032L300.544 278.09L299.731 279.247L298.995 280.216L298.196 281.398L297.354 282.909L296.53 284.287L295.991 285.604L295.47 286.789L294.838 288.425L294.756 289.575L295.081 290.795L295.674 291.838L297.038 292.298L298.574 292.251L300.059 291.792L301.225 290.853L301.91 289.875L302.283 289.156L302.118 288.299L301.493 287.766L300.599 287.566L299.264 287.805L300.443 287.293L301.554 287.306L302.675 287.501L303.636 288.383L303.747 289.387L303.388 290.533L302.785 291.414L302.029 292.267L300.449 293.448L298.753 294.184L297.056 294.27L295.419 294.3L293.781 294.33L292.194 294.771L290.719 295.41L289.726 296.089L289.192 296.847L289.389 297.597L290.054 297.958L291.388 297.719L292.704 296.963L292.383 297.69L291.699 298.266L290.335 298.857L289.128 298.917L287.621 299.014L286.292 298.94L284.685 299.266L283.616 299.73L282.532 300.571L282.235 301.505L282.419 301.827L283.294 301.912L284.263 301.677L283.151 302.469L281.935 302.997L280.356 303.372L277.777 303.686L274.938 303.866Z" fill="#8C775E" stroke="#8C775E" stroke-width="2" mask="url(#path-25-inside-12_68:68)"/>
<path d="M303.042 94.5904L304.466 93.9572L305.822 93.9951L307.252 94.8076L308.171 95.5296L308.846 96.4316L307.096 95.6989L306.015 96.0286L305.076 96.7189L304.334 98.0938L304.276 99.7932L304.69 100.939L305.59 102.141L307.214 102.707L309.338 103.009L311.469 102.477L313.693 101.307L315.486 99.7292L316.963 97.814L317.662 96.212L318.055 94.3694L317.753 92.1054L317.021 90.3653L315.847 88.7951L314.181 87.328L312.669 86.5755L310.607 85.7624L308.349 85.1963L306.144 84.954L304.84 85.2401L301.883 86.2759L300.127 87.3094L298.62 88.6771L297.301 89.958L295.905 91.8132L295.213 93.255L294.495 94.6633L294.039 96.7597L293.76 99.347L293.858 101.761L294.673 104.373L296.068 106.661L297.394 108.689L299.22 110.453L297.127 109.092L295.499 107.338L294.425 105.902L293.579 104.348L292.474 101.433L292.016 97.5225L292.519 94.3044L293.788 91.3507L295.376 88.9915L297.295 86.9064L299.376 85.3757L303.011 83.893L305.02 83.4506L308.429 83.2732L311.632 83.9203L312.935 84.3087L313.733 84.4463L314.921 84.09L315.914 83.0492L316.199 81.9075L316.079 80.6487L315.53 79.9137L314.701 79.2286L313.027 78.5962L311.248 78.2474L309.209 78.1422L306.373 78.1565L303.552 78.7818L301.069 79.5209L298.836 80.5941L296.728 81.8343L294.471 83.8057L292.692 85.9944L291.111 88.1933L289.448 92.0582L288.901 94.1177L288.501 96.1206L288.276 99.9633L289.169 103.864L289.91 105.701L290.756 107.254L291.794 109.235L293.204 110.528L290.356 110.863L287.635 111.622L284.467 112.968L280.251 115.448L276.987 117.85L274.104 120.592L271.968 123.147L270.05 126.164L268.766 128.507L268.04 130.75L267.888 126.149L268.464 121.168L269.672 113.65L272.167 106.584L273.945 101.858L276.356 97.132L279.327 92.5638L281.713 89.4107L284.851 85.911L287.538 83.4158L290.759 80.7876L293.373 79.1238L296.437 77.3869L298.696 76.3471L302.662 75.1385L304.884 74.6429L306.996 74.5912L311.432 74.4347L315.005 75.0688L318.18 76.0998L321.064 77.7582L323.237 79.7333L324.986 82.0719L326.011 84.3732L326.705 86.4004L327.026 89.7895L326.784 92.7641L325.564 97.3906L323.463 101.008L321.967 102.73L319.835 104.868L317.836 106.339L315.766 107.292L312.727 108.388L310.387 108.556L308.397 108.518L306.281 108.055L304.71 107.139L303 105.445L301.412 102.729L301.034 101.039L300.792 99.8704L301.047 98.1812L301.293 97.3267L302.018 95.7581L303.042 94.5904Z" fill="#8C775E" stroke="#8C775E"/>
<path d="M58.9912 236.753L57.5864 236.381L56.5793 235.39L55.917 233.577L55.5942 232.214L55.5498 230.843L56.4953 232.801L57.4843 233.234L58.5513 233.208L59.8238 232.364L60.7453 230.715L61.0239 229.286L60.9646 227.459L60.0273 225.755L58.5764 223.962L56.6879 222.992L54.4 222.591L52.228 222.899L50.1205 223.763L48.7634 224.863L47.5139 226.418L46.5723 228.879L46.2273 231.123L46.3047 233.509L46.8078 236.138L47.5629 237.948L48.7039 240.206L50.1199 242.355L51.6636 244.146L52.7984 244.778L55.5715 245.828L57.4353 246.036L59.2826 245.737L60.9427 245.391L62.9575 244.529L64.2267 243.583L65.4976 242.688L66.9261 240.926L68.474 238.551L69.6474 236.084L70.3804 232.917L70.5069 229.663L70.5506 226.715L70.0807 223.679L70.9615 226.502L71.2873 229.39L71.3581 231.572L71.1953 233.71L70.5252 237.384L68.8511 241.59L66.8077 244.434L64.3206 246.476L61.8998 247.704L59.3699 248.427L57.004 248.485L53.487 247.403L51.7377 246.43L49.0659 244.21L46.9757 241.315L46.1907 240.013L45.6573 239.315L44.5739 238.834L43.2849 239.171L42.4796 240.105L41.9193 241.439L41.9555 242.556L42.2286 243.819L43.1693 245.625L44.3353 247.222L45.8244 248.76L47.9777 250.739L50.436 252.101L52.6973 253.112L54.942 253.615L57.1785 253.865L59.9056 253.493L62.3826 252.569L64.7155 251.496L67.9715 248.825L69.4497 247.163L70.787 245.454L72.9431 241.794L74.2827 237.291L74.6709 234.945L74.8337 232.807L75.0711 230.109L74.6723 227.833L77.0013 229.503L79.4531 230.662L82.546 231.551L87.019 232.051L90.7301 231.96L94.3287 231.262L97.2663 230.224L100.277 228.576L102.459 227.15L104.168 225.432L101.905 230.11L98.8956 234.654L94.0963 241.274L88.5568 246.541L84.7688 249.987L80.5021 252.987L75.8926 255.437L72.4579 256.893L68.2744 258.164L64.9509 258.754L61.1553 259.101L58.3173 258.917L55.1001 258.488L52.8537 257.934L49.2274 256.346L47.2892 255.277L45.6643 253.843L42.2255 250.88L39.8488 247.738L37.979 244.482L36.6527 240.807L36.0289 237.317L35.9136 233.764L36.3268 230.757L36.8491 228.255L38.3575 224.662L40.0778 221.877L43.392 218.138L46.8517 216.021L48.873 215.362L51.5918 214.736L53.8649 214.68L55.9241 215.188L58.79 216.235L60.6485 217.714L62.1343 219.15L63.4974 221.098L64.2127 223.112L64.6313 225.997L64.43 229.812L63.8431 231.757L63.4221 233.088L62.3565 234.587L61.7284 235.263L60.3697 236.312L58.9912 236.753Z" fill="#8C775E" stroke="#8C775E"/>
<path d="M100.633 257.734L89.5726 260.884L81.6956 263.429L67.528 266.533L56.1556 268.3L50.4868 262.783L44.9544 255.365L39.3669 247.666L34.122 239.117L30.3888 230.481L25.1173 219.2L21.6138 211.735L17.638 199.267L16.4824 193.38L27.4508 197.341L38.7081 202.775L50.5525 208.603L62.4057 211.881L78.2709 217.426L89.0497 220.422L100.897 221.071L108.631 221.538L115.91 220.109L122.438 215.65L130.819 212.223L141.673 210.171L150.328 207.705L158.984 205.24L167.64 202.774L177.257 200.035L188.524 195.785L196.495 190.915L202.472 188.173L210.166 185.981L215.936 184.338L221.911 185.235L222.87 188.601L221.217 193.751L217.094 197.525L210.909 201.366L205.824 205.414L199.022 208.912L191.876 213.027L186.172 216.731L179.851 220.091L176.826 224.072L179.915 225.792L186.714 225.935L192.071 226.488L199.351 226.494L206.905 227.462L214.666 227.33L221.261 224.932L227.032 223.288L231.91 220.339L236.308 217.526L241.324 215.058L247.371 210.736L250.67 207.716L255.96 206.21L258.431 207.585L257.466 211.499L256.709 214.315L255.4 218.846L258.973 216.789L263.097 213.015L266.533 210.476L270.039 206.358L274.093 204.164L277.666 202.106L281.787 201.972L284.395 203.828L282.813 207.399L278.963 212.134L273.396 216.32L269.821 222.017L266.796 225.998L273.117 222.638L280.881 218.867L284.317 216.328L290.157 213.105L294.555 210.292L299.64 206.244L304.175 203.913L309.258 203.505L309.943 205.909L310.765 208.794L308.701 212.501L304.233 216.893L297.705 221.352L292.483 224.92L284.442 231.369L271.045 237.265L283.134 235.901L289.385 234.12L297.079 231.929L304.773 229.737L310.473 229.673L314.317 232.217L315.139 235.102L313.076 238.809L308.197 241.759L298.784 247.04L285.319 250.875L274.74 253.889L258.668 255.868L239.983 259.63L228.443 262.918L215.048 265.174L206.669 264.961L197.947 265.366L188.332 264.466L175.284 262.463L160.383 259.43L141.498 257.011L130.304 256.04L119.384 256.032L110.524 255.956L100.633 257.734Z" fill="white"/>
<path d="M271.045 237.265L283.134 235.901L289.385 234.12L297.079 231.929L304.773 229.737L310.473 229.673L314.317 232.217L315.139 235.102L313.076 238.809L308.197 241.759L298.784 247.04L285.319 250.875L274.74 253.889L258.668 255.868L239.983 259.63L228.443 262.918L215.048 265.174L206.669 264.961L197.947 265.366L188.332 264.466L175.284 262.463L160.383 259.43L141.498 257.011L130.304 256.04L119.384 256.032L110.524 255.956L100.633 257.734L89.5726 260.884L81.6956 263.429L67.528 266.533L56.1556 268.3L50.4868 262.783L44.9544 255.365L39.3669 247.666L34.122 239.117L30.3888 230.481L25.1173 219.2L21.6138 211.735L17.638 199.267L16.4824 193.38L27.4508 197.341L38.7081 202.775L50.5525 208.603L62.4057 211.881L78.2709 217.426L89.0497 220.422L100.897 221.071L108.631 221.538L115.91 220.109M271.045 237.265L265 237.947L255.59 239.588L245.424 240.404L240.068 239.85L233.956 238.472M271.045 237.265L284.442 231.369L292.483 224.92L297.705 221.352L304.233 216.893L308.701 212.501L310.765 208.794L309.943 205.909L309.258 203.505L304.175 203.913L299.64 206.244L294.555 210.292L290.157 213.105L284.317 216.328L280.881 218.867L273.117 222.638L266.796 225.998M220.772 235.989L231.141 237.714L233.956 238.472M220.772 235.989L212.256 235.295L203.877 235.083L195.842 234.252L188.632 232.667L180.049 229.913L176.068 226.888L176.826 224.072M220.772 235.989L227.644 230.912L232.042 228.1L236.92 225.15L242.828 223.987L250.522 221.796L255.4 218.846M176.826 224.072L179.851 220.091L186.172 216.731L191.876 213.027L199.022 208.912L205.824 205.414L210.909 201.366L217.094 197.525L221.217 193.751L222.87 188.601L221.911 185.235L215.936 184.338L210.166 185.981L202.472 188.173L196.495 190.915L188.524 195.785L177.257 200.035L167.64 202.774L158.984 205.24L150.328 207.705L141.673 210.171L130.819 212.223L122.438 215.65L115.91 220.109M176.826 224.072L179.915 225.792L186.714 225.935L192.071 226.488L199.351 226.494L206.905 227.462L214.666 227.33L221.261 224.932L227.032 223.288L231.91 220.339L236.308 217.526L241.324 215.058L247.371 210.736L250.67 207.716L255.96 206.21L258.431 207.585L257.466 211.499L256.709 214.315L255.4 218.846M115.91 220.109L125.454 222.589M266.796 225.998L262.398 228.811L258.551 229.906L253.261 231.413L245.567 233.605L238.835 235.523L233.956 238.472M266.796 225.998L269.821 222.017L273.396 216.32L278.963 212.134L282.813 207.399L284.395 203.828L281.787 201.972L277.666 202.106L274.093 204.164L270.039 206.358L266.533 210.476L263.097 213.015L258.973 216.789L255.4 218.846" stroke="#8C775E"/>
</svg>
