<svg width="353" height="359" viewBox="0 0 353 359" fill="none" xmlns="http://www.w3.org/2000/svg">
<path d="M130.453 59.0807L132.599 58.177L134.686 58.3277L136.939 59.7058L138.402 60.9067L139.5 62.3754L136.761 61.1019L135.121 61.5496L133.725 62.5761L132.678 64.6961L132.705 67.374L133.42 69.2095L134.884 71.1678L137.42 72.1693L140.705 72.7887L143.945 72.0915L147.284 70.3942L149.931 68.0246L152.071 65.1013L153.037 62.62L153.515 59.7385L152.897 56.1456L151.653 53.3505L149.741 50.7938L147.08 48.3668L144.705 47.078L141.479 45.6566L137.971 44.6118L134.565 44.0817L132.58 44.4456L128.106 45.8821L125.476 47.3953L123.253 49.4524L121.313 51.3855L119.295 54.2196L118.328 56.4483L117.321 58.6227L116.763 61.9004L116.511 65.9647L116.825 69.7807L118.256 73.9567L120.556 77.6612L122.733 80.9501L125.659 83.8569L122.35 81.5694L119.728 78.6919L117.979 76.3529L116.573 73.845L114.676 69.1698L113.706 62.9686L114.259 57.9238L116.009 53.3477L118.289 49.7312L121.097 46.5694L124.191 44.2933L129.676 42.1972L132.735 41.6338L137.962 41.5824L142.93 42.8183L144.959 43.5186L146.196 43.7892L147.998 43.3067L149.452 41.7307L149.812 39.9482L149.543 37.9537L148.648 36.757L147.328 35.6202L144.711 34.5099L141.953 33.8403L138.811 33.5375L134.454 33.37L130.16 34.1676L126.394 35.1675L123.035 36.7114L119.879 38.5272L116.543 41.4868L113.959 44.8215L111.679 48.1856L109.385 54.1732L108.685 57.3867L108.208 60.5206L108.123 66.5697L109.762 72.7848L111.027 75.7333L112.432 78.2412L114.163 81.4366L116.418 83.572L112.063 83.9094L107.932 84.9246L103.155 86.8367L96.8428 90.4684L91.9895 94.0388L87.7458 98.1726L84.6361 102.063L81.8932 106.694L80.0796 110.305L79.1168 113.796L78.5695 106.525L79.1149 98.7037L80.4598 86.9209L83.813 75.9373L86.224 68.5982L89.6078 61.3024L93.8638 54.2925L97.3153 49.4766L101.9 44.1641L105.861 40.4068L110.633 36.4752L114.537 34.0247L119.129 31.4893L122.529 29.9998L128.543 28.3584L131.925 27.7253L135.168 27.7854L141.977 27.8359L147.512 29.076L152.462 30.9159L157.008 33.7265L160.483 36.9889L163.33 40.7967L165.063 44.4971L166.268 47.7427L166.992 53.1125L166.823 57.7905L165.263 65.0097L162.279 70.5775L160.098 73.1939L156.966 76.4255L153.994 78.6123L150.877 79.9777L146.281 81.5034L142.695 81.612L139.635 81.418L136.349 80.5462L133.873 78.9951L131.129 76.2069L128.503 71.8147L127.807 69.1228L127.356 67.2622L127.632 64.6136L127.952 63.2816L128.959 60.8548L130.453 59.0807Z" fill="white" fill-opacity="0.3" stroke="black"/>
<path d="M43.2271 116.615L44.3418 115.663L45.6659 115.37L47.3773 115.803L48.5593 116.273L49.5787 116.975L47.5915 116.696L46.6828 117.275L46.0597 118.164L45.9052 119.664L46.5445 121.308L47.4121 122.307L48.7713 123.243L50.5698 123.392L52.7417 123.167L54.5805 122.14L56.2478 120.478L57.3323 118.53L57.9744 116.335L57.9942 114.628L57.6201 112.765L56.4038 110.666L54.9863 109.173L53.2117 107.951L51.0045 106.948L49.2389 106.592L46.9168 106.312L44.5076 106.315L42.2815 106.617L41.1404 107.208L38.7114 108.918L37.439 110.336L36.5441 112.013L35.7954 113.562L35.2075 115.68L35.1286 117.231L35.0119 118.756L35.4287 120.878L36.2173 123.428L37.2982 125.721L39.1514 128.029L41.4324 129.887L43.541 131.511L46.0232 132.762L43.4482 131.963L41.1606 130.675L39.5371 129.556L38.0868 128.271L35.8289 125.741L33.7894 122.1L32.9589 118.891L32.9764 115.749L33.5438 113.101L34.543 110.635L35.9247 108.662L38.8249 106.359L40.5824 105.447L43.7986 104.451L47.1534 104.295L48.5685 104.352L49.3951 104.291L50.3958 103.661L50.9278 102.422L50.7358 101.258L50.1063 100.079L49.2756 99.5066L48.1963 99.05L46.3223 98.849L44.4639 98.9455L42.4536 99.3387L39.7242 100.04L37.2583 101.323L35.1651 102.634L33.4494 104.205L31.9225 105.906L30.5506 108.344L29.7296 110.875L29.1031 113.368L29.0781 117.48L29.3923 119.589L29.8255 121.607L31.1788 125.349L33.6345 128.875L35.1004 130.458L36.5507 131.743L38.3622 133.392L40.2509 134.291L37.6397 135.303L35.3248 136.691L32.8194 138.75L29.7655 142.152L27.5983 145.246L25.9382 148.576L24.9218 151.546L24.3042 154.905L24.0233 157.464L24.2398 159.792L22.2127 155.414L20.7323 150.496L18.8253 142.99L18.344 135.605L18.1277 130.639L18.5222 125.521L19.5216 120.418L20.534 116.814L22.1309 112.696L23.7038 109.65L25.7365 106.348L27.5779 104.118L29.8247 101.709L31.5782 100.164L34.9102 98.0432L36.8515 97.0291L38.8676 96.4678L43.0835 95.2425L46.7897 94.9849L50.2733 95.2049L53.7339 96.0972L56.6371 97.4657L59.2801 99.2858L61.2098 101.245L62.7077 103.022L64.4024 106.196L65.3847 109.109L66.0985 113.844L65.5498 117.824L64.8109 119.838L63.6279 122.407L62.3004 124.302L60.6931 125.719L58.2099 127.506L56.0206 128.235L54.0858 128.68L51.8548 128.75L49.9652 128.251L47.6235 127.04L44.9813 124.819L43.9259 123.289L43.2151 122.226L42.7703 120.544L42.6588 119.664L42.7164 117.984L43.2271 116.615Z" fill="white" fill-opacity="0.3" stroke="black"/>
<path d="M203.457 79.182L204.115 81.4151L203.731 83.4726L202.109 85.5573L200.752 86.8761L199.17 87.8031L200.742 85.2237L200.481 83.5438L199.617 82.0424L197.628 80.7639L194.963 80.4917L193.059 80.9961L190.95 82.2321L189.67 84.6399L188.687 87.8343L189.017 91.1322L190.33 94.64L192.389 97.5365L195.054 99.9901L197.411 101.227L200.221 102.025L203.861 101.813L206.778 100.89L209.532 99.2764L212.242 96.9035L213.788 94.6883L215.562 91.6417L216.993 88.2722L217.901 84.9472L217.762 82.9341L216.835 78.3271L215.626 75.5442L213.831 73.1047L212.127 70.9606L209.536 68.6376L207.43 67.4278L205.382 66.1836L202.187 65.262L198.177 64.5566L194.35 64.4421L190.04 65.3958L186.101 67.2668L182.589 69.0624L179.373 71.6447L182.017 68.6122L185.169 66.3287L187.69 64.8523L190.339 63.7367L195.197 62.3743L201.468 62.1048L206.419 63.2193L210.771 65.4707L214.109 68.1409L216.937 71.285L218.852 74.6143L220.321 80.3L220.539 83.4021L220.004 88.6029L218.22 93.4014L217.297 95.3386L216.89 96.5373L217.168 98.3821L218.571 100.004L220.302 100.561L222.314 100.517L223.603 99.7616L224.881 98.5768L226.277 96.1004L227.251 93.435L227.904 90.3469L228.558 86.0359L228.246 81.6799L227.674 77.8254L226.516 74.3143L225.065 70.9748L222.497 67.3292L219.473 64.3878L216.385 61.7451L210.692 58.796L207.577 57.7405L204.516 56.9151L198.515 56.1541L192.155 57.0866L189.084 58.0132L186.434 59.1289L183.065 60.4916L180.69 62.4937L180.843 58.1275L180.296 53.9089L178.931 48.948L176.029 42.2691L173.024 37.0466L169.391 32.3667L165.874 28.8411L161.579 25.597L158.193 23.3906L154.832 22.0429L162.118 22.3131L169.83 23.7307L181.388 26.3861L191.927 30.9478L198.95 34.1653L205.822 38.3446L212.311 43.3586L216.71 47.3276L221.476 52.4784L224.766 56.8353L228.139 62.0166L230.137 66.1704L232.142 71.0181L233.242 74.5636L234.2 80.7233L234.45 84.1551L234.028 87.3704L233.215 94.1307L231.363 99.4925L228.981 104.205L225.679 108.409L222.048 111.496L217.945 113.899L214.074 115.207L210.714 116.041L205.297 116.159L200.667 115.467L193.668 113.109L188.469 109.521L186.114 107.061L183.253 103.587L181.413 100.388L180.405 97.1379L179.403 92.4004L179.697 88.8244L180.232 85.805L181.466 82.6381L183.285 80.3508L186.362 77.9367L191.021 75.8186L193.774 75.4278L195.673 75.1879L198.274 75.7589L199.562 76.2265L201.861 77.4982L203.457 79.182Z" fill="white" fill-opacity="0.3" stroke="black"/>
<path d="M271.224 66.8599L272.545 66.3538L273.874 66.5401L275.36 67.542L276.337 68.3943L277.095 69.4078L275.306 68.4545L274.286 68.6812L273.445 69.2994L272.871 70.6527L273.002 72.4184L273.533 73.6576L274.543 75.009L276.192 75.7746L278.299 76.3196L280.322 75.9952L282.365 75.0159L283.942 73.5648L285.173 71.7277L285.68 70.133L285.861 68.2542L285.317 65.861L284.411 63.9674L283.092 62.2031L281.303 60.493L279.744 59.5448L277.641 58.4738L275.374 57.6392L273.194 57.1479L271.952 57.3051L269.179 58.0651L267.577 58.9526L266.256 60.2155L265.109 61.4085L263.95 63.1918L263.432 64.6202L262.887 66.011L262.672 68.1474L262.684 70.815L263.045 73.3426L264.128 76.1539L265.742 78.6907L267.261 80.9486L269.237 82.9859L267.044 81.3407L265.261 79.3354L264.054 77.7212L263.058 76.0102L261.658 72.8505L260.781 68.724L260.917 65.4229L261.832 62.4805L263.123 60.1924L264.768 58.226L266.631 56.8551L270.017 55.7025L271.931 55.4587L275.24 55.6426L278.439 56.664L279.754 57.21L280.549 57.4398L281.67 57.197L282.525 56.2191L282.677 55.0595L282.422 53.7341L281.805 52.9082L280.92 52.1042L279.215 51.2635L277.44 50.7074L275.437 50.377L272.67 50.0851L269.984 50.4317L267.64 50.9337L265.578 51.811L263.655 52.876L261.668 54.6872L260.172 56.7769L258.87 58.8985L257.671 62.7484L257.364 64.8367L257.194 66.8818L257.397 70.8642L258.698 75.0278L259.624 77.0233L260.62 78.7344L261.852 80.9121L263.371 82.4131L260.627 82.454L258.053 82.9508L255.108 84.0117L251.263 86.1417L248.34 88.2921L245.827 90.8392L244.022 93.2728L242.481 96.2106L241.485 98.5144L241.023 100.775L240.368 95.9608L240.382 90.8296L240.735 83.1216L242.394 76.0239L243.611 71.2884L245.445 66.622L247.844 62.1803L249.827 59.1508L252.506 55.8413L254.856 53.5305L257.712 51.1386L260.081 49.6866L262.883 48.2073L264.973 47.3675L268.713 46.5365L270.829 46.2603L272.885 46.435L277.201 46.7519L280.76 47.7997L283.973 49.2183L286.972 51.2597L289.311 53.5542L291.276 56.1819L292.531 58.6924L293.431 60.8812L294.117 64.4497L294.208 67.5251L293.526 72.217L291.872 75.7615L290.601 77.3947L288.754 79.3935L286.963 80.7106L285.047 81.4804L282.201 82.2943L279.933 82.2165L277.987 81.9611L275.869 81.2498L274.234 80.1245L272.378 78.173L270.529 75.1694L269.973 73.3666L269.609 72.1218L269.672 70.3881L269.818 69.5238L270.353 67.9666L271.224 66.8599Z" fill="white" fill-opacity="0.3" stroke="black"/>
<path d="M208.225 157.86L209.545 157.354L210.874 157.54L212.36 158.542L213.337 159.394L214.095 160.408L212.306 159.455L211.286 159.681L210.445 160.299L209.872 161.653L210.003 163.418L210.533 164.658L211.543 166.009L213.192 166.775L215.299 167.32L217.322 166.995L219.365 166.016L220.942 164.565L222.174 162.728L222.68 161.133L222.861 159.254L222.317 156.861L221.411 154.967L220.092 153.203L218.303 151.493L216.744 150.545L214.641 149.474L212.374 148.639L210.194 148.148L208.952 148.305L206.179 149.065L204.577 149.953L203.256 151.216L202.109 152.408L200.95 154.192L200.432 155.62L199.887 157.011L199.672 159.147L199.684 161.815L200.045 164.343L201.128 167.154L202.742 169.691L204.261 171.949L206.237 173.986L204.044 172.341L202.261 170.335L201.054 168.721L200.058 167.01L198.658 163.85L197.781 159.724L197.918 156.423L198.832 153.48L200.123 151.192L201.768 149.226L203.631 147.855L207.017 146.702L208.931 146.459L212.24 146.643L215.44 147.664L216.754 148.21L217.549 148.44L218.67 148.197L219.525 147.219L219.677 146.06L219.422 144.734L218.805 143.908L217.92 143.104L216.215 142.264L214.44 141.707L212.437 141.377L209.67 141.085L206.984 141.432L204.641 141.934L202.578 142.811L200.656 143.876L198.668 145.687L197.172 147.777L195.87 149.899L194.671 153.748L194.364 155.837L194.194 157.882L194.397 161.864L195.698 166.028L196.624 168.023L197.62 169.734L198.853 171.912L200.372 173.413L197.627 173.454L195.053 173.951L192.108 175.012L188.264 177.142L185.34 179.292L182.827 181.839L181.022 184.273L179.481 187.211L178.485 189.514L178.023 191.775L177.368 186.961L177.383 181.83L177.735 174.122L179.394 167.024L180.611 162.288L182.445 157.622L184.844 153.18L186.827 150.151L189.506 146.841L191.856 144.531L194.712 142.139L197.081 140.687L199.883 139.207L201.974 138.368L205.713 137.537L207.829 137.26L209.886 137.435L214.201 137.752L217.76 138.8L220.973 140.218L223.972 142.26L226.311 144.554L228.276 147.182L229.531 149.692L230.431 151.881L231.117 155.45L231.208 158.525L230.526 163.217L228.872 166.761L227.601 168.395L225.754 170.394L223.964 171.711L222.047 172.48L219.201 173.294L216.933 173.216L214.987 172.961L212.869 172.25L211.234 171.125L209.378 169.173L207.529 166.169L206.973 164.367L206.609 163.122L206.672 161.388L206.818 160.524L207.353 158.967L208.225 157.86Z" fill="white" fill-opacity="0.3" stroke="black"/>
<path d="M245.453 291.081L247.599 290.177L249.686 290.328L251.939 291.706L253.402 292.907L254.5 294.375L251.761 293.102L250.121 293.55L248.726 294.576L247.678 296.696L247.706 299.374L248.42 301.21L249.884 303.168L252.42 304.169L255.705 304.789L258.945 304.091L262.284 302.394L264.932 300.025L267.071 297.101L268.037 294.62L268.515 291.738L267.897 288.146L266.653 285.35L264.741 282.794L262.08 280.367L259.706 279.078L256.48 277.657L252.971 276.612L249.565 276.082L247.58 276.446L243.106 277.882L240.476 279.395L238.253 281.452L236.313 283.385L234.295 286.22L233.328 288.448L232.321 290.623L231.763 293.9L231.511 297.965L231.826 301.781L233.256 305.957L235.556 309.661L237.733 312.95L240.66 315.857L237.35 313.569L234.728 310.692L232.979 308.353L231.574 305.845L229.676 301.17L228.706 294.969L229.259 289.924L231.009 285.348L233.289 281.731L236.097 278.569L239.191 276.293L244.676 274.197L247.735 273.634L252.963 273.582L257.931 274.818L259.959 275.519L261.196 275.789L262.998 275.307L264.452 273.731L264.812 271.948L264.543 269.954L263.648 268.757L262.328 267.62L259.711 266.51L256.953 265.84L253.811 265.537L249.454 265.37L245.16 266.168L241.394 267.167L238.035 268.711L234.879 270.527L231.544 273.487L228.959 276.822L226.679 280.186L224.386 286.173L223.685 289.387L223.208 292.521L223.123 298.57L224.762 304.785L226.027 307.733L227.432 310.241L229.163 313.437L231.419 315.572L227.063 315.909L222.932 316.925L218.155 318.837L211.843 322.468L206.99 326.039L202.746 330.173L199.636 334.063L196.893 338.694L195.08 342.305L194.117 345.796L193.57 338.525L194.115 330.704L195.46 318.921L198.813 307.937L201.224 300.598L204.608 293.302L208.864 286.293L212.315 281.477L216.9 276.164L220.862 272.407L225.633 268.475L229.537 266.025L234.129 263.489L237.53 262L243.543 260.358L246.926 259.725L250.168 259.785L256.977 259.836L262.512 261.076L267.462 262.916L272.009 265.726L275.483 268.989L278.33 272.797L280.063 276.497L281.268 279.743L281.992 285.113L281.823 289.791L280.263 297.01L277.279 302.577L275.098 305.194L271.966 308.425L268.994 310.612L265.877 311.978L261.281 313.503L257.695 313.612L254.635 313.418L251.35 312.546L248.873 310.995L246.13 308.207L243.503 303.815L242.807 301.123L242.356 299.262L242.632 296.614L242.952 295.282L243.959 292.855L245.453 291.081Z" fill="white" fill-opacity="0.3" stroke="black"/>
<path d="M303.406 238.472L305.303 239.822L306.273 241.677L306.285 244.318L306.033 246.193L305.361 247.9L305.004 244.9L303.761 243.741L302.154 243.094L299.8 243.317L297.536 244.749L296.351 246.322L295.455 248.597L295.937 251.281L297.137 254.4L299.434 256.79L302.633 258.737L306.041 259.743L309.653 260.026L312.271 259.543L314.974 258.434L317.705 256.019L319.428 253.492L320.597 250.521L321.262 246.981L321.11 244.284L320.623 240.792L319.666 237.259L318.326 234.083L316.973 232.586L313.399 229.536L310.729 228.094L307.81 227.285L305.145 226.651L301.673 226.425L299.269 226.775L296.89 227.062L293.809 228.31L290.219 230.233L287.139 232.507L284.339 235.92L282.398 239.824L280.745 243.406L279.811 247.423L280.017 243.406L281.086 239.662L282.155 236.944L283.549 234.43L286.528 230.358L291.293 226.272L295.875 224.09L300.688 223.172L304.962 223.209L309.128 223.935L312.691 225.37L317.359 228.934L319.446 231.239L322.239 235.658L323.8 240.534L324.271 242.627L324.691 243.822L326.049 245.101L328.154 245.509L329.86 244.878L331.415 243.601L331.962 242.21L332.235 240.489L331.803 237.679L330.922 234.981L329.528 232.15L327.379 228.356L324.443 225.123L321.612 222.445L318.532 220.4L315.328 218.67L311.057 217.389L306.862 216.945L302.801 216.774L296.502 217.972L293.401 219.066L290.484 220.308L285.294 223.417L280.87 228.079L279.027 230.705L277.632 233.219L275.825 236.372L275.194 239.413L272.617 235.886L269.581 232.906L265.443 229.848L259.035 226.389L253.446 224.138L247.698 222.702L242.754 222.103L237.372 222.205L233.347 222.561L229.871 223.578L235.768 219.289L242.708 215.64L253.437 210.588L264.543 207.665L272.053 205.857L280.038 204.898L288.239 204.832L294.15 205.236L301.08 206.342L306.359 207.736L312.212 209.726L316.349 211.759L320.921 214.332L323.975 216.441L328.534 220.693L330.851 223.237L332.505 226.026L336.042 231.844L337.898 237.205L338.936 242.382L338.936 247.728L337.988 252.398L336.246 256.823L334.01 260.242L331.883 262.974L327.696 266.414L323.628 268.729L316.667 271.198L310.363 271.589L306.99 271.109L302.595 270.145L299.172 268.766L296.371 266.833L292.657 263.726L290.679 260.733L289.234 258.028L288.249 254.775L288.266 251.853L289.195 248.053L291.549 243.51L293.473 241.502L294.818 240.14L297.217 238.982L298.518 238.554L301.111 238.134L303.406 238.472Z" fill="white" fill-opacity="0.3" stroke="black"/>
<path d="M142.224 197.86L143.545 197.354L144.874 197.54L146.359 198.542L147.337 199.394L148.095 200.408L146.306 199.455L145.286 199.681L144.445 200.299L143.871 201.653L144.002 203.418L144.533 204.658L145.543 206.009L147.192 206.775L149.299 207.32L151.322 206.995L153.365 206.016L154.942 204.565L156.173 202.728L156.68 201.133L156.861 199.254L156.317 196.861L155.411 194.967L154.091 193.203L152.303 191.493L150.744 190.545L148.64 189.474L146.374 188.639L144.194 188.148L142.952 188.305L140.179 189.065L138.577 189.953L137.255 191.216L136.108 192.408L134.95 194.192L134.432 195.62L133.886 197.011L133.672 199.147L133.684 201.815L134.045 204.343L135.128 207.154L136.742 209.691L138.26 211.949L140.237 213.986L138.044 212.341L136.261 210.335L135.054 208.721L134.058 207.01L132.657 203.85L131.781 199.724L131.917 196.423L132.832 193.48L134.123 191.192L135.768 189.226L137.631 187.855L141.017 186.702L142.93 186.459L146.24 186.643L149.439 187.664L150.754 188.21L151.549 188.44L152.67 188.197L153.525 187.219L153.677 186.06L153.422 184.734L152.804 183.908L151.92 183.104L150.215 182.264L148.44 181.707L146.437 181.377L143.67 181.085L140.984 181.432L138.64 181.934L136.578 182.811L134.655 183.876L132.668 185.687L131.172 187.777L129.87 189.899L128.671 193.748L128.364 195.837L128.194 197.882L128.397 201.864L129.698 206.028L130.624 208.023L131.62 209.734L132.852 211.912L134.371 213.413L131.626 213.454L129.053 213.951L126.108 215.012L122.263 217.142L119.34 219.292L116.827 221.839L115.022 224.273L113.481 227.211L112.485 229.514L112.023 231.775L111.368 226.961L111.382 221.83L111.735 214.122L113.394 207.024L114.61 202.288L116.445 197.622L118.844 193.18L120.826 190.151L123.506 186.841L125.856 184.531L128.712 182.139L131.081 180.687L133.883 179.207L135.973 178.368L139.713 177.537L141.829 177.26L143.885 177.435L148.2 177.752L151.759 178.8L154.973 180.218L157.972 182.26L160.311 184.554L162.276 187.182L163.53 189.692L164.431 191.881L165.117 195.45L165.208 198.525L164.525 203.217L162.871 206.761L161.601 208.395L159.754 210.394L157.963 211.711L156.047 212.48L153.2 213.294L150.933 213.216L148.986 212.961L146.868 212.25L145.234 211.125L143.378 209.173L141.528 206.169L140.973 204.367L140.609 203.122L140.671 201.388L140.818 200.524L141.353 198.967L142.224 197.86Z" fill="white" fill-opacity="0.3" stroke="black"/>
<path d="M130.288 298.274L132.255 299.519L133.324 301.319L133.48 303.956L133.329 305.842L132.751 307.582L132.232 304.606L130.927 303.516L129.288 302.957L126.949 303.307L124.767 304.86L123.668 306.494L122.897 308.815L123.523 311.468L124.891 314.518L127.314 316.78L130.614 318.551L134.071 319.371L137.693 319.458L140.281 318.834L142.92 317.581L145.516 315.021L147.1 312.404L148.107 309.374L148.579 305.804L148.281 303.118L147.605 299.659L146.459 296.182L144.949 293.083L143.517 291.662L139.782 288.81L137.038 287.515L134.08 286.865L131.385 286.376L127.906 286.338L125.524 286.818L123.164 287.233L120.155 288.647L116.675 290.761L113.722 293.199L111.111 296.758L109.384 300.762L107.928 304.427L107.213 308.49L107.2 304.467L108.065 300.671L108.986 297.899L110.242 295.313L112.996 291.085L117.532 286.748L121.989 284.321L126.745 283.144L131.016 282.949L135.215 283.448L138.85 284.688L143.704 287.994L145.913 290.183L148.941 294.445L150.764 299.229L151.347 301.294L151.831 302.463L153.257 303.667L155.381 303.961L157.05 303.238L158.533 301.878L159.005 300.46L159.184 298.727L158.6 295.945L157.575 293.299L156.029 290.547L153.678 286.874L150.571 283.805L147.6 281.285L144.414 279.409L141.121 277.855L136.786 276.808L132.573 276.591L128.509 276.64L122.284 278.178L119.247 279.438L116.401 280.836L111.388 284.222L107.222 289.116L105.524 291.838L104.268 294.424L102.634 297.67L102.169 300.741L99.4041 297.358L96.2114 294.547L91.9138 291.718L85.3276 288.611L79.625 286.666L73.8079 285.544L68.8389 285.213L63.4702 285.606L59.4704 286.18L56.0548 287.383L61.7106 282.782L68.4427 278.762L78.8829 273.137L89.814 269.616L97.2154 267.404L105.137 266.015L113.322 265.505L119.246 265.587L126.226 266.317L131.572 267.423L137.524 269.094L141.766 270.899L146.47 273.221L149.634 275.161L154.416 279.16L156.868 281.575L158.67 284.271L162.517 289.889L164.661 295.141L165.977 300.255L166.267 305.592L165.573 310.307L164.074 314.82L162.026 318.355L160.05 321.198L156.056 324.859L152.119 327.392L145.302 330.234L139.028 330.965L135.634 330.669L131.193 329.944L127.7 328.753L124.799 326.974L120.922 324.073L118.785 321.191L117.196 318.568L116.036 315.374L115.894 312.455L116.616 308.611L118.722 303.946L120.534 301.837L121.803 300.404L124.135 299.118L125.412 298.621L127.979 298.061L130.288 298.274Z" fill="white" fill-opacity="0.3" stroke="black"/>
<mask id="path-10-inside-1_79_6" fill="white">
<path d="M190.507 290.706L193.757 288.79L191.988 289.108L189.49 290.207L187.901 291.108L185.738 292.42L183.653 293.918L181.372 295.914L178.672 298.447L176.014 301.593L173.649 304.587L172.312 306.701L170.545 309.494L168.372 313.67L167.214 316.862L166.415 319.24L165.652 322.427L165.218 325.034L165.022 327.263L165.041 329.647L165.264 331.34L165.72 333.84L166.534 336.021L167.982 337.821L169.662 339.191L171.163 339.731L172.496 339.792L173.589 339.488L174.808 338.801L175.859 337.635L174.09 337.953L173.313 337.819L172.476 337.655L171.641 336.906L171.316 335.897L171.333 334.57L171.708 332.924L172.562 331.265L173.619 329.904L174.939 328.801L176.563 327.91L178.033 327.488L179.358 327.616L180.367 327.871L181.57 328.679L182.333 329.635L182.692 330.801L182.992 331.938L183.196 332.978L183.095 334.561L183.65 332.261L183.756 330.73L183.743 329.14L183.784 327.775L183.741 326.171L183.519 324.231L183.368 322.425L182.99 320.854L182.685 319.418L182.181 317.488L181.487 316.355L180.363 315.407L179.107 314.79L177.518 315.196L176.108 316.186L175.021 317.532L174.556 319.134L174.569 320.476L174.701 321.382L175.43 322.087L176.375 322.205L177.349 321.842L178.442 320.796L177.678 322.004L176.626 322.674L175.443 323.181L173.949 322.942L173.171 322.065L172.74 320.765L172.715 319.565L172.852 318.296L173.544 316.212L174.642 314.476L176.178 313.35L177.695 312.315L179.212 311.279L180.407 309.887L181.362 308.378L181.839 307.128L181.833 306.086L181.145 305.5L180.278 305.569L179.185 306.615L178.457 308.137L178.271 307.254L178.528 306.292L179.411 304.896L180.505 304.097L181.855 303.078L183.151 302.33L184.441 301.034L185.134 299.94L185.587 298.481L185.24 297.419L184.851 297.228L183.973 297.687L183.22 298.505L183.733 297.075L184.521 295.829L185.752 294.504L187.962 292.622L190.507 290.706Z"/>
</mask>
<path d="M190.507 290.706L193.757 288.79L191.988 289.108L189.49 290.207L187.901 291.108L185.738 292.42L183.653 293.918L181.372 295.914L178.672 298.447L176.014 301.593L173.649 304.587L172.312 306.701L170.545 309.494L168.372 313.67L167.214 316.862L166.415 319.24L165.652 322.427L165.218 325.034L165.022 327.263L165.041 329.647L165.264 331.34L165.72 333.84L166.534 336.021L167.982 337.821L169.662 339.191L171.163 339.731L172.496 339.792L173.589 339.488L174.808 338.801L175.859 337.635L174.09 337.953L173.313 337.819L172.476 337.655L171.641 336.906L171.316 335.897L171.333 334.57L171.708 332.924L172.562 331.265L173.619 329.904L174.939 328.801L176.563 327.91L178.033 327.488L179.358 327.616L180.367 327.871L181.57 328.679L182.333 329.635L182.692 330.801L182.992 331.938L183.196 332.978L183.095 334.561L183.65 332.261L183.756 330.73L183.743 329.14L183.784 327.775L183.741 326.171L183.519 324.231L183.368 322.425L182.99 320.854L182.685 319.418L182.181 317.488L181.487 316.355L180.363 315.407L179.107 314.79L177.518 315.196L176.108 316.186L175.021 317.532L174.556 319.134L174.569 320.476L174.701 321.382L175.43 322.087L176.375 322.205L177.349 321.842L178.442 320.796L177.678 322.004L176.626 322.674L175.443 323.181L173.949 322.942L173.171 322.065L172.74 320.765L172.715 319.565L172.852 318.296L173.544 316.212L174.642 314.476L176.178 313.35L177.695 312.315L179.212 311.279L180.407 309.887L181.362 308.378L181.839 307.128L181.833 306.086L181.145 305.5L180.278 305.569L179.185 306.615L178.457 308.137L178.271 307.254L178.528 306.292L179.411 304.896L180.505 304.097L181.855 303.078L183.151 302.33L184.441 301.034L185.134 299.94L185.587 298.481L185.24 297.419L184.851 297.228L183.973 297.687L183.22 298.505L183.733 297.075L184.521 295.829L185.752 294.504L187.962 292.622L190.507 290.706Z" fill="white" fill-opacity="0.3" stroke="black" stroke-width="2" mask="url(#path-10-inside-1_79_6)"/>
<mask id="path-11-inside-2_79_6" fill="white">
<path d="M210.661 329.884L208.312 328.114L209.121 329.39L210.684 330.911L211.809 331.792L213.397 332.953L215.079 333.972L217.15 334.934L219.712 335.997L222.657 336.762L225.403 337.359L227.229 337.516L229.642 337.722L233.089 337.655L235.552 337.202L237.366 336.814L239.692 336.048L241.529 335.27L243.041 334.464L244.58 333.42L245.601 332.512L247.066 331.068L248.202 329.476L248.875 327.543L249.191 325.609L249.029 324.178L248.614 323.086L248.045 322.344L247.184 321.667L246.07 321.33L246.879 322.606L247.057 323.285L247.236 324.024L247.035 325.015L246.492 325.71L245.626 326.27L244.431 326.68L243.065 326.714L241.823 326.457L240.658 325.879L239.527 324.965L238.753 323.973L238.384 322.86L238.205 321.944L238.319 320.634L238.678 319.612L239.312 318.821L239.946 318.091L240.551 317.48L241.612 316.876L239.932 317.427L238.903 318.002L237.877 318.699L236.978 319.255L235.953 319.982L234.772 320.997L233.653 321.897L232.763 322.876L231.936 323.741L230.857 324.976L230.36 326.019L230.128 327.326L230.156 328.596L230.961 329.69L232.083 330.39L233.326 330.677L234.523 330.357L235.388 329.767L235.93 329.271L236.139 328.384L235.893 327.578L235.326 326.957L234.276 326.535L235.319 326.624L236.112 327.175L236.844 327.901L237.198 329.198L236.895 330.198L236.199 331.104L235.43 331.641L234.561 332.08L232.974 332.427L231.474 332.298L230.221 331.558L229.033 330.792L227.845 330.027L226.535 329.674L225.231 329.562L224.259 329.72L223.585 330.175L223.44 330.977L223.78 331.64L224.831 332.062L226.066 331.986L225.557 332.516L224.846 332.726L223.639 332.623L222.749 332.095L221.629 331.456L220.702 330.743L219.423 330.271L218.477 330.191L217.377 330.458L216.807 331.194L216.816 331.587L217.413 332.09L218.199 332.339L217.097 332.546L216.022 332.454L214.743 332.043L212.77 331.09L210.661 329.884Z"/>
</mask>
<path d="M210.661 329.884L208.312 328.114L209.121 329.39L210.684 330.911L211.809 331.792L213.397 332.953L215.079 333.972L217.15 334.934L219.712 335.997L222.657 336.762L225.403 337.359L227.229 337.516L229.642 337.722L233.089 337.655L235.552 337.202L237.366 336.814L239.692 336.048L241.529 335.27L243.041 334.464L244.58 333.42L245.601 332.512L247.066 331.068L248.202 329.476L248.875 327.543L249.191 325.609L249.029 324.178L248.614 323.086L248.045 322.344L247.184 321.667L246.07 321.33L246.879 322.606L247.057 323.285L247.236 324.024L247.035 325.015L246.492 325.71L245.626 326.27L244.431 326.68L243.065 326.714L241.823 326.457L240.658 325.879L239.527 324.965L238.753 323.973L238.384 322.86L238.205 321.944L238.319 320.634L238.678 319.612L239.312 318.821L239.946 318.091L240.551 317.48L241.612 316.876L239.932 317.427L238.903 318.002L237.877 318.699L236.978 319.255L235.953 319.982L234.772 320.997L233.653 321.897L232.763 322.876L231.936 323.741L230.857 324.976L230.36 326.019L230.128 327.326L230.156 328.596L230.961 329.69L232.083 330.39L233.326 330.677L234.523 330.357L235.388 329.767L235.93 329.271L236.139 328.384L235.893 327.578L235.326 326.957L234.276 326.535L235.319 326.624L236.112 327.175L236.844 327.901L237.198 329.198L236.895 330.198L236.199 331.104L235.43 331.641L234.561 332.08L232.974 332.427L231.474 332.298L230.221 331.558L229.033 330.792L227.845 330.027L226.535 329.674L225.231 329.562L224.259 329.72L223.585 330.175L223.44 330.977L223.78 331.64L224.831 332.062L226.066 331.986L225.557 332.516L224.846 332.726L223.639 332.623L222.749 332.095L221.629 331.456L220.702 330.743L219.423 330.271L218.477 330.191L217.377 330.458L216.807 331.194L216.816 331.587L217.413 332.09L218.199 332.339L217.097 332.546L216.022 332.454L214.743 332.043L212.77 331.09L210.661 329.884Z" fill="white" fill-opacity="0.3" stroke="black" stroke-width="2" mask="url(#path-11-inside-2_79_6)"/>
<mask id="path-12-inside-3_79_6" fill="white">
<path d="M88.4474 196.129L90.6803 199.17L90.1858 197.442L88.8421 195.067L87.7856 193.577L86.2626 191.557L84.5617 189.634L82.3466 187.564L79.5554 185.133L76.1572 182.805L72.9405 180.753L70.7032 179.635L67.7468 178.158L63.3727 176.417L60.081 175.586L57.6347 175.03L54.3867 174.592L51.7496 174.422L49.512 174.451L47.1416 174.711L45.48 175.102L43.0386 175.807L40.9502 176.837L39.3051 178.458L38.1111 180.268L37.7253 181.815L37.7984 183.148L38.2105 184.205L39.0171 185.349L40.2826 186.277L39.7881 184.549L39.8437 183.762L39.9226 182.913L40.5841 182.007L41.5548 181.582L42.8772 181.465L44.5528 181.673L46.2888 182.355L47.7489 183.27L48.9798 184.473L50.0296 185.999L50.5966 187.419L50.6029 188.75L50.4508 189.78L49.7684 191.058L48.8937 191.913L47.7696 192.388L46.6688 192.8L45.6543 193.108L44.0689 193.167L46.4134 193.487L47.9472 193.439L49.5275 193.266L50.8899 193.17L52.4818 192.966L54.3895 192.549L56.1709 192.217L57.6959 191.684L59.0945 191.235L60.9637 190.54L62.0208 189.735L62.8512 188.521L63.3388 187.21L62.7747 185.669L61.6485 184.366L60.2 183.42L58.5592 183.119L57.2252 183.267L56.337 183.489L55.7091 184.286L55.6869 185.238L56.1455 186.17L57.2963 187.152L56.0178 186.514L55.2447 185.535L54.6212 184.409L54.7093 182.898L55.5035 182.036L56.7539 181.476L57.9449 181.331L59.221 181.339L61.3643 181.818L63.2021 182.736L64.4765 184.15L65.6593 185.556L66.8422 186.962L68.3474 188.01L69.9454 188.809L71.2368 189.158L72.2732 189.046L72.7864 188.303L72.6306 187.448L71.4799 186.465L69.8921 185.894L70.7519 185.62L71.7353 185.779L73.2135 186.517L74.1181 187.525L75.2675 188.765L76.1423 189.98L77.5611 191.133L78.7197 191.712L80.2174 192.016L81.2383 191.564L81.3892 191.158L80.8442 190.33L79.9551 189.664L81.4295 190.031L82.7479 190.689L84.1899 191.78L86.2852 193.79L88.4474 196.129Z"/>
</mask>
<path d="M88.4474 196.129L90.6803 199.17L90.1858 197.442L88.8421 195.067L87.7856 193.577L86.2626 191.557L84.5617 189.634L82.3466 187.564L79.5554 185.133L76.1572 182.805L72.9405 180.753L70.7032 179.635L67.7468 178.158L63.3727 176.417L60.081 175.586L57.6347 175.03L54.3867 174.592L51.7496 174.422L49.512 174.451L47.1416 174.711L45.48 175.102L43.0386 175.807L40.9502 176.837L39.3051 178.458L38.1111 180.268L37.7253 181.815L37.7984 183.148L38.2105 184.205L39.0171 185.349L40.2826 186.277L39.7881 184.549L39.8437 183.762L39.9226 182.913L40.5841 182.007L41.5548 181.582L42.8772 181.465L44.5528 181.673L46.2888 182.355L47.7489 183.27L48.9798 184.473L50.0296 185.999L50.5966 187.419L50.6029 188.75L50.4508 189.78L49.7684 191.058L48.8937 191.913L47.7696 192.388L46.6688 192.8L45.6543 193.108L44.0689 193.167L46.4134 193.487L47.9472 193.439L49.5275 193.266L50.8899 193.17L52.4818 192.966L54.3895 192.549L56.1709 192.217L57.6959 191.684L59.0945 191.235L60.9637 190.54L62.0208 189.735L62.8512 188.521L63.3388 187.21L62.7747 185.669L61.6485 184.366L60.2 183.42L58.5592 183.119L57.2252 183.267L56.337 183.489L55.7091 184.286L55.6869 185.238L56.1455 186.17L57.2963 187.152L56.0178 186.514L55.2447 185.535L54.6212 184.409L54.7093 182.898L55.5035 182.036L56.7539 181.476L57.9449 181.331L59.221 181.339L61.3643 181.818L63.2021 182.736L64.4765 184.15L65.6593 185.556L66.8422 186.962L68.3474 188.01L69.9454 188.809L71.2368 189.158L72.2732 189.046L72.7864 188.303L72.6306 187.448L71.4799 186.465L69.8921 185.894L70.7519 185.62L71.7353 185.779L73.2135 186.517L74.1181 187.525L75.2675 188.765L76.1423 189.98L77.5611 191.133L78.7197 191.712L80.2174 192.016L81.2383 191.564L81.3892 191.158L80.8442 190.33L79.9551 189.664L81.4295 190.031L82.7479 190.689L84.1899 191.78L86.2852 193.79L88.4474 196.129Z" fill="white" fill-opacity="0.3" stroke="black" stroke-width="2" mask="url(#path-12-inside-3_79_6)"/>
<path d="M91.3777 156.507L93.6928 156.752L95.4478 157.892L96.7549 160.188L97.4552 161.945L97.7074 163.762L95.9242 161.324L94.2719 160.923L92.5543 161.148L90.6128 162.498L89.3435 164.856L89.0823 166.809L89.4186 169.231L91.155 171.333L93.7316 173.462L96.9055 174.416L100.649 174.543L104.112 173.747L107.398 172.222L109.442 170.516L111.253 168.224L112.447 164.779L112.708 161.731L112.269 158.569L111.111 155.158L109.655 152.882L107.517 150.08L104.95 147.47L102.224 145.36L100.31 144.72L95.6986 143.817L92.6648 143.871L89.7244 144.598L87.0921 145.354L83.9557 146.86L82.0329 148.345L80.1007 149.762L78.0286 152.362L75.8446 155.799L74.2767 159.292L73.5116 163.64L73.7361 167.994L74.0538 171.926L75.2117 175.885L73.4191 172.283L72.5132 168.497L72.1116 165.604L72.0927 162.729L72.6896 157.719L74.8361 151.821L77.7575 147.671L81.5005 144.51L85.2435 142.444L89.2294 141.032L93.0379 140.534L98.8535 141.349L101.803 142.333L106.406 144.813L110.159 148.295L111.596 149.888L112.548 150.723L114.359 151.171L116.394 150.494L117.57 149.107L118.298 147.23L118.093 145.75L117.486 144.117L115.731 141.881L113.64 139.962L111.035 138.179L107.301 135.928L103.156 134.552L99.3756 133.608L95.6883 133.337L92.0478 133.402L87.6979 134.383L83.8241 136.054L80.2024 137.898L75.302 142.033L73.1365 144.508L71.2045 147.021L68.2085 152.277L66.6408 158.51L66.3237 161.703L66.3426 164.578L66.3149 168.212L67.258 171.171L63.2812 169.362L59.1738 168.256L54.0677 167.622L46.7866 167.753L40.8124 168.535L35.0996 170.104L30.4978 172.008L25.8586 174.738L22.5263 177.024L19.9968 179.615L23.0301 172.985L27.2861 166.4L34.1556 156.733L42.3975 148.735L48.0539 143.474L54.5412 138.721L61.6539 134.639L67.0025 132.09L73.5833 129.653L78.8666 128.277L84.9434 127.139L89.5455 126.88L94.7916 126.878L98.4882 127.217L104.547 128.684L107.814 129.764L110.624 131.383L116.561 134.716L120.809 138.476L124.254 142.478L126.877 147.136L128.343 151.67L128.997 156.38L128.726 160.457L128.213 163.881L126.254 168.932L123.846 172.947L118.992 178.514L113.69 181.948L110.516 183.185L106.213 184.501L102.554 184.98L99.1655 184.67L94.4046 183.786L91.212 182.149L88.6261 180.5L86.1709 178.15L84.7518 175.596L83.6966 171.829L83.5188 166.715L84.2093 164.021L84.7132 162.174L86.2346 159.988L87.1586 158.977L89.2121 157.338L91.3777 156.507Z" fill="white" fill-opacity="0.3" stroke="black"/>
<path d="M305.908 157.308L308.2 156.897L310.203 157.501L312.1 159.34L313.263 160.832L314.012 162.506L311.619 160.663L309.921 160.74L308.334 161.436L306.847 163.274L306.287 165.893L306.582 167.841L307.581 170.072L309.835 171.606L312.904 172.93L316.218 172.961L319.848 172.037L322.951 170.306L325.68 167.923L327.166 165.714L328.265 163.007L328.45 159.366L327.849 156.366L326.544 153.452L324.48 150.501L322.446 148.723L319.61 146.629L316.416 144.84L313.209 143.576L311.193 143.495L306.513 143.916L303.615 144.815L300.995 146.335L298.678 147.795L296.087 150.118L294.656 152.08L293.196 153.981L291.933 157.057L290.796 160.967L290.266 164.759L290.745 169.147L292.177 173.266L293.58 176.952L295.798 180.43L293.071 177.472L291.143 174.09L289.95 171.424L289.129 168.669L288.303 163.691L288.716 157.428L290.362 152.628L293.073 148.547L296.091 145.518L299.523 143.049L303.041 141.507L308.853 140.665L311.96 140.786L317.072 141.882L321.648 144.178L323.474 145.306L324.621 145.841L326.485 145.765L328.25 144.547L328.992 142.886L329.167 140.881L328.556 139.518L327.517 138.119L325.207 136.462L322.663 135.204L319.665 134.219L315.45 133.1L311.086 132.937L307.192 133.087L303.576 133.856L300.099 134.936L296.196 137.092L292.943 139.779L289.98 142.561L286.43 147.9L285.042 150.881L283.889 153.834L282.48 159.718L282.715 166.141L283.303 169.295L284.124 172.05L285.112 175.547L286.844 178.125L282.521 177.499L278.268 177.584L273.188 178.402L266.233 180.561L260.715 182.98L255.668 186.082L251.781 189.196L248.089 193.113L245.527 196.239L243.822 199.433L244.883 192.22L247.13 184.708L251.027 173.507L256.707 163.526L260.669 156.894L265.57 150.518L271.26 144.612L275.683 140.67L281.322 136.493L286.01 133.695L291.528 130.906L295.874 129.371L300.911 127.905L304.555 127.197L310.782 126.914L314.221 127.039L317.371 127.808L324.003 129.351L329.132 131.774L333.558 134.655L337.377 138.394L340.052 142.339L341.995 146.679L342.874 150.669L343.338 154.1L342.867 159.498L341.676 164.025L338.57 170.726L334.438 175.504L331.737 177.579L327.972 180.045L324.592 181.526L321.252 182.175L316.434 182.656L312.911 181.975L309.968 181.115L306.954 179.544L304.878 177.487L302.812 174.165L301.213 169.304L301.124 166.525L301.092 164.611L301.942 162.087L302.547 160.858L304.061 158.711L305.908 157.308Z" fill="white" fill-opacity="0.3" stroke="black"/>
<mask id="path-15-inside-4_79_6" fill="white">
<path d="M285.236 193.509L281.211 191.211L282.582 192.814L285.251 194.762L287.179 195.903L289.9 197.414L292.787 198.758L296.35 200.055L300.758 201.506L305.838 202.617L310.578 203.511L313.734 203.812L317.904 204.211L323.873 204.339L328.146 203.937L331.294 203.575L335.338 202.783L338.536 201.947L341.171 201.057L343.858 199.878L345.647 198.834L348.216 197.165L350.22 195.295L351.43 192.981L352.02 190.645L351.774 188.891L351.081 187.537L350.113 186.598L348.639 185.721L346.719 185.243L348.089 186.846L348.381 187.684L348.674 188.595L348.303 189.79L347.347 190.604L345.835 191.232L343.758 191.66L341.393 191.618L339.249 191.229L337.245 190.454L335.309 189.273L333.993 188.017L333.38 186.638L333.092 185.512L333.319 183.924L333.965 182.7L335.08 181.776L336.195 180.925L337.256 180.217L339.106 179.547L336.185 180.115L334.392 180.753L332.6 181.539L331.032 182.163L329.24 182.986L327.172 184.15L325.214 185.178L323.652 186.317L322.201 187.32L320.304 188.758L319.419 189.999L318.988 191.578L319.007 193.125L320.375 194.508L322.3 195.428L324.444 195.853L326.523 195.536L328.035 194.871L328.985 194.299L329.366 193.231L328.96 192.235L327.993 191.443L326.185 190.866L327.988 191.038L329.348 191.757L330.598 192.686L331.18 194.287L330.632 195.487L329.407 196.548L328.063 197.156L326.549 197.637L323.795 197.963L321.202 197.715L319.051 196.737L317.012 195.733L314.973 194.728L312.715 194.218L310.461 194.003L308.774 194.136L307.598 194.65L307.329 195.618L307.902 196.446L309.71 197.023L311.849 197.007L310.956 197.621L309.72 197.834L307.635 197.635L306.106 196.937L304.182 196.091L302.594 195.166L300.391 194.514L298.757 194.358L296.846 194.617L295.843 195.479L295.849 195.958L296.87 196.607L298.226 196.958L296.314 197.143L294.454 196.966L292.252 196.387L288.858 195.106L285.236 193.509Z"/>
</mask>
<path d="M285.236 193.509L281.211 191.211L282.582 192.814L285.251 194.762L287.179 195.903L289.9 197.414L292.787 198.758L296.35 200.055L300.758 201.506L305.838 202.617L310.578 203.511L313.734 203.812L317.904 204.211L323.873 204.339L328.146 203.937L331.294 203.575L335.338 202.783L338.536 201.947L341.171 201.057L343.858 199.878L345.647 198.834L348.216 197.165L350.22 195.295L351.43 192.981L352.02 190.645L351.774 188.891L351.081 187.537L350.113 186.598L348.639 185.721L346.719 185.243L348.089 186.846L348.381 187.684L348.674 188.595L348.303 189.79L347.347 190.604L345.835 191.232L343.758 191.66L341.393 191.618L339.249 191.229L337.245 190.454L335.309 189.273L333.993 188.017L333.38 186.638L333.092 185.512L333.319 183.924L333.965 182.7L335.08 181.776L336.195 180.925L337.256 180.217L339.106 179.547L336.185 180.115L334.392 180.753L332.6 181.539L331.032 182.163L329.24 182.986L327.172 184.15L325.214 185.178L323.652 186.317L322.201 187.32L320.304 188.758L319.419 189.999L318.988 191.578L319.007 193.125L320.375 194.508L322.3 195.428L324.444 195.853L326.523 195.536L328.035 194.871L328.985 194.299L329.366 193.231L328.96 192.235L327.993 191.443L326.185 190.866L327.988 191.038L329.348 191.757L330.598 192.686L331.18 194.287L330.632 195.487L329.407 196.548L328.063 197.156L326.549 197.637L323.795 197.963L321.202 197.715L319.051 196.737L317.012 195.733L314.973 194.728L312.715 194.218L310.461 194.003L308.774 194.136L307.598 194.65L307.329 195.618L307.902 196.446L309.71 197.023L311.849 197.007L310.956 197.621L309.72 197.834L307.635 197.635L306.106 196.937L304.182 196.091L302.594 195.166L300.391 194.514L298.757 194.358L296.846 194.617L295.843 195.479L295.849 195.958L296.87 196.607L298.226 196.958L296.314 197.143L294.454 196.966L292.252 196.387L288.858 195.106L285.236 193.509Z" fill="white" fill-opacity="0.3" stroke="black" stroke-width="2" mask="url(#path-15-inside-4_79_6)"/>
<mask id="path-16-inside-5_79_6" fill="white">
<path d="M242.604 56.5619L243.024 60.3111L243.457 58.5666L243.475 55.8383L243.302 54.0195L242.988 51.5094L242.472 48.9941L241.583 46.096L240.375 42.5971L238.588 38.8856L236.822 35.5039L235.439 33.4197L233.612 30.6656L230.688 26.9759L228.248 24.6155L226.404 22.9144L223.807 20.9158L221.605 19.4542L219.65 18.3647L217.466 17.4083L215.83 16.9196L213.362 16.3143L211.039 16.1664L208.804 16.7523L206.867 17.7263L205.762 18.8755L205.161 20.067L204.992 21.1892L205.121 22.5825L205.755 24.0182L206.188 22.2737L206.628 21.6193L207.12 20.9224L208.145 20.4663L209.198 20.5812L210.403 21.1392L211.752 22.1544L212.917 23.6112L213.727 25.1319L214.195 26.7879L214.344 28.6345L214.129 30.1479L213.471 31.3053L212.826 32.122L211.597 32.89L210.413 33.1957L209.201 33.0472L208.041 32.8562L207.009 32.6173L205.604 31.8787L207.478 33.3245L208.831 34.0472L210.288 34.6848L211.517 35.28L212.999 35.8963L214.86 36.4859L216.57 37.0862L218.158 37.3834L219.594 37.6913L221.561 38.0202L222.879 37.8495L224.204 37.2108L225.28 36.3169L225.558 34.7L225.232 33.009L224.447 31.467L223.175 30.3879L221.945 29.8512L221.064 29.6016L220.122 29.9796L219.629 30.7935L219.562 31.8306L220.07 33.2556L219.28 32.0647L219.097 30.8309L219.118 29.5439L219.947 28.2778L221.065 27.9264L222.428 28.0641L223.533 28.5317L224.635 29.1747L226.255 30.6579L227.391 32.3699L227.791 34.2311L228.116 36.0392L228.441 37.8473L229.224 39.5063L230.211 40.995L231.157 41.9413L232.111 42.361L232.926 41.9725L233.217 41.1533L232.709 39.7283L231.617 38.4417L232.499 38.6328L233.273 39.26L234.186 40.6371L234.469 41.9612L234.847 43.6097L235 45.0988L235.655 46.8057L236.371 47.885L237.518 48.895L238.629 49.0116L238.962 48.7349L238.902 47.7457L238.463 46.7248L239.559 47.7774L240.373 49.0056L241.08 50.6699L241.895 53.4563L242.604 56.5619Z"/>
</mask>
<path d="M242.604 56.5619L243.024 60.3111L243.457 58.5666L243.475 55.8383L243.302 54.0195L242.988 51.5094L242.472 48.9941L241.583 46.096L240.375 42.5971L238.588 38.8856L236.822 35.5039L235.439 33.4197L233.612 30.6656L230.688 26.9759L228.248 24.6155L226.404 22.9144L223.807 20.9158L221.605 19.4542L219.65 18.3647L217.466 17.4083L215.83 16.9196L213.362 16.3143L211.039 16.1664L208.804 16.7523L206.867 17.7263L205.762 18.8755L205.161 20.067L204.992 21.1892L205.121 22.5825L205.755 24.0182L206.188 22.2737L206.628 21.6193L207.12 20.9224L208.145 20.4663L209.198 20.5812L210.403 21.1392L211.752 22.1544L212.917 23.6112L213.727 25.1319L214.195 26.7879L214.344 28.6345L214.129 30.1479L213.471 31.3053L212.826 32.122L211.597 32.89L210.413 33.1957L209.201 33.0472L208.041 32.8562L207.009 32.6173L205.604 31.8787L207.478 33.3245L208.831 34.0472L210.288 34.6848L211.517 35.28L212.999 35.8963L214.86 36.4859L216.57 37.0862L218.158 37.3834L219.594 37.6913L221.561 38.0202L222.879 37.8495L224.204 37.2108L225.28 36.3169L225.558 34.7L225.232 33.009L224.447 31.467L223.175 30.3879L221.945 29.8512L221.064 29.6016L220.122 29.9796L219.629 30.7935L219.562 31.8306L220.07 33.2556L219.28 32.0647L219.097 30.8309L219.118 29.5439L219.947 28.2778L221.065 27.9264L222.428 28.0641L223.533 28.5317L224.635 29.1747L226.255 30.6579L227.391 32.3699L227.791 34.2311L228.116 36.0392L228.441 37.8473L229.224 39.5063L230.211 40.995L231.157 41.9413L232.111 42.361L232.926 41.9725L233.217 41.1533L232.709 39.7283L231.617 38.4417L232.499 38.6328L233.273 39.26L234.186 40.6371L234.469 41.9612L234.847 43.6097L235 45.0988L235.655 46.8057L236.371 47.885L237.518 48.895L238.629 49.0116L238.962 48.7349L238.902 47.7457L238.463 46.7248L239.559 47.7774L240.373 49.0056L241.08 50.6699L241.895 53.4563L242.604 56.5619Z" fill="white" fill-opacity="0.3" stroke="black" stroke-width="2" mask="url(#path-16-inside-5_79_6)"/>
<mask id="path-17-inside-6_79_6" fill="white">
<path d="M52.7516 209.846L49.8075 207.487L50.7325 209.028L52.6452 210.973L54.0516 212.14L56.0456 213.696L58.1865 215.114L60.8619 216.539L64.1874 218.165L68.0724 219.533L71.7105 220.682L74.161 221.183L77.3991 221.845L82.075 222.394L85.4695 222.344L87.9763 222.248L91.227 221.83L93.8183 221.312L95.9719 220.704L98.1944 219.84L99.6979 219.031L101.874 217.718L103.624 216.183L104.793 214.191L105.478 212.134L105.45 210.539L105.035 209.271L104.363 208.357L103.288 207.461L101.825 206.892L102.75 208.433L102.9 209.207L103.043 210.048L102.639 211.094L101.812 211.756L100.565 212.211L98.8923 212.444L97.0388 212.235L95.3916 211.729L93.8913 210.886L92.4821 209.684L91.5668 208.459L91.216 207.175L91.0964 206.141L91.4247 204.73L92.0481 203.677L93.0109 202.928L93.9674 202.244L94.8677 201.685L96.3837 201.217L94.0363 201.515L92.5672 201.958L91.0855 202.534L89.7946 202.98L88.3098 203.59L86.575 204.486L84.9402 205.267L83.6054 206.178L82.3707 206.973L80.7452 208.129L79.9324 209.179L79.4446 210.567L79.3132 211.96L80.257 213.302L81.6822 214.269L83.3262 214.808L84.9891 214.674L86.2394 214.186L87.0396 213.741L87.4398 212.809L87.2149 211.884L86.5304 211.102L85.1646 210.451L86.5649 210.737L87.565 211.482L88.4588 212.409L88.765 213.891L88.221 214.929L87.1581 215.793L86.0454 216.242L84.8107 216.565L82.6165 216.657L80.6036 216.246L79.0065 215.21L77.5 214.158L75.9936 213.107L74.2683 212.484L72.518 212.126L71.1802 212.124L70.2081 212.5L69.9048 213.35L70.2766 214.136L71.6425 214.787L73.3241 214.928L72.5645 215.415L71.5736 215.517L69.9546 215.186L68.8201 214.447L67.3886 213.546L66.2291 212.599L64.5601 211.853L63.2911 211.594L61.7658 211.688L60.8968 212.389L60.8561 212.82L61.5968 213.478L62.6282 213.892L61.1091 213.919L59.6651 213.624L57.9898 212.944L55.4457 211.546L52.7516 209.846Z"/>
</mask>
<path d="M52.7516 209.846L49.8075 207.487L50.7325 209.028L52.6452 210.973L54.0516 212.14L56.0456 213.696L58.1865 215.114L60.8619 216.539L64.1874 218.165L68.0724 219.533L71.7105 220.682L74.161 221.183L77.3991 221.845L82.075 222.394L85.4695 222.344L87.9763 222.248L91.227 221.83L93.8183 221.312L95.9719 220.704L98.1944 219.84L99.6979 219.031L101.874 217.718L103.624 216.183L104.793 214.191L105.478 212.134L105.45 210.539L105.035 209.271L104.363 208.357L103.288 207.461L101.825 206.892L102.75 208.433L102.9 209.207L103.043 210.048L102.639 211.094L101.812 211.756L100.565 212.211L98.8923 212.444L97.0388 212.235L95.3916 211.729L93.8913 210.886L92.4821 209.684L91.5668 208.459L91.216 207.175L91.0964 206.141L91.4247 204.73L92.0481 203.677L93.0109 202.928L93.9674 202.244L94.8677 201.685L96.3837 201.217L94.0363 201.515L92.5672 201.958L91.0855 202.534L89.7946 202.98L88.3098 203.59L86.575 204.486L84.9402 205.267L83.6054 206.178L82.3707 206.973L80.7452 208.129L79.9324 209.179L79.4446 210.567L79.3132 211.96L80.257 213.302L81.6822 214.269L83.3262 214.808L84.9891 214.674L86.2394 214.186L87.0396 213.741L87.4398 212.809L87.2149 211.884L86.5304 211.102L85.1646 210.451L86.5649 210.737L87.565 211.482L88.4588 212.409L88.765 213.891L88.221 214.929L87.1581 215.793L86.0454 216.242L84.8107 216.565L82.6165 216.657L80.6036 216.246L79.0065 215.21L77.5 214.158L75.9936 213.107L74.2683 212.484L72.518 212.126L71.1802 212.124L70.2081 212.5L69.9048 213.35L70.2766 214.136L71.6425 214.787L73.3241 214.928L72.5645 215.415L71.5736 215.517L69.9546 215.186L68.8201 214.447L67.3886 213.546L66.2291 212.599L64.5601 211.853L63.2911 211.594L61.7658 211.688L60.8968 212.389L60.8561 212.82L61.5968 213.478L62.6282 213.892L61.1091 213.919L59.6651 213.624L57.9898 212.944L55.4457 211.546L52.7516 209.846Z" fill="white" fill-opacity="0.3" stroke="black" stroke-width="2" mask="url(#path-17-inside-6_79_6)"/>
<mask id="path-18-inside-7_79_6" fill="white">
<path d="M268.507 101.706L271.757 99.7904L269.988 100.108L267.49 101.207L265.901 102.108L263.738 103.42L261.653 104.918L259.371 106.914L256.672 109.447L254.014 112.593L251.649 115.587L250.312 117.701L248.544 120.494L246.372 124.67L245.214 127.862L244.415 130.24L243.652 133.427L243.218 136.034L243.022 138.263L243.041 140.647L243.264 142.34L243.72 144.84L244.534 147.021L245.982 148.821L247.662 150.191L249.163 150.731L250.496 150.792L251.589 150.488L252.808 149.801L253.859 148.635L252.09 148.953L251.313 148.819L250.476 148.655L249.641 147.906L249.315 146.897L249.333 145.57L249.708 143.924L250.562 142.265L251.619 140.904L252.939 139.801L254.563 138.91L256.033 138.488L257.358 138.616L258.367 138.871L259.57 139.679L260.333 140.635L260.692 141.801L260.992 142.938L261.196 143.978L261.095 145.561L261.65 143.261L261.756 141.73L261.743 140.14L261.784 138.775L261.741 137.171L261.519 135.231L261.368 133.425L260.99 131.854L260.684 130.418L260.181 128.488L259.487 127.355L258.363 126.407L257.107 125.79L255.517 126.196L254.108 127.186L253.021 128.532L252.556 130.134L252.568 131.476L252.701 132.382L253.43 133.087L254.375 133.205L255.349 132.842L256.442 131.796L255.678 133.004L254.626 133.674L253.443 134.181L251.949 133.942L251.171 133.065L250.74 131.765L250.715 130.565L250.852 129.296L251.543 127.212L252.642 125.476L254.177 124.35L255.695 123.315L257.212 122.279L258.407 120.887L259.362 119.378L259.839 118.128L259.833 117.086L259.145 116.5L258.278 116.569L257.185 117.615L256.457 119.137L256.271 118.254L256.528 117.292L257.411 115.896L258.504 115.097L259.855 114.078L261.151 113.33L262.441 112.034L263.134 110.94L263.587 109.481L263.24 108.419L262.851 108.228L261.973 108.687L261.22 109.505L261.733 108.075L262.521 106.829L263.752 105.504L265.962 103.622L268.507 101.706Z"/>
</mask>
<path d="M268.507 101.706L271.757 99.7904L269.988 100.108L267.49 101.207L265.901 102.108L263.738 103.42L261.653 104.918L259.371 106.914L256.672 109.447L254.014 112.593L251.649 115.587L250.312 117.701L248.544 120.494L246.372 124.67L245.214 127.862L244.415 130.24L243.652 133.427L243.218 136.034L243.022 138.263L243.041 140.647L243.264 142.34L243.72 144.84L244.534 147.021L245.982 148.821L247.662 150.191L249.163 150.731L250.496 150.792L251.589 150.488L252.808 149.801L253.859 148.635L252.09 148.953L251.313 148.819L250.476 148.655L249.641 147.906L249.315 146.897L249.333 145.57L249.708 143.924L250.562 142.265L251.619 140.904L252.939 139.801L254.563 138.91L256.033 138.488L257.358 138.616L258.367 138.871L259.57 139.679L260.333 140.635L260.692 141.801L260.992 142.938L261.196 143.978L261.095 145.561L261.65 143.261L261.756 141.73L261.743 140.14L261.784 138.775L261.741 137.171L261.519 135.231L261.368 133.425L260.99 131.854L260.684 130.418L260.181 128.488L259.487 127.355L258.363 126.407L257.107 125.79L255.517 126.196L254.108 127.186L253.021 128.532L252.556 130.134L252.568 131.476L252.701 132.382L253.43 133.087L254.375 133.205L255.349 132.842L256.442 131.796L255.678 133.004L254.626 133.674L253.443 134.181L251.949 133.942L251.171 133.065L250.74 131.765L250.715 130.565L250.852 129.296L251.543 127.212L252.642 125.476L254.177 124.35L255.695 123.315L257.212 122.279L258.407 120.887L259.362 119.378L259.839 118.128L259.833 117.086L259.145 116.5L258.278 116.569L257.185 117.615L256.457 119.137L256.271 118.254L256.528 117.292L257.411 115.896L258.504 115.097L259.855 114.078L261.151 113.33L262.441 112.034L263.134 110.94L263.587 109.481L263.24 108.419L262.851 108.228L261.973 108.687L261.22 109.505L261.733 108.075L262.521 106.829L263.752 105.504L265.962 103.622L268.507 101.706Z" fill="white" fill-opacity="0.3" stroke="black" stroke-width="2" mask="url(#path-18-inside-7_79_6)"/>
<mask id="path-19-inside-8_79_6" fill="white">
<path d="M137.236 161.54L134.585 159.88L135.557 161.156L137.351 162.624L138.624 163.454L140.412 164.539L142.288 165.466L144.572 166.297L147.386 167.193L150.58 167.739L153.549 168.126L155.501 168.128L158.08 168.132L161.734 167.754L164.308 167.057L166.199 166.486L168.599 165.47L170.481 164.485L172.014 163.499L173.555 162.259L174.558 161.209L175.985 159.554L177.049 157.772L177.592 155.67L177.755 153.599L177.456 152.101L176.919 150.985L176.249 150.252L175.275 149.613L174.063 149.357L175.035 150.632L175.284 151.334L175.539 152.099L175.414 153.163L174.9 153.946L174.03 154.613L172.798 155.153L171.351 155.311L170.01 155.15L168.721 154.642L167.44 153.778L166.53 152.799L166.039 151.656L165.768 150.704L165.773 149.311L166.064 148.199L166.666 147.308L167.275 146.48L167.862 145.78L168.934 145.049L167.2 145.779L166.159 146.479L165.132 147.306L164.227 147.973L163.204 148.832L162.04 150.009L160.932 151.059L160.075 152.173L159.274 153.16L158.238 154.56L157.802 155.706L157.673 157.108L157.815 158.446L158.767 159.531L160.02 160.17L161.365 160.363L162.607 159.918L163.473 159.219L164.005 158.646L164.147 157.69L163.815 156.861L163.158 156.255L162.005 155.903L163.12 155.905L164.011 156.416L164.853 157.118L165.344 158.456L165.11 159.539L164.452 160.558L163.684 161.194L162.8 161.734L161.147 162.242L159.543 162.24L158.148 161.569L156.818 160.866L155.489 160.163L154.068 159.907L152.674 159.905L151.655 160.158L150.981 160.699L150.898 161.559L151.318 162.229L152.471 162.581L153.775 162.391L153.281 162.996L152.545 163.282L151.256 163.28L150.264 162.801L149.018 162.225L147.97 161.555L146.57 161.171L145.56 161.169L144.415 161.55L143.876 162.378L143.92 162.792L144.599 163.271L145.455 163.463L144.304 163.78L143.154 163.779L141.761 163.458L139.582 162.627L137.236 161.54Z"/>
</mask>
<path d="M137.236 161.54L134.585 159.88L135.557 161.156L137.351 162.624L138.624 163.454L140.412 164.539L142.288 165.466L144.572 166.297L147.386 167.193L150.58 167.739L153.549 168.126L155.501 168.128L158.08 168.132L161.734 167.754L164.308 167.057L166.199 166.486L168.599 165.47L170.481 164.485L172.014 163.499L173.555 162.259L174.558 161.209L175.985 159.554L177.049 157.772L177.592 155.67L177.755 153.599L177.456 152.101L176.919 150.985L176.249 150.252L175.275 149.613L174.063 149.357L175.035 150.632L175.284 151.334L175.539 152.099L175.414 153.163L174.9 153.946L174.03 154.613L172.798 155.153L171.351 155.311L170.01 155.15L168.721 154.642L167.44 153.778L166.53 152.799L166.039 151.656L165.768 150.704L165.773 149.311L166.064 148.199L166.666 147.308L167.275 146.48L167.862 145.78L168.934 145.049L167.2 145.779L166.159 146.479L165.132 147.306L164.227 147.973L163.204 148.832L162.04 150.009L160.932 151.059L160.075 152.173L159.274 153.16L158.238 154.56L157.802 155.706L157.673 157.108L157.815 158.446L158.767 159.531L160.02 160.17L161.365 160.363L162.607 159.918L163.473 159.219L164.005 158.646L164.147 157.69L163.815 156.861L163.158 156.255L162.005 155.903L163.12 155.905L164.011 156.416L164.853 157.118L165.344 158.456L165.11 159.539L164.452 160.558L163.684 161.194L162.8 161.734L161.147 162.242L159.543 162.24L158.148 161.569L156.818 160.866L155.489 160.163L154.068 159.907L152.674 159.905L151.655 160.158L150.981 160.699L150.898 161.559L151.318 162.229L152.471 162.581L153.775 162.391L153.281 162.996L152.545 163.282L151.256 163.28L150.264 162.801L149.018 162.225L147.97 161.555L146.57 161.171L145.56 161.169L144.415 161.55L143.876 162.378L143.92 162.792L144.599 163.271L145.455 163.463L144.304 163.78L143.154 163.779L141.761 163.458L139.582 162.627L137.236 161.54Z" fill="white" fill-opacity="0.3" stroke="black" stroke-width="2" mask="url(#path-19-inside-8_79_6)"/>
<mask id="path-20-inside-9_79_6" fill="white">
<path d="M243.908 167.749L247.177 165.865L245.405 166.166L242.897 167.24L241.299 168.125L239.124 169.416L237.024 170.895L234.723 172.869L231.999 175.375L229.311 178.496L226.918 181.467L225.56 183.567L223.766 186.343L221.553 190.498L220.365 193.679L219.542 196.049L218.749 199.229L218.289 201.831L218.072 204.058L218.068 206.443L218.274 208.137L218.706 210.641L219.499 212.831L220.93 214.644L222.597 216.031L224.092 216.585L225.424 216.659L226.521 216.366L227.746 215.69L228.809 214.535L227.037 214.836L226.261 214.694L225.426 214.522L224.598 213.764L224.282 212.753L224.312 211.425L224.703 209.783L225.573 208.133L226.643 206.782L227.974 205.691L229.606 204.816L231.08 204.409L232.404 204.55L233.41 204.814L234.605 205.633L235.359 206.597L235.707 207.767L235.996 208.906L236.19 209.948L236.074 211.531L236.65 209.236L236.772 207.706L236.774 206.116L236.828 204.751L236.801 203.147L236.597 201.205L236.464 199.398L236.101 197.823L235.809 196.384L235.325 194.449L234.641 193.31L233.526 192.351L232.277 191.722L230.683 192.112L229.264 193.088L228.164 194.424L227.684 196.021L227.683 197.363L227.807 198.271L228.53 198.983L229.473 199.109L230.45 198.756L231.553 197.721L230.778 198.921L229.72 199.582L228.532 200.077L227.04 199.823L226.271 198.939L225.852 197.634L225.839 196.435L225.988 195.167L226.7 193.09L227.815 191.364L229.361 190.254L230.888 189.233L232.416 188.212L233.624 186.832L234.593 185.331L235.083 184.086L235.086 183.044L234.404 182.452L233.537 182.512L232.434 183.548L231.691 185.063L231.514 184.178L231.779 183.218L232.676 181.831L233.777 181.043L235.137 180.037L236.441 179.301L237.743 178.018L238.446 176.93L238.914 175.475L238.577 174.411L238.19 174.216L237.307 174.667L236.547 175.477L237.074 174.052L237.874 172.814L239.117 171.501L241.345 169.64L243.908 167.749Z"/>
</mask>
<path d="M243.908 167.749L247.177 165.865L245.405 166.166L242.897 167.24L241.299 168.125L239.124 169.416L237.024 170.895L234.723 172.869L231.999 175.375L229.311 178.496L226.918 181.467L225.56 183.567L223.766 186.343L221.553 190.498L220.365 193.679L219.542 196.049L218.749 199.229L218.289 201.831L218.072 204.058L218.068 206.443L218.274 208.137L218.706 210.641L219.499 212.831L220.93 214.644L222.597 216.031L224.092 216.585L225.424 216.659L226.521 216.366L227.746 215.69L228.809 214.535L227.037 214.836L226.261 214.694L225.426 214.522L224.598 213.764L224.282 212.753L224.312 211.425L224.703 209.783L225.573 208.133L226.643 206.782L227.974 205.691L229.606 204.816L231.08 204.409L232.404 204.55L233.41 204.814L234.605 205.633L235.359 206.597L235.707 207.767L235.996 208.906L236.19 209.948L236.074 211.531L236.65 209.236L236.772 207.706L236.774 206.116L236.828 204.751L236.801 203.147L236.597 201.205L236.464 199.398L236.101 197.823L235.809 196.384L235.325 194.449L234.641 193.31L233.526 192.351L232.277 191.722L230.683 192.112L229.264 193.088L228.164 194.424L227.684 196.021L227.683 197.363L227.807 198.271L228.53 198.983L229.473 199.109L230.45 198.756L231.553 197.721L230.778 198.921L229.72 199.582L228.532 200.077L227.04 199.823L226.271 198.939L225.852 197.634L225.839 196.435L225.988 195.167L226.7 193.09L227.815 191.364L229.361 190.254L230.888 189.233L232.416 188.212L233.624 186.832L234.593 185.331L235.083 184.086L235.086 183.044L234.404 182.452L233.537 182.512L232.434 183.548L231.691 185.063L231.514 184.178L231.779 183.218L232.676 181.831L233.777 181.043L235.137 180.037L236.441 179.301L237.743 178.018L238.446 176.93L238.914 175.475L238.577 174.411L238.19 174.216L237.307 174.667L236.547 175.477L237.074 174.052L237.874 172.814L239.117 171.501L241.345 169.64L243.908 167.749Z" fill="white" fill-opacity="0.3" stroke="black" stroke-width="2" mask="url(#path-20-inside-9_79_6)"/>
<mask id="path-21-inside-10_79_6" fill="white">
<path d="M169.426 207.264L165.788 206.263L167.248 207.312L169.775 208.342L171.528 208.856L173.975 209.496L176.502 209.951L179.523 210.201L183.221 210.377L187.33 210.096L191.126 209.711L193.574 209.201L196.81 208.526L201.321 207.18L204.419 205.79L206.683 204.71L209.502 203.039L211.677 201.537L213.414 200.127L215.113 198.453L216.173 197.116L217.652 195.049L218.651 192.946L218.937 190.654L218.751 188.494L218.094 187.04L217.211 186.041L216.232 185.467L214.89 185.07L213.321 185.126L214.781 186.175L215.225 186.827L215.689 187.542L215.733 188.663L215.235 189.598L214.27 190.51L212.826 191.386L211.041 191.927L209.328 192.115L207.617 191.935L205.847 191.388L204.522 190.626L203.691 189.586L203.172 188.684L202.915 187.258L203.071 186.044L203.658 184.975L204.266 183.968L204.871 183.098L206.078 182.068L204.04 183.271L202.867 184.26L201.734 185.376L200.725 186.296L199.603 187.444L198.365 188.953L197.173 190.318L196.307 191.683L195.488 192.902L194.453 194.606L194.123 195.893L194.224 197.36L194.655 198.691L196.053 199.55L197.744 199.874L199.467 199.718L200.941 198.937L201.896 197.994L202.455 197.269L202.454 196.254L201.881 195.494L200.943 195.047L199.431 194.99L200.83 194.698L202.043 194.986L203.231 195.483L204.099 196.723L204.01 197.892L203.376 199.106L202.532 199.959L201.526 200.744L199.547 201.697L197.536 202.116L195.659 201.797L193.86 201.428L192.06 201.059L190.229 201.17L188.48 201.534L187.251 202.061L186.507 202.791L186.565 203.693L187.218 204.267L188.73 204.324L190.33 203.788L189.825 204.535L188.955 205.021L187.337 205.358L186.003 205.129L184.332 204.868L182.892 204.458L181.064 204.433L179.796 204.697L178.433 205.387L177.912 206.375L178.046 206.787L178.986 207.099L180.097 207.07L178.713 207.697L177.27 207.998L175.463 208.036L172.573 207.759L169.426 207.264Z"/>
</mask>
<path d="M169.426 207.264L165.788 206.263L167.248 207.312L169.775 208.342L171.528 208.856L173.975 209.496L176.502 209.951L179.523 210.201L183.221 210.377L187.33 210.096L191.126 209.711L193.574 209.201L196.81 208.526L201.321 207.18L204.419 205.79L206.683 204.71L209.502 203.039L211.677 201.537L213.414 200.127L215.113 198.453L216.173 197.116L217.652 195.049L218.651 192.946L218.937 190.654L218.751 188.494L218.094 187.04L217.211 186.041L216.232 185.467L214.89 185.07L213.321 185.126L214.781 186.175L215.225 186.827L215.689 187.542L215.733 188.663L215.235 189.598L214.27 190.51L212.826 191.386L211.041 191.927L209.328 192.115L207.617 191.935L205.847 191.388L204.522 190.626L203.691 189.586L203.172 188.684L202.915 187.258L203.071 186.044L203.658 184.975L204.266 183.968L204.871 183.098L206.078 182.068L204.04 183.271L202.867 184.26L201.734 185.376L200.725 186.296L199.603 187.444L198.365 188.953L197.173 190.318L196.307 191.683L195.488 192.902L194.453 194.606L194.123 195.893L194.224 197.36L194.655 198.691L196.053 199.55L197.744 199.874L199.467 199.718L200.941 198.937L201.896 197.994L202.455 197.269L202.454 196.254L201.881 195.494L200.943 195.047L199.431 194.99L200.83 194.698L202.043 194.986L203.231 195.483L204.099 196.723L204.01 197.892L203.376 199.106L202.532 199.959L201.526 200.744L199.547 201.697L197.536 202.116L195.659 201.797L193.86 201.428L192.06 201.059L190.229 201.17L188.48 201.534L187.251 202.061L186.507 202.791L186.565 203.693L187.218 204.267L188.73 204.324L190.33 203.788L189.825 204.535L188.955 205.021L187.337 205.358L186.003 205.129L184.332 204.868L182.892 204.458L181.064 204.433L179.796 204.697L178.433 205.387L177.912 206.375L178.046 206.787L178.986 207.099L180.097 207.07L178.713 207.697L177.27 207.998L175.463 208.036L172.573 207.759L169.426 207.264Z" fill="white" fill-opacity="0.3" stroke="black" stroke-width="2" mask="url(#path-21-inside-10_79_6)"/>
<mask id="path-22-inside-11_79_6" fill="white">
<path d="M274.938 311.866L271.588 311.71L273.037 312.319L275.418 312.71L277.038 312.811L279.287 312.888L281.576 312.792L284.265 312.43L287.536 311.878L291.093 310.86L294.359 309.815L296.423 308.919L299.151 307.736L302.889 305.743L305.381 303.981L307.191 302.639L309.394 300.693L311.058 299.012L312.353 297.491L313.572 295.755L314.286 294.424L315.248 292.398L315.786 290.432L315.665 288.442L315.154 286.652L314.344 285.549L313.408 284.873L312.456 284.573L311.216 284.493L309.85 284.838L311.299 285.447L311.793 285.913L312.316 286.429L312.535 287.368L312.25 288.253L311.551 289.206L310.426 290.219L308.949 291.015L307.477 291.499L305.948 291.671L304.308 291.546L303.023 291.153L302.126 290.432L301.526 289.769L301.07 288.613L301.011 287.559L301.353 286.544L301.724 285.578L302.114 284.728L303.006 283.63L301.413 285.032L300.544 286.09L299.731 287.247L298.995 288.216L298.196 289.398L297.354 290.909L296.53 292.287L295.991 293.604L295.47 294.789L294.838 296.425L294.756 297.575L295.081 298.795L295.674 299.838L297.038 300.298L298.574 300.251L300.059 299.792L301.225 298.853L301.91 297.875L302.283 297.156L302.118 296.299L301.493 295.766L300.599 295.566L299.264 295.805L300.443 295.293L301.554 295.306L302.675 295.501L303.636 296.383L303.747 297.387L303.388 298.533L302.785 299.414L302.029 300.267L300.449 301.448L298.753 302.184L297.056 302.27L295.419 302.3L293.781 302.33L292.194 302.771L290.719 303.41L289.726 304.089L289.192 304.847L289.389 305.597L290.054 305.958L291.388 305.719L292.704 304.963L292.383 305.69L291.699 306.266L290.335 306.857L289.128 306.917L287.621 307.014L286.292 306.94L284.685 307.266L283.616 307.73L282.532 308.571L282.235 309.505L282.419 309.827L283.294 309.912L284.263 309.677L283.151 310.469L281.935 310.997L280.356 311.372L277.777 311.686L274.938 311.866Z"/>
</mask>
<path d="M274.938 311.866L271.588 311.71L273.037 312.319L275.418 312.71L277.038 312.811L279.287 312.888L281.576 312.792L284.265 312.43L287.536 311.878L291.093 310.86L294.359 309.815L296.423 308.919L299.151 307.736L302.889 305.743L305.381 303.981L307.191 302.639L309.394 300.693L311.058 299.012L312.353 297.491L313.572 295.755L314.286 294.424L315.248 292.398L315.786 290.432L315.665 288.442L315.154 286.652L314.344 285.549L313.408 284.873L312.456 284.573L311.216 284.493L309.85 284.838L311.299 285.447L311.793 285.913L312.316 286.429L312.535 287.368L312.25 288.253L311.551 289.206L310.426 290.219L308.949 291.015L307.477 291.499L305.948 291.671L304.308 291.546L303.023 291.153L302.126 290.432L301.526 289.769L301.07 288.613L301.011 287.559L301.353 286.544L301.724 285.578L302.114 284.728L303.006 283.63L301.413 285.032L300.544 286.09L299.731 287.247L298.995 288.216L298.196 289.398L297.354 290.909L296.53 292.287L295.991 293.604L295.47 294.789L294.838 296.425L294.756 297.575L295.081 298.795L295.674 299.838L297.038 300.298L298.574 300.251L300.059 299.792L301.225 298.853L301.91 297.875L302.283 297.156L302.118 296.299L301.493 295.766L300.599 295.566L299.264 295.805L300.443 295.293L301.554 295.306L302.675 295.501L303.636 296.383L303.747 297.387L303.388 298.533L302.785 299.414L302.029 300.267L300.449 301.448L298.753 302.184L297.056 302.27L295.419 302.3L293.781 302.33L292.194 302.771L290.719 303.41L289.726 304.089L289.192 304.847L289.389 305.597L290.054 305.958L291.388 305.719L292.704 304.963L292.383 305.69L291.699 306.266L290.335 306.857L289.128 306.917L287.621 307.014L286.292 306.94L284.685 307.266L283.616 307.73L282.532 308.571L282.235 309.505L282.419 309.827L283.294 309.912L284.263 309.677L283.151 310.469L281.935 310.997L280.356 311.372L277.777 311.686L274.938 311.866Z" fill="white" fill-opacity="0.3" stroke="black" stroke-width="2" mask="url(#path-22-inside-11_79_6)"/>
<path d="M86.1794 261.357L74.7197 262.318L66.5 263.299L52 263.615L40.5 263.159L36 256.653L32 248.308L28 239.678L24.5 230.278L22.5 221.085L19.5 209L17.5 201L16 188L16 182L26 188L36 195.5L46.5 203.501L57.5 209L72 217.497L82 222.513L93.5 225.432L101 227.379L108.417 227.379L115.682 224.261L124.567 222.513L135.612 222.59L144.58 221.837L153.549 221.085L162.517 220.333L172.482 219.497L184.357 217.497L193.116 214.254L199.51 212.714L207.482 212.045L213.461 211.544L219.151 213.575L219.443 217.063L216.83 221.798L212.056 224.707L205.248 227.285L199.478 230.278L192.13 232.4L184.325 235.061L178.015 237.598L171.165 239.678L167.429 243.001L170.13 245.284L176.774 246.733L181.924 248.308L189.066 249.716L196.293 252.121L203.934 253.487L210.867 252.403L216.846 251.902L222.202 249.947L227.059 248.035L232.456 246.578L239.223 243.502L243.041 241.175L248.522 240.715L250.682 242.541L248.982 246.196L247.696 248.812L245.539 253.007L249.442 251.677L254.215 248.767L258.076 246.938L262.309 243.573L266.71 242.2L270.612 240.869L274.682 241.531L276.884 243.855L274.643 247.054L269.953 250.959L263.685 253.994L259.079 258.896L255.344 262.22L262.194 260.14L270.539 257.935L274.399 256.106L280.751 254.068L285.608 252.155L291.378 249.162L296.277 247.748L301.343 248.326L301.552 250.818L301.803 253.807L299.064 257.047L293.834 260.497L286.569 263.615L280.758 266.109L271.625 270.889L257.343 274.094L269.468 275.084L275.946 274.541L283.918 273.872L291.89 273.204L297.496 274.239L300.778 277.476L301.029 280.465L298.29 283.705L292.934 285.66L282.68 289.029L268.729 290.199L257.768 291.119L241.615 289.965L222.556 290.058L210.598 291.061L197.02 290.695L188.839 288.872L180.201 287.59L170.94 284.854L158.522 280.377L144.485 274.53L126.419 268.519L115.621 265.41L104.907 263.299L96.228 261.518L86.1794 261.357Z" fill="white"/>
<path d="M257.343 274.094L269.468 275.084L275.946 274.541L283.918 273.872L291.89 273.204L297.496 274.239L300.778 277.476L301.029 280.465L298.29 283.705L292.934 285.66L282.68 289.029L268.729 290.199L257.768 291.119L241.615 289.965L222.556 290.058L210.598 291.061L197.02 290.695L188.839 288.872L180.201 287.59L170.94 284.854L158.522 280.377L144.485 274.53L126.419 268.519L115.621 265.41L104.907 263.299L96.228 261.518L86.1794 261.357L74.7197 262.318L66.5 263.299L52 263.615L40.5 263.159L36 256.653L32 248.308L28 239.678L24.5 230.278L22.5 221.085L19.5 209L17.5 201L16 188L16 182L26 188L36 195.5L46.5 203.501L57.5 209L72 217.497L82 222.513L93.5 225.432L101 227.379L108.417 227.379M257.343 274.094L251.281 273.6L241.73 273.397L231.598 272.24L226.448 270.665L220.717 268.135M257.343 274.094L271.625 270.889L280.758 266.109L286.569 263.615L293.834 260.497L299.064 257.047L301.803 253.807L301.552 250.818L301.343 248.326L296.277 247.748L291.378 249.162L285.608 252.155L280.751 254.068L274.399 256.106L270.539 257.935L262.194 260.14L255.344 262.22M208.257 263.159L218.1 266.849L220.717 268.135M208.257 263.159L200.035 260.838L191.854 259.016L184.129 256.653L177.359 253.709L169.468 249.353L166.144 245.618L167.429 243.001M208.257 263.159L215.979 259.501L220.836 257.588L226.191 255.634L232.212 255.631L240.184 254.962L245.539 253.007M167.429 243.001L171.165 239.678L178.015 237.598L184.325 235.061L192.13 232.4L199.478 230.278L205.248 227.285L212.056 224.707L216.83 221.798L219.443 217.063L219.151 213.575L213.461 211.544L207.482 212.045L199.51 212.714L193.116 214.254L184.357 217.497L172.482 219.497L162.517 220.333L153.549 221.085L144.58 221.837L135.612 222.59L124.567 222.513L115.682 224.261L108.417 227.379M167.429 243.001L170.13 245.284L176.774 246.733L181.924 248.308L189.066 249.716L196.293 252.121L203.934 253.487L210.867 252.403L216.846 251.902L222.202 249.947L227.059 248.035L232.456 246.578L239.223 243.502L243.041 241.175L248.522 240.715L250.682 242.541L248.982 246.196L247.696 248.812L245.539 253.007M108.417 227.379L117.305 231.651M255.344 262.22L250.486 264.133L246.5 264.467L241.02 264.927L233.048 265.596L226.072 266.181L220.717 268.135M255.344 262.22L259.079 258.896L263.685 253.994L269.953 250.959L274.643 247.054L276.884 243.855L274.682 241.531L270.612 240.869L266.71 242.2L262.309 243.573L258.076 246.938L254.215 248.767L249.442 251.677L245.539 253.007" stroke="black"/>
<path d="M270.369 80.614L281.441 77.5042L289.327 74.9882L298.917 73.4627L328 120.322L298.917 120.322L269.971 117.276L262.238 116.78L254.954 118.182L248.41 122.617L240.015 126.014L229.155 128.026L220.49 130.459L211.825 132.893L203.161 135.327L193.533 138.031L182.251 142.239L174.262 147.079L168.275 149.8L160.573 151.963L154.796 153.586L148.825 152.666L147.879 149.297L149.55 144.153L153.688 140.394L159.886 136.576L164.987 132.546L171.801 129.074L178.963 124.985L184.68 121.302L191.013 117.965L194.053 113.995L190.97 112.264L184.171 112.096L178.817 111.523L171.537 111.49L163.986 110.495L156.225 110.598L149.621 112.972L143.844 114.595L138.955 117.526L134.547 120.322L129.522 122.772L123.459 127.072L120.149 130.079L114.854 131.566L112.388 130.182L113.367 126.271L114.135 123.459L115.46 118.932L111.879 120.976L107.742 124.735L104.296 127.261L100.775 131.366L96.7132 133.546L93.1326 135.59L89.0113 135.709L86.4097 133.843L88.0053 130.279L91.8726 125.557L97.4544 121.393L101.051 115.708L104.091 111.738L97.7573 115.075L89.9797 118.818L86.5343 121.344L80.6821 124.546L76.274 127.342L71.1736 131.371L66.6303 133.686L61.5462 134.075L60.8701 131.668L60.0589 128.78L62.1359 125.081L66.6197 120.705L73.1642 116.27L78.3998 112.722L86.4642 106.302L99.8832 100.456L87.7894 101.775L81.5316 103.533L73.8296 105.696L66.1277 107.86L60.427 107.903L56.5923 105.344L55.781 102.456L57.858 98.7568L62.7475 95.8254L72.1802 90.5791L85.6586 86.7933L96.2488 83.8187L112.329 81.8989L131.026 78.205L142.579 74.96L155.982 72.7535L164.36 72.997L173.084 72.6239L182.695 73.5598L195.736 75.6099L210.626 78.6984L229.502 81.1867L240.692 82.1983L251.612 82.2471L260.472 82.3554L270.369 80.614Z" fill="white"/>
<path d="M99.8832 100.456L87.7894 101.775L81.5316 103.533L73.8296 105.696L66.1277 107.86L60.427 107.903L56.5923 105.344L55.781 102.456L57.858 98.7568L62.7475 95.8254L72.1802 90.5791L85.6586 86.7933L96.2488 83.8187L112.329 81.8989L131.026 78.205L142.579 74.96L155.982 72.7535L164.36 72.997L173.084 72.6239L182.695 73.5598L195.736 75.6099L210.626 78.6984L229.502 81.1867L240.692 82.1983L251.612 82.2471L260.472 82.3554L270.369 80.614L281.441 77.5042L289.327 74.9882L298.917 73.4627L328 120.322L298.917 120.322L269.971 117.276L262.238 116.78L254.954 118.182M99.8832 100.456L105.93 99.796L115.347 98.1897L125.515 97.4111L130.869 97.9844L136.976 99.3854M99.8832 100.456L86.4642 106.302L78.3998 112.722L73.1642 116.27L66.6197 120.705L62.1359 125.081L60.0589 128.78L60.8701 131.668L61.5462 134.075L66.6303 133.686L71.1736 131.371L76.274 127.342L80.6821 124.546L86.5343 121.344L89.9797 118.818L97.7573 115.075L104.091 111.738M150.151 101.917L139.788 100.153L136.976 99.3854M150.151 101.917L158.664 102.642L167.042 102.885L175.074 103.745L182.278 105.357L190.851 108.143L194.821 111.183L194.053 113.995M150.151 101.917L143.26 106.968L138.852 109.765L133.963 112.696L128.051 113.837L120.349 116L115.46 118.932M194.053 113.995L191.013 117.965L184.68 121.302L178.963 124.985L171.801 129.074L164.987 132.546L159.886 136.576L153.688 140.394L149.55 144.153L147.879 149.297L148.825 152.666L154.796 153.586L160.573 151.963L168.275 149.8L174.262 147.079L182.251 142.239L193.533 138.031L203.161 135.327L211.825 132.893L220.49 130.459L229.155 128.026L240.015 126.014L248.41 122.617L254.954 118.182M194.053 113.995L190.97 112.264L184.171 112.096L178.817 111.523L171.537 111.49L163.986 110.495L156.225 110.598L149.621 112.972L143.844 114.595L138.955 117.526L134.547 120.322L129.522 122.772L123.459 127.072L120.149 130.079L114.854 131.566L112.388 130.182L113.367 126.271L114.135 123.459L115.46 118.932M254.954 118.182L245.419 115.667M104.091 111.738L108.499 108.942L112.35 107.86L117.645 106.373L125.347 104.21L132.086 102.317L136.976 99.3854M104.091 111.738L101.051 115.708L97.4544 121.393L91.8726 125.557L88.0053 130.279L86.4097 133.843L89.0113 135.709L93.1326 135.59L96.7132 133.546L100.775 131.366L104.296 127.261L107.742 124.735L111.879 120.976L115.46 118.932" stroke="black"/>
</svg>
