<svg width="102" height="66" viewBox="0 0 102 66" fill="none" xmlns="http://www.w3.org/2000/svg">
<path d="M28.7938 22.5378L28.4617 23.0943L27.9322 23.397L27.1171 23.442L26.5267 23.4001L25.9697 23.2372L26.8801 23.0894L27.1826 22.7204L27.3107 22.2567L27.1365 21.5958L26.5933 20.9795L26.0546 20.6695L25.3119 20.4524L24.5047 20.6304L23.595 21.018L22.9597 21.7037L22.5012 22.6372L22.3427 23.6148L22.4167 24.6386L22.6829 25.37L23.1459 26.1154L24.0136 26.8484L24.8713 27.2951L25.8409 27.5786L26.9637 27.7108L27.7899 27.6255L28.8463 27.4332L29.8949 27.108L30.8157 26.68L31.2176 26.2746L31.9999 25.2179L32.3258 24.4417L32.4453 23.6052L32.522 22.8433L32.4368 21.8599L32.2214 21.1869L32.0266 20.5199L31.5033 19.6698L30.7492 18.6868L29.9093 17.8531L28.7304 17.1163L27.4379 16.6296L26.2581 16.2193L24.9757 16.0187L26.2257 16.0137L27.4294 16.2567L28.3165 16.516L29.1551 16.8701L30.5459 17.647L32.0204 18.9277L32.899 20.1867L33.3973 21.5306L33.5767 22.7377L33.5387 23.9249L33.2548 24.9529L32.3627 26.3261L31.7441 26.9514L30.504 27.8089L29.068 28.3259L28.4426 28.4916L28.0925 28.6289L27.7581 29.0323L27.726 29.6329L27.9972 30.1043L28.4612 30.5232L28.915 30.6559L29.4586 30.7058L30.3071 30.5399L31.1009 30.2491L31.913 29.8111L32.9887 29.1452L33.8559 28.2659L34.5564 27.4249L35.0505 26.5236L35.4415 25.5922L35.6463 24.3667L35.5962 23.1756L35.4675 22.0269L34.8163 20.2679L34.3398 19.4097L33.8261 18.6059L32.6341 17.19L30.9968 16.0142L30.1035 15.5352L29.2649 15.1811L28.2105 14.7204L27.2432 14.5901L28.2174 13.8074L29.002 12.9039L29.7614 11.688L30.5435 9.82514L30.9889 8.21246L31.1756 6.56773L31.1399 5.163L30.8679 3.64559L30.5781 2.51515L30.1089 1.55011L31.6967 3.14715L33.1336 5.04864L35.1729 7.9977L36.5718 11.0863L37.4657 13.1776L38.1182 15.4163L38.5049 17.7297L38.6443 19.4044L38.6122 21.3776L38.4176 22.8893L38.0642 24.5724L37.6215 25.772L37.031 27.1026L36.5162 27.9978L35.4067 29.351L34.7246 30.0448L33.937 30.5553L32.2984 31.6449L30.7258 32.2527L29.1733 32.6267L27.5226 32.7106L26.0379 32.5162L24.5937 32.0941L23.4378 31.5165L22.4993 30.959L21.2501 29.8313L20.3532 28.7194L19.2798 26.7935L18.8777 25.0202L18.8752 24.0608L18.9767 22.8052L19.2495 21.8174L19.7214 20.9968L20.5149 19.8998L21.3509 19.2945L22.1218 18.8445L23.0823 18.5152L23.9854 18.4743L25.2003 18.6769L26.7086 19.2703L27.4146 19.7817L27.8953 20.1401L28.3599 20.7988L28.5502 21.1594L28.7958 21.8848L28.7938 22.5378Z" fill="#8C775E" fill-opacity="0.05" stroke="#8C775E" stroke-opacity="0.05" stroke-width="0.5"/>
<path d="M67.9913 53.2295L68.6024 53.406L69.0302 53.8473L69.295 54.6416L69.4172 55.2374V55.8331L69.0302 54.9726L68.6024 54.774H68.1339L67.5636 55.1271L67.1358 55.8331L66.9932 56.4509V57.2453L67.3802 57.9955L67.9913 58.7898L68.8061 59.2311L69.8042 59.4297L70.7616 59.3193L71.6986 58.9663L72.3097 58.5029L72.8801 57.841L73.3282 56.7819L73.5115 55.8111V54.774L73.3282 53.6267L73.0226 52.8323L72.5541 51.8394L71.9634 50.8907L71.3116 50.0963L70.8227 49.8095L69.6209 49.3241L68.8061 49.2138L67.9913 49.3241L67.258 49.4565L66.3618 49.8095L65.7914 50.2067L65.2211 50.5818L64.5692 51.332L63.8563 52.3469L63.3063 53.406L62.9397 54.774L62.8378 56.1862L62.7767 57.4659L62.9397 58.7898L62.5934 57.5542L62.4915 56.2965V55.3477L62.5934 54.421L62.9397 52.8323L63.7341 51.023L64.6711 49.8095L65.7914 48.949L66.871 48.4415L67.9913 48.1547H69.0302L70.5579 48.6621L71.3116 49.1034L72.4523 50.0963L73.3282 51.3761L73.6541 51.9498L73.8782 52.2587L74.3467 52.4793L74.917 52.3469L75.2837 51.9498L75.5485 51.3761V50.8907L75.4466 50.339L75.0596 49.5447L74.5707 48.8387L73.9393 48.1547L73.0226 47.2721L71.9634 46.6543L70.9857 46.1909L70.0079 45.9482L69.0302 45.8158L67.8284 45.9482L66.7284 46.3233L65.6896 46.7646L64.223 47.8899L63.5508 48.5959L62.9397 49.3241L61.9415 50.8907L61.2897 52.8323L61.086 53.8473L60.9842 54.774L60.8416 55.9434L60.9842 56.9364L59.9861 56.1862L58.9268 55.6566L57.5824 55.2374L55.627 54.9726H53.9974L52.4085 55.2374L51.1049 55.6566L49.7605 56.3406L48.7827 56.9364L48.0087 57.6645L49.0679 55.6566L50.4531 53.7149L52.653 50.8907L55.1585 48.6621L56.8695 47.2059L58.7843 45.9482L60.8416 44.9332L62.3693 44.3375L64.223 43.83L65.6896 43.6093L67.3599 43.499L68.6024 43.6093L70.0079 43.83L70.9857 44.0948L72.5541 44.8229L73.3893 45.3083L74.0819 45.9482L75.5485 47.2721L76.5466 48.6621L77.3206 50.0963L77.8503 51.707L78.0743 53.2295V54.774L77.8503 56.0758L77.5855 57.157L76.8725 58.7015L76.0781 59.893L74.5707 61.4817L73.0226 62.3642L72.1264 62.629L70.9246 62.8717H69.9265L69.0302 62.629L67.7876 62.1436L66.9932 61.4817L66.3618 60.8418L65.7914 59.9813L65.5062 59.0987L65.3637 57.841L65.5062 56.1862L65.7914 55.3477L65.9951 54.774L66.484 54.1342L66.7692 53.8473L67.3802 53.406L67.9913 53.2295Z" fill="#8C775E" fill-opacity="0.05" stroke="#8C775E" stroke-opacity="0.05" stroke-width="0.5"/>
<path d="M27.5781 53.7984L26.9766 53.5898L26.5714 53.1265L26.3466 52.3193L26.2543 51.7178L26.2841 51.1229L26.6276 52.0027L27.0449 52.2236L27.5128 52.2484L28.1 51.926L28.5625 51.2435L28.7357 50.634L28.7754 49.8407L28.4263 49.0711L27.8557 48.2455L27.0641 47.7617L26.0772 47.5106L25.1156 47.5702L24.1622 47.8733L23.5287 48.3037L22.9261 48.9346L22.4257 49.9686L22.1941 50.9285L22.1423 51.9642L22.2681 53.1197L22.5336 53.9291L22.9519 54.9455L23.4944 55.9242L24.1057 56.752L24.5796 57.0643L25.7556 57.6126L26.5638 57.7658L27.383 57.6987L28.122 57.6052L29.0347 57.3001L29.6241 56.9336L30.2125 56.5891L30.9009 55.8744L31.6636 54.8984L32.2657 53.8698L32.7002 52.523L32.8724 51.1181L32.9974 49.8432L32.9007 48.5125L33.1849 49.7648L33.2238 51.0262L33.1764 51.9737L33.0284 52.8938L32.6032 54.4621L31.7195 56.227L30.7231 57.3894L29.5613 58.1896L28.4578 58.6393L27.3246 58.8666L26.2872 58.8117L24.7868 58.2241L24.0561 57.7436L22.9665 56.6917L22.1557 55.3673L21.8589 54.7772L21.6505 54.4568L21.1937 54.2117L20.6175 54.3138L20.2314 54.691L19.9383 55.25L19.9141 55.7347L19.9883 56.291L20.3351 57.1047L20.7881 57.8357L21.3846 58.5522L22.2559 59.4821L23.2829 60.155L24.2362 60.6695L25.2005 60.9635L26.1704 61.1474L27.3772 61.0787L28.4944 60.7623L29.554 60.3765L31.0748 59.3302L31.7814 58.6606L32.428 57.9657L33.5031 56.454L34.251 54.5493L34.5051 53.5464L34.6531 52.6263L34.8539 51.466L34.7611 50.4668L35.7204 51.2688L36.7518 51.8536L38.0735 52.3434L40.0132 52.7112L41.6406 52.7973L43.2405 52.6168L44.5634 52.2671L45.9402 51.655L46.9464 51.1118L47.7558 50.4255L46.5977 52.3747L45.1174 54.2407L42.7794 56.9449L40.1659 59.0381L38.3844 60.402L36.4094 61.5568L34.3041 62.4617L32.7486 62.9759L30.8721 63.3847L29.3964 63.5275L27.7228 63.5494L26.4874 63.3736L25.0947 63.0789L24.1315 62.7628L22.6015 61.9528L21.7917 61.4238L21.132 60.7482L19.7334 59.3486L18.806 57.9076L18.1046 56.4343L17.6561 54.7978L17.5084 53.2655L17.5855 51.723L17.8743 50.4347L18.1928 49.369L18.9819 47.8642L19.8347 46.7163L21.4194 45.2094L23.0096 44.4098L23.9179 44.1928L25.1302 44.0139L26.127 44.0667L27.01 44.3564L28.2266 44.9069L28.987 45.6099L29.5856 46.2823L30.1123 47.1719L30.353 48.0684L30.4326 49.3319L30.2075 50.977L29.8809 51.7993L29.6488 52.3615L29.1286 52.9746L28.8295 53.246L28.1972 53.6544L27.5781 53.7984Z" fill="#8C775E" fill-opacity="0.05" stroke="#8C775E" stroke-opacity="0.05" stroke-width="0.5"/>
<path d="M68.041 19.3757L67.495 19.0426L67.1928 18.5025L67.1366 17.6647L67.1683 17.0567L67.3181 16.4813L67.4756 17.4155L67.8389 17.7211L68.2915 17.8458L68.9312 17.6565L69.5219 17.0883L69.8149 16.5294L70.0146 15.7621L69.8293 14.9345L69.4387 14.0046L68.7625 13.3615L67.8483 12.9041L66.8957 12.756L65.9019 12.8477L65.1951 13.1327L64.4778 13.6204L63.7786 14.5242L63.3575 15.4132L63.0968 16.415L62.9855 17.5721L63.081 18.4207L63.284 19.5045L63.6161 20.5781L64.0461 21.5189L64.4462 21.926L65.4851 22.7147L66.2445 23.038L67.0593 23.1483L67.8009 23.2155L68.7554 23.1129L69.4062 22.881L70.0514 22.6704L70.8697 22.1192L71.8135 21.3284L72.611 20.4517L73.309 19.2278L73.7624 17.8908L74.1431 16.6708L74.3185 15.3486L74.3424 16.6344L74.1246 17.8763L73.8861 18.7928L73.5548 19.6609L72.821 21.1034L71.5988 22.6398L70.3886 23.5628L69.0901 24.0959L67.9196 24.2989L66.7653 24.2779L65.7618 24.0015L64.4136 23.1048L63.7965 22.478L62.9442 21.2154L62.4198 19.7461L62.2492 19.1052L62.1104 18.7472L61.7133 18.4094L61.129 18.3856L60.675 18.6717L60.275 19.1554L60.153 19.6243L60.1127 20.1842L60.2869 21.0545L60.5817 21.8666L61.0197 22.6954L61.6833 23.7918L62.5512 24.6704L63.3792 25.3782L64.2627 25.8728L65.1739 26.2608L66.3681 26.4527L67.5249 26.383L68.6393 26.2331L70.3389 25.5363L71.1657 25.0331L71.9391 24.4923L73.297 23.2446L74.4148 21.5424L74.8667 20.6161L75.198 19.7481L75.6297 18.6564L75.7416 17.6593L76.5171 18.6495L77.4072 19.4429L78.6005 20.2055L80.4229 20.9816L81.997 21.4152L83.5984 21.5821L84.9631 21.524L86.4337 21.221L87.5279 20.9056L88.4587 20.4082L86.9307 22.066L85.1046 23.5731L82.2696 25.7159L79.2892 27.202L77.2703 28.1535L75.1045 28.859L72.862 29.292L71.2365 29.461L69.3184 29.4581L67.8462 29.281L66.205 28.9432L65.0324 28.506L63.7302 27.9189L62.8523 27.403L61.5202 26.2823L60.8355 25.5912L60.3273 24.7888L59.2434 23.1198L58.6286 21.5114L58.2414 19.9201L58.1347 18.2233L58.301 16.693L58.6892 15.201L59.2329 14.0031L59.7605 13.0292L60.8374 11.7269L61.9043 10.7873L63.7598 9.65373L65.477 9.21306L66.4094 9.19576L67.6313 9.28106L68.5955 9.54662L69.4002 10.0195L70.4785 10.819L71.0795 11.6698L71.5286 12.4559L71.8633 13.4389L71.9169 14.3674L71.7385 15.6202L71.1847 17.1808L70.6985 17.9149L70.3575 18.4148L69.7245 18.9029L69.3769 19.1041L68.6756 19.3678L68.041 19.3757Z" fill="#8C775E" fill-opacity="0.05" stroke="#8C775E" stroke-opacity="0.05" stroke-width="0.5"/>
<path d="M78.8895 33.9574L76.1233 33.1186L77.4676 34.6528L78.3139 35.9668L78.755 37.5481L78.6844 39.5737L80.1681 37.9765L81.4971 37.3921L82.7622 37.3156L83.8316 37.6992L85.0029 38.1193L86.2251 38.5577L87.4833 39.2301L88.8268 39.9884L90.1868 40.6973L90.9192 41.2364L90.9656 40.7556L90.705 39.9988L90.3425 39.2055L89.607 38.3337L89.0094 37.7324L88.3788 37.2298L87.7318 36.7766L89.1471 36.1235L89.7702 35.7943L90.4247 35.1999L90.9444 34.6678L91.3442 33.9821L91.6572 33.0441L91.8878 32.353L92.0645 31.3109L92.1933 30.5833L92.337 29.6399L92.4298 28.6782L92.5047 27.5996L92.6993 26.6745L92.9958 25.7859L93.4271 24.8351L93.9947 23.9885L94.4126 23.4198L93.6877 23.7125L92.7606 24.0986L91.5474 24.6583L90.7087 25.463L89.9045 26.3353L89.1856 27.2934L88.6689 28.1583L88.0174 29.0854L87.333 30.1112L86.2097 31.256L85.2872 32.1411L84.2448 32.8727L83.3027 33.4744L82.2079 34.0214L80.7278 34.2893L78.8895 33.9574Z" fill="#8C775E" fill-opacity="0.05" stroke="#8C775E" stroke-opacity="0.05" stroke-width="0.5"/>
<path d="M17.8046 39.7357L20.6491 39.2478L18.7887 38.4713L17.4697 37.6693L16.4018 36.4448L15.6058 34.5907L14.9487 36.694L14.0011 37.8168L12.8954 38.4539L11.7705 38.5891L10.5384 38.7372L9.25282 38.8918L7.83557 38.8519L6.30505 38.7732L4.78066 38.7463L3.89294 38.5903L4.05524 39.0437L4.61089 39.6075L5.27367 40.1584L6.30529 40.6124L7.09813 40.8849L7.87871 41.0538L8.65316 41.1709L7.65696 42.3941L7.23615 42.9702L6.89955 43.7989L6.65782 44.5111L6.58905 45.3076L6.7055 46.292L6.7913 47.0174L7.07458 48.0343L7.26752 48.7468L7.53854 49.66L7.86312 50.5669L8.25354 51.5709L8.47099 52.4906L8.58131 53.4232L8.59675 54.4723L8.44536 55.489L8.31077 56.1883L8.83872 55.5993L9.50898 54.8356L10.3629 53.7871L10.776 52.6865L11.1294 51.5405L11.3695 50.3555L11.4673 49.3454L11.66 48.2187L11.8404 46.9884L12.3652 45.454L12.8196 44.2433L13.447 43.1169L14.0391 42.1524L14.792 41.1685L16.0099 40.2627L17.8046 39.7357Z" fill="#8C775E" fill-opacity="0.05" stroke="#8C775E" stroke-opacity="0.05" stroke-width="0.5"/>
<path d="M59.9209 6.59328L62.8047 6.56449L61.0835 5.50095L59.9012 4.4985L59.0305 3.11864L58.5231 1.1601L57.5574 3.13335L56.4522 4.0916L55.2639 4.54481L54.1322 4.49919L52.8928 4.44923L51.5994 4.39709L50.2052 4.13196L48.705 3.81032L47.2031 3.54085L46.3496 3.24528L46.4417 3.71909L46.9057 4.36459L47.4776 5.01444L48.4284 5.62733L49.1707 6.02288L49.9164 6.31411L50.6639 6.55317L49.4956 7.60297L48.9932 8.10505L48.5359 8.87011L48.1899 9.5352L48.002 10.3111L47.9689 11.3022L47.9445 12.0325L48.0713 13.0823L48.1546 13.8169L48.2849 14.7623L48.4691 15.71L48.7037 16.7641L48.78 17.7073L48.7487 18.6463L48.606 19.6852L48.3034 20.6654L48.0652 21.3349L48.6754 20.8371L49.4525 20.1894L50.454 19.2896L51.0277 18.2681L51.5494 17.1922L51.965 16.0598L52.2137 15.0774L52.5736 13.995L52.9371 12.8083L53.6865 11.376L54.3176 10.2523L55.107 9.23946L55.8372 8.38093L56.7291 7.52892L58.0686 6.82801L59.9209 6.59328Z" fill="#8C775E" fill-opacity="0.05" stroke="#8C775E" stroke-opacity="0.05" stroke-width="0.5"/>
<path d="M41.4926 34.723L41.1139 33.8405L40.9364 32.8255L40.9364 31.8547L40.9364 30.6632L40.9364 29.2952L40.7455 30.1778L40.5815 31.0162L40.3382 31.8547L40.0177 32.8255L39.558 33.8405L38.9033 34.5006L38.088 34.9951L36.9409 35.3743L35.6321 35.7243L34.4677 35.9903L33.1417 36.2271L31.9178 36.4456L30.7362 36.5984L29.5969 36.6854L28.5001 36.7068L26.978 36.6877L25.5407 36.5372L24.0525 36.3958L22.5556 36.1978L21.5686 35.9087L20.4797 35.6378L22.0383 36.9298L22.7451 37.4434L23.6048 37.9296L24.1751 38.2349L25.1283 38.6463L25.9284 39.0851L26.9067 39.3175L27.9446 39.5975L29.1441 39.9068L30.1224 40.1392L31.1941 40.2969L32.291 40.2755L33.609 40.331L34.578 40.158L35.445 40.0032L35.5656 40.7959L35.9426 42.2407L36.4467 43.4883L37.0019 44.7268L37.6159 45.6641L38.1359 46.3273L39.158 47.1916L40.0177 47.6779L40.9364 47.8628L41.8551 48.0478L43.1135 48.0557L43.8785 47.9192L44.6601 47.547L45.3734 47.0707L46.0522 46.368L46.6714 45.6177L47.2821 44.8108L47.9523 44.0514L48.606 43.5276L49.2345 43.1827L49.7273 42.9784L50.2114 42.7175L49.5478 42.4871L49.1053 42.3334L48.4165 42.2819L47.9575 42.3639L47.3965 42.464L47.362 42.2376L47.2242 41.3316L46.985 40.7928L46.7796 40.1315L46.4895 39.6018L45.9695 38.9385L45.4754 38.4452L44.9388 38.0175L44.3348 37.8346L43.7903 37.6992L43.0763 37.8266L42.3623 37.9541L41.6318 38.3172L41.1139 38.7004L40.5284 39.3283L40.2066 39.9674L39.8337 40.6155L40.1397 40.5609L40.5815 40.3657L41.1849 40.1998L41.7969 40.0906L42.4857 40.1421L43.0474 40.3907L43.5157 40.7142L43.9588 41.2167L44.2152 41.8688L44.3013 42.435L44.2603 43.1984L43.9895 43.8283L43.6246 44.1843L43.1749 44.6716L42.5463 45.0165L41.7813 45.153L41.1859 45.0267L40.4626 44.7487L39.8751 44.3302L39.3975 43.6013L39.1152 42.7793L38.9516 41.7035L38.9667 40.7703L39.1773 39.744L39.558 38.8037L40.109 37.9493L40.7455 37.3122L41.4926 36.7136L42.1211 36.3687L42.5463 35.9903L41.8551 35.3744L41.4926 34.723Z" fill="#8C775E" fill-opacity="0.05" stroke="#8C775E" stroke-opacity="0.05" stroke-width="0.5"/>
<path d="M6.81771 11.8155L5.98011 12.2493L5.00381 12.483L4.06136 12.5322L2.90472 12.5925L1.57674 12.6617L2.44318 12.8132L3.26542 12.9393L4.09164 13.1469L5.05031 13.4269L6.05886 13.8479L6.73281 14.4872L7.25412 15.2999L7.68035 16.4594L8.08632 17.7864L8.40351 18.9693L8.70042 20.3198L8.9745 21.5663L9.18263 22.7727L9.32481 23.9388L9.40104 25.0647L9.45958 26.6296L9.38622 28.114L9.32428 29.6504L9.20782 31.1985L8.97715 32.2271L8.76933 33.3597L9.94466 31.6928L10.4074 30.9407L10.8359 30.0327L11.1034 29.4312L11.4546 28.4311L11.84 27.5867L12.0161 26.5698L12.2354 25.4892L12.4749 24.241L12.651 23.2241L12.7498 22.1149L12.6735 20.989L12.6607 19.6319L12.4437 18.6451L12.2496 17.7621L13.0129 17.598L14.3964 17.1375L15.582 16.5564L16.7562 15.9233L17.6349 15.2449L18.2524 14.6771L19.0398 13.5832L19.4683 12.6752L19.6013 11.7219L19.7344 10.7686L19.6784 9.47513L19.5071 8.69602L19.1063 7.91184L18.6078 7.20304L17.8912 6.5411L17.1316 5.94282L16.3173 5.35626L15.5462 4.70605L15.0047 4.0609L14.6381 3.43254L14.4149 2.93657L14.1371 2.45232L13.9469 3.14591L13.8202 3.6083L13.8051 4.31868L13.9078 4.78615L14.0335 5.3575L13.8154 5.40437L12.9429 5.59185L12.4319 5.86484L11.8004 6.10933L11.3008 6.43427L10.6833 7.00212L10.2294 7.53482L9.84142 8.10775L9.6944 8.73768L9.59048 9.30396L9.75036 10.0311L9.91024 10.7583L10.2996 11.4905L10.6979 12.0033L11.3371 12.5731L11.9737 12.8714L12.6218 13.2217L12.5533 12.9101L12.3414 12.466L12.1499 11.8545L12.0128 11.2312L12.028 10.5208L12.2409 9.93108L12.5313 9.43354L12.9966 8.95278L13.6167 8.65635L14.162 8.53917L14.9051 8.54267L15.5303 8.78908L15.8943 9.14601L16.3902 9.5834L16.7567 10.2118L16.928 10.9909L16.8356 11.6091L16.6023 12.3663L16.2258 12.9912L15.5423 13.5188L14.7587 13.8504L13.7226 14.073L12.8159 14.1047L11.809 13.9403L10.8769 13.5967L10.0196 13.0738L9.36897 12.4521L8.75003 11.7147L8.38346 11.0864L7.9946 10.6686L7.43162 11.4101L6.81771 11.8155Z" fill="#8C775E" fill-opacity="0.05" stroke="#8C775E" stroke-opacity="0.05" stroke-width="0.5"/>
<path d="M94.1633 57.2799L95.0943 57.165L96.0897 57.2867L96.9922 57.5702L98.0999 57.9181L99.3716 58.3175L98.6069 57.872L97.8753 57.4658L97.1669 56.9815L96.358 56.3828L95.5486 55.6341L95.1261 54.7971L94.9045 53.8505L94.8869 52.611L94.9437 51.221L95.0363 49.9976L95.2035 48.6238L95.3577 47.3556L95.5607 46.1483L95.8124 45.0019L96.1128 43.9164L96.575 42.4243L97.1346 41.054L97.7006 39.6309L98.3218 38.2158L98.8787 37.3291L99.4484 36.3367L97.7922 37.4931L97.1085 38.0385L96.4054 38.7425L95.955 39.2146L95.2943 40.0323L94.6528 40.6915L94.151 41.5862L93.5877 42.5258L92.9499 43.6158L92.4482 44.5105L91.9887 45.519L91.6883 46.6045L91.2518 47.8852L91.1297 48.8892L91.0205 49.7875L90.2483 49.6747L88.7951 49.6238L87.4881 49.7555L86.1746 49.9401L85.124 50.2707L84.3556 50.5887L83.2537 51.342L82.5506 52.046L82.1104 52.8959L81.6702 53.7459L81.2954 54.9818L81.199 55.7744L81.3167 56.6521L81.5512 57.4931L82.0063 58.3662L82.523 59.1946L83.0948 60.0311L83.6051 60.9123L83.9012 61.7084L84.0382 62.4276L84.0842 62.9721L84.1854 63.5247L84.5935 62.9389L84.8655 62.5484L85.1145 61.8857L85.1723 61.4101L85.243 60.8289L85.4636 60.8611L86.3461 60.99L86.9169 60.912L87.5915 60.903L88.1688 60.7722L88.9371 60.4542L89.5401 60.112L90.0943 59.709L90.4407 59.168L90.7256 58.6718L90.8156 57.932L90.9056 57.1923L90.7814 56.3674L90.5763 55.7459L90.1635 54.9865L89.6634 54.4832L89.1698 53.9271L89.1312 54.2441L89.1837 54.7358L89.1617 55.3779L89.0846 56.012L88.8355 56.6748L88.4404 57.1549L88.0029 57.5212L87.4064 57.8105L86.7253 57.8724L86.1738 57.7918L85.4761 57.5286L84.9696 57.0781L84.7452 56.6151L84.4234 56.0303L84.2864 55.3112L84.3828 54.5186L84.6741 53.9695L85.1437 53.339L85.7044 52.8831L86.5215 52.626L87.368 52.5883L88.4159 52.7414L89.279 53.0288L90.1716 53.5356L90.9346 54.1849L91.568 54.9765L91.9744 55.7888L92.3128 56.6987L92.4498 57.4178L92.6774 57.9467L93.4519 57.4464L94.1633 57.2799Z" fill="#8C775E" fill-opacity="0.05" stroke="#8C775E" stroke-opacity="0.05" stroke-width="0.5"/>
<path d="M52.9871 39.1123L53.379 39.9888L53.5717 41.0008L53.5862 41.9716L53.6041 43.1629L53.6246 44.5307L53.8022 43.6452L53.9537 42.8043L54.1844 41.9621L54.4903 40.9863L54.9347 39.9641L55.5794 39.2937L56.3872 38.7863L57.5285 38.3889L58.8319 38.0182L59.9921 37.7337L61.3144 37.476L62.535 37.2381L63.7142 37.0666L64.8519 36.9614L65.9483 36.9227L67.4705 36.9176L68.9099 37.0453L70.4001 37.1631L71.8998 37.3373L72.8909 37.6107L73.9838 37.8643L72.406 36.5971L71.6916 36.0948L70.8247 35.6223L70.2499 35.3261L69.2907 34.9298L68.484 34.5039L67.5024 34.287L66.4604 34.0235L65.2564 33.7333L64.2747 33.5164L63.2008 33.3758L62.1044 33.4145L60.7857 33.38L59.8194 33.5683L58.9548 33.7368L58.8224 32.9462L58.4238 31.5075L57.901 30.268L57.3273 29.0385L56.6993 28.1111L56.1694 27.4562L55.1345 26.6082L54.2676 26.1356L53.3463 25.9653L52.4249 25.795L51.1665 25.807L50.4036 25.9557L49.6278 26.3402L48.9217 26.8277L48.2535 27.5412L47.6456 28.3012L47.0471 29.1177L46.3883 29.8876L45.7426 30.4217L45.1193 30.7765L44.6296 30.9886L44.1495 31.2571L44.8165 31.477L45.2612 31.6236L45.9508 31.6642L46.4085 31.575L46.9679 31.466L47.0057 31.6919L47.1571 32.5955L47.4043 33.1305L47.6196 33.7884L47.9177 34.3135L48.4475 34.9684L48.949 35.4538L49.4919 35.8729L50.0986 36.0463L50.645 36.173L51.357 36.0343L52.069 35.8955L52.794 35.5209L53.3062 35.1295L53.8821 34.4923L54.1944 33.8482L54.5575 33.1943L54.2523 33.2537L53.8135 33.4559L53.2127 33.6313L52.6024 33.7503L51.9129 33.7097L51.3475 33.47L50.8745 33.154L50.4238 32.6586L50.1577 32.0106L50.0631 31.4459L50.0926 30.6819L50.354 30.0478L50.7136 29.6861L51.1559 29.1916L51.7792 28.8369L52.542 28.6882L53.1393 28.805L53.8667 29.0715L54.4604 29.4807L54.9489 30.2019L55.2434 31.0193L55.4232 32.0924L55.422 33.0257L55.2269 34.0552L54.8603 35.0015L54.3221 35.8646L53.6953 36.5116L52.9573 37.122L52.334 37.4768L51.9145 37.8619L52.6149 38.4669L52.9871 39.1123Z" fill="#8C775E" fill-opacity="0.05" stroke="#8C775E" stroke-opacity="0.05" stroke-width="0.5"/>
<path d="M91.4764 6.39934L91.2168 5.47229L91.1739 4.44197L91.3011 3.47999L91.4572 2.29938L91.6365 0.94388L91.3317 1.79194L91.0593 2.6L90.7083 3.39703L90.2636 4.31457L89.6751 5.25653L88.9399 5.81982L88.0673 6.19674L86.8809 6.41345L85.5382 6.57872L84.3496 6.68084L83.0047 6.73151L81.7633 6.77828L80.5724 6.76581L79.4322 6.69409L78.3426 6.56312L76.8369 6.33315L75.4324 5.98468L73.9763 5.63816L72.519 5.23435L71.5789 4.81105L70.5355 4.39164L71.9105 5.88801L72.5436 6.4949L73.3318 7.09594L73.8568 7.47754L74.7474 8.01738L75.4827 8.56308L76.4216 8.92908L77.4134 9.35043L78.5615 9.82324L79.5004 10.1892L80.5416 10.4941L81.6312 10.625L82.93 10.8628L83.9128 10.8258L84.7922 10.7926L84.8078 11.5948L84.992 13.0787L85.3281 14.3848L85.7159 15.689L86.2016 16.7029L86.6299 17.4321L87.5294 18.4304L88.3176 19.0314L89.2036 19.3421L90.0897 19.6527L91.3356 19.8351L92.1115 19.8059L92.9347 19.5455L93.7039 19.1725L94.4686 18.5703L95.1805 17.9127L95.8913 17.1979L96.6549 16.5384L97.3712 16.11L98.0392 15.8555L98.5543 15.7214L99.0682 15.53L98.4407 15.2096L98.0225 14.996L97.3467 14.8495L96.8811 14.867L96.3121 14.8884L96.3076 14.6593L96.2898 13.7425L96.1234 13.1754L96.0065 12.4917L95.7885 11.9265L95.3601 11.1972L94.9351 10.6399L94.4595 10.1417L93.8849 9.87666L93.3632 9.66696L92.639 9.69424L91.9148 9.72153L91.1434 9.97995L90.58 10.2879L89.9176 10.8289L89.515 11.4174L89.0606 12.008L89.371 11.9963L89.8343 11.8641L90.4539 11.7835L91.0746 11.7601L91.7504 11.9066L92.2744 12.2309L92.696 12.6164L93.0693 13.1758L93.2379 13.8575L93.249 14.4305L93.1084 15.1812L92.7575 15.7678L92.3493 16.0699L91.8398 16.4904L91.1718 16.745L90.3959 16.7742L89.8225 16.5664L89.1422 16.1907L88.6148 15.6945L88.2371 14.906L88.0652 14.0524L88.0439 12.9637L88.1812 12.0411L88.5243 11.0534L89.0248 10.1744L89.6828 9.40424L90.3969 8.86128L91.2156 8.37172L91.8836 8.11719L92.3545 7.80121L91.7502 7.09498L91.4764 6.39934Z" fill="#8C775E" fill-opacity="0.05" stroke="#8C775E" stroke-opacity="0.05" stroke-width="0.5"/>
</svg>
