<svg width="200" height="186" viewBox="0 0 200 186" fill="none" xmlns="http://www.w3.org/2000/svg">
<path d="M30.3711 75.4775L30.9588 74.1357L31.9262 73.301L33.4371 72.9559L34.5353 72.872L35.5778 73.068L33.8954 73.6714L33.3527 74.586L33.1389 75.6592L33.4964 77.0819L34.5368 78.2942L35.5528 78.8242L36.9428 79.0856L38.4321 78.4459L40.101 77.3075L41.245 75.5862L42.048 73.3652L42.2918 71.1358L42.1016 68.8731L41.5696 67.3208L40.6715 65.7964L39.0227 64.4212L37.4075 63.6817L35.5928 63.3404L33.5014 63.3828L31.972 63.8213L30.0207 64.5677L28.0909 65.6086L26.4035 66.8404L25.6785 67.8659L24.2806 70.4592L23.7158 72.2893L23.537 74.1921L23.434 75.9155L23.6428 78.0848L24.0776 79.5221L24.4737 80.9521L25.489 82.6921L26.9398 84.6594L28.5421 86.2678L30.7687 87.558L33.1933 88.256L35.4048 88.8172L37.7958 88.8796L35.4756 89.2662L33.2283 89.0856L31.5681 88.7733L29.9929 88.235L27.3709 86.9189L24.5674 84.5036L22.8713 81.9578L21.8768 79.1081L21.4813 76.468L21.4906 73.8072L21.9647 71.4275L23.5499 68.0948L24.666 66.5136L26.924 64.2273L29.5631 62.642L30.7157 62.0843L31.3585 61.6727L31.9584 60.672L31.987 59.3219L31.4593 58.3513L30.5763 57.5559L29.7268 57.3961L28.7151 57.4479L27.1485 58.073L25.6899 58.9605L24.2048 60.1819L22.2421 61.9912L20.6776 64.2143L19.4207 66.3016L18.5498 68.4615L17.872 70.6577L17.5552 73.4543L17.7097 76.0975L18.0078 78.6225L19.3077 82.3525L20.2365 84.1248L21.2318 85.7643L23.5177 88.5663L26.618 90.6985L28.3012 91.4992L29.8763 92.0375L31.8576 92.749L33.6602 92.7492L31.892 94.7887L30.482 97.0408L29.1349 99.9825L27.7792 104.375L27.0356 108.108L26.774 111.835L26.9127 114.959L27.4961 118.264L28.0925 120.7L29.0134 122.712L25.9832 119.625L23.2175 115.813L19.2792 109.844L16.5228 103.371L14.7553 98.9724L13.4282 94.1722L12.5909 89.1253L12.2456 85.4296L12.2034 81.0163L12.4865 77.5841L13.0556 73.7215L13.8157 70.9114L14.8432 67.7644L15.7526 65.6117L17.7425 62.2584L18.9731 60.505L20.4088 59.1291L23.3947 56.2052L26.2826 54.3762L29.1455 53.0751L32.2058 52.392L34.9721 52.3798L37.6749 52.8882L39.8507 53.8299L41.6218 54.7923L43.9992 56.9338L45.7217 59.1458L47.8138 63.1216L48.6518 66.9584L48.7061 69.0987L48.5824 71.9316L48.127 74.2181L47.2933 76.1913L45.8769 78.8779L44.356 80.4799L42.9482 81.7158L41.1821 82.7391L39.5075 83.1019L37.2417 83.0146L34.4109 82.1433L33.0739 81.2141L32.1629 80.5587L31.2663 79.2282L30.8945 78.4805L30.4011 76.9354L30.3711 75.4775Z" fill="#8C775E" fill-opacity="0.05" stroke="#8C775E" stroke-opacity="0.05" stroke-width="0.5"/>
<path d="M166.784 111.197L165.977 112.312L164.864 112.85L163.275 112.784L162.147 112.578L161.119 112.122L162.922 111.989L163.616 111.266L164.001 110.307L163.861 108.87L162.995 107.455L162.046 106.691L160.675 106.083L159.063 106.301L157.19 106.943L155.759 108.272L154.596 110.162L153.999 112.205L153.838 114.392L154.135 115.997L154.808 117.67L156.267 119.397L157.791 120.515L159.581 121.309L161.711 121.811L163.333 121.794L165.431 121.595L167.554 121.113L169.46 120.387L170.357 119.606L172.182 117.519L173.042 115.937L173.522 114.185L173.896 112.584L174.024 110.48L173.808 109.009L173.629 107.556L172.871 105.648L171.706 103.413L170.331 101.478L168.272 99.6808L165.919 98.392L163.761 97.2879L161.343 96.6083L163.76 96.8453L166.013 97.5992L167.65 98.3251L169.165 99.2425L171.622 101.166L174.09 104.176L175.414 107.021L175.978 109.972L175.966 112.569L175.54 115.08L174.686 117.205L172.554 119.942L171.173 121.147L168.522 122.721L165.594 123.533L164.336 123.761L163.619 123.983L162.853 124.773L162.613 126.041L162.997 127.095L163.769 128.076L164.606 128.447L165.642 128.661L167.33 128.477L168.951 128.017L170.65 127.248L172.926 126.048L174.863 124.354L176.466 122.708L177.689 120.894L178.721 118.995L179.481 116.435L179.738 113.898L179.83 111.435L179.094 107.573L178.429 105.658L177.675 103.851L175.792 100.61L172.978 97.791L171.394 96.5977L169.879 95.6803L167.979 94.4939L166.148 94.0259L168.263 92.5579L170.048 90.7961L171.876 88.3665L173.941 84.5686L175.28 81.2348L176.13 77.7818L176.478 74.794L176.403 71.5203L176.179 69.0643L175.559 66.9236L178.153 70.6268L180.364 74.9461L183.429 81.6076L185.214 88.4383L186.32 93.053L186.916 97.9324L186.976 102.918L186.748 106.499L186.099 110.68L185.274 113.849L184.091 117.35L182.88 119.808L181.343 122.514L180.083 124.312L177.537 126.964L176.013 128.301L174.34 129.228L170.85 131.216L167.631 132.194L164.52 132.68L161.305 132.531L158.494 131.825L155.83 130.643L153.768 129.189L152.12 127.82L150.041 125.18L148.638 122.643L147.137 118.344L146.886 114.501L147.166 112.465L147.736 109.821L148.556 107.779L149.712 106.131L151.571 103.96L153.366 102.842L154.989 102.039L156.943 101.531L158.7 101.623L160.987 102.293L163.725 103.851L164.937 105.076L165.76 105.932L166.462 107.421L166.722 108.224L166.981 109.812L166.784 111.197Z" fill="#8C775E" fill-opacity="0.05" stroke="#8C775E" stroke-opacity="0.05" stroke-width="0.5"/>
<path d="M67.2383 130.157L65.9669 129.747L65.1104 128.835L64.6352 127.247L64.4401 126.064L64.503 124.893L65.2292 126.624L66.1113 127.059L67.1003 127.108L68.3417 126.473L69.3193 125.131L69.6855 123.932L69.7694 122.371L69.0315 120.857L67.8253 119.233L66.1518 118.281L64.0656 117.787L62.0329 117.904L60.0175 118.5L58.6785 119.347L57.4046 120.588L56.3467 122.623L55.8572 124.511L55.7477 126.548L56.0136 128.822L56.5748 130.414L57.459 132.414L58.606 134.339L59.8982 135.968L60.9 136.582L63.3859 137.661L65.0943 137.962L66.8261 137.83L68.3881 137.646L70.3175 137.046L71.5635 136.325L72.8071 135.647L74.2624 134.241L75.8746 132.321L77.1475 130.297L78.066 127.648L78.43 124.884L78.6941 122.376L78.4899 119.758L79.0905 122.222L79.1727 124.703L79.0726 126.567L78.7597 128.377L77.861 131.463L75.9929 134.935L73.8867 137.222L71.4307 138.796L69.098 139.681L66.7026 140.128L64.5095 140.02L61.3379 138.864L59.7934 137.919L57.4901 135.849L55.776 133.244L55.1486 132.083L54.7081 131.452L53.7424 130.97L52.5243 131.171L51.7084 131.913L51.0888 133.013L51.0375 133.967L51.1943 135.061L51.9275 136.662L52.885 138.1L54.1459 139.509L55.9879 141.339L58.1588 142.663L60.174 143.675L62.2125 144.253L64.2626 144.615L66.8137 144.48L69.1754 143.857L71.4151 143.098L74.6301 141.04L76.1237 139.723L77.4906 138.356L79.7631 135.381L81.3442 131.634L81.8813 129.661L82.1942 127.851L82.6186 125.568L82.4224 123.603L84.4504 125.18L86.6306 126.331L89.4245 127.295L93.5248 128.018L96.965 128.188L100.347 127.833L103.144 127.144L106.054 125.94L108.181 124.872L109.892 123.521L107.444 127.356L104.315 131.027L99.3722 136.347L93.8477 140.465L90.0818 143.149L85.9068 145.421L81.4564 147.201L78.1683 148.212L74.2015 149.017L71.0821 149.298L67.5442 149.341L64.9327 148.995L61.9888 148.415L59.9527 147.793L56.7184 146.2L55.0065 145.159L53.612 143.83L50.6556 141.076L48.6952 138.241L47.2125 135.343L46.2645 132.123L45.9521 129.109L46.1152 126.074L46.7256 123.54L47.3988 121.443L49.0669 118.482L50.8698 116.224L54.2197 113.26L57.581 111.686L59.5011 111.259L62.0638 110.908L64.171 111.011L66.0374 111.581L68.6093 112.664L70.2166 114.047L71.4821 115.37L72.5953 117.12L73.1042 118.884L73.2724 121.37L72.7967 124.606L72.1062 126.224L71.6156 127.33L70.516 128.536L69.8837 129.07L68.547 129.874L67.2383 130.157Z" fill="#8C775E" fill-opacity="0.05" stroke="#8C775E" stroke-opacity="0.05" stroke-width="0.5"/>
<path d="M128.256 57.6888L129.566 57.7626L130.576 58.4359L131.355 59.8723L131.781 60.9836L131.956 62.1492L130.906 60.6376L129.967 60.4392L129.003 60.6474L127.932 61.5916L127.259 63.1632L127.147 64.4353L127.38 65.9895L128.397 67.2852L129.888 68.5678L131.695 69.069L133.809 69.0139L135.747 68.3726L137.573 67.2654L138.695 66.0872L139.675 64.5386L140.287 62.2672L140.379 60.2863L140.075 58.2572L139.36 56.0939L138.498 54.6755L137.242 52.9411L135.747 51.3473L134.172 50.0829L133.081 49.739L130.464 49.3234L128.754 49.4697L127.109 50.0477L125.638 50.6326L123.897 51.7217L122.839 52.7523L121.775 53.7397L120.653 55.4972L119.483 57.7999L118.662 60.1165L118.309 62.956L118.513 65.7642L118.763 68.2953L119.488 70.8131L118.412 68.5494L117.833 66.134L117.554 64.2776L117.492 62.4192L117.739 59.157L118.843 55.264L120.416 52.4732L122.47 50.2916L124.544 48.8188L126.766 47.7596L128.905 47.2979L132.199 47.6118L133.881 48.1402L136.521 49.5759L138.7 51.6905L139.539 52.6681L140.091 53.1729L141.12 53.3963L142.256 52.8838L142.894 51.9438L143.271 50.7036L143.128 49.7539L142.757 48.7199L141.727 47.3378L140.513 46.1736L139.012 45.116L136.866 43.7966L134.504 43.0586L132.354 42.5866L130.27 42.5463L128.218 42.7218L125.783 43.515L123.628 44.7378L121.619 46.063L118.93 48.9165L117.753 50.5967L116.709 52.293L115.114 55.8017L114.342 59.8904L114.22 61.9668L114.282 63.8252L114.332 66.1766L114.917 68.0559L112.642 67.0317L110.306 66.4664L107.415 66.2437L103.311 66.5948L99.9559 67.3191L96.7624 68.5433L94.2014 69.943L91.6343 71.8788L89.7961 73.479L88.4162 75.2476L90.0076 70.8483L92.2894 66.4337L95.9896 59.9301L100.494 54.4563L103.589 50.8466L107.162 47.5348L111.1 44.6346L114.07 42.7899L117.738 40.9732L120.693 39.8896L124.099 38.9313L126.69 38.5949L129.648 38.4019L131.739 38.4854L135.182 39.2129L137.044 39.7915L138.658 40.7356L142.066 42.674L144.529 44.9501L146.544 47.4121L148.107 50.3282L149.015 53.2073L149.469 56.2292L149.39 58.8759L149.162 61.1089L148.148 64.4477L146.862 67.132L144.225 70.9103L141.296 73.3251L139.529 74.2415L137.126 75.2506L135.071 75.6942L133.154 75.6177L130.453 75.2202L128.624 74.2782L127.136 73.3069L125.709 71.8768L124.862 70.2767L124.2 67.8794L124.007 64.5782L124.348 62.811L124.599 61.598L125.418 60.1288L125.921 59.4408L127.05 58.3058L128.256 57.6888Z" fill="#8C775E" fill-opacity="0.05" stroke="#8C775E" stroke-opacity="0.05" stroke-width="0.5"/>
<path d="M180.438 38.7629L186.43 37.8474L182.683 36.2568L180.066 34.6265L178.038 32.1572L176.674 28.4354L174.977 32.6249L172.831 34.8488L170.431 36.0988L168.071 36.3455L165.486 36.6157L162.788 36.8977L159.847 36.7885L156.677 36.5992L153.511 36.5135L151.69 36.1832L151.956 37.0927L153.023 38.2309L154.315 39.3457L156.389 40.2745L157.995 40.8357L159.591 41.1896L161.183 41.4397L158.92 43.8635L157.954 45.0059L157.124 46.6549L156.51 48.073L156.241 49.6633L156.329 51.633L156.394 53.0843L156.823 55.1224L157.112 56.5502L157.532 58.381L158.065 60.2L158.719 62.2146L159.027 64.0571L159.11 65.9231L158.977 68.0199L158.503 70.0483L158.113 71.443L159.303 70.2771L160.817 68.7649L162.757 66.6874L163.789 64.4966L164.704 62.2139L165.389 59.8509L165.751 57.8343L166.329 55.5868L166.897 53.1319L168.23 50.0765L169.365 47.6666L170.846 45.4288L172.229 43.5137L173.949 41.5634L176.624 39.7786L180.438 38.7629Z" fill="#8C775E" fill-opacity="0.05" stroke="#8C775E" stroke-opacity="0.05" stroke-width="0.5"/>
<path d="M10.6445 146.919L4.56317 146.814L8.19914 149.008L10.6983 151.051L12.5425 153.821L13.6239 157.712L15.6491 153.875L17.9743 152.047L20.4777 151.22L22.8646 151.373L25.4788 151.541L28.2067 151.717L31.1484 152.318L34.3141 153.036L37.4832 153.652L39.2849 154.283L39.0879 153.343L38.1055 152.044L36.8957 150.73L34.8869 149.468L33.3193 148.647L31.7449 148.031L30.1671 147.517L32.6249 145.512L33.6816 144.55L34.6416 143.067L35.3674 141.775L35.759 140.255L35.8232 138.302L35.8704 136.864L35.597 134.786L35.4169 133.333L35.1367 131.461L34.7428 129.582L34.242 127.49L34.0754 125.625L34.1362 123.775L34.431 121.734L35.0635 119.818L35.562 118.511L34.278 119.459L32.6428 120.692L30.5361 122.411L29.332 124.393L28.2381 126.486L27.3682 128.696L26.8495 130.619L26.0966 132.734L25.337 135.054L23.7648 137.836L22.4403 140.017L20.7815 141.97L19.2465 143.622L17.3705 145.253L14.5497 146.56L10.6445 146.919Z" fill="#8C775E" fill-opacity="0.05" stroke="#8C775E" stroke-opacity="0.05" stroke-width="0.5"/>
<path d="M185.8 148.314L191.896 148.257L188.258 146.165L185.759 144.193L183.918 141.478L182.846 137.625L180.804 141.507L178.468 143.392L175.956 144.284L173.564 144.194L170.943 144.096L168.209 143.993L165.262 143.472L162.091 142.839L158.916 142.309L157.112 141.727L157.307 142.66L158.288 143.929L159.496 145.208L161.506 146.414L163.075 147.192L164.652 147.765L166.232 148.235L163.762 150.3L162.7 151.288L161.734 152.793L161.002 154.102L160.605 155.628L160.535 157.578L160.483 159.015L160.751 161.08L160.928 162.525L161.203 164.385L161.592 166.25L162.088 168.324L162.25 170.179L162.183 172.027L161.882 174.07L161.242 175.999L160.739 177.316L162.028 176.337L163.671 175.062L165.788 173.292L167.001 171.282L168.104 169.166L168.982 166.938L169.508 165.005L170.269 162.876L171.037 160.541L172.621 157.723L173.956 155.513L175.624 153.52L177.168 151.831L179.053 150.155L181.885 148.776L185.8 148.314Z" fill="#8C775E" fill-opacity="0.05" stroke="#8C775E" stroke-opacity="0.05" stroke-width="0.5"/>
<path d="M15.2905 35.1202L9.23469 34.3853L12.5991 36.9338L14.8473 39.2152L16.3545 42.1479L16.9656 46.1107L19.448 42.5233L21.988 40.9557L24.5856 40.3969L26.949 40.7964L29.5375 41.234L32.2385 41.6906L35.1017 42.5907L38.1742 43.6301L41.2625 44.5682L42.9846 45.3794L42.901 44.4292L42.0769 43.0416L41.0276 41.6161L39.1748 40.1587L37.7093 39.1829L36.2124 38.4097L34.6997 37.7379L37.3933 36.0089L38.5635 35.1666L39.6997 33.7984L40.5794 32.5949L41.153 31.1316L41.4518 29.2058L41.6719 27.7868L41.6488 25.7026L41.6439 24.2455L41.5894 22.364L41.4223 20.4635L41.1741 18.3412L41.2321 16.4787L41.5152 14.6542L42.0548 12.6651L42.9163 10.8345L43.571 9.5929L42.1757 10.3972L40.3957 11.4485L38.0868 12.9305L36.6469 14.7674L35.3037 16.7247L34.1699 18.8214L33.421 20.6711L32.4155 22.6855L31.3785 24.9026L29.4751 27.4933L27.8911 29.5139L26.001 31.2747L24.2706 32.7505L22.2026 34.1692L19.2305 35.1701L15.2905 35.1202Z" fill="#8C775E" fill-opacity="0.05" stroke="#8C775E" stroke-opacity="0.05" stroke-width="0.5"/>
<path d="M87.901 91.1517L87.1005 89.4153L86.7253 87.4185L86.7253 85.5085L86.7253 83.1644L86.7253 80.4731L86.3218 82.2095L85.975 83.859L85.4607 85.5085L84.7833 87.4185L83.8116 89.4153L82.4276 90.714L80.7041 91.6868L78.2792 92.433L75.5126 93.1215L73.0513 93.6449L70.2483 94.1106L67.6609 94.5405L65.1631 94.8411L62.7549 95.0123L60.4363 95.0543L57.2189 95.0168L54.1806 94.7207L51.0345 94.4425L47.8702 94.0529L45.784 93.4842L43.4821 92.9513L46.7768 95.4932L48.2708 96.5035L50.0883 97.4601L51.2938 98.0608L53.3087 98.8702L55.0001 99.7333L57.0681 100.191L59.2621 100.741L61.7978 101.35L63.8658 101.807L66.1312 102.117L68.4498 102.075L71.236 102.184L73.2844 101.844L75.1171 101.54L75.372 103.099L76.1689 105.941L77.2346 108.396L78.4081 110.833L79.7062 112.676L80.8054 113.981L82.9659 115.682L84.7833 116.638L86.7253 117.002L88.6673 117.366L91.3275 117.382L92.9446 117.113L94.5967 116.381L96.1046 115.444L97.5396 114.061L98.8486 112.585L100.139 110.998L101.556 109.504L102.938 108.473L104.267 107.795L105.308 107.393L106.332 106.88L104.929 106.426L103.993 106.124L102.537 106.023L101.567 106.184L100.381 106.381L100.308 105.935L100.017 104.153L99.5114 103.093L99.0773 101.792L98.464 100.75L97.3648 99.445L96.3202 98.4744L95.186 97.6331L93.9091 97.2732L92.7582 97.0067L91.2489 97.2575L89.7396 97.5083L88.1953 98.2225L87.1005 98.9765L85.8629 100.212L85.1825 101.469L84.3944 102.744L85.0412 102.637L85.975 102.253L87.2505 101.926L88.5442 101.711L90.0003 101.813L91.1877 102.302L92.1776 102.938L93.1144 103.927L93.6563 105.21L93.8384 106.324L93.7518 107.826L93.1792 109.065L92.4078 109.765L91.4572 110.724L90.1285 111.402L88.5114 111.671L87.2527 111.423L85.7237 110.876L84.4818 110.052L83.4722 108.618L82.8756 107.001L82.5296 104.885L82.5616 103.049L83.0067 101.03L83.8116 99.1797L84.9764 97.4988L86.3218 96.2455L87.901 95.0677L89.2297 94.3893L90.1285 93.6449L88.6673 92.433L87.901 91.1517Z" fill="#8C775E" fill-opacity="0.05" stroke="#8C775E" stroke-opacity="0.05" stroke-width="0.5"/>
<path d="M107.663 98.1567L108.491 99.8811L108.898 101.872L108.929 103.782L108.967 106.126L109.01 108.817L109.386 107.075L109.706 105.42L110.194 103.763L110.84 101.843L111.779 99.8325L113.142 98.5135L114.85 97.5153L117.263 96.7335L120.018 96.0042L122.47 95.4445L125.266 94.9375L127.846 94.4694L130.338 94.132L132.744 93.9252L135.061 93.849L138.279 93.8389L141.322 94.0901L144.472 94.3219L147.642 94.6647L149.737 95.2025L152.047 95.7013L148.712 93.2084L147.202 92.2203L145.369 91.2906L144.154 90.7079L142.127 89.9283L140.421 89.0903L138.346 88.6635L136.144 88.1452L133.598 87.5743L131.523 87.1476L129.253 86.8709L126.936 86.9472L124.148 86.8792L122.105 87.2497L120.278 87.5812L119.998 86.0257L119.155 83.1954L118.05 80.7569L116.837 78.3379L115.51 76.5135L114.39 75.2251L112.202 73.5567L110.369 72.627L108.422 72.2919L106.474 71.9568L103.814 71.9804L102.201 72.273L100.561 73.0294L99.0687 73.9886L97.6562 75.3922L96.3711 76.8874L95.1061 78.4938L93.7135 80.0085L92.3484 81.0593L91.0309 81.7572L89.9958 82.1745L88.9808 82.7028L90.3908 83.1354L91.3309 83.4239L92.7885 83.5037L93.756 83.3281L94.9386 83.1136L95.0186 83.5581L95.3387 85.3358L95.8612 86.3884L96.3163 87.6827L96.9463 88.7157L98.0664 90.0041L99.1265 90.9592L100.274 91.7837L101.557 92.1247L102.712 92.3741L104.217 92.1011L105.722 91.828L107.254 91.0911L108.337 90.321L109.555 89.0675L110.215 87.8004L110.982 86.5138L110.337 86.6308L109.41 87.0286L108.139 87.3737L106.849 87.6077L105.392 87.5279L104.197 87.0563L103.197 86.4345L102.244 85.46L101.682 84.1852L101.482 83.0741L101.544 81.5712L102.097 80.3236L102.857 79.612L103.792 78.6392L105.109 77.9413L106.722 77.6487L107.984 77.8787L109.522 78.4029L110.777 79.2078L111.81 80.6269L112.432 82.235L112.812 84.346L112.81 86.1823L112.397 88.2076L111.622 90.0693L110.485 91.7672L109.16 93.0402L107.6 94.2411L106.282 94.9391L105.395 95.6967L106.876 96.8869L107.663 98.1567Z" fill="#8C775E" fill-opacity="0.05" stroke="#8C775E" stroke-opacity="0.05" stroke-width="0.5"/>
<mask id="path-11-inside-1_43:16" fill="white">
<path d="M149.162 27.1843L155.078 31.9047L153.145 28.5604L149.263 24.5328L146.433 22.1867L142.43 19.0856L138.156 16.3463L132.848 13.7285L126.263 10.8143L118.62 8.64544L111.474 6.92275L106.687 6.39817L100.361 5.70498L91.2647 5.64785L84.703 6.6516L79.8627 7.53076L73.6133 9.35183L68.6492 11.2354L64.5398 13.2127L60.3214 15.8045L57.4884 18.0783L53.4025 21.7026L50.1597 25.7325L48.084 30.6735L46.9517 35.6395L47.1548 39.3423L48.0772 42.1842L49.4624 44.1371L51.6259 45.9403L54.5087 46.8827L52.5753 43.5385L52.2129 41.776L51.8564 39.8575L52.5407 37.3161L54.0793 35.5591L56.4494 34.1744L59.6626 33.1952L63.2677 33.1987L66.5013 33.9446L69.4823 35.5139L72.3207 37.9441L74.2058 40.5544L75.0044 43.4512L75.3324 45.8253L74.8292 49.1948L73.7217 51.8072L71.9293 53.8035L70.1428 55.6437L68.4536 57.1814L65.5647 58.666L70.0778 57.3594L72.8783 55.9435L75.6906 54.2156L78.1462 52.8402L80.9614 51.0344L84.2336 48.4955L87.3231 46.2499L89.82 43.7827L92.1342 41.6087L95.1706 38.4958L96.6447 35.8382L97.4586 32.4818L97.5827 29.2064L95.6315 26.3301L92.7841 24.4519L89.5535 23.628L86.3492 24.3732L83.9762 25.836L82.4698 27.0805L81.7828 29.3545L82.3043 31.4477L83.7014 33.0886L86.4044 34.2462L83.6689 33.9465L81.6646 32.4739L79.8489 30.5521L79.1182 27.1831L80.0735 24.6252L82.0486 22.3358L84.1593 21.0009L86.5176 19.9281L90.7536 19.1393L94.6859 19.5702L97.8722 21.5639L100.885 23.6168L103.897 25.6697L107.293 26.6683L110.712 27.043L113.3 26.7001L115.146 25.5711L115.653 23.5123L114.86 21.7809L112.157 20.6233L108.891 20.7353L110.315 19.4034L112.222 18.9077L115.385 19.2543L117.649 20.677L120.502 22.3992L122.833 24.2992L126.132 25.6003L128.611 25.872L131.553 25.2546L133.168 23.3956L133.207 22.3818L131.712 21.0434L129.678 20.3507L132.614 19.8893L135.435 20.1985L138.74 21.3437L143.792 23.9333L149.162 27.1843Z"/>
</mask>
<path d="M149.162 27.1843L155.078 31.9047L153.145 28.5604L149.263 24.5328L146.433 22.1867L142.43 19.0856L138.156 16.3463L132.848 13.7285L126.263 10.8143L118.62 8.64544L111.474 6.92275L106.687 6.39817L100.361 5.70498L91.2647 5.64785L84.703 6.6516L79.8627 7.53076L73.6133 9.35183L68.6492 11.2354L64.5398 13.2127L60.3214 15.8045L57.4884 18.0783L53.4025 21.7026L50.1597 25.7325L48.084 30.6735L46.9517 35.6395L47.1548 39.3423L48.0772 42.1842L49.4624 44.1371L51.6259 45.9403L54.5087 46.8827L52.5753 43.5385L52.2129 41.776L51.8564 39.8575L52.5407 37.3161L54.0793 35.5591L56.4494 34.1744L59.6626 33.1952L63.2677 33.1987L66.5013 33.9446L69.4823 35.5139L72.3207 37.9441L74.2058 40.5544L75.0044 43.4512L75.3324 45.8253L74.8292 49.1948L73.7217 51.8072L71.9293 53.8035L70.1428 55.6437L68.4536 57.1814L65.5647 58.666L70.0778 57.3594L72.8783 55.9435L75.6906 54.2156L78.1462 52.8402L80.9614 51.0344L84.2336 48.4955L87.3231 46.2499L89.82 43.7827L92.1342 41.6087L95.1706 38.4958L96.6447 35.8382L97.4586 32.4818L97.5827 29.2064L95.6315 26.3301L92.7841 24.4519L89.5535 23.628L86.3492 24.3732L83.9762 25.836L82.4698 27.0805L81.7828 29.3545L82.3043 31.4477L83.7014 33.0886L86.4044 34.2462L83.6689 33.9465L81.6646 32.4739L79.8489 30.5521L79.1182 27.1831L80.0735 24.6252L82.0486 22.3358L84.1593 21.0009L86.5176 19.9281L90.7536 19.1393L94.6859 19.5702L97.8722 21.5639L100.885 23.6168L103.897 25.6697L107.293 26.6683L110.712 27.043L113.3 26.7001L115.146 25.5711L115.653 23.5123L114.86 21.7809L112.157 20.6233L108.891 20.7353L110.315 19.4034L112.222 18.9077L115.385 19.2543L117.649 20.677L120.502 22.3992L122.833 24.2992L126.132 25.6003L128.611 25.872L131.553 25.2546L133.168 23.3956L133.207 22.3818L131.712 21.0434L129.678 20.3507L132.614 19.8893L135.435 20.1985L138.74 21.3437L143.792 23.9333L149.162 27.1843Z" fill="#8C775E" fill-opacity="0.05" stroke="#8C775E" stroke-opacity="0.05" stroke-width="2" mask="url(#path-11-inside-1_43:16)"/>
<mask id="path-12-inside-2_43:16" fill="white">
<path d="M52.6057 164.206L46.203 159.976L48.5468 163.189L52.878 166.91L55.9529 169.023L60.2722 171.79L64.8045 174.164L70.3245 176.316L77.1253 178.646L84.8498 180.118L92.0283 181.184L96.7499 181.259L102.989 181.357L111.831 180.544L118.062 178.896L122.64 177.539L128.454 175.09L133.012 172.701L136.727 170.298L140.461 167.261L142.895 164.679L146.357 160.605L148.944 156.2L150.271 150.981L150.678 145.827L149.964 142.084L148.672 139.285L147.055 137.433L144.702 135.808L141.771 135.127L144.115 138.339L144.713 140.096L145.327 142.011L145.017 144.658L143.768 146.591L141.659 148.225L138.676 149.528L135.175 149.869L131.931 149.421L128.817 148.112L125.722 145.915L123.527 143.443L122.348 140.576L121.698 138.195L121.717 134.723L122.428 131.963L123.89 129.763L125.368 127.722L126.794 125.998L129.392 124.213L125.192 125.973L122.67 127.679L120.18 129.704L117.988 131.337L115.506 133.442L112.682 136.335L109.996 138.912L107.915 141.658L105.971 144.089L103.457 147.542L102.396 150.384L102.074 153.872L102.41 157.212L104.706 159.948L107.733 161.583L110.985 162.111L113.992 161.047L116.093 159.333L117.382 157.925L117.732 155.548L116.933 153.472L115.348 151.938L112.562 151.021L115.26 151.063L117.411 152.368L119.443 154.146L120.622 157.5L120.051 160.19L118.452 162.705L116.589 164.264L114.449 165.58L110.445 166.787L106.567 166.726L103.195 165.005L99.9832 163.208L96.7717 161.41L93.335 160.721L89.9624 160.667L87.497 161.264L85.8626 162.588L85.6572 164.728L86.6685 166.411L89.4546 167.329L92.6106 166.902L91.4137 168.392L89.6308 169.078L86.5111 169.029L84.1145 167.8L81.1037 166.323L78.5747 164.616L75.1904 163.61L72.7452 163.571L69.9746 164.48L68.6651 166.524L68.7692 167.558L70.407 168.774L72.4786 169.284L69.692 170.034L66.9096 169.99L63.5412 169.142L58.2741 166.995L52.6057 164.206Z"/>
</mask>
<path d="M52.6057 164.206L46.203 159.976L48.5468 163.189L52.878 166.91L55.9529 169.023L60.2722 171.79L64.8045 174.164L70.3245 176.316L77.1253 178.646L84.8498 180.118L92.0283 181.184L96.7499 181.259L102.989 181.357L111.831 180.544L118.062 178.896L122.64 177.539L128.454 175.09L133.012 172.701L136.727 170.298L140.461 167.261L142.895 164.679L146.357 160.605L148.944 156.2L150.271 150.981L150.678 145.827L149.964 142.084L148.672 139.285L147.055 137.433L144.702 135.808L141.771 135.127L144.115 138.339L144.713 140.096L145.327 142.011L145.017 144.658L143.768 146.591L141.659 148.225L138.676 149.528L135.175 149.869L131.931 149.421L128.817 148.112L125.722 145.915L123.527 143.443L122.348 140.576L121.698 138.195L121.717 134.723L122.428 131.963L123.89 129.763L125.368 127.722L126.794 125.998L129.392 124.213L125.192 125.973L122.67 127.679L120.18 129.704L117.988 131.337L115.506 133.442L112.682 136.335L109.996 138.912L107.915 141.658L105.971 144.089L103.457 147.542L102.396 150.384L102.074 153.872L102.41 157.212L104.706 159.948L107.733 161.583L110.985 162.111L113.992 161.047L116.093 159.333L117.382 157.925L117.732 155.548L116.933 153.472L115.348 151.938L112.562 151.021L115.26 151.063L117.411 152.368L119.443 154.146L120.622 157.5L120.051 160.19L118.452 162.705L116.589 164.264L114.449 165.58L110.445 166.787L106.567 166.726L103.195 165.005L99.9832 163.208L96.7717 161.41L93.335 160.721L89.9624 160.667L87.497 161.264L85.8626 162.588L85.6572 164.728L86.6685 166.411L89.4546 167.329L92.6106 166.902L91.4137 168.392L89.6308 169.078L86.5111 169.029L84.1145 167.8L81.1037 166.323L78.5747 164.616L75.1904 163.61L72.7452 163.571L69.9746 164.48L68.6651 166.524L68.7692 167.558L70.407 168.774L72.4786 169.284L69.692 170.034L66.9096 169.99L63.5412 169.142L58.2741 166.995L52.6057 164.206Z" fill="#8C775E" fill-opacity="0.05" stroke="#8C775E" stroke-opacity="0.05" stroke-width="2" mask="url(#path-12-inside-2_43:16)"/>
</svg>
