<svg width="217" height="203" viewBox="0 0 217 203" fill="none" xmlns="http://www.w3.org/2000/svg">
<path d="M32.9524 82.3755L33.5901 80.9111L34.6397 80.0002L36.2789 79.6234L37.4706 79.5319L38.6017 79.7459L36.7762 80.4044L36.1874 81.4025L35.9554 82.5738L36.3433 84.1266L37.4721 85.4497L38.5745 86.0281L40.0826 86.3135L41.6986 85.6153L43.5093 84.3728L44.7506 82.4943L45.6218 80.0702L45.8863 77.6369L45.6799 75.1675L45.1027 73.4732L44.1283 71.8095L42.3394 70.3087L40.5869 69.5016L38.6179 69.1291L36.3487 69.1753L34.6893 69.6539L32.5722 70.4685L30.4784 71.6046L28.6475 72.9489L27.8609 74.0682L26.3442 76.8985L25.7313 78.896L25.5374 80.9727L25.4257 82.8536L25.6522 85.2212L26.1239 86.7898L26.5537 88.3505L27.6553 90.2497L29.2294 92.3967L30.9679 94.1522L33.3837 95.5603L36.0144 96.3222L38.4139 96.9346L41.0082 97.0028L38.4908 97.4247L36.0525 97.2276L34.2511 96.8867L32.542 96.2992L29.6972 94.8628L26.6553 92.2267L24.8151 89.4482L23.736 86.3381L23.307 83.4566L23.3171 80.5526L23.8314 77.9553L25.5513 74.3181L26.7623 72.5923L29.2123 70.097L32.0757 68.3669L33.3263 67.7581L34.0237 67.3089L34.6746 66.2168L34.7056 64.7433L34.1331 63.6839L33.175 62.8158L32.2533 62.6414L31.1556 62.6979L29.4558 63.3802L27.8732 64.3488L26.2619 65.6819L24.1324 67.6566L22.435 70.0829L21.0711 72.3609L20.1262 74.7182L19.3908 77.1152L19.0471 80.1675L19.2147 83.0523L19.5382 85.8081L20.9486 89.879L21.9564 91.8133L23.0363 93.6026L25.5165 96.6608L28.8803 98.9879L30.7065 99.8618L32.4156 100.449L34.5653 101.226L36.521 101.226L34.6025 103.452L33.0727 105.91L31.6111 109.121L30.1402 113.914L29.3334 117.989L29.0495 122.056L29.2 125.466L29.833 129.073L30.48 131.731L31.4793 133.928L28.1915 130.559L25.1907 126.398L20.9177 119.884L17.927 112.819L16.0092 108.018L14.5693 102.779L13.6609 97.2709L13.2862 93.2374L13.2404 88.4207L13.5476 84.6747L14.1651 80.459L14.9898 77.3921L16.1046 73.9574L17.0914 71.608L19.2504 67.9481L20.5855 66.0345L22.1433 64.5328L25.383 61.3416L28.5164 59.3455L31.6226 57.9254L34.943 57.1799L37.9445 57.1666L40.877 57.7214L43.2377 58.7492L45.1593 59.7996L47.7388 62.1369L49.6077 64.551L51.8777 68.8903L52.7869 73.0778L52.8459 75.4137L52.7117 78.5056L52.2175 81.001L51.3129 83.1546L49.7761 86.0868L48.126 87.8352L46.5985 89.1841L44.6823 90.301L42.8654 90.6969L40.4069 90.6016L37.3356 89.6507L35.8849 88.6365L34.8965 87.9212L33.9237 86.4691L33.5203 85.6531L32.985 83.9668L32.9524 82.3755Z" fill="#8C775E" fill-opacity="0.04" stroke="#8C775E" stroke-opacity="0.04" stroke-width="0.5"/>
<path d="M180.96 121.361L180.085 122.578L178.877 123.165L177.154 123.093L175.93 122.868L174.814 122.37L176.77 122.225L177.524 121.436L177.942 120.39L177.789 118.821L176.849 117.277L175.82 116.442L174.333 115.779L172.583 116.017L170.551 116.718L168.998 118.169L167.736 120.231L167.089 122.461L166.914 124.848L167.236 126.599L167.967 128.426L169.55 130.311L171.204 131.531L173.145 132.397L175.456 132.945L177.216 132.926L179.493 132.71L181.796 132.183L183.864 131.391L184.837 130.539L186.818 128.261L187.751 126.534L188.271 124.622L188.678 122.874L188.816 120.578L188.581 118.973L188.388 117.386L187.565 115.305L186.301 112.865L184.809 110.753L182.575 108.792L180.022 107.385L177.681 106.18L175.057 105.438L177.679 105.697L180.124 106.52L181.901 107.312L183.545 108.313L186.21 110.413L188.888 113.698L190.324 116.803L190.936 120.023L190.923 122.858L190.46 125.599L189.534 127.918L187.221 130.906L185.723 132.22L182.847 133.938L179.67 134.825L178.305 135.073L177.527 135.316L176.696 136.178L176.435 137.562L176.851 138.712L177.689 139.782L178.598 140.188L179.721 140.421L181.554 140.22L183.311 139.718L185.155 138.879L187.625 137.57L189.726 135.72L191.466 133.924L192.792 131.944L193.912 129.871L194.736 127.077L195.015 124.308L195.116 121.62L194.317 117.406L193.595 115.315L192.777 113.343L190.735 109.806L187.681 106.729L185.963 105.427L184.319 104.426L182.257 103.131L180.271 102.62L182.566 101.018L184.502 99.095L186.486 96.4433L188.726 92.2982L190.179 88.6597L191.101 84.8911L191.479 81.6302L191.398 78.0573L191.154 75.3767L190.482 73.0404L193.296 77.0821L195.695 81.7962L199.02 89.0665L200.957 96.5217L202.157 101.558L202.804 106.884L202.869 112.325L202.621 116.233L201.918 120.796L201.023 124.255L199.739 128.076L198.424 130.759L196.758 133.713L195.39 135.675L192.628 138.569L190.974 140.028L189.158 141.04L185.372 143.209L181.879 144.277L178.504 144.808L175.016 144.645L171.966 143.874L169.075 142.584L166.838 140.997L165.05 139.503L162.795 136.621L161.273 133.853L159.643 129.16L159.372 124.967L159.676 122.745L160.293 119.859L161.183 117.63L162.437 115.831L164.454 113.462L166.402 112.241L168.163 111.366L170.283 110.811L172.189 110.911L174.671 111.643L177.642 113.343L178.957 114.68L179.849 115.614L180.611 117.24L180.894 118.116L181.175 119.849L180.96 121.361Z" fill="#8C775E" fill-opacity="0.04" stroke="#8C775E" stroke-opacity="0.04" stroke-width="0.5"/>
<path d="M72.9537 142.054L71.5742 141.606L70.645 140.611L70.1294 138.878L69.9177 137.587L69.9859 136.309L70.7739 138.198L71.7309 138.673L72.804 138.726L74.1509 138.034L75.2116 136.568L75.6089 135.26L75.6999 133.556L74.8993 131.904L73.5906 130.131L71.7748 129.092L69.5114 128.553L67.3058 128.681L65.1191 129.332L63.6663 130.256L62.2841 131.611L61.1363 133.831L60.6052 135.892L60.4864 138.116L60.7749 140.597L61.3838 142.335L62.3432 144.517L63.5876 146.619L64.9897 148.396L66.0766 149.066L68.7738 150.244L70.6275 150.573L72.5064 150.429L74.2013 150.228L76.2946 149.573L77.6465 148.786L78.9959 148.046L80.5749 146.512L82.3241 144.416L83.7052 142.207L84.7017 139.315L85.0968 136.299L85.3833 133.562L85.1617 130.704L85.8133 133.393L85.9026 136.102L85.7939 138.136L85.4545 140.112L84.4793 143.479L82.4525 147.269L80.1672 149.765L77.5025 151.483L74.9715 152.448L72.3725 152.936L69.993 152.818L66.5518 151.557L64.876 150.525L62.3769 148.266L60.5172 145.423L59.8364 144.156L59.3585 143.468L58.3107 142.942L56.9891 143.161L56.1037 143.971L55.4315 145.171L55.3759 146.212L55.546 147.406L56.3415 149.153L57.3804 150.723L58.7485 152.261L60.747 154.258L63.1024 155.703L65.2889 156.807L67.5007 157.439L69.7251 157.834L72.493 157.686L75.0555 157.007L77.4856 156.178L80.9738 153.932L82.5944 152.494L84.0775 151.002L86.5432 147.756L88.2586 143.666L88.8414 141.513L89.1809 139.537L89.6414 137.046L89.4285 134.901L91.6288 136.623L93.9944 137.878L97.0257 138.93L101.475 139.72L105.207 139.905L108.877 139.517L111.911 138.766L115.069 137.452L117.376 136.285L119.233 134.812L116.577 138.997L113.182 143.004L107.819 148.81L101.825 153.305L97.7389 156.233L93.209 158.713L88.3803 160.656L84.8128 161.76L80.5088 162.638L77.1242 162.944L73.2856 162.991L70.4522 162.614L67.2581 161.981L65.0488 161.302L61.5396 159.563L59.6822 158.427L58.1692 156.977L54.9614 153.971L52.8344 150.877L51.2257 147.714L50.1971 144.2L49.8582 140.91L50.0351 137.598L50.6975 134.832L51.4279 132.543L53.2378 129.312L55.1939 126.847L58.8285 123.612L62.4756 121.895L64.5588 121.429L67.3394 121.045L69.6256 121.158L71.6508 121.78L74.4413 122.962L76.1851 124.472L77.5582 125.916L78.7661 127.826L79.3182 129.751L79.5008 132.464L78.9846 135.996L78.2354 137.762L77.7031 138.969L76.51 140.285L75.824 140.868L74.3737 141.745L72.9537 142.054Z" fill="#8C775E" fill-opacity="0.04" stroke="#8C775E" stroke-opacity="0.04" stroke-width="0.5"/>
<path d="M139.158 62.962L140.579 63.0425L141.675 63.7773L142.52 65.345L142.982 66.5579L143.172 67.83L142.034 66.1802L141.015 65.9637L139.968 66.1909L138.806 67.2215L138.076 68.9367L137.954 70.3251L138.207 72.0213L139.311 73.4356L140.929 74.8353L142.889 75.3824L145.182 75.3223L147.286 74.6223L149.267 73.4139L150.484 72.128L151.547 70.4378L152.211 67.9589L152.311 65.7968L151.981 63.5823L151.206 61.2212L150.27 59.6732L148.908 57.7802L147.286 56.0408L145.577 54.6608L144.393 54.2854L141.554 53.8318L139.699 53.9915L137.914 54.6223L136.318 55.2608L134.428 56.4494L133.28 57.5742L132.126 58.6518L130.909 60.57L129.639 63.0832L128.748 65.6115L128.365 68.7106L128.587 71.7755L128.858 74.5379L129.644 77.2858L128.477 74.8153L127.849 72.1791L127.546 70.153L127.479 68.1247L127.746 64.5644L128.945 60.3155L130.651 57.2695L132.88 54.8885L135.13 53.2811L137.541 52.1252L139.862 51.6212L143.436 51.9638L145.26 52.5405L148.125 54.1074L150.489 56.4153L151.4 57.4822L151.999 58.0332L153.116 58.2771L154.348 57.7177L155.04 56.6918L155.449 55.3383L155.294 54.3017L154.891 53.1732L153.774 51.6647L152.457 50.3942L150.828 49.2399L148.499 47.7999L145.936 46.9944L143.605 46.4793L141.343 46.4353L139.117 46.6269L136.474 47.4926L134.137 48.8271L131.956 50.2734L129.039 53.3878L127.762 55.2216L126.629 57.0729L124.898 60.9023L124.061 65.3647L123.929 67.6309L123.996 69.6592L124.05 72.2256L124.685 74.2766L122.217 73.1589L119.682 72.5419L116.545 72.2988L112.092 72.682L108.452 73.4725L104.987 74.8086L102.209 76.3362L99.4232 78.449L97.4288 80.1954L95.9316 82.1258L97.6582 77.3243L100.134 72.5062L104.149 65.4081L109.036 59.4339L112.394 55.4942L116.271 51.8798L120.543 48.7144L123.766 46.7012L127.745 44.7183L130.951 43.5357L134.648 42.4899L137.458 42.1227L140.668 41.9121L142.937 42.0032L146.673 42.7972L148.693 43.4286L150.444 44.4591L154.142 46.5746L156.814 49.0588L159 51.7459L160.696 54.9285L161.682 58.0708L162.174 61.369L162.088 64.2575L161.841 66.6947L160.74 70.3387L159.345 73.2683L156.484 77.3919L153.307 80.0276L151.389 81.0277L148.781 82.129L146.552 82.6132L144.472 82.5297L141.542 82.0958L139.557 81.0677L137.942 80.0076L136.394 78.4468L135.476 76.7004L134.757 74.084L134.548 70.4811L134.918 68.5523L135.19 67.2285L136.079 65.6249L136.624 64.8741L137.849 63.6353L139.158 62.962Z" fill="#8C775E" fill-opacity="0.04" stroke="#8C775E" stroke-opacity="0.04" stroke-width="0.5"/>
<path d="M195.776 42.3054L202.277 41.3062L198.211 39.5702L195.372 37.7909L193.172 35.0959L191.691 31.0339L189.851 35.6063L187.521 38.0335L184.918 39.3977L182.357 39.667L179.552 39.962L176.625 40.2697L173.434 40.1505L169.995 39.9439L166.56 39.8504L164.584 39.4898L164.873 40.4825L166.03 41.7248L167.432 42.9414L169.682 43.9552L171.424 44.5677L173.157 44.9538L174.884 45.2269L172.428 47.8722L171.38 49.119L170.48 50.9187L169.813 52.4665L169.522 54.2021L169.617 56.3519L169.687 57.9359L170.153 60.1602L170.467 61.7186L170.923 63.7167L171.501 65.702L172.21 67.9007L172.544 69.9116L172.634 71.9482L172.49 74.2367L171.976 76.4505L171.553 77.9727L172.844 76.7002L174.487 75.0498L176.592 72.7824L177.711 70.3913L178.704 67.8999L179.448 65.321L179.84 63.12L180.467 60.6671L181.084 57.9879L182.529 54.6532L183.761 52.023L185.368 49.5806L186.868 47.4904L188.735 45.3618L191.637 43.4139L195.776 42.3054Z" fill="#8C775E" fill-opacity="0.04" stroke="#8C775E" stroke-opacity="0.04" stroke-width="0.5"/>
<path d="M11.5494 160.347L4.95117 160.233L8.8962 162.627L11.6078 164.857L13.6087 167.881L14.782 172.127L16.9794 167.939L19.5022 165.944L22.2184 165.042L24.8082 165.209L27.6447 165.392L30.6044 165.584L33.7962 166.24L37.2309 167.024L40.6694 167.696L42.6242 168.384L42.4105 167.359L41.3446 165.941L40.032 164.507L37.8524 163.13L36.1515 162.233L34.4433 161.561L32.7314 161L35.3982 158.812L36.5447 157.762L37.5862 156.144L38.3738 154.733L38.7987 153.075L38.8683 150.943L38.9196 149.373L38.6228 147.106L38.4275 145.519L38.1234 143.476L37.6961 141.426L37.1527 139.142L36.972 137.107L37.0379 135.088L37.3578 132.861L38.044 130.77L38.5849 129.343L37.1917 130.377L35.4176 131.724L33.1318 133.599L31.8253 135.763L30.6385 138.047L29.6947 140.459L29.1318 142.558L28.3149 144.866L27.4907 147.398L25.785 150.435L24.3478 152.815L22.5481 154.946L20.8826 156.75L18.8471 158.529L15.7865 159.956L11.5494 160.347Z" fill="#8C775E" fill-opacity="0.04" stroke="#8C775E" stroke-opacity="0.04" stroke-width="0.5"/>
<path d="M201.593 161.87L208.207 161.809L204.26 159.525L201.548 157.373L199.551 154.41L198.387 150.204L196.172 154.441L193.638 156.499L190.912 157.472L188.316 157.374L185.474 157.267L182.507 157.155L179.31 156.586L175.869 155.895L172.424 155.316L170.466 154.682L170.678 155.699L171.742 157.085L173.054 158.48L175.234 159.796L176.937 160.646L178.647 161.271L180.362 161.784L177.682 164.038L176.53 165.116L175.481 166.759L174.687 168.187L174.256 169.853L174.18 171.981L174.124 173.549L174.415 175.803L174.606 177.381L174.905 179.411L175.328 181.446L175.866 183.709L176.041 185.734L175.969 187.75L175.642 189.981L174.948 192.086L174.401 193.523L175.801 192.455L177.583 191.064L179.88 189.132L181.196 186.938L182.392 184.628L183.346 182.197L183.916 180.087L184.742 177.763L185.575 175.215L187.294 172.14L188.742 169.727L190.552 167.552L192.227 165.709L194.272 163.879L197.345 162.374L201.593 161.87Z" fill="#8C775E" fill-opacity="0.04" stroke="#8C775E" stroke-opacity="0.04" stroke-width="0.5"/>
<path d="M16.5906 38.33L10.02 37.528L13.6704 40.3094L16.1097 42.7993L17.745 46.0001L18.4081 50.3252L21.1015 46.4098L23.8574 44.699L26.6757 44.0891L29.24 44.5251L32.0485 45.0027L34.9791 45.501L38.0857 46.4833L41.4194 47.6178L44.7702 48.6417L46.6386 49.527L46.548 48.4899L45.6538 46.9755L44.5153 45.4197L42.5051 43.8291L40.915 42.764L39.2908 41.9202L37.6495 41.187L40.5721 39.3L41.8418 38.3806L43.0746 36.8874L44.029 35.5739L44.6513 33.9768L44.9755 31.875L45.2144 30.3263L45.1894 28.0515L45.184 26.4613L45.1249 24.4078L44.9436 22.3335L44.6743 20.0173L44.7372 17.9845L45.0444 15.9933L45.6299 13.8224L46.5646 11.8244L47.2749 10.4693L45.761 11.3471L43.8297 12.4946L41.3246 14.112L39.7622 16.1168L38.3049 18.2531L37.0748 20.5414L36.2621 22.5602L35.1711 24.7587L34.046 27.1784L31.9808 30.006L30.2622 32.2113L28.2115 34.133L26.334 35.7437L24.0901 37.2921L20.8655 38.3845L16.5906 38.33Z" fill="#8C775E" fill-opacity="0.04" stroke="#8C775E" stroke-opacity="0.04" stroke-width="0.5"/>
<path d="M90.4506 97.7054L89.582 95.8103L89.1749 93.631L89.1749 91.5464L89.1749 88.9881L89.1749 86.0508L88.7371 87.9458L88.3609 89.7462L87.8028 91.5464L87.0679 93.631L86.0136 95.8103L84.5119 97.2277L82.642 98.2895L80.0109 99.1038L77.0092 99.8553L74.3386 100.426L71.2973 100.935L68.49 101.404L65.7799 101.732L63.1671 101.919L60.6514 101.965L57.1604 101.924L53.8639 101.601L50.4504 101.297L47.0171 100.872L44.7536 100.251L42.2561 99.6696L45.8308 102.444L47.4518 103.546L49.4237 104.591L50.7318 105.246L52.9179 106.129L54.753 107.071L56.9968 107.571L59.3773 108.172L62.1285 108.836L64.3723 109.335L66.8303 109.673L69.346 109.628L72.369 109.747L74.5915 109.375L76.58 109.043L76.8566 110.745L77.7213 113.847L78.8775 116.526L80.1508 119.185L81.5592 121.198L82.7518 122.622L85.096 124.478L87.0679 125.522L89.1749 125.919L91.282 126.316L94.1683 126.333L95.9229 126.04L97.7154 125.241L99.3514 124.218L100.908 122.709L102.329 121.098L103.729 119.366L105.266 117.735L106.766 116.61L108.207 115.87L109.337 115.431L110.448 114.871L108.926 114.376L107.911 114.046L106.331 113.936L105.278 114.112L103.992 114.327L103.913 113.84L103.596 111.895L103.048 110.738L102.577 109.318L101.911 108.181L100.719 106.757L99.5854 105.697L98.3548 104.779L96.9693 104.386L95.7206 104.096L94.083 104.369L92.4454 104.643L90.7699 105.423L89.582 106.245L88.2392 107.594L87.501 108.966L86.6458 110.358L87.3477 110.24L88.3609 109.821L89.7448 109.465L91.1484 109.23L92.7283 109.341L94.0166 109.875L95.0907 110.57L96.1071 111.648L96.6951 113.049L96.8927 114.264L96.7986 115.903L96.1774 117.256L95.3404 118.02L94.309 119.067L92.8674 119.807L91.1129 120.1L89.7472 119.829L88.0882 119.232L86.7407 118.334L85.6453 116.769L84.998 115.004L84.6226 112.694L84.6573 110.69L85.1402 108.486L86.0136 106.467L87.2773 104.633L88.7371 103.265L90.4506 101.979L91.8922 101.239L92.8674 100.426L91.282 99.1038L90.4506 97.7054Z" fill="#8C775E" fill-opacity="0.04" stroke="#8C775E" stroke-opacity="0.04" stroke-width="0.5"/>
<path d="M116.814 107.128L117.713 109.01L118.155 111.183L118.188 113.267L118.229 115.825L118.276 118.762L118.683 116.861L119.031 115.055L119.56 113.247L120.261 111.152L121.281 108.957L122.759 107.518L124.612 106.428L127.23 105.575L130.219 104.779L132.88 104.168L135.913 103.615L138.713 103.104L141.417 102.735L144.027 102.51L146.541 102.427L150.033 102.416L153.334 102.69L156.752 102.943L160.191 103.317L162.465 103.904L164.971 104.448L161.352 101.727L159.714 100.649L157.726 99.6344L156.407 98.9983L154.207 98.1475L152.357 97.2329L150.106 96.7672L147.716 96.2014L144.954 95.5783L142.703 95.1126L140.24 94.8107L137.725 94.8939L134.7 94.8197L132.484 95.2241L130.501 95.5859L130.197 93.8882L129.283 90.7992L128.084 88.1378L126.769 85.4977L125.328 83.5065L124.113 82.1004L121.739 80.2794L119.751 79.2648L117.638 78.899L115.524 78.5333L112.638 78.5591L110.888 78.8783L109.109 79.7039L107.49 80.7508L105.957 82.2827L104.563 83.9146L103.19 85.6678L101.679 87.321L100.198 88.4678L98.7685 89.2296L97.6454 89.6849L96.5441 90.2616L98.074 90.7337L99.094 91.0485L100.675 91.1356L101.725 90.9441L103.008 90.7099L103.095 91.195L103.442 93.1352L104.009 94.284L104.503 95.6966L105.187 96.8241L106.402 98.2303L107.552 99.2727L108.797 100.172L110.189 100.545L111.442 100.817L113.075 100.519L114.708 100.221L116.371 99.4166L117.546 98.5761L118.867 97.208L119.583 95.8251L120.416 94.4209L119.716 94.5486L118.709 94.9827L117.331 95.3594L115.932 95.6148L114.35 95.5277L113.053 95.013L111.968 94.3344L110.935 93.2708L110.324 91.8794L110.107 90.6668L110.175 89.0265L110.775 87.6648L111.599 86.8882L112.614 85.8265L114.043 85.0648L115.793 84.7455L117.163 84.9964L118.831 85.5686L120.193 86.4471L121.313 87.9958L121.989 89.751L122.401 92.055L122.399 94.0591L121.951 96.2696L121.11 98.3014L119.876 100.155L118.438 101.544L116.745 102.855L115.316 103.616L114.354 104.443L115.96 105.742L116.814 107.128Z" fill="#8C775E" fill-opacity="0.04" stroke="#8C775E" stroke-opacity="0.04" stroke-width="0.5"/>
<mask id="path-11-inside-1_10:18" fill="white">
<path d="M161.841 29.6685L168.26 34.8203L166.162 31.1704L161.95 26.7747L158.88 24.2141L154.537 20.8295L149.9 17.8398L144.14 14.9827L136.995 11.8021L128.702 9.43502L120.95 7.55486L115.756 6.98233L108.892 6.22578L99.0222 6.16343L91.9027 7.25893L86.651 8.21845L79.8704 10.206L74.4843 12.2618L70.0257 14.4198L65.4487 17.2485L62.3749 19.7301L57.9417 23.6857L54.4232 28.084L52.1712 33.4766L50.9426 38.8965L51.1629 42.9378L52.1637 46.0394L53.6667 48.1709L56.0141 50.139L59.142 51.1675L57.0442 47.5176L56.651 45.5939L56.2642 43.5001L57.0066 40.7264L58.6761 38.8089L61.2476 37.2975L64.7339 36.2288L68.6454 36.2327L72.1539 37.0467L75.3883 38.7595L78.468 41.4118L80.5132 44.2607L81.3798 47.4223L81.7356 50.0134L81.1897 53.6909L79.9881 56.5421L78.0433 58.7208L76.105 60.7293L74.2722 62.4076L71.1377 64.0278L76.0344 62.6018L79.073 61.0565L82.1243 59.1707L84.7886 57.6696L87.8431 55.6986L91.3935 52.9277L94.7455 50.4768L97.4547 47.7841L99.9656 45.4114L103.26 42.014L104.86 39.1134L105.743 35.4502L105.877 31.8754L103.76 28.7362L100.671 26.6863L97.1655 25.7871L93.6889 26.6005L91.1141 28.1969L89.4797 29.5552L88.7343 32.037L89.3002 34.3215L90.816 36.1125L93.7488 37.3759L90.7808 37.0488L88.6061 35.4416L86.6361 33.3441L85.8432 29.6671L86.8797 26.8755L89.0228 24.3768L91.3129 22.9199L93.8716 21.749L98.4677 20.8881L102.734 21.3584L106.191 23.5343L109.46 25.7749L112.728 28.0154L116.413 29.1053L120.123 29.5142L122.931 29.14L124.933 27.9078L125.483 25.6608L124.623 23.7712L121.69 22.5078L118.147 22.63L119.692 21.1764L121.761 20.6353L125.193 21.0136L127.649 22.5663L130.745 24.446L133.274 26.5196L136.853 27.9397L139.543 28.2362L142.735 27.5624L144.488 25.5335L144.529 24.427L142.908 22.9663L140.701 22.2102L143.887 21.7067L146.947 22.0441L150.533 23.294L156.014 26.1203L161.841 29.6685Z"/>
</mask>
<path d="M161.841 29.6685L168.26 34.8203L166.162 31.1704L161.95 26.7747L158.88 24.2141L154.537 20.8295L149.9 17.8398L144.14 14.9827L136.995 11.8021L128.702 9.43502L120.95 7.55486L115.756 6.98233L108.892 6.22578L99.0222 6.16343L91.9027 7.25893L86.651 8.21845L79.8704 10.206L74.4843 12.2618L70.0257 14.4198L65.4487 17.2485L62.3749 19.7301L57.9417 23.6857L54.4232 28.084L52.1712 33.4766L50.9426 38.8965L51.1629 42.9378L52.1637 46.0394L53.6667 48.1709L56.0141 50.139L59.142 51.1675L57.0442 47.5176L56.651 45.5939L56.2642 43.5001L57.0066 40.7264L58.6761 38.8089L61.2476 37.2975L64.7339 36.2288L68.6454 36.2327L72.1539 37.0467L75.3883 38.7595L78.468 41.4118L80.5132 44.2607L81.3798 47.4223L81.7356 50.0134L81.1897 53.6909L79.9881 56.5421L78.0433 58.7208L76.105 60.7293L74.2722 62.4076L71.1377 64.0278L76.0344 62.6018L79.073 61.0565L82.1243 59.1707L84.7886 57.6696L87.8431 55.6986L91.3935 52.9277L94.7455 50.4768L97.4547 47.7841L99.9656 45.4114L103.26 42.014L104.86 39.1134L105.743 35.4502L105.877 31.8754L103.76 28.7362L100.671 26.6863L97.1655 25.7871L93.6889 26.6005L91.1141 28.1969L89.4797 29.5552L88.7343 32.037L89.3002 34.3215L90.816 36.1125L93.7488 37.3759L90.7808 37.0488L88.6061 35.4416L86.6361 33.3441L85.8432 29.6671L86.8797 26.8755L89.0228 24.3768L91.3129 22.9199L93.8716 21.749L98.4677 20.8881L102.734 21.3584L106.191 23.5343L109.46 25.7749L112.728 28.0154L116.413 29.1053L120.123 29.5142L122.931 29.14L124.933 27.9078L125.483 25.6608L124.623 23.7712L121.69 22.5078L118.147 22.63L119.692 21.1764L121.761 20.6353L125.193 21.0136L127.649 22.5663L130.745 24.446L133.274 26.5196L136.853 27.9397L139.543 28.2362L142.735 27.5624L144.488 25.5335L144.529 24.427L142.908 22.9663L140.701 22.2102L143.887 21.7067L146.947 22.0441L150.533 23.294L156.014 26.1203L161.841 29.6685Z" fill="#8C775E" fill-opacity="0.04" stroke="#8C775E" stroke-opacity="0.04" stroke-width="2" mask="url(#path-11-inside-1_10:18)"/>
<mask id="path-12-inside-2_10:18" fill="white">
<path d="M57.0768 179.215L50.1298 174.599L52.6729 178.106L57.3722 182.166L60.7084 184.472L65.3949 187.493L70.3125 190.084L76.3017 192.432L83.6805 194.975L92.0616 196.582L99.8503 197.745L104.973 197.827L111.743 197.934L121.336 197.047L128.097 195.248L133.064 193.767L139.372 191.094L144.318 188.487L148.348 185.864L152.4 182.549L155.041 179.732L158.797 175.286L161.604 170.478L163.043 164.782L163.485 159.156L162.711 155.071L161.309 152.016L159.554 149.995L157.001 148.222L153.822 147.478L156.365 150.984L157.013 152.901L157.679 154.991L157.343 157.881L155.987 159.99L153.7 161.774L150.463 163.195L146.664 163.568L143.144 163.079L139.766 161.65L136.408 159.252L134.027 156.554L132.747 153.425L132.042 150.827L132.062 147.038L132.834 144.025L134.42 141.624L136.024 139.397L137.571 137.515L140.39 135.567L135.833 137.487L133.097 139.35L130.395 141.56L128.016 143.342L125.323 145.639L122.26 148.796L119.345 151.609L117.087 154.606L114.978 157.259L112.25 161.029L111.099 164.13L110.749 167.937L111.114 171.582L113.605 174.568L116.889 176.353L120.418 176.929L123.681 175.768L125.96 173.897L127.359 172.36L127.738 169.766L126.872 167.5L125.152 165.826L122.129 164.825L125.056 164.871L127.391 166.295L129.595 168.236L130.874 171.896L130.255 174.832L128.52 177.578L126.499 179.278L124.176 180.715L119.833 182.032L115.625 181.965L111.966 180.087L108.481 178.126L104.997 176.164L101.268 175.412L97.6088 175.353L94.9339 176.004L93.1604 177.449L92.9376 179.785L94.0349 181.622L97.0578 182.623L100.482 182.158L99.1834 183.784L97.249 184.533L93.8642 184.479L91.2638 183.138L87.9971 181.526L85.2531 179.663L81.5811 178.565L78.9281 178.523L75.922 179.515L74.5012 181.745L74.6142 182.873L76.3912 184.201L78.6388 184.757L75.6153 185.576L72.5964 185.528L68.9418 184.603L63.227 182.259L57.0768 179.215Z"/>
</mask>
<path d="M57.0768 179.215L50.1298 174.599L52.6729 178.106L57.3722 182.166L60.7084 184.472L65.3949 187.493L70.3125 190.084L76.3017 192.432L83.6805 194.975L92.0616 196.582L99.8503 197.745L104.973 197.827L111.743 197.934L121.336 197.047L128.097 195.248L133.064 193.767L139.372 191.094L144.318 188.487L148.348 185.864L152.4 182.549L155.041 179.732L158.797 175.286L161.604 170.478L163.043 164.782L163.485 159.156L162.711 155.071L161.309 152.016L159.554 149.995L157.001 148.222L153.822 147.478L156.365 150.984L157.013 152.901L157.679 154.991L157.343 157.881L155.987 159.99L153.7 161.774L150.463 163.195L146.664 163.568L143.144 163.079L139.766 161.65L136.408 159.252L134.027 156.554L132.747 153.425L132.042 150.827L132.062 147.038L132.834 144.025L134.42 141.624L136.024 139.397L137.571 137.515L140.39 135.567L135.833 137.487L133.097 139.35L130.395 141.56L128.016 143.342L125.323 145.639L122.26 148.796L119.345 151.609L117.087 154.606L114.978 157.259L112.25 161.029L111.099 164.13L110.749 167.937L111.114 171.582L113.605 174.568L116.889 176.353L120.418 176.929L123.681 175.768L125.96 173.897L127.359 172.36L127.738 169.766L126.872 167.5L125.152 165.826L122.129 164.825L125.056 164.871L127.391 166.295L129.595 168.236L130.874 171.896L130.255 174.832L128.52 177.578L126.499 179.278L124.176 180.715L119.833 182.032L115.625 181.965L111.966 180.087L108.481 178.126L104.997 176.164L101.268 175.412L97.6088 175.353L94.9339 176.004L93.1604 177.449L92.9376 179.785L94.0349 181.622L97.0578 182.623L100.482 182.158L99.1834 183.784L97.249 184.533L93.8642 184.479L91.2638 183.138L87.9971 181.526L85.2531 179.663L81.5811 178.565L78.9281 178.523L75.922 179.515L74.5012 181.745L74.6142 182.873L76.3912 184.201L78.6388 184.757L75.6153 185.576L72.5964 185.528L68.9418 184.603L63.227 182.259L57.0768 179.215Z" fill="#8C775E" fill-opacity="0.04" stroke="#8C775E" stroke-opacity="0.04" stroke-width="2" mask="url(#path-12-inside-2_10:18)"/>
</svg>
