<svg width="217" height="74" viewBox="0 0 217 74" fill="none" xmlns="http://www.w3.org/2000/svg">
<mask id="path-1-inside-1_57:57" fill="white">
<path d="M6.37007 34.6171L3.56968 37.7072L4.20605 35.5795L5.89966 32.9746L7.22549 31.4418L9.1347 29.4084L11.2618 27.5922L14.0253 25.8232L17.5048 23.8355L21.7314 22.2814L25.7297 21.0177L28.5059 20.5617L32.1745 19.9592L37.5956 19.6757L41.6677 20.1196L44.6929 20.5332L48.7051 21.4928L51.9598 22.5262L54.7188 23.641L57.638 25.1342L59.681 26.4678L62.681 28.6052L65.2405 31.0173L67.2443 34.0265L68.689 37.0769L69.141 39.38L69.0303 41.1685L68.5057 42.418L67.4935 43.5958L65.9186 44.2591L66.555 42.1314L66.4985 41.0279L66.4143 39.8278L65.6124 38.2696L64.422 37.2214L62.7929 36.4268L60.7234 35.9068L58.5721 36.0073L56.7574 36.5582L55.2209 37.6132L53.9028 39.1985L53.1817 40.8695L53.1535 42.6887L53.3252 44.1707L54.1472 46.2477L55.2126 47.8385L56.5916 49.0283L57.9428 50.1214L59.1891 51.0295L61.1433 51.8718L58.2472 51.1842L56.3564 50.382L54.4102 49.3865L52.7316 48.6001L50.7716 47.5563L48.4254 46.0702L46.2336 44.7611L44.3613 43.2983L42.6434 42.0124L40.3491 40.1637L39.0578 38.5549L38.0524 36.4945L37.4713 34.4656L38.1907 32.6277L39.5995 31.3847L41.4004 30.7854L43.4284 31.1605L45.0713 32.0034L46.1631 32.7345L46.9252 34.1267L46.9379 35.4397L46.358 36.496L44.9238 37.288L46.5102 37.0274L47.4787 36.059L48.2649 34.8171L48.1796 32.7068L47.2134 31.1457L45.68 29.779L44.2135 29.0083L42.6397 28.4069L39.9892 28.033L37.7087 28.4075L36.1154 29.7314L34.635 31.0873L33.1547 32.4433L31.2824 33.1554L29.2994 33.4811L27.7014 33.339L26.4251 32.6887L25.8037 31.4251L26.0089 30.3292L27.4431 29.5373L29.41 29.5177L28.3539 28.7301L27.1387 28.4745L25.3044 28.7758L24.1734 29.7203L22.7369 30.8667L21.6393 32.1091L19.8719 33.0064L18.4342 33.2425L16.5826 32.9397L15.3305 31.8302L15.1507 31.2022L15.8355 30.3311L16.9423 29.8458L15.1184 29.6396L13.4824 29.9083L11.6873 30.7089L9.07248 32.4535L6.37007 34.6171Z"/>
</mask>
<path d="M6.37007 34.6171L3.56968 37.7072L4.20605 35.5795L5.89966 32.9746L7.22549 31.4418L9.1347 29.4084L11.2618 27.5922L14.0253 25.8232L17.5048 23.8355L21.7314 22.2814L25.7297 21.0177L28.5059 20.5617L32.1745 19.9592L37.5956 19.6757L41.6677 20.1196L44.6929 20.5332L48.7051 21.4928L51.9598 22.5262L54.7188 23.641L57.638 25.1342L59.681 26.4678L62.681 28.6052L65.2405 31.0173L67.2443 34.0265L68.689 37.0769L69.141 39.38L69.0303 41.1685L68.5057 42.418L67.4935 43.5958L65.9186 44.2591L66.555 42.1314L66.4985 41.0279L66.4143 39.8278L65.6124 38.2696L64.422 37.2214L62.7929 36.4268L60.7234 35.9068L58.5721 36.0073L56.7574 36.5582L55.2209 37.6132L53.9028 39.1985L53.1817 40.8695L53.1535 42.6887L53.3252 44.1707L54.1472 46.2477L55.2126 47.8385L56.5916 49.0283L57.9428 50.1214L59.1891 51.0295L61.1433 51.8718L58.2472 51.1842L56.3564 50.382L54.4102 49.3865L52.7316 48.6001L50.7716 47.5563L48.4254 46.0702L46.2336 44.7611L44.3613 43.2983L42.6434 42.0124L40.3491 40.1637L39.0578 38.5549L38.0524 36.4945L37.4713 34.4656L38.1907 32.6277L39.5995 31.3847L41.4004 30.7854L43.4284 31.1605L45.0713 32.0034L46.1631 32.7345L46.9252 34.1267L46.9379 35.4397L46.358 36.496L44.9238 37.288L46.5102 37.0274L47.4787 36.059L48.2649 34.8171L48.1796 32.7068L47.2134 31.1457L45.68 29.779L44.2135 29.0083L42.6397 28.4069L39.9892 28.033L37.7087 28.4075L36.1154 29.7314L34.635 31.0873L33.1547 32.4433L31.2824 33.1554L29.2994 33.4811L27.7014 33.339L26.4251 32.6887L25.8037 31.4251L26.0089 30.3292L27.4431 29.5373L29.41 29.5177L28.3539 28.7301L27.1387 28.4745L25.3044 28.7758L24.1734 29.7203L22.7369 30.8667L21.6393 32.1091L19.8719 33.0064L18.4342 33.2425L16.5826 32.9397L15.3305 31.8302L15.1507 31.2022L15.8355 30.3311L16.9423 29.8458L15.1184 29.6396L13.4824 29.9083L11.6873 30.7089L9.07248 32.4535L6.37007 34.6171Z" fill="white" stroke="white" stroke-width="2" mask="url(#path-1-inside-1_57:57)"/>
<path d="M101.344 32.6855C100.924 33.0957 100.494 33.4863 100.055 33.8574C99.625 34.2285 99.1953 34.5508 98.7656 34.8242C98.3359 35.0977 97.9111 35.3027 97.4912 35.4395C97.0713 35.5859 96.666 35.6299 96.2754 35.5713C95.875 35.5127 95.5674 35.3467 95.3525 35.0732C95.1377 34.8096 94.9766 34.4678 94.8691 34.0479C94.7617 33.6182 94.6885 33.1299 94.6494 32.583C94.6104 32.0361 94.5713 31.4502 94.5322 30.8252C94.4834 30.2979 94.415 29.4922 94.3271 28.4082C94.2881 27.9492 94.2393 27.4072 94.1807 26.7822C94.1318 26.1475 94.0732 25.4199 94.0049 24.5996C93.9463 23.7695 93.873 22.8418 93.7852 21.8164C93.6973 20.7812 93.6045 19.624 93.5068 18.3447C93.0088 18.9697 92.4814 19.6387 91.9248 20.3516C91.3682 21.0547 90.8164 21.7871 90.2695 22.5488C89.7324 23.3105 89.21 24.0918 88.7021 24.8926C88.2041 25.6934 87.7549 26.499 87.3545 27.3096C86.9639 28.1104 86.6367 28.9062 86.373 29.6973C86.1094 30.4785 85.9482 31.2354 85.8896 31.9678L82.623 35.3662C82.6426 35.0244 82.6328 34.6875 82.5938 34.3555C82.5547 34.0137 82.5059 33.7109 82.4473 33.4473C82.3789 33.1348 82.2959 32.8418 82.1982 32.5684C81.749 31.4258 81.2607 30.3027 80.7334 29.1992C80.2158 28.0957 79.6787 27.002 79.1221 25.918C78.5654 24.834 77.999 23.7598 77.4229 22.6953C76.8564 21.6309 76.2998 20.5615 75.7529 19.4873C75.5283 20.4639 75.3281 21.3623 75.1523 22.1826C74.9766 22.9932 74.8203 23.7012 74.6836 24.3066C74.5273 25.0098 74.3906 25.6445 74.2734 26.2109C73.4727 29.9121 73.2236 31.9531 73.5264 32.334C73.6045 32.4219 73.7314 32.5 73.9072 32.5684C74.083 32.627 74.2979 32.6562 74.5518 32.6562C74.8545 32.6562 75.1865 32.5977 75.5479 32.4805C75.9189 32.3535 76.3145 32.1338 76.7344 31.8213C76.1094 32.4072 75.5381 32.9492 75.0205 33.4473C74.5029 33.9453 74.0195 34.3652 73.5703 34.707C73.1211 35.0488 72.7012 35.293 72.3105 35.4395C71.9297 35.5859 71.5586 35.6006 71.1973 35.4834C70.9238 35.3857 70.7285 35.2148 70.6113 34.9707C70.4941 34.7266 70.4355 34.4043 70.4355 34.0039C70.4355 33.4473 70.5283 32.7539 70.7139 31.9238C70.9092 31.084 71.1191 30.1172 71.3438 29.0234C71.4805 28.418 71.6367 27.7148 71.8125 26.9141C71.9883 26.1035 72.1738 25.2539 72.3691 24.3652C72.5645 23.4766 72.7598 22.5732 72.9551 21.6553C73.1504 20.7275 73.3359 19.8486 73.5117 19.0186C73.6973 18.1885 73.8584 17.4316 73.9951 16.748C74.1416 16.0645 74.2588 15.5078 74.3467 15.0781C74.3857 14.9609 74.5322 14.7656 74.7861 14.4922C74.8936 14.375 75.0254 14.2383 75.1816 14.082C75.3477 13.916 75.543 13.7256 75.7676 13.5107C76.002 13.2959 76.2705 13.0518 76.5732 12.7783C76.8857 12.4951 77.2422 12.1826 77.6426 11.8408C77.5645 12.2021 77.5547 12.5879 77.6133 12.998C77.6719 13.4082 77.75 13.7891 77.8477 14.1406C77.9551 14.5508 78.0967 14.9561 78.2725 15.3564C78.4092 15.6689 78.6338 16.1377 78.9463 16.7627C79.2686 17.3877 79.6348 18.1006 80.0449 18.9014C80.4648 19.6924 80.9141 20.542 81.3926 21.4502C81.8711 22.3486 82.3301 23.2373 82.7695 24.1162C83.2188 24.9951 83.6338 25.8301 84.0146 26.6211C84.3955 27.4121 84.6982 28.0859 84.9229 28.6426C85.3525 27.8711 85.8262 27.1094 86.3438 26.3574C86.8711 25.6055 87.4082 24.8535 87.9551 24.1016C88.5117 23.3496 89.0635 22.5977 89.6104 21.8457C90.167 21.084 90.6895 20.3125 91.1777 19.5312C91.6758 18.75 92.1299 17.9492 92.54 17.1289C92.9502 16.3086 93.292 15.4639 93.5654 14.5947C93.8193 14.292 94.1221 13.9697 94.4736 13.6279C94.7666 13.335 95.1279 12.998 95.5576 12.6172C95.9873 12.2363 96.4756 11.8262 97.0225 11.3867C96.915 11.6895 96.8418 12.0361 96.8027 12.4268C96.7637 12.8174 96.7344 13.1885 96.7148 13.54C96.6953 13.9502 96.6953 14.3652 96.7148 14.7852C96.7246 15.0586 96.749 15.4883 96.7881 16.0742C96.8369 16.6602 96.8906 17.3438 96.9492 18.125C97.0078 18.8965 97.0762 19.7412 97.1543 20.6592C97.2422 21.5771 97.3252 22.5049 97.4033 23.4424C97.4912 24.3799 97.5791 25.3027 97.667 26.2109C97.7549 27.1094 97.8379 27.9346 97.916 28.6865C97.9941 29.4287 98.0674 30.0684 98.1357 30.6055C98.2041 31.1426 98.2627 31.5186 98.3115 31.7334C98.3604 31.9775 98.4434 32.1875 98.5605 32.3633C98.6777 32.5293 98.8145 32.666 98.9707 32.7734C99.127 32.8711 99.293 32.9443 99.4688 32.9932C99.6543 33.0322 99.8398 33.0518 100.025 33.0518C100.289 33.0518 100.533 33.0176 100.758 32.9492C100.992 32.8711 101.188 32.7832 101.344 32.6855ZM121.28 26.4746C121.28 27.2852 121.168 28.0225 120.943 28.6865C120.719 29.3506 120.45 29.9316 120.138 30.4297C119.825 30.9277 119.508 31.3428 119.186 31.6748C118.863 32.0068 118.604 32.2461 118.409 32.3926C117.843 32.8027 117.262 33.2031 116.666 33.5938C116.07 33.9844 115.455 34.3359 114.82 34.6484C114.195 34.9512 113.551 35.1953 112.887 35.3809C112.223 35.5664 111.539 35.6592 110.836 35.6592C109.791 35.6592 108.8 35.5273 107.862 35.2637C106.935 35 106.119 34.6045 105.416 34.0771C104.723 33.5498 104.171 32.8857 103.761 32.085C103.36 31.2842 103.16 30.3467 103.16 29.2725C103.16 28.3252 103.321 27.4365 103.644 26.6064C103.976 25.7666 104.415 24.9951 104.962 24.292C105.519 23.5889 106.168 22.959 106.91 22.4023C107.652 21.8359 108.438 21.3574 109.269 20.9668C110.099 20.5762 110.953 20.2783 111.832 20.0732C112.711 19.8682 113.561 19.7656 114.381 19.7656C115.396 19.7656 116.324 19.9365 117.164 20.2783C118.014 20.6104 118.741 21.0791 119.347 21.6846C119.962 22.2803 120.436 22.9883 120.768 23.8086C121.109 24.6289 121.28 25.5176 121.28 26.4746ZM111.173 21.4648C110.675 21.4648 110.221 21.5576 109.811 21.7432C109.4 21.9189 109.034 22.1631 108.712 22.4756C108.399 22.7783 108.126 23.1348 107.892 23.5449C107.667 23.9453 107.477 24.3701 107.32 24.8193C107.174 25.2588 107.062 25.708 106.983 26.167C106.915 26.6162 106.881 27.041 106.881 27.4414C106.881 28.3496 107.047 29.1992 107.379 29.9902C107.711 30.7715 108.165 31.4551 108.741 32.041C109.327 32.627 110.006 33.0859 110.777 33.418C111.559 33.75 112.389 33.916 113.268 33.916C113.814 33.916 114.342 33.8135 114.85 33.6084C115.367 33.3936 115.821 33.0615 116.212 32.6123C116.612 32.1533 116.93 31.5674 117.164 30.8545C117.408 30.1318 117.53 29.2627 117.53 28.2471C117.53 27.3584 117.364 26.5039 117.032 25.6836C116.7 24.8633 116.246 24.1406 115.67 23.5156C115.094 22.8906 114.42 22.3926 113.648 22.0215C112.877 21.6504 112.052 21.4648 111.173 21.4648ZM141.993 26.2695C141.993 27.1289 141.827 27.9443 141.495 28.7158C141.163 29.4873 140.719 30.2051 140.162 30.8691C139.605 31.5332 138.961 32.1387 138.229 32.6855C137.506 33.2324 136.744 33.7061 135.943 34.1064C135.152 34.5068 134.352 34.8242 133.541 35.0586C132.73 35.3027 131.969 35.4541 131.256 35.5127C130.943 35.5322 130.572 35.5273 130.143 35.498C129.713 35.4688 129.269 35.3906 128.81 35.2637C128.36 35.1465 127.911 34.9658 127.462 34.7217C127.022 34.4678 126.627 34.1309 126.275 33.7109C125.924 33.291 125.641 32.7734 125.426 32.1582C125.211 31.5332 125.104 30.791 125.104 29.9316C125.104 29.2871 125.108 28.5352 125.118 27.6758C125.138 26.8164 125.157 25.8984 125.177 24.9219C125.196 23.9355 125.216 22.9199 125.235 21.875C125.265 20.8203 125.294 19.7803 125.323 18.7549C125.353 17.7295 125.377 16.7432 125.396 15.7959C125.426 14.8389 125.445 13.9697 125.455 13.1885C125.475 12.4072 125.489 11.7334 125.499 11.167C125.509 10.6006 125.509 10.1953 125.499 9.95117C125.47 9.59961 125.367 9.30176 125.191 9.05762C125.045 8.85254 124.82 8.69141 124.518 8.57422C124.225 8.44727 123.81 8.45703 123.272 8.60352C123.644 8.4082 124.02 8.20801 124.4 8.00293C124.781 7.78809 125.167 7.59766 125.558 7.43164C125.948 7.25586 126.339 7.11426 126.729 7.00684C127.12 6.88965 127.516 6.83105 127.916 6.83105C128.121 6.83105 128.316 6.85059 128.502 6.88965C128.697 6.92871 128.863 7.00195 129 7.10938C129.146 7.20703 129.264 7.33887 129.352 7.50488C129.439 7.6709 129.483 7.87598 129.483 8.12012C129.483 8.2959 129.479 8.62793 129.469 9.11621C129.459 9.60449 129.444 10.21 129.425 10.9326C129.415 11.6553 129.396 12.4658 129.366 13.3643C129.347 14.2627 129.322 15.2051 129.293 16.1914C129.273 17.168 129.249 18.1689 129.22 19.1943C129.2 20.21 129.176 21.1963 129.146 22.1533C129.664 21.8018 130.187 21.4795 130.714 21.1865C131.241 20.8838 131.778 20.6299 132.325 20.4248C132.882 20.21 133.443 20.0439 134.01 19.9268C134.586 19.7998 135.177 19.7363 135.782 19.7363C136.759 19.7363 137.633 19.917 138.404 20.2783C139.176 20.6396 139.825 21.123 140.353 21.7285C140.89 22.334 141.295 23.0322 141.568 23.8232C141.852 24.6045 141.993 25.4199 141.993 26.2695ZM129.029 29.0967C129.029 29.585 129.176 30.1025 129.469 30.6494C129.771 31.1865 130.172 31.6846 130.67 32.1436C131.168 32.6025 131.739 32.9834 132.384 33.2861C133.028 33.5889 133.702 33.7402 134.405 33.7402C135.089 33.7402 135.665 33.5742 136.134 33.2422C136.612 32.9102 136.998 32.4902 137.291 31.9824C137.584 31.4648 137.794 30.8984 137.921 30.2832C138.058 29.668 138.126 29.082 138.126 28.5254C138.126 27.627 137.979 26.7773 137.687 25.9766C137.394 25.166 136.979 24.458 136.441 23.8525C135.914 23.2373 135.279 22.7539 134.537 22.4023C133.795 22.041 132.979 21.8604 132.091 21.8604C131.729 21.8604 131.407 21.8848 131.124 21.9336C130.841 21.9824 130.621 22.0459 130.465 22.124C130.318 22.2021 130.177 22.3486 130.04 22.5635C129.913 22.7783 129.791 23.0371 129.674 23.3398C129.557 23.6426 129.449 23.9795 129.352 24.3506C129.254 24.7217 129.166 25.1025 129.088 25.4932C129.068 26.3525 129.054 27.1045 129.044 27.749C129.034 28.3936 129.029 28.8428 129.029 29.0967ZM150.855 7.63672C150.855 7.91992 150.86 8.19336 150.87 8.45703C150.88 8.71094 150.885 8.95996 150.885 9.2041C150.885 9.78027 150.836 10.2734 150.738 10.6836C150.641 11.0938 150.411 11.4209 150.05 11.665C149.835 11.8213 149.566 12.002 149.244 12.207C148.707 12.5586 147.843 13.0957 146.651 13.8184C146.769 13.5059 146.852 13.1299 146.9 12.6904C146.959 12.2412 146.998 11.8164 147.018 11.416C147.037 10.9473 147.037 10.459 147.018 9.95117C147.633 9.62891 148.175 9.33105 148.644 9.05762C149.112 8.77441 149.513 8.52539 149.845 8.31055C150.235 8.06641 150.572 7.8418 150.855 7.63672ZM156.012 32.5977C154.898 33.3301 153.951 33.9062 153.17 34.3262C152.398 34.7461 151.734 35.0586 151.178 35.2637C150.621 35.4688 150.152 35.5859 149.771 35.6152C149.391 35.6445 149.044 35.6299 148.731 35.5713C148.448 35.5225 148.17 35.4492 147.896 35.3516C147.623 35.2539 147.374 35.0781 147.149 34.8242C146.935 34.5605 146.759 34.1846 146.622 33.6963C146.485 33.208 146.417 32.5439 146.417 31.7041C146.417 31.001 146.437 30.3076 146.476 29.624C146.515 28.9307 146.554 28.2471 146.593 27.5732C146.642 26.8896 146.676 26.2158 146.695 25.5518C146.725 24.8779 146.729 24.209 146.71 23.5449C146.69 22.9004 146.573 22.4316 146.358 22.1387C146.144 21.8359 145.821 21.6846 145.392 21.6846C145.226 21.6846 145.045 21.7041 144.85 21.7432C144.654 21.7822 144.444 21.8408 144.22 21.9189C144.571 21.6748 144.933 21.4307 145.304 21.1865C145.675 20.9326 146.051 20.708 146.432 20.5127C146.812 20.3174 147.193 20.1611 147.574 20.0439C147.965 19.917 148.351 19.8535 148.731 19.8535C149.142 19.8535 149.498 19.9463 149.801 20.1318C150.113 20.3174 150.313 20.625 150.401 21.0547C150.431 21.2207 150.45 21.4648 150.46 21.7871C150.479 22.1094 150.489 22.4854 150.489 22.915C150.489 23.5498 150.475 24.2529 150.445 25.0244C150.426 25.7959 150.401 26.5576 150.372 27.3096C150.343 28.0518 150.313 28.7402 150.284 29.375C150.255 30 150.235 30.4834 150.226 30.8252C150.216 31.1475 150.274 31.4697 150.401 31.792C150.528 32.1143 150.714 32.4072 150.958 32.6709C151.212 32.9248 151.52 33.1348 151.881 33.3008C152.252 33.457 152.672 33.5352 153.141 33.5352C153.551 33.5352 153.995 33.4619 154.474 33.3154C154.952 33.1689 155.465 32.9297 156.012 32.5977ZM166.852 32.3047C165.875 32.9785 165.055 33.5352 164.391 33.9746C163.727 34.4043 163.146 34.7461 162.647 35C162.159 35.2637 161.715 35.4443 161.314 35.542C160.924 35.6396 160.509 35.6885 160.069 35.6885C159.688 35.6885 159.317 35.5957 158.956 35.4102C158.604 35.2344 158.287 34.9072 158.004 34.4287C157.73 33.9404 157.511 33.2764 157.345 32.4365C157.179 31.5869 157.096 30.4932 157.096 29.1553C157.096 27.8369 157.11 26.4551 157.14 25.0098C157.169 23.5645 157.198 22.1143 157.228 20.6592C157.267 19.2041 157.301 17.7783 157.33 16.3818C157.359 14.9854 157.374 13.6816 157.374 12.4707C157.374 11.2793 157.193 10.3516 156.832 9.6875C156.471 9.02344 155.919 8.69141 155.177 8.69141C154.952 8.69141 154.703 8.72559 154.43 8.79395C154.156 8.85254 153.868 8.95996 153.565 9.11621C153.946 8.84277 154.347 8.56445 154.767 8.28125C155.187 7.98828 155.611 7.72461 156.041 7.49023C156.48 7.25586 156.92 7.06543 157.359 6.91895C157.809 6.7627 158.253 6.68457 158.692 6.68457C159.249 6.68457 159.684 6.82617 159.996 7.10938C160.318 7.38281 160.553 7.72461 160.699 8.13477C160.855 8.54492 160.948 8.99414 160.978 9.48242C161.017 9.96094 161.036 10.4053 161.036 10.8154C161.026 11.4404 161.012 12.1924 160.992 13.0713C160.982 13.9502 160.968 14.8975 160.948 15.9131C160.929 16.9189 160.909 17.9639 160.89 19.0479C160.87 20.1318 160.851 21.1963 160.831 22.2412C160.812 23.2764 160.792 24.2627 160.772 25.2002C160.763 26.1377 160.748 26.9629 160.729 27.6758C160.709 28.6328 160.777 29.4629 160.934 30.166C161.09 30.8594 161.314 31.4307 161.607 31.8799C161.9 32.3291 162.252 32.6611 162.662 32.876C163.072 33.0908 163.526 33.1982 164.024 33.1982C164.923 33.1982 165.865 32.9004 166.852 32.3047ZM185.646 21.0254C184.522 21.5723 183.478 22.0605 182.511 22.4902C181.554 22.9102 180.709 23.2666 179.977 23.5596C179.127 23.9014 178.346 24.2041 177.633 24.4678C177.193 24.6533 176.705 24.8438 176.168 25.0391C175.641 25.2246 175.089 25.4102 174.513 25.5957C173.937 25.7715 173.346 25.9521 172.74 26.1377C172.145 26.3135 171.554 26.4893 170.968 26.665V26.958C170.968 27.9639 171.124 28.8672 171.437 29.668C171.759 30.4688 172.203 31.1523 172.77 31.7188C173.336 32.2754 174.015 32.7051 174.806 33.0078C175.597 33.3008 176.471 33.4473 177.428 33.4473C177.926 33.4473 178.419 33.4082 178.907 33.3301C179.405 33.252 179.874 33.1494 180.313 33.0225C180.763 32.8857 181.183 32.7246 181.573 32.5391C181.964 32.3535 182.311 32.1533 182.613 31.9385C181.871 32.6025 181.104 33.1592 180.313 33.6084C179.532 34.0576 178.746 34.4238 177.955 34.707C177.174 34.9805 176.397 35.1807 175.626 35.3076C174.864 35.4346 174.132 35.5029 173.429 35.5127C172.716 35.5322 172.013 35.4199 171.319 35.1758C170.636 34.9414 170.011 34.5801 169.444 34.0918C168.878 33.6035 168.399 32.998 168.009 32.2754C167.618 31.543 167.364 30.6934 167.247 29.7266C167.198 29.3848 167.174 29.0576 167.174 28.7451C167.184 28.4229 167.218 28.1055 167.276 27.793C166.935 27.9199 166.622 28.0371 166.339 28.1445C166.065 28.252 165.841 28.3594 165.665 28.4668C165.948 28.2715 166.231 28.0908 166.515 27.9248C166.798 27.749 167.076 27.5879 167.35 27.4414C167.516 26.6797 167.799 25.9521 168.199 25.2588C168.609 24.5654 169.098 23.9209 169.664 23.3252C170.24 22.7295 170.88 22.1924 171.583 21.7139C172.286 21.2256 173.014 20.8105 173.766 20.4688C174.527 20.127 175.299 19.8633 176.08 19.6777C176.861 19.4922 177.618 19.3994 178.351 19.3994C178.839 19.3994 179.249 19.4727 179.581 19.6191C179.923 19.7656 180.152 20.0244 180.27 20.3955C180.328 20.7861 180.187 21.2061 179.845 21.6553C179.698 21.8506 179.498 22.0605 179.244 22.2852C179 22.5 178.678 22.7295 178.277 22.9736C177.887 23.2178 177.413 23.4717 176.856 23.7354C176.31 23.999 175.66 24.2627 174.908 24.5264L185.646 21.0254ZM174.029 24.585C174.449 24.3994 174.825 24.1992 175.157 23.9844C175.499 23.7695 175.763 23.5449 175.948 23.3105C176.144 23.0762 176.246 22.832 176.256 22.5781C176.266 22.3242 176.163 22.0557 175.948 21.7725C175.802 21.5576 175.597 21.4111 175.333 21.333C175.079 21.2451 174.815 21.2012 174.542 21.2012C174.288 21.2012 174.044 21.2305 173.81 21.2891C173.575 21.3379 173.37 21.4062 173.194 21.4941C173.077 21.5625 172.916 21.7139 172.711 21.9482C172.506 22.1729 172.296 22.4707 172.081 22.8418C171.866 23.2031 171.661 23.6279 171.466 24.1162C171.28 24.5947 171.144 25.1221 171.056 25.6982C171.671 25.4736 172.228 25.2734 172.726 25.0977C173.224 24.9219 173.658 24.751 174.029 24.585Z" fill="white"/>
<path d="M87.0317 49.6143C87.0024 50.1904 86.9634 50.8984 86.9146 51.7383C86.8657 52.4609 86.8071 53.3691 86.7388 54.4629C86.6802 55.5469 86.5972 56.8311 86.4897 58.3154L82.7397 60.8057C82.8472 60.1611 82.9351 59.4775 83.0034 58.7549C83.0815 58.0225 83.145 57.2852 83.1938 56.543C83.2427 55.8008 83.2769 55.0684 83.2964 54.3457C83.3257 53.6133 83.3403 52.9297 83.3403 52.2949C83.3403 51.6895 83.311 51.0889 83.2524 50.4932C83.2036 49.8975 83.0718 49.3652 82.8569 48.8965C82.6519 48.4277 82.3394 48.0469 81.9194 47.7539C81.5093 47.4609 80.9429 47.3145 80.2202 47.3145C79.5757 47.3145 79.0239 47.4951 78.5649 47.8564C78.1157 48.2178 77.73 48.8281 77.4077 49.6875C77.0854 50.5469 76.8169 51.6846 76.6021 53.1006C76.397 54.5068 76.2212 56.2646 76.0747 58.374L72.5737 60.8936C72.6616 59.0088 72.73 57.4023 72.7788 56.0742C72.8276 54.7461 72.8618 53.6523 72.8813 52.793C72.9106 51.7871 72.9253 50.957 72.9253 50.3027C72.9741 49.1211 72.813 48.1982 72.4419 47.5342C72.0708 46.8604 71.5044 46.5234 70.7427 46.5234C70.4985 46.5234 70.2397 46.5625 69.9663 46.6406C69.7026 46.709 69.4194 46.8115 69.1167 46.9482C69.4976 46.6748 69.8979 46.3965 70.3179 46.1133C70.7378 45.8203 71.1675 45.5566 71.6069 45.3223C72.0464 45.0879 72.4858 44.8975 72.9253 44.751C73.3745 44.5947 73.814 44.5166 74.2437 44.5166C74.6538 44.5166 75.0249 44.5996 75.3569 44.7656C75.6987 44.9316 75.9575 45.21 76.1333 45.6006C76.2896 45.9424 76.4019 46.3379 76.4702 46.7871C76.5483 47.2266 76.5972 47.71 76.6167 48.2373C77.0366 47.7393 77.5103 47.2607 78.0376 46.8018C78.5747 46.333 79.1265 45.9277 79.6929 45.5859C80.269 45.2344 80.8452 44.9658 81.4214 44.7803C81.9976 44.585 82.5347 44.5166 83.0327 44.5752C83.3843 44.624 83.7505 44.7119 84.1313 44.8389C84.522 44.9658 84.8882 45.1514 85.23 45.3955C85.5815 45.6396 85.8989 45.9521 86.1821 46.333C86.4653 46.7041 86.6802 47.168 86.8267 47.7246C87.2466 47.2754 87.7104 46.8506 88.2183 46.4502C88.7261 46.04 89.2437 45.6885 89.771 45.3955C90.2983 45.1025 90.8208 44.8828 91.3384 44.7363C91.856 44.5801 92.3394 44.5264 92.7886 44.5752C93.228 44.6338 93.6821 44.7559 94.1509 44.9414C94.6294 45.1172 95.064 45.4004 95.4546 45.791C95.8452 46.1719 96.1626 46.6748 96.4067 47.2998C96.6606 47.915 96.7729 48.6865 96.7437 49.6143C96.7144 50.7178 96.6606 51.7334 96.5825 52.6611C96.5142 53.5889 96.48 54.4043 96.48 55.1074C96.48 55.5273 96.5142 55.9229 96.5825 56.2939C96.6606 56.665 96.7876 56.9873 96.9634 57.2607C97.1392 57.5342 97.3735 57.749 97.6665 57.9053C97.9595 58.0615 98.3257 58.1396 98.7651 58.1396C99.1558 58.1396 99.5659 58.0664 99.9956 57.9199C100.435 57.7637 100.875 57.5293 101.314 57.2168C100.591 57.8516 99.9321 58.3838 99.3364 58.8135C98.7505 59.2432 98.2036 59.5898 97.6958 59.8535C97.188 60.1172 96.7144 60.3027 96.2749 60.4102C95.8452 60.5273 95.4253 60.5811 95.0151 60.5713C94.605 60.5615 94.2534 60.4785 93.9604 60.3223C93.6675 60.1758 93.4331 59.9463 93.2573 59.6338C93.0815 59.3115 92.9595 58.9014 92.8911 58.4033C92.8228 57.8955 92.7983 57.2754 92.8179 56.543C92.8472 55.8984 92.8813 55.1904 92.9204 54.4189C92.9692 53.6377 92.9937 52.8662 92.9937 52.1045C92.9937 51.4795 92.9644 50.8789 92.9058 50.3027C92.8569 49.7168 92.73 49.2041 92.5249 48.7646C92.3198 48.3252 92.0171 47.9736 91.6167 47.71C91.2163 47.4463 90.6694 47.3145 89.9761 47.3145C89.5952 47.3145 89.2534 47.3682 88.9507 47.4756C88.6479 47.583 88.3745 47.7393 88.1304 47.9443C87.896 48.1396 87.686 48.374 87.5005 48.6475C87.3247 48.9111 87.1685 49.2041 87.0317 49.5264V49.6143ZM122.334 57.7441C121.924 58.1543 121.48 58.5303 121.001 58.8721C120.533 59.2041 120.059 59.4922 119.581 59.7363C119.102 59.9805 118.638 60.1758 118.189 60.3223C117.74 60.4688 117.33 60.5518 116.958 60.5713C116.753 60.5908 116.49 60.5859 116.167 60.5566C115.845 60.5371 115.533 60.4541 115.23 60.3076C114.937 60.1611 114.683 59.9316 114.468 59.6191C114.253 59.3066 114.146 58.8623 114.146 58.2861V56.543C113.609 57.0703 113.042 57.5781 112.447 58.0664C111.851 58.5449 111.236 58.9746 110.601 59.3555C109.976 59.7266 109.341 60.0195 108.697 60.2344C108.052 60.459 107.417 60.5713 106.792 60.5713C105.992 60.5713 105.289 60.3906 104.683 60.0293C104.078 59.6777 103.57 59.2188 103.16 58.6523C102.75 58.0859 102.442 57.4512 102.237 56.748C102.032 56.0449 101.929 55.3467 101.929 54.6533C101.929 54.1357 101.968 53.6279 102.046 53.1299C102.125 52.6221 102.222 52.1436 102.339 51.6943C102.466 51.2451 102.608 50.8398 102.764 50.4785C102.93 50.1172 103.101 49.8193 103.277 49.585C103.599 49.1455 104.009 48.7207 104.507 48.3105C105.005 47.9004 105.547 47.5146 106.133 47.1533C106.729 46.792 107.359 46.4648 108.023 46.1719C108.687 45.8789 109.346 45.625 110 45.4102C110.665 45.1953 111.309 45.0293 111.934 44.9121C112.559 44.7949 113.135 44.7363 113.663 44.7363C114.209 44.7363 114.854 44.7656 115.596 44.8242C116.338 44.873 117.183 44.9805 118.13 45.1465C118.091 46.2695 118.057 47.2607 118.028 48.1201C117.999 48.9795 117.974 49.751 117.955 50.4346C117.935 51.1084 117.92 51.7236 117.911 52.2803C117.901 52.8369 117.896 53.3789 117.896 53.9062C117.896 54.4434 117.886 54.9707 117.867 55.4883C117.847 56.0059 117.886 56.4697 117.984 56.8799C118.082 57.29 118.272 57.6221 118.555 57.876C118.848 58.1299 119.297 58.2568 119.903 58.2568C120.264 58.2568 120.65 58.2129 121.06 58.125C121.47 58.0273 121.895 57.9004 122.334 57.7441ZM114.175 47.2559C113.589 47.0996 112.964 46.9922 112.3 46.9336C111.636 46.8652 111.001 46.8311 110.396 46.8311C110.064 46.8311 109.747 46.8408 109.444 46.8604C109.151 46.8799 108.882 46.9043 108.638 46.9336C108.394 46.9629 108.179 47.002 107.994 47.0508C107.808 47.0898 107.667 47.1387 107.569 47.1973C107.393 47.2852 107.188 47.5 106.954 47.8418C106.719 48.1738 106.495 48.5889 106.28 49.0869C106.065 49.585 105.879 50.1465 105.723 50.7715C105.577 51.3965 105.503 52.041 105.503 52.7051C105.503 53.3398 105.596 53.9795 105.782 54.624C105.967 55.2588 106.236 55.8301 106.587 56.3379C106.949 56.8457 107.388 57.2607 107.906 57.583C108.433 57.8955 109.034 58.0518 109.708 58.0518C110.342 58.0518 110.904 57.9492 111.392 57.7441C111.88 57.5391 112.305 57.2607 112.667 56.9092C113.028 56.5479 113.326 56.1279 113.56 55.6494C113.804 55.1709 114 54.6533 114.146 54.0967C114.146 53.6865 114.146 53.252 114.146 52.793C114.146 52.3242 114.146 51.8115 114.146 51.2549C114.146 50.6982 114.146 50.0928 114.146 49.4385C114.156 48.7744 114.166 48.0469 114.175 47.2559ZM136.587 54.0967C136.587 54.7705 136.407 55.4004 136.045 55.9863C135.694 56.5625 135.23 57.0947 134.654 57.583C134.078 58.0713 133.423 58.501 132.691 58.8721C131.968 59.2432 131.231 59.5557 130.479 59.8096C129.727 60.0635 129 60.249 128.296 60.3662C127.593 60.4834 126.978 60.5225 126.451 60.4834C125.992 60.4639 125.508 60.3906 125 60.2637C124.502 60.1465 124.058 60 123.667 59.8242C123.287 59.6484 122.999 59.458 122.803 59.2529C122.618 59.0479 122.613 58.8477 122.789 58.6523C122.964 58.4668 123.155 58.2812 123.36 58.0957C123.565 57.9102 123.809 57.7197 124.092 57.5244C124.375 57.3193 124.712 57.1045 125.103 56.8799C125.494 56.6553 125.962 56.4062 126.509 56.1328C126.333 56.4062 126.29 56.6455 126.377 56.8506C126.465 57.0557 126.626 57.2412 126.861 57.4072C127.105 57.5635 127.398 57.6953 127.74 57.8027C128.091 57.9102 128.433 57.998 128.765 58.0664C129.107 58.1348 129.415 58.1836 129.688 58.2129C129.971 58.2422 130.171 58.2568 130.289 58.2568C130.64 58.2568 130.987 58.2422 131.329 58.2129C131.68 58.1738 131.993 58.0957 132.266 57.9785C132.54 57.8613 132.759 57.6904 132.925 57.4658C133.101 57.2314 133.189 56.9141 133.189 56.5137C133.189 56.0254 133.052 55.6104 132.779 55.2686C132.515 54.9268 132.164 54.6436 131.724 54.4189C131.294 54.1846 130.811 53.999 130.274 53.8623C129.737 53.7256 129.2 53.6133 128.663 53.5254C128.135 53.4277 127.632 53.3496 127.154 53.291C126.685 53.2227 126.299 53.1494 125.997 53.0713C125.508 52.9443 125.098 52.7783 124.766 52.5732C124.444 52.3584 124.18 52.124 123.975 51.8701C123.78 51.6064 123.638 51.3281 123.55 51.0352C123.462 50.7422 123.418 50.4492 123.418 50.1562C123.418 49.502 123.594 48.8965 123.946 48.3398C124.297 47.7832 124.756 47.2803 125.323 46.8311C125.889 46.3818 126.529 45.9863 127.242 45.6445C127.964 45.3027 128.692 45.0146 129.424 44.7803C130.167 44.5459 130.884 44.3701 131.578 44.2529C132.271 44.1357 132.872 44.0771 133.379 44.0771C133.965 44.0771 134.483 44.1113 134.932 44.1797C135.391 44.2383 135.762 44.3115 136.045 44.3994C136.319 44.4873 136.49 44.5996 136.558 44.7363C136.636 44.873 136.636 45.0293 136.558 45.2051C136.49 45.3809 136.353 45.5713 136.148 45.7764C135.943 45.9814 135.699 46.1914 135.416 46.4062C135.191 46.582 134.952 46.748 134.698 46.9043C134.473 47.041 134.224 47.1826 133.951 47.3291C133.677 47.4658 133.394 47.5879 133.101 47.6953C133.248 47.5098 133.306 47.3438 133.277 47.1973C133.257 47.0508 133.169 46.9189 133.013 46.8018C132.857 46.6846 132.647 46.5869 132.383 46.5088C132.12 46.4209 131.827 46.3525 131.504 46.3037C131.182 46.2451 130.84 46.2061 130.479 46.1865C130.127 46.1572 129.781 46.1426 129.439 46.1426C129.107 46.1426 128.775 46.1572 128.443 46.1865C128.111 46.2061 127.813 46.2695 127.549 46.377C127.286 46.4746 127.071 46.6309 126.905 46.8457C126.739 47.0605 126.656 47.3535 126.656 47.7246C126.656 48.0273 126.724 48.3447 126.861 48.6768C126.998 48.999 127.198 49.3066 127.461 49.5996C127.735 49.8828 128.072 50.1367 128.472 50.3613C128.873 50.5859 129.336 50.7471 129.864 50.8447C130.274 50.9229 130.728 50.9814 131.226 51.0205C131.724 51.0596 132.222 51.1084 132.72 51.167C133.218 51.2256 133.697 51.3086 134.156 51.416C134.625 51.5234 135.04 51.6846 135.401 51.8994C135.762 52.1143 136.05 52.3975 136.265 52.749C136.48 53.1006 136.587 53.5498 136.587 54.0967ZM152.789 54.0967C152.789 54.7705 152.608 55.4004 152.247 55.9863C151.895 56.5625 151.431 57.0947 150.855 57.583C150.279 58.0713 149.625 58.501 148.892 58.8721C148.169 59.2432 147.432 59.5557 146.68 59.8096C145.928 60.0635 145.201 60.249 144.498 60.3662C143.794 60.4834 143.179 60.5225 142.652 60.4834C142.193 60.4639 141.709 60.3906 141.202 60.2637C140.704 60.1465 140.259 60 139.869 59.8242C139.488 59.6484 139.2 59.458 139.004 59.2529C138.819 59.0479 138.814 58.8477 138.99 58.6523C139.166 58.4668 139.356 58.2812 139.561 58.0957C139.766 57.9102 140.01 57.7197 140.293 57.5244C140.577 57.3193 140.914 57.1045 141.304 56.8799C141.695 56.6553 142.164 56.4062 142.71 56.1328C142.535 56.4062 142.491 56.6455 142.579 56.8506C142.667 57.0557 142.828 57.2412 143.062 57.4072C143.306 57.5635 143.599 57.6953 143.941 57.8027C144.292 57.9102 144.634 57.998 144.966 58.0664C145.308 58.1348 145.616 58.1836 145.889 58.2129C146.172 58.2422 146.373 58.2568 146.49 58.2568C146.841 58.2568 147.188 58.2422 147.53 58.2129C147.881 58.1738 148.194 58.0957 148.467 57.9785C148.741 57.8613 148.96 57.6904 149.126 57.4658C149.302 57.2314 149.39 56.9141 149.39 56.5137C149.39 56.0254 149.253 55.6104 148.98 55.2686C148.716 54.9268 148.365 54.6436 147.925 54.4189C147.496 54.1846 147.012 53.999 146.475 53.8623C145.938 53.7256 145.401 53.6133 144.864 53.5254C144.336 53.4277 143.833 53.3496 143.355 53.291C142.886 53.2227 142.5 53.1494 142.198 53.0713C141.709 52.9443 141.299 52.7783 140.967 52.5732C140.645 52.3584 140.381 52.124 140.176 51.8701C139.981 51.6064 139.839 51.3281 139.751 51.0352C139.664 50.7422 139.62 50.4492 139.62 50.1562C139.62 49.502 139.795 48.8965 140.147 48.3398C140.499 47.7832 140.958 47.2803 141.524 46.8311C142.09 46.3818 142.73 45.9863 143.443 45.6445C144.166 45.3027 144.893 45.0146 145.625 44.7803C146.368 44.5459 147.085 44.3701 147.779 44.2529C148.472 44.1357 149.073 44.0771 149.581 44.0771C150.167 44.0771 150.684 44.1113 151.133 44.1797C151.592 44.2383 151.963 44.3115 152.247 44.3994C152.52 44.4873 152.691 44.5996 152.759 44.7363C152.837 44.873 152.837 45.0293 152.759 45.2051C152.691 45.3809 152.554 45.5713 152.349 45.7764C152.144 45.9814 151.9 46.1914 151.617 46.4062C151.392 46.582 151.153 46.748 150.899 46.9043C150.674 47.041 150.425 47.1826 150.152 47.3291C149.878 47.4658 149.595 47.5879 149.302 47.6953C149.449 47.5098 149.507 47.3438 149.478 47.1973C149.458 47.0508 149.371 46.9189 149.214 46.8018C149.058 46.6846 148.848 46.5869 148.584 46.5088C148.321 46.4209 148.028 46.3525 147.706 46.3037C147.383 46.2451 147.042 46.2061 146.68 46.1865C146.329 46.1572 145.982 46.1426 145.64 46.1426C145.308 46.1426 144.976 46.1572 144.644 46.1865C144.312 46.2061 144.014 46.2695 143.75 46.377C143.487 46.4746 143.272 46.6309 143.106 46.8457C142.94 47.0605 142.857 47.3535 142.857 47.7246C142.857 48.0273 142.925 48.3447 143.062 48.6768C143.199 48.999 143.399 49.3066 143.663 49.5996C143.936 49.8828 144.273 50.1367 144.673 50.3613C145.074 50.5859 145.538 50.7471 146.065 50.8447C146.475 50.9229 146.929 50.9814 147.427 51.0205C147.925 51.0596 148.423 51.1084 148.921 51.167C149.419 51.2256 149.898 51.3086 150.357 51.416C150.826 51.5234 151.241 51.6846 151.602 51.8994C151.963 52.1143 152.251 52.3975 152.466 52.749C152.681 53.1006 152.789 53.5498 152.789 54.0967ZM176.006 57.7441C175.596 58.1543 175.152 58.5303 174.673 58.8721C174.205 59.2041 173.731 59.4922 173.252 59.7363C172.774 59.9805 172.31 60.1758 171.861 60.3223C171.412 60.4688 171.001 60.5518 170.63 60.5713C170.425 60.5908 170.162 60.5859 169.839 60.5566C169.517 60.5371 169.205 60.4541 168.902 60.3076C168.609 60.1611 168.355 59.9316 168.14 59.6191C167.925 59.3066 167.818 58.8623 167.818 58.2861V56.543C167.281 57.0703 166.714 57.5781 166.119 58.0664C165.523 58.5449 164.908 58.9746 164.273 59.3555C163.648 59.7266 163.013 60.0195 162.369 60.2344C161.724 60.459 161.089 60.5713 160.464 60.5713C159.664 60.5713 158.96 60.3906 158.355 60.0293C157.75 59.6777 157.242 59.2188 156.832 58.6523C156.421 58.0859 156.114 57.4512 155.909 56.748C155.704 56.0449 155.601 55.3467 155.601 54.6533C155.601 54.1357 155.64 53.6279 155.718 53.1299C155.796 52.6221 155.894 52.1436 156.011 51.6943C156.138 51.2451 156.28 50.8398 156.436 50.4785C156.602 50.1172 156.773 49.8193 156.949 49.585C157.271 49.1455 157.681 48.7207 158.179 48.3105C158.677 47.9004 159.219 47.5146 159.805 47.1533C160.401 46.792 161.031 46.4648 161.695 46.1719C162.359 45.8789 163.018 45.625 163.672 45.4102C164.336 45.1953 164.981 45.0293 165.606 44.9121C166.231 44.7949 166.807 44.7363 167.334 44.7363C167.881 44.7363 168.526 44.7656 169.268 44.8242C170.01 44.873 170.855 44.9805 171.802 45.1465C171.763 46.2695 171.729 47.2607 171.7 48.1201C171.67 48.9795 171.646 49.751 171.626 50.4346C171.607 51.1084 171.592 51.7236 171.583 52.2803C171.573 52.8369 171.568 53.3789 171.568 53.9062C171.568 54.4434 171.558 54.9707 171.539 55.4883C171.519 56.0059 171.558 56.4697 171.656 56.8799C171.753 57.29 171.944 57.6221 172.227 57.876C172.52 58.1299 172.969 58.2568 173.575 58.2568C173.936 58.2568 174.322 58.2129 174.732 58.125C175.142 58.0273 175.567 57.9004 176.006 57.7441ZM167.847 47.2559C167.261 47.0996 166.636 46.9922 165.972 46.9336C165.308 46.8652 164.673 46.8311 164.068 46.8311C163.736 46.8311 163.418 46.8408 163.116 46.8604C162.823 46.8799 162.554 46.9043 162.31 46.9336C162.066 46.9629 161.851 47.002 161.666 47.0508C161.48 47.0898 161.338 47.1387 161.241 47.1973C161.065 47.2852 160.86 47.5 160.625 47.8418C160.391 48.1738 160.167 48.5889 159.952 49.0869C159.737 49.585 159.551 50.1465 159.395 50.7715C159.249 51.3965 159.175 52.041 159.175 52.7051C159.175 53.3398 159.268 53.9795 159.454 54.624C159.639 55.2588 159.908 55.8301 160.259 56.3379C160.621 56.8457 161.06 57.2607 161.578 57.583C162.105 57.8955 162.706 58.0518 163.379 58.0518C164.014 58.0518 164.576 57.9492 165.064 57.7441C165.552 57.5391 165.977 57.2607 166.338 56.9092C166.7 56.5479 166.998 56.1279 167.232 55.6494C167.476 55.1709 167.671 54.6533 167.818 54.0967C167.818 53.6865 167.818 53.252 167.818 52.793C167.818 52.3242 167.818 51.8115 167.818 51.2549C167.818 50.6982 167.818 50.0928 167.818 49.4385C167.828 48.7744 167.837 48.0469 167.847 47.2559ZM193.013 45.2637C192.984 46.5137 192.959 47.6367 192.94 48.6328C192.92 49.6191 192.901 50.5029 192.881 51.2842C192.872 52.0654 192.862 52.749 192.852 53.335C192.842 53.9111 192.837 54.4092 192.837 54.8291C192.828 55.8057 192.828 56.499 192.837 56.9092C192.818 57.9932 192.803 58.9453 192.793 59.7656C192.784 60.5859 192.73 61.3184 192.632 61.9629C192.544 62.6074 192.388 63.1738 192.164 63.6621C191.949 64.1602 191.622 64.6191 191.182 65.0391C190.42 65.7715 189.625 66.499 188.794 67.2217C187.974 67.9541 187.12 68.6084 186.231 69.1846C185.352 69.7705 184.434 70.2393 183.477 70.5908C182.52 70.9521 181.529 71.1328 180.503 71.1328C179.888 71.1328 179.239 71.04 178.555 70.8545C177.872 70.6787 177.237 70.415 176.651 70.0635C176.075 69.7119 175.601 69.2725 175.23 68.7451C174.849 68.2178 174.659 67.6025 174.659 66.8994C174.659 66.3428 174.825 65.8008 175.157 65.2734C175.479 64.7559 175.962 64.2773 176.607 63.8379C176.978 63.5742 177.398 63.2764 177.867 62.9443C178.277 62.6611 178.765 62.3242 179.332 61.9336C179.908 61.543 180.557 61.1084 181.28 60.6299C180.538 60.5713 179.888 60.3564 179.332 59.9854C178.775 59.6143 178.306 59.1504 177.925 58.5938C177.554 58.0371 177.276 57.4268 177.09 56.7627C176.905 56.0889 176.812 55.4199 176.812 54.7559C176.812 54.2383 176.851 53.7256 176.929 53.2178C177.007 52.71 177.105 52.2363 177.222 51.7969C177.349 51.3477 177.491 50.9424 177.647 50.5811C177.813 50.21 177.984 49.9072 178.16 49.6729C178.501 49.2041 178.921 48.7598 179.419 48.3398C179.927 47.9102 180.479 47.5195 181.075 47.168C181.67 46.8066 182.295 46.4844 182.95 46.2012C183.604 45.918 184.253 45.6787 184.898 45.4834C185.542 45.2783 186.167 45.1221 186.773 45.0146C187.378 44.9072 187.93 44.8535 188.428 44.8535C188.975 44.8535 189.629 44.8828 190.391 44.9414C191.163 44.9902 192.037 45.0977 193.013 45.2637ZM189.058 47.3145C188.472 47.1777 187.847 47.0801 187.183 47.0215C186.519 46.9531 185.884 46.9189 185.279 46.9189C184.458 46.9189 183.741 47.002 183.125 47.168C182.52 47.334 182.012 47.6367 181.602 48.0762C181.202 48.5156 180.899 49.1162 180.694 49.8779C180.489 50.6396 180.386 51.6113 180.386 52.793C180.386 53.4375 180.479 54.0771 180.665 54.7119C180.85 55.3467 181.119 55.918 181.47 56.4258C181.832 56.9336 182.271 57.3486 182.789 57.6709C183.316 57.9834 183.917 58.1396 184.59 58.1396C185.245 58.1396 185.816 58.0371 186.304 57.832C186.802 57.627 187.227 57.3486 187.579 56.9971C187.93 56.6455 188.218 56.2354 188.443 55.7666C188.677 55.2979 188.863 54.7998 189 54.2725C189 53.4424 189.004 52.4658 189.014 51.3428C189.024 50.21 189.039 48.8672 189.058 47.3145ZM178.76 63.4131C178.243 63.9209 177.984 64.4531 177.984 65.0098C177.984 65.4395 178.096 65.8203 178.321 66.1523C178.555 66.4844 178.853 66.7773 179.214 67.0312C179.585 67.2852 180 67.4951 180.459 67.6611C180.918 67.8369 181.377 67.9785 181.836 68.0859C182.305 68.1934 182.75 68.2715 183.169 68.3203C183.589 68.3691 183.941 68.3936 184.224 68.3936C184.869 68.3936 185.464 68.335 186.011 68.2178C186.558 68.1006 186.983 67.9297 187.286 67.7051C187.618 67.4512 187.891 66.9824 188.106 66.2988C188.321 65.625 188.492 64.7949 188.619 63.8086C188.746 62.832 188.833 61.7334 188.882 60.5127C188.941 59.292 188.98 58.0127 189 56.6748C188.501 57.1631 187.979 57.6318 187.432 58.0811C186.895 58.5303 186.338 58.9355 185.762 59.2969C185.186 59.6484 184.6 59.9414 184.004 60.1758C183.409 60.4102 182.813 60.5615 182.217 60.6299C181.631 61.0693 181.119 61.4551 180.679 61.7871C180.25 62.1289 179.893 62.4219 179.61 62.666C179.278 62.9492 178.995 63.1982 178.76 63.4131ZM216.084 46.0254C214.961 46.5723 213.917 47.0605 212.95 47.4902C211.993 47.9102 211.148 48.2666 210.416 48.5596C209.566 48.9014 208.785 49.2041 208.072 49.4678C207.632 49.6533 207.144 49.8438 206.607 50.0391C206.08 50.2246 205.528 50.4102 204.952 50.5957C204.375 50.7715 203.785 50.9521 203.179 51.1377C202.583 51.3135 201.993 51.4893 201.407 51.665V51.958C201.407 52.9639 201.563 53.8672 201.875 54.668C202.198 55.4688 202.642 56.1523 203.208 56.7188C203.775 57.2754 204.454 57.7051 205.245 58.0078C206.036 58.3008 206.91 58.4473 207.867 58.4473C208.365 58.4473 208.858 58.4082 209.346 58.3301C209.844 58.252 210.313 58.1494 210.752 58.0225C211.202 57.8857 211.622 57.7246 212.012 57.5391C212.403 57.3535 212.75 57.1533 213.052 56.9385C212.31 57.6025 211.543 58.1592 210.752 58.6084C209.971 59.0576 209.185 59.4238 208.394 59.707C207.613 59.9805 206.836 60.1807 206.065 60.3076C205.303 60.4346 204.571 60.5029 203.868 60.5127C203.155 60.5322 202.452 60.4199 201.758 60.1758C201.075 59.9414 200.45 59.5801 199.883 59.0918C199.317 58.6035 198.838 57.998 198.448 57.2754C198.057 56.543 197.803 55.6934 197.686 54.7266C197.637 54.3848 197.613 54.0576 197.613 53.7451C197.623 53.4229 197.657 53.1055 197.715 52.793C197.374 52.9199 197.061 53.0371 196.778 53.1445C196.504 53.252 196.28 53.3594 196.104 53.4668C196.387 53.2715 196.67 53.0908 196.954 52.9248C197.237 52.749 197.515 52.5879 197.789 52.4414C197.955 51.6797 198.238 50.9521 198.638 50.2588C199.048 49.5654 199.537 48.9209 200.103 48.3252C200.679 47.7295 201.319 47.1924 202.022 46.7139C202.725 46.2256 203.453 45.8105 204.205 45.4688C204.966 45.127 205.738 44.8633 206.519 44.6777C207.3 44.4922 208.057 44.3994 208.79 44.3994C209.278 44.3994 209.688 44.4727 210.02 44.6191C210.362 44.7656 210.591 45.0244 210.708 45.3955C210.767 45.7861 210.625 46.2061 210.284 46.6553C210.137 46.8506 209.937 47.0605 209.683 47.2852C209.439 47.5 209.117 47.7295 208.716 47.9736C208.326 48.2178 207.852 48.4717 207.295 48.7354C206.749 48.999 206.099 49.2627 205.347 49.5264L216.084 46.0254ZM204.468 49.585C204.888 49.3994 205.264 49.1992 205.596 48.9844C205.938 48.7695 206.202 48.5449 206.387 48.3105C206.583 48.0762 206.685 47.832 206.695 47.5781C206.705 47.3242 206.602 47.0557 206.387 46.7725C206.241 46.5576 206.036 46.4111 205.772 46.333C205.518 46.2451 205.254 46.2012 204.981 46.2012C204.727 46.2012 204.483 46.2305 204.249 46.2891C204.014 46.3379 203.809 46.4062 203.633 46.4941C203.516 46.5625 203.355 46.7139 203.15 46.9482C202.945 47.1729 202.735 47.4707 202.52 47.8418C202.305 48.2031 202.1 48.6279 201.905 49.1162C201.719 49.5947 201.583 50.1221 201.495 50.6982C202.11 50.4736 202.667 50.2734 203.165 50.0977C203.663 49.9219 204.097 49.751 204.468 49.585Z" fill="white"/>
</svg>
