<svg width="197" height="107" viewBox="0 0 197 107" fill="none" xmlns="http://www.w3.org/2000/svg">
<mask id="path-1-inside-1_56:51" fill="white">
<path d="M9.46803 15.4915L9.99032 11.0237L8.94553 13.0632L8.15148 16.2941L7.85883 18.4596L7.55045 21.4528L7.49869 24.4649L7.81514 27.9539L8.3692 32.1747L9.60124 36.6835L10.9009 40.8004L12.0771 43.3562L13.6313 46.7334L16.3224 51.2878L18.7705 54.2371L20.6437 56.3679L23.395 58.8985L25.7926 60.7682L27.9802 62.1814L30.4985 63.4514L32.4484 64.1329L35.4281 65.0048L38.3527 65.3259L41.3704 64.772L44.1184 63.7396L45.8543 62.4476L46.9575 61.0737L47.4911 59.755L47.7194 58.0962L47.3151 56.3557L46.2703 58.3952L45.5234 59.1427L44.6991 59.9375L43.2615 60.4135L41.9491 60.2113L40.5689 59.4747L39.1335 58.1874L38.0577 56.3886L37.4532 54.5363L37.3237 52.5452L37.6545 50.3483L38.3577 48.5689L39.5245 47.2391L40.5784 46.3121L42.3637 45.4794L43.9623 45.1915L45.4666 45.4434L46.8934 45.7424L48.1443 46.0902L49.7281 47.0534L47.7453 45.2231L46.2213 44.282L44.5424 43.4353L43.1411 42.6531L41.4235 41.83L39.2137 41.0148L37.2007 40.1964L35.2574 39.7447L33.5109 39.2899L31.093 38.7768L29.363 38.8964L27.4912 39.5699L25.8649 40.5614L25.0524 42.4593L24.9921 44.4831L25.5579 46.359L26.8771 47.7172L28.2961 48.4301L29.3502 48.7811L30.6588 48.3924L31.5186 47.4591L31.8972 46.2348L31.6511 44.5147L32.3232 45.9751L32.2077 47.4481L31.8179 48.9715L30.4016 50.4193L28.875 50.7655L27.1739 50.5169L25.8953 49.8936L24.67 49.0627L23.0212 47.2041L22.0551 45.1047L22.0701 42.8747L22.1659 40.7124L22.2616 38.5501L21.7313 36.5357L20.8911 34.7102L19.9512 33.5298L18.8519 32.9727L17.7014 33.3819L17.0983 34.334L17.3444 36.0541L18.3749 37.6467L17.3031 37.365L16.4926 36.5734L15.7154 34.8848L15.7292 33.2984L15.712 31.3218L15.9371 29.5482L15.5826 27.4851L14.9735 26.1615L13.7947 24.8931L12.4099 24.6853L11.9065 24.9922L11.7038 26.1678L11.9755 27.4048L10.8742 26.0891L10.1811 24.583L9.74914 22.5671L9.4957 19.215L9.46803 15.4915Z"/>
</mask>
<path d="M9.46803 15.4915L9.99032 11.0237L8.94553 13.0632L8.15148 16.2941L7.85883 18.4596L7.55045 21.4528L7.49869 24.4649L7.81514 27.9539L8.3692 32.1747L9.60124 36.6835L10.9009 40.8004L12.0771 43.3562L13.6313 46.7334L16.3224 51.2878L18.7705 54.2371L20.6437 56.3679L23.395 58.8985L25.7926 60.7682L27.9802 62.1814L30.4985 63.4514L32.4484 64.1329L35.4281 65.0048L38.3527 65.3259L41.3704 64.772L44.1184 63.7396L45.8543 62.4476L46.9575 61.0737L47.4911 59.755L47.7194 58.0962L47.3151 56.3557L46.2703 58.3952L45.5234 59.1427L44.6991 59.9375L43.2615 60.4135L41.9491 60.2113L40.5689 59.4747L39.1335 58.1874L38.0577 56.3886L37.4532 54.5363L37.3237 52.5452L37.6545 50.3483L38.3577 48.5689L39.5245 47.2391L40.5784 46.3121L42.3637 45.4794L43.9623 45.1915L45.4666 45.4434L46.8934 45.7424L48.1443 46.0902L49.7281 47.0534L47.7453 45.2231L46.2213 44.282L44.5424 43.4353L43.1411 42.6531L41.4235 41.83L39.2137 41.0148L37.2007 40.1964L35.2574 39.7447L33.5109 39.2899L31.093 38.7768L29.363 38.8964L27.4912 39.5699L25.8649 40.5614L25.0524 42.4593L24.9921 44.4831L25.5579 46.359L26.8771 47.7172L28.2961 48.4301L29.3502 48.7811L30.6588 48.3924L31.5186 47.4591L31.8972 46.2348L31.6511 44.5147L32.3232 45.9751L32.2077 47.4481L31.8179 48.9715L30.4016 50.4193L28.875 50.7655L27.1739 50.5169L25.8953 49.8936L24.67 49.0627L23.0212 47.2041L22.0551 45.1047L22.0701 42.8747L22.1659 40.7124L22.2616 38.5501L21.7313 36.5357L20.8911 34.7102L19.9512 33.5298L18.8519 32.9727L17.7014 33.3819L17.0983 34.334L17.3444 36.0541L18.3749 37.6467L17.3031 37.365L16.4926 36.5734L15.7154 34.8848L15.7292 33.2984L15.712 31.3218L15.9371 29.5482L15.5826 27.4851L14.9735 26.1615L13.7947 24.8931L12.4099 24.6853L11.9065 24.9922L11.7038 26.1678L11.9755 27.4048L10.8742 26.0891L10.1811 24.583L9.74914 22.5671L9.4957 19.215L9.46803 15.4915Z" fill="white" stroke="white" stroke-width="2" mask="url(#path-1-inside-1_56:51)"/>
<path d="M84.3433 65.6863C83.9233 66.0964 83.4937 66.4871 83.0542 66.8582C82.6245 67.2292 82.1948 67.5515 81.7651 67.825C81.3354 68.0984 80.9106 68.3035 80.4907 68.4402C80.0708 68.5867 79.6655 68.6306 79.2749 68.572C78.8745 68.5134 78.5669 68.3474 78.3521 68.074C78.1372 67.8103 77.9761 67.4685 77.8687 67.0486C77.7612 66.6189 77.688 66.1306 77.6489 65.5837C77.6099 65.0369 77.5708 64.4509 77.5317 63.8259C77.4829 63.2986 77.4146 62.4929 77.3267 61.4089C77.2876 60.95 77.2388 60.408 77.1802 59.783C77.1313 59.1482 77.0728 58.4207 77.0044 57.6003C76.9458 56.7703 76.8726 55.8425 76.7847 54.8171C76.6968 53.782 76.604 52.6248 76.5063 51.3455C76.0083 51.9705 75.481 52.6394 74.9243 53.3523C74.3677 54.0554 73.8159 54.7878 73.269 55.5496C72.7319 56.3113 72.2095 57.0925 71.7017 57.8933C71.2036 58.6941 70.7544 59.4998 70.354 60.3103C69.9634 61.1111 69.6362 61.907 69.3726 62.698C69.1089 63.4792 68.9478 64.2361 68.8892 64.9685L65.6226 68.3669C65.6421 68.0251 65.6323 67.6882 65.5933 67.3562C65.5542 67.0144 65.5054 66.7117 65.4468 66.448C65.3784 66.1355 65.2954 65.8425 65.1978 65.5691C64.7485 64.4265 64.2603 63.3035 63.7329 62.2C63.2153 61.0964 62.6782 60.0027 62.1216 58.9187C61.5649 57.8347 60.9985 56.7605 60.4224 55.696C59.856 54.6316 59.2993 53.5623 58.7524 52.488C58.5278 53.4646 58.3276 54.363 58.1519 55.1833C57.9761 55.9939 57.8198 56.7019 57.6831 57.3074C57.5269 58.0105 57.3901 58.6453 57.2729 59.2117C56.4722 62.9128 56.2231 64.9539 56.5259 65.3347C56.604 65.4226 56.731 65.5007 56.9067 65.5691C57.0825 65.6277 57.2974 65.657 57.5513 65.657C57.854 65.657 58.186 65.5984 58.5474 65.4812C58.9185 65.3542 59.314 65.1345 59.7339 64.822C59.1089 65.408 58.5376 65.95 58.02 66.448C57.5024 66.946 57.019 67.366 56.5698 67.7078C56.1206 68.0496 55.7007 68.2937 55.3101 68.4402C54.9292 68.5867 54.5581 68.6013 54.1968 68.4841C53.9233 68.3865 53.728 68.2156 53.6108 67.9714C53.4937 67.7273 53.4351 67.405 53.4351 67.0046C53.4351 66.448 53.5278 65.7546 53.7134 64.9246C53.9087 64.0847 54.1187 63.1179 54.3433 62.0242C54.48 61.4187 54.6362 60.7156 54.812 59.9148C54.9878 59.1042 55.1733 58.2546 55.3687 57.366C55.564 56.4773 55.7593 55.574 55.9546 54.656C56.1499 53.7283 56.3354 52.8494 56.5112 52.0193C56.6968 51.1892 56.8579 50.4324 56.9946 49.7488C57.1411 49.0652 57.2583 48.5085 57.3462 48.0789C57.3853 47.9617 57.5317 47.7664 57.7856 47.4929C57.8931 47.3757 58.0249 47.239 58.1812 47.0828C58.3472 46.9167 58.5425 46.7263 58.7671 46.5115C59.0015 46.2966 59.27 46.0525 59.5728 45.7791C59.8853 45.4958 60.2417 45.1833 60.6421 44.8416C60.564 45.2029 60.5542 45.5886 60.6128 45.9988C60.6714 46.4089 60.7495 46.7898 60.8472 47.1414C60.9546 47.5515 61.0962 47.9568 61.272 48.3572C61.4087 48.6697 61.6333 49.1384 61.9458 49.7634C62.2681 50.3884 62.6343 51.1013 63.0444 51.9021C63.4644 52.6931 63.9136 53.5427 64.3921 54.4509C64.8706 55.3494 65.3296 56.238 65.769 57.1169C66.2183 57.9958 66.6333 58.8308 67.0142 59.6218C67.395 60.4128 67.6978 61.0867 67.9224 61.6433C68.3521 60.8718 68.8257 60.1101 69.3433 59.3582C69.8706 58.6062 70.4077 57.8542 70.9546 57.1023C71.5112 56.3503 72.063 55.5984 72.6099 54.8464C73.1665 54.0847 73.689 53.3132 74.1772 52.532C74.6753 51.7507 75.1294 50.95 75.5396 50.1296C75.9497 49.3093 76.2915 48.4646 76.5649 47.5955C76.8188 47.2927 77.1216 46.9705 77.4731 46.6287C77.7661 46.3357 78.1274 45.9988 78.5571 45.6179C78.9868 45.2371 79.4751 44.8269 80.022 44.3875C79.9146 44.6902 79.8413 45.0369 79.8022 45.4275C79.7632 45.8181 79.7339 46.1892 79.7144 46.5408C79.6948 46.9509 79.6948 47.366 79.7144 47.7859C79.7241 48.0593 79.7485 48.489 79.7876 49.075C79.8364 49.6609 79.8901 50.3445 79.9487 51.1257C80.0073 51.8972 80.0757 52.7419 80.1538 53.6599C80.2417 54.5779 80.3247 55.5056 80.4028 56.4431C80.4907 57.3806 80.5786 58.3035 80.6665 59.2117C80.7544 60.1101 80.8374 60.9353 80.9155 61.6873C80.9937 62.4294 81.0669 63.0691 81.1353 63.6062C81.2036 64.1433 81.2622 64.5193 81.311 64.7341C81.3599 64.9783 81.4429 65.1882 81.5601 65.364C81.6772 65.53 81.814 65.6667 81.9702 65.7742C82.1265 65.8718 82.2925 65.9451 82.4683 65.9939C82.6538 66.033 82.8394 66.0525 83.0249 66.0525C83.2886 66.0525 83.5327 66.0183 83.7573 65.95C83.9917 65.8718 84.187 65.7839 84.3433 65.6863ZM104.28 59.4753C104.28 60.2859 104.167 61.0232 103.943 61.6873C103.718 62.3513 103.45 62.9324 103.137 63.4304C102.825 63.9285 102.507 64.3435 102.185 64.6755C101.863 65.0076 101.604 65.2468 101.409 65.3933C100.842 65.8035 100.261 66.2039 99.6655 66.5945C99.0698 66.9851 98.4546 67.3367 97.8198 67.6492C97.1948 67.9519 96.5503 68.196 95.8862 68.3816C95.2222 68.5671 94.5386 68.6599 93.8354 68.6599C92.7905 68.6599 91.7993 68.5281 90.8618 68.2644C89.9341 68.0007 89.1187 67.6052 88.4155 67.0779C87.7222 66.5505 87.1704 65.8865 86.7603 65.0857C86.3599 64.2849 86.1597 63.3474 86.1597 62.2732C86.1597 61.3259 86.3208 60.4373 86.6431 59.6072C86.9751 58.7673 87.4146 57.9958 87.9614 57.2927C88.5181 56.5896 89.1675 55.9597 89.9097 55.4031C90.6519 54.8367 91.438 54.3582 92.2681 53.9675C93.0981 53.5769 93.9526 53.2791 94.8315 53.074C95.7104 52.8689 96.5601 52.7664 97.3804 52.7664C98.396 52.7664 99.3237 52.9373 100.164 53.2791C101.013 53.6111 101.741 54.0798 102.346 54.6853C102.961 55.281 103.435 55.989 103.767 56.8093C104.109 57.6296 104.28 58.5183 104.28 59.4753ZM94.1724 54.4656C93.6743 54.4656 93.2202 54.5583 92.8101 54.7439C92.3999 54.9197 92.0337 55.1638 91.7114 55.4763C91.3989 55.7791 91.1255 56.1355 90.8911 56.5457C90.6665 56.946 90.4761 57.3708 90.3198 57.8201C90.1733 58.2595 90.061 58.7087 89.9829 59.1677C89.9146 59.6169 89.8804 60.0417 89.8804 60.4421C89.8804 61.3503 90.0464 62.2 90.3784 62.991C90.7104 63.7722 91.1646 64.4558 91.7407 65.0417C92.3267 65.6277 93.0054 66.0867 93.7769 66.4187C94.5581 66.7507 95.3882 66.9167 96.2671 66.9167C96.814 66.9167 97.3413 66.8142 97.8491 66.6091C98.3667 66.3943 98.8208 66.0623 99.2114 65.613C99.6118 65.1541 99.9292 64.5681 100.164 63.8552C100.408 63.1326 100.53 62.2634 100.53 61.2478C100.53 60.3591 100.364 59.5046 100.032 58.6843C99.6997 57.864 99.2456 57.1414 98.6694 56.5164C98.0933 55.8914 97.4194 55.3933 96.6479 55.0222C95.8765 54.6511 95.0513 54.4656 94.1724 54.4656ZM124.993 59.2703C124.993 60.1296 124.827 60.9451 124.495 61.7166C124.163 62.488 123.718 63.2058 123.162 63.8699C122.605 64.5339 121.96 65.1394 121.228 65.6863C120.505 66.2332 119.744 66.7068 118.943 67.1072C118.152 67.5076 117.351 67.825 116.541 68.0593C115.73 68.3035 114.968 68.4548 114.255 68.5134C113.943 68.533 113.572 68.5281 113.142 68.4988C112.712 68.4695 112.268 68.3914 111.809 68.2644C111.36 68.1472 110.911 67.9666 110.461 67.7224C110.022 67.4685 109.626 67.1316 109.275 66.7117C108.923 66.2917 108.64 65.7742 108.425 65.1589C108.21 64.5339 108.103 63.7917 108.103 62.9324C108.103 62.2878 108.108 61.5359 108.118 60.6765C108.137 59.8171 108.157 58.8992 108.176 57.9226C108.196 56.9363 108.215 55.9207 108.235 54.8757C108.264 53.821 108.293 52.781 108.323 51.7556C108.352 50.7302 108.376 49.7439 108.396 48.7966C108.425 47.8396 108.445 46.9705 108.455 46.1892C108.474 45.408 108.489 44.7341 108.499 44.1677C108.508 43.6013 108.508 43.196 108.499 42.9519C108.469 42.6003 108.367 42.3025 108.191 42.0583C108.044 41.8533 107.82 41.6921 107.517 41.575C107.224 41.448 106.809 41.4578 106.272 41.6042C106.643 41.4089 107.019 41.2087 107.4 41.0037C107.781 40.7888 108.167 40.5984 108.557 40.4324C108.948 40.2566 109.338 40.115 109.729 40.0076C110.12 39.8904 110.515 39.8318 110.916 39.8318C111.121 39.8318 111.316 39.8513 111.501 39.8904C111.697 39.9294 111.863 40.0027 112 40.1101C112.146 40.2078 112.263 40.3396 112.351 40.5056C112.439 40.6716 112.483 40.8767 112.483 41.1208C112.483 41.2966 112.478 41.6287 112.468 42.1169C112.458 42.6052 112.444 43.2107 112.424 43.9333C112.415 44.656 112.395 45.4666 112.366 46.365C112.346 47.2634 112.322 48.2058 112.292 49.1921C112.273 50.1687 112.249 51.1697 112.219 52.1951C112.2 53.2107 112.175 54.197 112.146 55.1541C112.664 54.8025 113.186 54.4802 113.713 54.1873C114.241 53.8845 114.778 53.6306 115.325 53.4255C115.881 53.2107 116.443 53.0447 117.009 52.9275C117.585 52.8005 118.176 52.7371 118.782 52.7371C119.758 52.7371 120.632 52.9177 121.404 53.2791C122.175 53.6404 122.825 54.1238 123.352 54.7292C123.889 55.3347 124.294 56.033 124.568 56.824C124.851 57.6052 124.993 58.4207 124.993 59.2703ZM112.029 62.0974C112.029 62.5857 112.175 63.1033 112.468 63.6501C112.771 64.1873 113.171 64.6853 113.669 65.1443C114.167 65.6033 114.739 65.9841 115.383 66.2869C116.028 66.5896 116.702 66.741 117.405 66.741C118.088 66.741 118.665 66.575 119.133 66.2429C119.612 65.9109 119.998 65.491 120.291 64.9832C120.583 64.4656 120.793 63.8992 120.92 63.2839C121.057 62.6687 121.125 62.0828 121.125 61.5261C121.125 60.6277 120.979 59.7781 120.686 58.9773C120.393 58.1667 119.978 57.4587 119.441 56.8533C118.914 56.238 118.279 55.7546 117.537 55.4031C116.794 55.0417 115.979 54.8611 115.09 54.8611C114.729 54.8611 114.407 54.8855 114.124 54.9343C113.84 54.9832 113.621 55.0466 113.464 55.1248C113.318 55.2029 113.176 55.3494 113.04 55.5642C112.913 55.7791 112.791 56.0378 112.673 56.3406C112.556 56.6433 112.449 56.9802 112.351 57.3513C112.253 57.7224 112.166 58.1033 112.087 58.4939C112.068 59.3533 112.053 60.1052 112.043 60.7498C112.034 61.3943 112.029 61.8435 112.029 62.0974ZM133.855 40.6375C133.855 40.9207 133.86 41.1941 133.87 41.4578C133.879 41.7117 133.884 41.9607 133.884 42.2048C133.884 42.781 133.835 43.2742 133.738 43.6843C133.64 44.0945 133.411 44.4216 133.049 44.6658C132.834 44.822 132.566 45.0027 132.244 45.2078C131.707 45.5593 130.842 46.0964 129.651 46.8191C129.768 46.5066 129.851 46.1306 129.9 45.6912C129.958 45.2419 129.998 44.8171 130.017 44.4167C130.037 43.948 130.037 43.4597 130.017 42.9519C130.632 42.6296 131.174 42.3318 131.643 42.0583C132.112 41.7751 132.512 41.5261 132.844 41.3113C133.235 41.0671 133.572 40.8425 133.855 40.6375ZM139.011 65.5984C137.898 66.3308 136.951 66.907 136.169 67.3269C135.398 67.7468 134.734 68.0593 134.177 68.2644C133.621 68.4695 133.152 68.5867 132.771 68.616C132.39 68.6453 132.043 68.6306 131.731 68.572C131.448 68.5232 131.169 68.45 130.896 68.3523C130.623 68.2546 130.374 68.0789 130.149 67.825C129.934 67.5613 129.758 67.1853 129.622 66.697C129.485 66.2087 129.417 65.5447 129.417 64.7048C129.417 64.0017 129.436 63.3083 129.475 62.6248C129.514 61.9314 129.553 61.2478 129.592 60.574C129.641 59.8904 129.675 59.2166 129.695 58.5525C129.724 57.8787 129.729 57.2097 129.709 56.5457C129.69 55.9011 129.573 55.4324 129.358 55.1394C129.143 54.8367 128.821 54.6853 128.391 54.6853C128.225 54.6853 128.044 54.7048 127.849 54.7439C127.654 54.783 127.444 54.8416 127.219 54.9197C127.571 54.6755 127.932 54.4314 128.303 54.1873C128.674 53.9333 129.05 53.7087 129.431 53.5134C129.812 53.3181 130.193 53.1619 130.574 53.0447C130.964 52.9177 131.35 52.8542 131.731 52.8542C132.141 52.8542 132.498 52.947 132.8 53.1326C133.113 53.3181 133.313 53.6257 133.401 54.0554C133.43 54.2214 133.45 54.4656 133.459 54.7878C133.479 55.1101 133.489 55.4861 133.489 55.9158C133.489 56.5505 133.474 57.2537 133.445 58.0251C133.425 58.7966 133.401 59.5583 133.372 60.3103C133.342 61.0525 133.313 61.741 133.284 62.3757C133.254 63.0007 133.235 63.4841 133.225 63.8259C133.215 64.1482 133.274 64.4705 133.401 64.7927C133.528 65.115 133.713 65.408 133.958 65.6716C134.211 65.9255 134.519 66.1355 134.88 66.3015C135.251 66.4578 135.671 66.5359 136.14 66.5359C136.55 66.5359 136.995 66.4626 137.473 66.3162C137.952 66.1697 138.464 65.9304 139.011 65.5984ZM149.851 65.3054C148.875 65.9792 148.054 66.5359 147.39 66.9753C146.726 67.405 146.145 67.7468 145.647 68.0007C145.159 68.2644 144.714 68.4451 144.314 68.5427C143.923 68.6404 143.508 68.6892 143.069 68.6892C142.688 68.6892 142.317 68.5964 141.956 68.4109C141.604 68.2351 141.287 67.908 141.003 67.4294C140.73 66.9412 140.51 66.2771 140.344 65.4373C140.178 64.5876 140.095 63.4939 140.095 62.156C140.095 60.8376 140.11 59.4558 140.139 58.0105C140.168 56.5652 140.198 55.115 140.227 53.6599C140.266 52.2048 140.3 50.7791 140.33 49.3826C140.359 47.9861 140.374 46.6824 140.374 45.4714C140.374 44.28 140.193 43.3523 139.832 42.6882C139.47 42.0242 138.918 41.6921 138.176 41.6921C137.952 41.6921 137.703 41.7263 137.429 41.7947C137.156 41.8533 136.868 41.9607 136.565 42.1169C136.946 41.8435 137.346 41.5652 137.766 41.282C138.186 40.989 138.611 40.7253 139.041 40.491C139.48 40.2566 139.919 40.0662 140.359 39.9197C140.808 39.7634 141.252 39.6853 141.692 39.6853C142.249 39.6853 142.683 39.8269 142.996 40.1101C143.318 40.3835 143.552 40.7253 143.699 41.1355C143.855 41.5457 143.948 41.9949 143.977 42.4832C144.016 42.9617 144.036 43.406 144.036 43.8162C144.026 44.4412 144.011 45.1931 143.992 46.072C143.982 46.9509 143.967 47.8982 143.948 48.9138C143.928 49.9197 143.909 50.9646 143.889 52.0486C143.87 53.1326 143.85 54.197 143.831 55.2419C143.811 56.2771 143.792 57.2634 143.772 58.2009C143.762 59.1384 143.748 59.9636 143.728 60.6765C143.708 61.6335 143.777 62.4636 143.933 63.1667C144.089 63.8601 144.314 64.4314 144.607 64.8806C144.9 65.3298 145.251 65.6619 145.662 65.8767C146.072 66.0916 146.526 66.199 147.024 66.199C147.922 66.199 148.865 65.9011 149.851 65.3054ZM168.645 54.0261C167.522 54.573 166.477 55.0613 165.51 55.491C164.553 55.9109 163.708 56.2673 162.976 56.5603C162.126 56.9021 161.345 57.2048 160.632 57.4685C160.193 57.6541 159.705 57.8445 159.167 58.0398C158.64 58.2253 158.088 58.4109 157.512 58.5964C156.936 58.7722 156.345 58.9529 155.74 59.1384C155.144 59.3142 154.553 59.49 153.967 59.6658V59.9587C153.967 60.9646 154.124 61.8679 154.436 62.6687C154.758 63.4695 155.203 64.1531 155.769 64.7195C156.335 65.2761 157.014 65.7058 157.805 66.0085C158.596 66.3015 159.47 66.448 160.427 66.448C160.925 66.448 161.418 66.4089 161.907 66.3308C162.405 66.2527 162.874 66.1501 163.313 66.0232C163.762 65.8865 164.182 65.7253 164.573 65.5398C164.963 65.3542 165.31 65.1541 165.613 64.9392C164.871 65.6033 164.104 66.1599 163.313 66.6091C162.532 67.0583 161.746 67.4246 160.955 67.7078C160.173 67.9812 159.397 68.1814 158.625 68.3083C157.864 68.4353 157.131 68.5037 156.428 68.5134C155.715 68.533 155.012 68.4207 154.319 68.1765C153.635 67.9421 153.01 67.5808 152.444 67.0925C151.877 66.6042 151.399 65.9988 151.008 65.2761C150.618 64.5437 150.364 63.6941 150.247 62.7273C150.198 62.3855 150.173 62.0583 150.173 61.7458C150.183 61.4236 150.217 61.1062 150.276 60.7937C149.934 60.9207 149.622 61.0378 149.338 61.1453C149.065 61.2527 148.84 61.3601 148.665 61.4675C148.948 61.2722 149.231 61.0916 149.514 60.9255C149.797 60.7498 150.076 60.5886 150.349 60.4421C150.515 59.6804 150.798 58.9529 151.199 58.2595C151.609 57.5662 152.097 56.9216 152.664 56.3259C153.24 55.7302 153.879 55.1931 154.583 54.7146C155.286 54.2263 156.013 53.8113 156.765 53.4695C157.527 53.1277 158.298 52.864 159.08 52.6785C159.861 52.4929 160.618 52.4001 161.35 52.4001C161.838 52.4001 162.249 52.4734 162.581 52.6199C162.922 52.7664 163.152 53.0251 163.269 53.3962C163.328 53.7869 163.186 54.2068 162.844 54.656C162.698 54.8513 162.498 55.0613 162.244 55.2859C162 55.5007 161.677 55.7302 161.277 55.9744C160.886 56.2185 160.413 56.4724 159.856 56.7361C159.309 56.9998 158.66 57.2634 157.908 57.5271L168.645 54.0261ZM157.029 57.5857C157.449 57.4001 157.825 57.2 158.157 56.9851C158.499 56.7703 158.762 56.5457 158.948 56.3113C159.143 56.0769 159.246 55.8328 159.255 55.5789C159.265 55.325 159.163 55.0564 158.948 54.7732C158.801 54.5583 158.596 54.4119 158.333 54.3337C158.079 54.2458 157.815 54.2019 157.542 54.2019C157.288 54.2019 157.043 54.2312 156.809 54.2898C156.575 54.3386 156.37 54.407 156.194 54.4949C156.077 54.5632 155.916 54.7146 155.71 54.949C155.505 55.1736 155.295 55.4714 155.081 55.8425C154.866 56.2039 154.661 56.6287 154.465 57.1169C154.28 57.5955 154.143 58.1228 154.055 58.699C154.67 58.4744 155.227 58.2742 155.725 58.0984C156.223 57.9226 156.658 57.7517 157.029 57.5857Z" fill="white"/>
<path d="M67.0317 82.6152C67.0024 83.1914 66.9634 83.8994 66.9146 84.7393C66.8657 85.4619 66.8071 86.3701 66.7388 87.4639C66.6802 88.5479 66.5972 89.832 66.4897 91.3164L62.7397 93.8066C62.8472 93.1621 62.9351 92.4785 63.0034 91.7559C63.0815 91.0234 63.145 90.2861 63.1938 89.5439C63.2427 88.8018 63.2769 88.0693 63.2964 87.3467C63.3257 86.6143 63.3403 85.9307 63.3403 85.2959C63.3403 84.6904 63.311 84.0898 63.2524 83.4941C63.2036 82.8984 63.0718 82.3662 62.8569 81.8975C62.6519 81.4287 62.3394 81.0479 61.9194 80.7549C61.5093 80.4619 60.9429 80.3154 60.2202 80.3154C59.5757 80.3154 59.0239 80.4961 58.5649 80.8574C58.1157 81.2188 57.73 81.8291 57.4077 82.6885C57.0854 83.5479 56.8169 84.6855 56.6021 86.1016C56.397 87.5078 56.2212 89.2656 56.0747 91.375L52.5737 93.8945C52.6616 92.0098 52.73 90.4033 52.7788 89.0752C52.8276 87.7471 52.8618 86.6533 52.8813 85.7939C52.9106 84.7881 52.9253 83.958 52.9253 83.3037C52.9741 82.1221 52.813 81.1992 52.4419 80.5352C52.0708 79.8613 51.5044 79.5244 50.7427 79.5244C50.4985 79.5244 50.2397 79.5635 49.9663 79.6416C49.7026 79.71 49.4194 79.8125 49.1167 79.9492C49.4976 79.6758 49.8979 79.3975 50.3179 79.1143C50.7378 78.8213 51.1675 78.5576 51.6069 78.3232C52.0464 78.0889 52.4858 77.8984 52.9253 77.752C53.3745 77.5957 53.814 77.5176 54.2437 77.5176C54.6538 77.5176 55.0249 77.6006 55.3569 77.7666C55.6987 77.9326 55.9575 78.2109 56.1333 78.6016C56.2896 78.9434 56.4019 79.3389 56.4702 79.7881C56.5483 80.2275 56.5972 80.7109 56.6167 81.2383C57.0366 80.7402 57.5103 80.2617 58.0376 79.8027C58.5747 79.334 59.1265 78.9287 59.6929 78.5869C60.269 78.2354 60.8452 77.9668 61.4214 77.7812C61.9976 77.5859 62.5347 77.5176 63.0327 77.5762C63.3843 77.625 63.7505 77.7129 64.1313 77.8398C64.522 77.9668 64.8882 78.1523 65.23 78.3965C65.5815 78.6406 65.8989 78.9531 66.1821 79.334C66.4653 79.7051 66.6802 80.1689 66.8267 80.7256C67.2466 80.2764 67.7104 79.8516 68.2183 79.4512C68.7261 79.041 69.2437 78.6895 69.771 78.3965C70.2983 78.1035 70.8208 77.8838 71.3384 77.7373C71.856 77.5811 72.3394 77.5273 72.7886 77.5762C73.228 77.6348 73.6821 77.7568 74.1509 77.9424C74.6294 78.1182 75.064 78.4014 75.4546 78.792C75.8452 79.1729 76.1626 79.6758 76.4067 80.3008C76.6606 80.916 76.7729 81.6875 76.7437 82.6152C76.7144 83.7188 76.6606 84.7344 76.5825 85.6621C76.5142 86.5898 76.48 87.4053 76.48 88.1084C76.48 88.5283 76.5142 88.9238 76.5825 89.2949C76.6606 89.666 76.7876 89.9883 76.9634 90.2617C77.1392 90.5352 77.3735 90.75 77.6665 90.9062C77.9595 91.0625 78.3257 91.1406 78.7651 91.1406C79.1558 91.1406 79.5659 91.0674 79.9956 90.9209C80.4351 90.7646 80.8745 90.5303 81.314 90.2178C80.5913 90.8525 79.9321 91.3848 79.3364 91.8145C78.7505 92.2441 78.2036 92.5908 77.6958 92.8545C77.188 93.1182 76.7144 93.3037 76.2749 93.4111C75.8452 93.5283 75.4253 93.582 75.0151 93.5723C74.605 93.5625 74.2534 93.4795 73.9604 93.3232C73.6675 93.1768 73.4331 92.9473 73.2573 92.6348C73.0815 92.3125 72.9595 91.9023 72.8911 91.4043C72.8228 90.8965 72.7983 90.2764 72.8179 89.5439C72.8472 88.8994 72.8813 88.1914 72.9204 87.4199C72.9692 86.6387 72.9937 85.8672 72.9937 85.1055C72.9937 84.4805 72.9644 83.8799 72.9058 83.3037C72.8569 82.7178 72.73 82.2051 72.5249 81.7656C72.3198 81.3262 72.0171 80.9746 71.6167 80.7109C71.2163 80.4473 70.6694 80.3154 69.9761 80.3154C69.5952 80.3154 69.2534 80.3691 68.9507 80.4766C68.6479 80.584 68.3745 80.7402 68.1304 80.9453C67.896 81.1406 67.686 81.375 67.5005 81.6484C67.3247 81.9121 67.1685 82.2051 67.0317 82.5273V82.6152ZM102.334 90.7451C101.924 91.1553 101.48 91.5312 101.001 91.873C100.533 92.2051 100.059 92.4932 99.5806 92.7373C99.1021 92.9814 98.6382 93.1768 98.189 93.3232C97.7397 93.4697 97.3296 93.5527 96.9585 93.5723C96.7534 93.5918 96.4897 93.5869 96.1675 93.5576C95.8452 93.5381 95.5327 93.4551 95.23 93.3086C94.937 93.1621 94.6831 92.9326 94.4683 92.6201C94.2534 92.3076 94.146 91.8633 94.146 91.2871V89.5439C93.6089 90.0713 93.0425 90.5791 92.4468 91.0674C91.8511 91.5459 91.2358 91.9756 90.6011 92.3564C89.9761 92.7275 89.3413 93.0205 88.6968 93.2354C88.0522 93.46 87.4175 93.5723 86.7925 93.5723C85.9917 93.5723 85.2886 93.3916 84.6831 93.0303C84.0776 92.6787 83.5698 92.2197 83.1597 91.6533C82.7495 91.0869 82.4419 90.4521 82.2368 89.749C82.0317 89.0459 81.9292 88.3477 81.9292 87.6543C81.9292 87.1367 81.9683 86.6289 82.0464 86.1309C82.1245 85.623 82.2222 85.1445 82.3394 84.6953C82.4663 84.2461 82.6079 83.8408 82.7642 83.4795C82.9302 83.1182 83.1011 82.8203 83.2769 82.5859C83.5991 82.1465 84.0093 81.7217 84.5073 81.3115C85.0054 80.9014 85.5474 80.5156 86.1333 80.1543C86.729 79.793 87.3589 79.4658 88.0229 79.1729C88.687 78.8799 89.3462 78.626 90.0005 78.4111C90.6646 78.1963 91.3091 78.0303 91.9341 77.9131C92.5591 77.7959 93.1353 77.7373 93.6626 77.7373C94.2095 77.7373 94.854 77.7666 95.5962 77.8252C96.3384 77.874 97.1831 77.9814 98.1304 78.1475C98.0913 79.2705 98.0571 80.2617 98.0278 81.1211C97.9985 81.9805 97.9741 82.752 97.9546 83.4355C97.9351 84.1094 97.9204 84.7246 97.9106 85.2812C97.9009 85.8379 97.896 86.3799 97.896 86.9072C97.896 87.4443 97.8862 87.9717 97.8667 88.4893C97.8472 89.0068 97.8862 89.4707 97.9839 89.8809C98.0815 90.291 98.272 90.623 98.5552 90.877C98.8481 91.1309 99.2974 91.2578 99.9028 91.2578C100.264 91.2578 100.65 91.2139 101.06 91.126C101.47 91.0283 101.895 90.9014 102.334 90.7451ZM94.1753 80.2568C93.5894 80.1006 92.9644 79.9932 92.3003 79.9346C91.6362 79.8662 91.0015 79.832 90.396 79.832C90.064 79.832 89.7466 79.8418 89.4438 79.8613C89.1509 79.8809 88.8823 79.9053 88.6382 79.9346C88.394 79.9639 88.1792 80.0029 87.9937 80.0518C87.8081 80.0908 87.6665 80.1396 87.5688 80.1982C87.3931 80.2861 87.188 80.501 86.9536 80.8428C86.7192 81.1748 86.4946 81.5898 86.2798 82.0879C86.0649 82.5859 85.8794 83.1475 85.7231 83.7725C85.5767 84.3975 85.5034 85.042 85.5034 85.7061C85.5034 86.3408 85.5962 86.9805 85.7817 87.625C85.9673 88.2598 86.2358 88.8311 86.5874 89.3389C86.9487 89.8467 87.3882 90.2617 87.9058 90.584C88.4331 90.8965 89.0337 91.0527 89.7075 91.0527C90.3423 91.0527 90.9038 90.9502 91.3921 90.7451C91.8804 90.54 92.3052 90.2617 92.6665 89.9102C93.0278 89.5488 93.3257 89.1289 93.5601 88.6504C93.8042 88.1719 93.9995 87.6543 94.146 87.0977C94.146 86.6875 94.146 86.2529 94.146 85.7939C94.146 85.3252 94.146 84.8125 94.146 84.2559C94.146 83.6992 94.146 83.0938 94.146 82.4395C94.1558 81.7754 94.1655 81.0479 94.1753 80.2568ZM116.587 87.0977C116.587 87.7715 116.407 88.4014 116.045 88.9873C115.694 89.5635 115.23 90.0957 114.654 90.584C114.078 91.0723 113.423 91.502 112.691 91.873C111.968 92.2441 111.231 92.5566 110.479 92.8105C109.727 93.0645 109 93.25 108.296 93.3672C107.593 93.4844 106.978 93.5234 106.451 93.4844C105.992 93.4648 105.508 93.3916 105 93.2646C104.502 93.1475 104.058 93.001 103.667 92.8252C103.287 92.6494 102.999 92.459 102.803 92.2539C102.618 92.0488 102.613 91.8486 102.789 91.6533C102.964 91.4678 103.155 91.2822 103.36 91.0967C103.565 90.9111 103.809 90.7207 104.092 90.5254C104.375 90.3203 104.712 90.1055 105.103 89.8809C105.494 89.6562 105.962 89.4072 106.509 89.1338C106.333 89.4072 106.29 89.6465 106.377 89.8516C106.465 90.0566 106.626 90.2422 106.861 90.4082C107.105 90.5645 107.398 90.6963 107.74 90.8037C108.091 90.9111 108.433 90.999 108.765 91.0674C109.107 91.1357 109.415 91.1846 109.688 91.2139C109.971 91.2432 110.171 91.2578 110.289 91.2578C110.64 91.2578 110.987 91.2432 111.329 91.2139C111.68 91.1748 111.993 91.0967 112.266 90.9795C112.54 90.8623 112.759 90.6914 112.925 90.4668C113.101 90.2324 113.189 89.915 113.189 89.5146C113.189 89.0264 113.052 88.6113 112.779 88.2695C112.515 87.9277 112.164 87.6445 111.724 87.4199C111.294 87.1855 110.811 87 110.274 86.8633C109.737 86.7266 109.2 86.6143 108.663 86.5264C108.135 86.4287 107.632 86.3506 107.154 86.292C106.685 86.2236 106.299 86.1504 105.997 86.0723C105.508 85.9453 105.098 85.7793 104.766 85.5742C104.444 85.3594 104.18 85.125 103.975 84.8711C103.78 84.6074 103.638 84.3291 103.55 84.0361C103.462 83.7432 103.418 83.4502 103.418 83.1572C103.418 82.5029 103.594 81.8975 103.946 81.3408C104.297 80.7842 104.756 80.2812 105.323 79.832C105.889 79.3828 106.529 78.9873 107.242 78.6455C107.964 78.3037 108.692 78.0156 109.424 77.7812C110.167 77.5469 110.884 77.3711 111.578 77.2539C112.271 77.1367 112.872 77.0781 113.379 77.0781C113.965 77.0781 114.483 77.1123 114.932 77.1807C115.391 77.2393 115.762 77.3125 116.045 77.4004C116.319 77.4883 116.49 77.6006 116.558 77.7373C116.636 77.874 116.636 78.0303 116.558 78.2061C116.49 78.3818 116.353 78.5723 116.148 78.7773C115.943 78.9824 115.699 79.1924 115.416 79.4072C115.191 79.583 114.952 79.749 114.698 79.9053C114.473 80.042 114.224 80.1836 113.951 80.3301C113.677 80.4668 113.394 80.5889 113.101 80.6963C113.248 80.5107 113.306 80.3447 113.277 80.1982C113.257 80.0518 113.169 79.9199 113.013 79.8027C112.857 79.6855 112.647 79.5879 112.383 79.5098C112.12 79.4219 111.827 79.3535 111.504 79.3047C111.182 79.2461 110.84 79.207 110.479 79.1875C110.127 79.1582 109.781 79.1436 109.439 79.1436C109.107 79.1436 108.775 79.1582 108.443 79.1875C108.111 79.207 107.813 79.2705 107.549 79.3779C107.286 79.4756 107.071 79.6318 106.905 79.8467C106.739 80.0615 106.656 80.3545 106.656 80.7256C106.656 81.0283 106.724 81.3457 106.861 81.6777C106.998 82 107.198 82.3076 107.461 82.6006C107.735 82.8838 108.072 83.1377 108.472 83.3623C108.873 83.5869 109.336 83.748 109.864 83.8457C110.274 83.9238 110.728 83.9824 111.226 84.0215C111.724 84.0605 112.222 84.1094 112.72 84.168C113.218 84.2266 113.697 84.3096 114.156 84.417C114.625 84.5244 115.04 84.6855 115.401 84.9004C115.762 85.1152 116.05 85.3984 116.265 85.75C116.48 86.1016 116.587 86.5508 116.587 87.0977ZM132.789 87.0977C132.789 87.7715 132.608 88.4014 132.247 88.9873C131.895 89.5635 131.431 90.0957 130.855 90.584C130.279 91.0723 129.625 91.502 128.892 91.873C128.169 92.2441 127.432 92.5566 126.68 92.8105C125.928 93.0645 125.201 93.25 124.498 93.3672C123.794 93.4844 123.179 93.5234 122.652 93.4844C122.193 93.4648 121.709 93.3916 121.202 93.2646C120.704 93.1475 120.259 93.001 119.869 92.8252C119.488 92.6494 119.2 92.459 119.004 92.2539C118.819 92.0488 118.814 91.8486 118.99 91.6533C119.166 91.4678 119.356 91.2822 119.561 91.0967C119.766 90.9111 120.01 90.7207 120.293 90.5254C120.577 90.3203 120.914 90.1055 121.304 89.8809C121.695 89.6562 122.164 89.4072 122.71 89.1338C122.535 89.4072 122.491 89.6465 122.579 89.8516C122.667 90.0566 122.828 90.2422 123.062 90.4082C123.306 90.5645 123.599 90.6963 123.941 90.8037C124.292 90.9111 124.634 90.999 124.966 91.0674C125.308 91.1357 125.616 91.1846 125.889 91.2139C126.172 91.2432 126.373 91.2578 126.49 91.2578C126.841 91.2578 127.188 91.2432 127.53 91.2139C127.881 91.1748 128.194 91.0967 128.467 90.9795C128.741 90.8623 128.96 90.6914 129.126 90.4668C129.302 90.2324 129.39 89.915 129.39 89.5146C129.39 89.0264 129.253 88.6113 128.98 88.2695C128.716 87.9277 128.365 87.6445 127.925 87.4199C127.496 87.1855 127.012 87 126.475 86.8633C125.938 86.7266 125.401 86.6143 124.864 86.5264C124.336 86.4287 123.833 86.3506 123.355 86.292C122.886 86.2236 122.5 86.1504 122.198 86.0723C121.709 85.9453 121.299 85.7793 120.967 85.5742C120.645 85.3594 120.381 85.125 120.176 84.8711C119.981 84.6074 119.839 84.3291 119.751 84.0361C119.664 83.7432 119.62 83.4502 119.62 83.1572C119.62 82.5029 119.795 81.8975 120.147 81.3408C120.499 80.7842 120.958 80.2812 121.524 79.832C122.09 79.3828 122.73 78.9873 123.443 78.6455C124.166 78.3037 124.893 78.0156 125.625 77.7812C126.368 77.5469 127.085 77.3711 127.779 77.2539C128.472 77.1367 129.073 77.0781 129.581 77.0781C130.167 77.0781 130.684 77.1123 131.133 77.1807C131.592 77.2393 131.963 77.3125 132.247 77.4004C132.52 77.4883 132.691 77.6006 132.759 77.7373C132.837 77.874 132.837 78.0303 132.759 78.2061C132.691 78.3818 132.554 78.5723 132.349 78.7773C132.144 78.9824 131.9 79.1924 131.617 79.4072C131.392 79.583 131.153 79.749 130.899 79.9053C130.674 80.042 130.425 80.1836 130.152 80.3301C129.878 80.4668 129.595 80.5889 129.302 80.6963C129.449 80.5107 129.507 80.3447 129.478 80.1982C129.458 80.0518 129.371 79.9199 129.214 79.8027C129.058 79.6855 128.848 79.5879 128.584 79.5098C128.321 79.4219 128.028 79.3535 127.706 79.3047C127.383 79.2461 127.042 79.207 126.68 79.1875C126.329 79.1582 125.982 79.1436 125.64 79.1436C125.308 79.1436 124.976 79.1582 124.644 79.1875C124.312 79.207 124.014 79.2705 123.75 79.3779C123.487 79.4756 123.272 79.6318 123.106 79.8467C122.94 80.0615 122.857 80.3545 122.857 80.7256C122.857 81.0283 122.925 81.3457 123.062 81.6777C123.199 82 123.399 82.3076 123.663 82.6006C123.936 82.8838 124.273 83.1377 124.673 83.3623C125.074 83.5869 125.538 83.748 126.065 83.8457C126.475 83.9238 126.929 83.9824 127.427 84.0215C127.925 84.0605 128.423 84.1094 128.921 84.168C129.419 84.2266 129.898 84.3096 130.357 84.417C130.826 84.5244 131.241 84.6855 131.602 84.9004C131.963 85.1152 132.251 85.3984 132.466 85.75C132.681 86.1016 132.789 86.5508 132.789 87.0977ZM156.006 90.7451C155.596 91.1553 155.152 91.5312 154.673 91.873C154.205 92.2051 153.731 92.4932 153.252 92.7373C152.774 92.9814 152.31 93.1768 151.861 93.3232C151.412 93.4697 151.001 93.5527 150.63 93.5723C150.425 93.5918 150.162 93.5869 149.839 93.5576C149.517 93.5381 149.205 93.4551 148.902 93.3086C148.609 93.1621 148.355 92.9326 148.14 92.6201C147.925 92.3076 147.818 91.8633 147.818 91.2871V89.5439C147.281 90.0713 146.714 90.5791 146.119 91.0674C145.523 91.5459 144.908 91.9756 144.273 92.3564C143.648 92.7275 143.013 93.0205 142.369 93.2354C141.724 93.46 141.089 93.5723 140.464 93.5723C139.664 93.5723 138.96 93.3916 138.355 93.0303C137.75 92.6787 137.242 92.2197 136.832 91.6533C136.421 91.0869 136.114 90.4521 135.909 89.749C135.704 89.0459 135.601 88.3477 135.601 87.6543C135.601 87.1367 135.64 86.6289 135.718 86.1309C135.796 85.623 135.894 85.1445 136.011 84.6953C136.138 84.2461 136.28 83.8408 136.436 83.4795C136.602 83.1182 136.773 82.8203 136.949 82.5859C137.271 82.1465 137.681 81.7217 138.179 81.3115C138.677 80.9014 139.219 80.5156 139.805 80.1543C140.401 79.793 141.031 79.4658 141.695 79.1729C142.359 78.8799 143.018 78.626 143.672 78.4111C144.336 78.1963 144.981 78.0303 145.606 77.9131C146.231 77.7959 146.807 77.7373 147.334 77.7373C147.881 77.7373 148.526 77.7666 149.268 77.8252C150.01 77.874 150.855 77.9814 151.802 78.1475C151.763 79.2705 151.729 80.2617 151.7 81.1211C151.67 81.9805 151.646 82.752 151.626 83.4355C151.607 84.1094 151.592 84.7246 151.583 85.2812C151.573 85.8379 151.568 86.3799 151.568 86.9072C151.568 87.4443 151.558 87.9717 151.539 88.4893C151.519 89.0068 151.558 89.4707 151.656 89.8809C151.753 90.291 151.944 90.623 152.227 90.877C152.52 91.1309 152.969 91.2578 153.575 91.2578C153.936 91.2578 154.322 91.2139 154.732 91.126C155.142 91.0283 155.567 90.9014 156.006 90.7451ZM147.847 80.2568C147.261 80.1006 146.636 79.9932 145.972 79.9346C145.308 79.8662 144.673 79.832 144.068 79.832C143.736 79.832 143.418 79.8418 143.116 79.8613C142.823 79.8809 142.554 79.9053 142.31 79.9346C142.066 79.9639 141.851 80.0029 141.666 80.0518C141.48 80.0908 141.338 80.1396 141.241 80.1982C141.065 80.2861 140.86 80.501 140.625 80.8428C140.391 81.1748 140.167 81.5898 139.952 82.0879C139.737 82.5859 139.551 83.1475 139.395 83.7725C139.249 84.3975 139.175 85.042 139.175 85.7061C139.175 86.3408 139.268 86.9805 139.454 87.625C139.639 88.2598 139.908 88.8311 140.259 89.3389C140.621 89.8467 141.06 90.2617 141.578 90.584C142.105 90.8965 142.706 91.0527 143.379 91.0527C144.014 91.0527 144.576 90.9502 145.064 90.7451C145.552 90.54 145.977 90.2617 146.338 89.9102C146.7 89.5488 146.998 89.1289 147.232 88.6504C147.476 88.1719 147.671 87.6543 147.818 87.0977C147.818 86.6875 147.818 86.2529 147.818 85.7939C147.818 85.3252 147.818 84.8125 147.818 84.2559C147.818 83.6992 147.818 83.0938 147.818 82.4395C147.828 81.7754 147.837 81.0479 147.847 80.2568ZM173.013 78.2646C172.984 79.5146 172.959 80.6377 172.94 81.6338C172.92 82.6201 172.901 83.5039 172.881 84.2852C172.872 85.0664 172.862 85.75 172.852 86.3359C172.842 86.9121 172.837 87.4102 172.837 87.8301C172.828 88.8066 172.828 89.5 172.837 89.9102C172.818 90.9941 172.803 91.9463 172.793 92.7666C172.784 93.5869 172.73 94.3193 172.632 94.9639C172.544 95.6084 172.388 96.1748 172.164 96.6631C171.949 97.1611 171.622 97.6201 171.182 98.04C170.42 98.7725 169.625 99.5 168.794 100.223C167.974 100.955 167.12 101.609 166.231 102.186C165.352 102.771 164.434 103.24 163.477 103.592C162.52 103.953 161.529 104.134 160.503 104.134C159.888 104.134 159.239 104.041 158.555 103.855C157.872 103.68 157.237 103.416 156.651 103.064C156.075 102.713 155.601 102.273 155.23 101.746C154.849 101.219 154.659 100.604 154.659 99.9004C154.659 99.3438 154.825 98.8018 155.157 98.2744C155.479 97.7568 155.962 97.2783 156.607 96.8389C156.978 96.5752 157.398 96.2773 157.867 95.9453C158.277 95.6621 158.765 95.3252 159.332 94.9346C159.908 94.5439 160.557 94.1094 161.28 93.6309C160.538 93.5723 159.888 93.3574 159.332 92.9863C158.775 92.6152 158.306 92.1514 157.925 91.5947C157.554 91.0381 157.276 90.4277 157.09 89.7637C156.905 89.0898 156.812 88.4209 156.812 87.7568C156.812 87.2393 156.851 86.7266 156.929 86.2188C157.007 85.7109 157.105 85.2373 157.222 84.7979C157.349 84.3486 157.491 83.9434 157.647 83.582C157.813 83.2109 157.984 82.9082 158.16 82.6738C158.501 82.2051 158.921 81.7607 159.419 81.3408C159.927 80.9111 160.479 80.5205 161.075 80.1689C161.67 79.8076 162.295 79.4854 162.95 79.2021C163.604 78.9189 164.253 78.6797 164.898 78.4844C165.542 78.2793 166.167 78.123 166.773 78.0156C167.378 77.9082 167.93 77.8545 168.428 77.8545C168.975 77.8545 169.629 77.8838 170.391 77.9424C171.163 77.9912 172.037 78.0986 173.013 78.2646ZM169.058 80.3154C168.472 80.1787 167.847 80.0811 167.183 80.0225C166.519 79.9541 165.884 79.9199 165.279 79.9199C164.458 79.9199 163.741 80.0029 163.125 80.1689C162.52 80.335 162.012 80.6377 161.602 81.0771C161.202 81.5166 160.899 82.1172 160.694 82.8789C160.489 83.6406 160.386 84.6123 160.386 85.7939C160.386 86.4385 160.479 87.0781 160.665 87.7129C160.85 88.3477 161.119 88.9189 161.47 89.4268C161.832 89.9346 162.271 90.3496 162.789 90.6719C163.316 90.9844 163.917 91.1406 164.59 91.1406C165.245 91.1406 165.816 91.0381 166.304 90.833C166.802 90.6279 167.227 90.3496 167.579 89.998C167.93 89.6465 168.218 89.2363 168.443 88.7676C168.677 88.2988 168.863 87.8008 169 87.2734C169 86.4434 169.004 85.4668 169.014 84.3438C169.024 83.2109 169.039 81.8682 169.058 80.3154ZM158.76 96.4141C158.243 96.9219 157.984 97.4541 157.984 98.0107C157.984 98.4404 158.096 98.8213 158.321 99.1533C158.555 99.4854 158.853 99.7783 159.214 100.032C159.585 100.286 160 100.496 160.459 100.662C160.918 100.838 161.377 100.979 161.836 101.087C162.305 101.194 162.75 101.272 163.169 101.321C163.589 101.37 163.941 101.395 164.224 101.395C164.869 101.395 165.464 101.336 166.011 101.219C166.558 101.102 166.983 100.931 167.286 100.706C167.618 100.452 167.891 99.9834 168.106 99.2998C168.321 98.626 168.492 97.7959 168.619 96.8096C168.746 95.833 168.833 94.7344 168.882 93.5137C168.941 92.293 168.98 91.0137 169 89.6758C168.501 90.1641 167.979 90.6328 167.432 91.082C166.895 91.5312 166.338 91.9365 165.762 92.2979C165.186 92.6494 164.6 92.9424 164.004 93.1768C163.409 93.4111 162.813 93.5625 162.217 93.6309C161.631 94.0703 161.119 94.4561 160.679 94.7881C160.25 95.1299 159.893 95.4229 159.61 95.667C159.278 95.9502 158.995 96.1992 158.76 96.4141ZM196.084 79.0264C194.961 79.5732 193.917 80.0615 192.95 80.4912C191.993 80.9111 191.148 81.2676 190.416 81.5605C189.566 81.9023 188.785 82.2051 188.072 82.4688C187.632 82.6543 187.144 82.8447 186.607 83.04C186.08 83.2256 185.528 83.4111 184.952 83.5967C184.375 83.7725 183.785 83.9531 183.179 84.1387C182.583 84.3145 181.993 84.4902 181.407 84.666V84.959C181.407 85.9648 181.563 86.8682 181.875 87.6689C182.198 88.4697 182.642 89.1533 183.208 89.7197C183.775 90.2764 184.454 90.7061 185.245 91.0088C186.036 91.3018 186.91 91.4482 187.867 91.4482C188.365 91.4482 188.858 91.4092 189.346 91.3311C189.844 91.2529 190.313 91.1504 190.752 91.0234C191.202 90.8867 191.622 90.7256 192.012 90.54C192.403 90.3545 192.75 90.1543 193.052 89.9395C192.31 90.6035 191.543 91.1602 190.752 91.6094C189.971 92.0586 189.185 92.4248 188.394 92.708C187.613 92.9814 186.836 93.1816 186.065 93.3086C185.303 93.4355 184.571 93.5039 183.868 93.5137C183.155 93.5332 182.452 93.4209 181.758 93.1768C181.075 92.9424 180.45 92.5811 179.883 92.0928C179.317 91.6045 178.838 90.999 178.448 90.2764C178.057 89.5439 177.803 88.6943 177.686 87.7275C177.637 87.3857 177.613 87.0586 177.613 86.7461C177.623 86.4238 177.657 86.1064 177.715 85.7939C177.374 85.9209 177.061 86.0381 176.778 86.1455C176.504 86.2529 176.28 86.3604 176.104 86.4678C176.387 86.2725 176.67 86.0918 176.954 85.9258C177.237 85.75 177.515 85.5889 177.789 85.4424C177.955 84.6807 178.238 83.9531 178.638 83.2598C179.048 82.5664 179.537 81.9219 180.103 81.3262C180.679 80.7305 181.319 80.1934 182.022 79.7148C182.725 79.2266 183.453 78.8115 184.205 78.4697C184.966 78.1279 185.738 77.8643 186.519 77.6787C187.3 77.4932 188.057 77.4004 188.79 77.4004C189.278 77.4004 189.688 77.4736 190.02 77.6201C190.362 77.7666 190.591 78.0254 190.708 78.3965C190.767 78.7871 190.625 79.207 190.284 79.6562C190.137 79.8516 189.937 80.0615 189.683 80.2861C189.439 80.501 189.117 80.7305 188.716 80.9746C188.326 81.2188 187.852 81.4727 187.295 81.7363C186.749 82 186.099 82.2637 185.347 82.5273L196.084 79.0264ZM184.468 82.5859C184.888 82.4004 185.264 82.2002 185.596 81.9854C185.938 81.7705 186.202 81.5459 186.387 81.3115C186.583 81.0771 186.685 80.833 186.695 80.5791C186.705 80.3252 186.602 80.0566 186.387 79.7734C186.241 79.5586 186.036 79.4121 185.772 79.334C185.518 79.2461 185.254 79.2021 184.981 79.2021C184.727 79.2021 184.483 79.2314 184.249 79.29C184.014 79.3389 183.809 79.4072 183.633 79.4951C183.516 79.5635 183.355 79.7148 183.15 79.9492C182.945 80.1738 182.735 80.4717 182.52 80.8428C182.305 81.2041 182.1 81.6289 181.905 82.1172C181.719 82.5957 181.583 83.123 181.495 83.6992C182.11 83.4746 182.667 83.2744 183.165 83.0986C183.663 82.9229 184.097 82.752 184.468 82.5859Z" fill="white"/>
</svg>
