<svg width="97" height="92" viewBox="0 0 97 92" fill="none" xmlns="http://www.w3.org/2000/svg">
<mask id="path-1-inside-1_74_5" fill="white">
<path d="M92.97 82.884L92.2807 91.959L94.379 87.3421L95.7983 80.5347L96.2198 76.113L96.5897 70.0576L96.39 64.116L95.3262 57.4552L93.6604 49.498L90.465 41.3743L87.1609 34.0594L84.2927 29.7355L80.5026 24.0219L74.0752 16.6666L68.3525 12.3187L63.987 9.23859L57.6373 5.89046L52.139 3.63141L47.153 2.14446L41.4502 1.13309L37.0661 0.942512L30.3843 0.983815L23.882 2.07362L17.2648 4.93535L11.2942 8.5773L7.39056 12.0619L5.51066 16.7337L5.36709 19.9676L6.92395 22.572L11.8658 23.5352L14.5591 22.6976L16.9122 21.0686L14.6259 21.192L11.9923 20.6854L10.3747 19.6973L10.0113 17.835L10.9451 16.4404L12.2691 14.452L14.9659 13.5349L18.4132 13.3489L22.1307 13.9198L24.6992 15.1604L26.3824 17.758L26.9969 22.7186L27.491 26.5499L26.9885 31.0557L25.6187 34.9612L23.1764 38.2571L20.942 40.6961L17.0799 43.3801L13.5741 44.8851L10.2205 45.2756L7.03324 45.5279L4.22998 45.581L0.626477 44.6222L5.20312 47.048L8.67222 47.9986L12.4741 48.6729L15.6551 49.3838L19.5401 49.9889L24.5131 50.2892L29.0509 50.7114L33.3966 50.4549L37.3071 50.3204L42.7087 49.9053L46.523 48.6532L50.593 46.2307L54.0868 43.3286L55.686 39.1263L55.6083 35.1191L54.1611 31.7705L51.1015 29.8811L47.8884 29.3165L45.5204 29.2476L42.6662 30.78L40.8619 33.117L40.152 35.7425L40.8759 38.9733L39.237 36.5025L39.3387 33.5439L40.0421 30.3251L43.0237 26.651L46.3643 25.0738L50.1531 24.5613L53.0461 25.0325L55.8431 25.9425L59.6838 28.6204L62.0398 32.1721L62.2392 36.5571L62.2529 40.8569L62.2666 45.1566L63.6499 48.7979L65.6986 51.8863L67.9006 53.6499L70.3904 54.0967L72.8925 52.6171L74.1273 50.394L73.4034 47.1631L70.958 44.6437L73.358 44.5662L75.2335 45.643L77.1285 48.4998L77.2636 51.621L77.5077 55.4899L77.1948 59.1029L78.1941 62.9433L79.6794 65.1824L82.4191 66.9784L85.5039 66.5717L86.5853 65.6735L86.9112 63.2472L86.1811 60.9796L88.7544 62.9138L90.4446 65.4618L91.6102 69.164L92.5204 75.5932L92.97 82.884Z"/>
</mask>
<path d="M92.97 82.884L92.2807 91.959L94.379 87.3421L95.7983 80.5347L96.2198 76.113L96.5897 70.0576L96.39 64.116L95.3262 57.4552L93.6604 49.498L90.465 41.3743L87.1609 34.0594L84.2927 29.7355L80.5026 24.0219L74.0752 16.6666L68.3525 12.3187L63.987 9.23859L57.6373 5.89046L52.139 3.63141L47.153 2.14446L41.4502 1.13309L37.0661 0.942512L30.3843 0.983815L23.882 2.07362L17.2648 4.93535L11.2942 8.5773L7.39056 12.0619L5.51066 16.7337L5.36709 19.9676L6.92395 22.572L11.8658 23.5352L14.5591 22.6976L16.9122 21.0686L14.6259 21.192L11.9923 20.6854L10.3747 19.6973L10.0113 17.835L10.9451 16.4404L12.2691 14.452L14.9659 13.5349L18.4132 13.3489L22.1307 13.9198L24.6992 15.1604L26.3824 17.758L26.9969 22.7186L27.491 26.5499L26.9885 31.0557L25.6187 34.9612L23.1764 38.2571L20.942 40.6961L17.0799 43.3801L13.5741 44.8851L10.2205 45.2756L7.03324 45.5279L4.22998 45.581L0.626477 44.6222L5.20312 47.048L8.67222 47.9986L12.4741 48.6729L15.6551 49.3838L19.5401 49.9889L24.5131 50.2892L29.0509 50.7114L33.3966 50.4549L37.3071 50.3204L42.7087 49.9053L46.523 48.6532L50.593 46.2307L54.0868 43.3286L55.686 39.1263L55.6083 35.1191L54.1611 31.7705L51.1015 29.8811L47.8884 29.3165L45.5204 29.2476L42.6662 30.78L40.8619 33.117L40.152 35.7425L40.8759 38.9733L39.237 36.5025L39.3387 33.5439L40.0421 30.3251L43.0237 26.651L46.3643 25.0738L50.1531 24.5613L53.0461 25.0325L55.8431 25.9425L59.6838 28.6204L62.0398 32.1721L62.2392 36.5571L62.2529 40.8569L62.2666 45.1566L63.6499 48.7979L65.6986 51.8863L67.9006 53.6499L70.3904 54.0967L72.8925 52.6171L74.1273 50.394L73.4034 47.1631L70.958 44.6437L73.358 44.5662L75.2335 45.643L77.1285 48.4998L77.2636 51.621L77.5077 55.4899L77.1948 59.1029L78.1941 62.9433L79.6794 65.1824L82.4191 66.9784L85.5039 66.5717L86.5853 65.6735L86.9112 63.2472L86.1811 60.9796L88.7544 62.9138L90.4446 65.4618L91.6102 69.164L92.5204 75.5932L92.97 82.884Z" fill="#FDF8F4" stroke="#FDF8F4" stroke-width="2" mask="url(#path-1-inside-1_74_5)"/>
</svg>
