<svg width="200" height="200" viewBox="0 0 200 200" fill="none" xmlns="http://www.w3.org/2000/svg">
<circle cx="100" cy="100" r="100" fill="#8C775E"/>
<path d="M147.005 66.2471L152.476 63.3217L156.314 61.0346L163.503 57.9183L182.791 42.9682L186.019 48.5284L191.334 58.6444L194.038 65.793L196.533 72.3888L197.587 75.387L196.658 75.3453L192.118 77.1412L189.785 78.2394L184.365 80.1018L179.691 81.9932L175.123 84.1853L170.053 85.5123L164.747 87.2499L159.49 89.2051L153.979 91.0733L149.635 91.3124L145.909 92.8013L143.185 96.2868L139.241 99.2073L133.67 101.374L129.388 103.664L125.107 105.953L120.825 108.243L116.067 110.786L110.696 114.47L107.258 118.337L104.503 120.622L100.697 122.657L97.8426 124.183L94.3824 124.004L93.2014 121.795L93.1101 118.192L94.6453 115.343L97.3006 112.3L99.3114 109.196L102.373 106.341L105.504 103.044L107.922 100.129L110.746 97.4014L111.637 94.4906L109.604 93.5489L105.836 93.9401L102.783 93.9499L98.7777 94.4683L94.4352 94.3557L90.1923 95.0013L87.0308 97.0975L84.1763 98.6238L82.0659 100.969L80.1934 103.188L77.9142 105.218L75.4276 108.577L74.1995 110.856L71.5829 112.255L69.9566 111.502L69.727 108.784L69.597 106.825L69.4366 103.665L67.8711 105.313L66.336 108.163L64.9392 110.127L63.8107 113.165L62.0073 114.941L60.4417 116.589L58.2013 116.976L56.4062 115.907L56.5833 113.378L57.7809 109.897L60.0297 106.666L60.8899 102.554L61.7806 99.6432L58.9565 102.37L55.4189 105.479L54.0221 107.443L51.4359 110.044L49.5633 112.262L47.5525 115.366L45.5112 117.269L42.7951 117.91L41.9515 116.332L40.9391 114.439L41.3541 111.782L42.9583 108.49L45.6828 105.005L47.8624 102.216L51.0322 97.2752L57.2556 92.3245L50.8718 94.1149L47.7794 95.7683L43.9735 97.8033L40.1676 99.8383L37.0448 100.291L34.4366 98.8451L33.4242 96.9518L33.8392 94.2955L35.9496 91.9498L40.1013 87.7011L46.7617 84.1398L51.9949 81.3417L60.4503 78.8494L69.9956 74.9628L75.7045 71.9103L82.6332 69.4229L87.2827 68.9656L92.0014 68.0655L97.4641 67.985L105.029 68.4034L113.814 69.387L124.67 69.6685L131.015 69.5219L137.023 68.7442L141.91 68.1598L147.005 66.2471Z" fill="white"/>
<path d="M57.2556 92.3245L50.8718 94.1149L47.7794 95.7683L43.9735 97.8033L40.1676 99.8383L37.0448 100.291L34.4366 98.8451L33.4242 96.9518L33.8392 94.2955L35.9496 91.9498L40.1013 87.7011L46.7617 84.1398L51.9949 81.3417L60.4503 78.8494L69.9956 74.9628L75.7045 71.9103L82.6332 69.4229L87.2827 68.9656L92.0014 68.0655L97.4641 67.985L105.029 68.4034L113.814 69.387L124.67 69.6685L131.015 69.5219L137.023 68.7442L141.91 68.1598L147.005 66.2471L152.476 63.3217L156.314 61.0346L163.503 57.9183L182.791 42.9682L186.019 48.5284L191.334 58.6444L194.038 65.793L196.533 72.3888L197.587 75.387L196.658 75.3453L192.118 77.1412L189.785 78.2394L184.365 80.1018L179.691 81.9932L175.123 84.1853L170.053 85.5123L164.747 87.2499L159.49 89.2051L153.979 91.0733L149.635 91.3124L145.909 92.8013M57.2556 92.3245L60.4475 91.4294L65.3045 89.6439L70.7368 88.3623L73.7904 88.3526L77.4192 88.8468M57.2556 92.3245L51.0322 97.2752L47.8624 102.216L45.6828 105.005L42.9583 108.49L41.3541 111.782L40.9391 114.439L41.9515 116.332L42.7951 117.91L45.5112 117.269L47.5525 115.366L49.5633 112.262L51.4359 110.044L54.0221 107.443L55.4189 105.479L58.9565 102.37L61.7806 99.6432M85.1528 89.5808L79.1148 89.1575L77.4192 88.8468M85.1528 89.5808L89.9711 89.439L94.6206 88.9817L99.201 88.9672L103.474 89.5225L108.73 90.7701L111.507 92.5314L111.637 94.4906M85.1528 89.5808L82.3592 93.509L80.4866 95.7276L78.3762 98.0733L75.353 99.284L71.5471 101.319L69.4366 103.665M111.637 94.4906L110.746 97.4014L107.922 100.129L105.504 103.044L102.373 106.341L99.3114 109.196L97.3006 112.3L94.6453 115.343L93.1101 118.192L93.2014 121.795L94.3824 124.004L97.8426 124.183L100.697 122.657L104.503 120.622L107.258 118.337L110.696 114.47L116.067 110.786L120.825 108.243L125.107 105.953L129.388 103.664L133.67 101.374L139.241 99.2073L143.185 96.2868L145.909 92.8013M111.637 94.4906L109.604 93.5489L105.836 93.9401L102.783 93.9498L98.7777 94.4683L94.4352 94.3557L90.1923 95.0013L87.0308 97.0975L84.1763 98.6238L82.0659 100.969L80.1934 103.188L77.9142 105.218L75.4276 108.577L74.1995 110.856L71.5829 112.255L69.9566 111.502L69.727 108.784L69.597 106.825L69.4366 103.665M145.909 92.8013L140.178 91.8081M61.7806 99.6432L63.6531 97.4247L65.5561 96.4072L68.1727 95.0081L71.9786 92.9731L75.3088 91.1925L77.4192 88.8468M61.7806 99.6432L60.8899 102.554L60.0297 106.666L57.7809 109.897L56.5833 113.378L56.4062 115.907L58.2013 116.976L60.4417 116.589L62.0073 114.941L63.8107 113.165L64.9392 110.127L66.336 108.163L67.8711 105.313L69.4366 103.665" stroke="#8C775E"/>
</svg>
