<svg width="222" height="74" viewBox="0 0 222 74" fill="none" xmlns="http://www.w3.org/2000/svg">
<mask id="path-1-inside-1_57:57" fill="white">
<path d="M6.37007 33.6171L3.56968 36.7072L4.20605 34.5795L5.89966 31.9746L7.22549 30.4418L9.1347 28.4084L11.2618 26.5922L14.0253 24.8232L17.5048 22.8355L21.7314 21.2814L25.7297 20.0177L28.5059 19.5617L32.1745 18.9592L37.5956 18.6757L41.6677 19.1196L44.6929 19.5332L48.7051 20.4928L51.9598 21.5262L54.7188 22.641L57.638 24.1342L59.681 25.4678L62.681 27.6052L65.2405 30.0173L67.2443 33.0265L68.689 36.0769L69.141 38.38L69.0303 40.1685L68.5057 41.418L67.4935 42.5958L65.9186 43.2591L66.555 41.1314L66.4985 40.0279L66.4143 38.8278L65.6124 37.2696L64.422 36.2214L62.7929 35.4268L60.7234 34.9068L58.5721 35.0073L56.7574 35.5582L55.2209 36.6132L53.9028 38.1985L53.1817 39.8695L53.1535 41.6887L53.3252 43.1707L54.1472 45.2477L55.2126 46.8385L56.5916 48.0283L57.9428 49.1214L59.1891 50.0295L61.1433 50.8718L58.2472 50.1842L56.3564 49.382L54.4102 48.3865L52.7316 47.6001L50.7716 46.5563L48.4254 45.0702L46.2336 43.7611L44.3613 42.2983L42.6434 41.0124L40.3491 39.1637L39.0578 37.5549L38.0524 35.4945L37.4713 33.4656L38.1907 31.6277L39.5995 30.3847L41.4004 29.7854L43.4284 30.1605L45.0713 31.0034L46.1631 31.7345L46.9252 33.1267L46.9379 34.4397L46.358 35.496L44.9238 36.288L46.5102 36.0274L47.4787 35.059L48.2649 33.8171L48.1796 31.7068L47.2134 30.1457L45.68 28.779L44.2135 28.0083L42.6397 27.4069L39.9892 27.033L37.7087 27.4075L36.1154 28.7314L34.635 30.0873L33.1547 31.4433L31.2824 32.1554L29.2994 32.4811L27.7014 32.339L26.4251 31.6887L25.8037 30.4251L26.0089 29.3292L27.4431 28.5373L29.41 28.5177L28.3539 27.7301L27.1387 27.4745L25.3044 27.7758L24.1734 28.7203L22.7369 29.8667L21.6393 31.1091L19.8719 32.0064L18.4342 32.2425L16.5826 31.9397L15.3305 30.8302L15.1507 30.2022L15.8355 29.3311L16.9423 28.8458L15.1184 28.6396L13.4824 28.9083L11.6873 29.7089L9.07248 31.4535L6.37007 33.6171Z"/>
</mask>
<path d="M6.37007 33.6171L3.56968 36.7072L4.20605 34.5795L5.89966 31.9746L7.22549 30.4418L9.1347 28.4084L11.2618 26.5922L14.0253 24.8232L17.5048 22.8355L21.7314 21.2814L25.7297 20.0177L28.5059 19.5617L32.1745 18.9592L37.5956 18.6757L41.6677 19.1196L44.6929 19.5332L48.7051 20.4928L51.9598 21.5262L54.7188 22.641L57.638 24.1342L59.681 25.4678L62.681 27.6052L65.2405 30.0173L67.2443 33.0265L68.689 36.0769L69.141 38.38L69.0303 40.1685L68.5057 41.418L67.4935 42.5958L65.9186 43.2591L66.555 41.1314L66.4985 40.0279L66.4143 38.8278L65.6124 37.2696L64.422 36.2214L62.7929 35.4268L60.7234 34.9068L58.5721 35.0073L56.7574 35.5582L55.2209 36.6132L53.9028 38.1985L53.1817 39.8695L53.1535 41.6887L53.3252 43.1707L54.1472 45.2477L55.2126 46.8385L56.5916 48.0283L57.9428 49.1214L59.1891 50.0295L61.1433 50.8718L58.2472 50.1842L56.3564 49.382L54.4102 48.3865L52.7316 47.6001L50.7716 46.5563L48.4254 45.0702L46.2336 43.7611L44.3613 42.2983L42.6434 41.0124L40.3491 39.1637L39.0578 37.5549L38.0524 35.4945L37.4713 33.4656L38.1907 31.6277L39.5995 30.3847L41.4004 29.7854L43.4284 30.1605L45.0713 31.0034L46.1631 31.7345L46.9252 33.1267L46.9379 34.4397L46.358 35.496L44.9238 36.288L46.5102 36.0274L47.4787 35.059L48.2649 33.8171L48.1796 31.7068L47.2134 30.1457L45.68 28.779L44.2135 28.0083L42.6397 27.4069L39.9892 27.033L37.7087 27.4075L36.1154 28.7314L34.635 30.0873L33.1547 31.4433L31.2824 32.1554L29.2994 32.4811L27.7014 32.339L26.4251 31.6887L25.8037 30.4251L26.0089 29.3292L27.4431 28.5373L29.41 28.5177L28.3539 27.7301L27.1387 27.4745L25.3044 27.7758L24.1734 28.7203L22.7369 29.8667L21.6393 31.1091L19.8719 32.0064L18.4342 32.2425L16.5826 31.9397L15.3305 30.8302L15.1507 30.2022L15.8355 29.3311L16.9423 28.8458L15.1184 28.6396L13.4824 28.9083L11.6873 29.7089L9.07248 31.4535L6.37007 33.6171Z" fill="white" stroke="white" stroke-width="2" mask="url(#path-1-inside-1_57:57)"/>
<path d="M106.344 32.6855C105.924 33.0957 105.494 33.4863 105.054 33.8574C104.625 34.2285 104.195 34.5508 103.765 34.8242C103.336 35.0977 102.911 35.3027 102.491 35.4395C102.071 35.5859 101.666 35.6299 101.275 35.5713C100.875 35.5127 100.567 35.3467 100.352 35.0732C100.137 34.8096 99.9763 34.4678 99.8689 34.0479C99.7615 33.6182 99.6882 33.1299 99.6492 32.583C99.6101 32.0361 99.571 31.4502 99.532 30.8252C99.4832 30.2979 99.4148 29.4922 99.3269 28.4082C99.2878 27.9492 99.239 27.4072 99.1804 26.7822C99.1316 26.1475 99.073 25.4199 99.0046 24.5996C98.946 23.7695 98.8728 22.8418 98.7849 21.8164C98.697 20.7812 98.6042 19.624 98.5066 18.3447C98.0085 18.9697 97.4812 19.6387 96.9246 20.3516C96.3679 21.0547 95.8162 21.7871 95.2693 22.5488C94.7322 23.3105 94.2097 24.0918 93.7019 24.8926C93.2039 25.6934 92.7546 26.499 92.3542 27.3096C91.9636 28.1104 91.6365 28.9062 91.3728 29.6973C91.1091 30.4785 90.948 31.2354 90.8894 31.9678L87.6228 35.3662C87.6423 35.0244 87.6326 34.6875 87.5935 34.3555C87.5544 34.0137 87.5056 33.7109 87.447 33.4473C87.3787 33.1348 87.2957 32.8418 87.198 32.5684C86.7488 31.4258 86.2605 30.3027 85.7332 29.1992C85.2156 28.0957 84.6785 27.002 84.1218 25.918C83.5652 24.834 82.9988 23.7598 82.4226 22.6953C81.8562 21.6309 81.2996 20.5615 80.7527 19.4873C80.5281 20.4639 80.3279 21.3623 80.1521 22.1826C79.9763 22.9932 79.8201 23.7012 79.6833 24.3066C79.5271 25.0098 79.3904 25.6445 79.2732 26.2109C78.4724 29.9121 78.2234 31.9531 78.5261 32.334C78.6042 32.4219 78.7312 32.5 78.907 32.5684C79.0828 32.627 79.2976 32.6562 79.5515 32.6562C79.8542 32.6562 80.1863 32.5977 80.5476 32.4805C80.9187 32.3535 81.3142 32.1338 81.7341 31.8213C81.1091 32.4072 80.5378 32.9492 80.0203 33.4473C79.5027 33.9453 79.0193 34.3652 78.5701 34.707C78.1208 35.0488 77.7009 35.293 77.3103 35.4395C76.9294 35.5859 76.5583 35.6006 76.197 35.4834C75.9236 35.3857 75.7283 35.2148 75.6111 34.9707C75.4939 34.7266 75.4353 34.4043 75.4353 34.0039C75.4353 33.4473 75.5281 32.7539 75.7136 31.9238C75.9089 31.084 76.1189 30.1172 76.3435 29.0234C76.4802 28.418 76.6365 27.7148 76.8123 26.9141C76.988 26.1035 77.1736 25.2539 77.3689 24.3652C77.5642 23.4766 77.7595 22.5732 77.9548 21.6553C78.1501 20.7275 78.3357 19.8486 78.5115 19.0186C78.697 18.1885 78.8582 17.4316 78.9949 16.748C79.1414 16.0645 79.2585 15.5078 79.3464 15.0781C79.3855 14.9609 79.532 14.7656 79.7859 14.4922C79.8933 14.375 80.0251 14.2383 80.1814 14.082C80.3474 13.916 80.5427 13.7256 80.7673 13.5107C81.0017 13.2959 81.2703 13.0518 81.573 12.7783C81.8855 12.4951 82.2419 12.1826 82.6423 11.8408C82.5642 12.2021 82.5544 12.5879 82.613 12.998C82.6716 13.4082 82.7498 13.7891 82.8474 14.1406C82.9548 14.5508 83.0964 14.9561 83.2722 15.3564C83.4089 15.6689 83.6335 16.1377 83.946 16.7627C84.2683 17.3877 84.6345 18.1006 85.0447 18.9014C85.4646 19.6924 85.9138 20.542 86.3923 21.4502C86.8708 22.3486 87.3298 23.2373 87.7693 24.1162C88.2185 24.9951 88.6335 25.8301 89.0144 26.6211C89.3953 27.4121 89.698 28.0859 89.9226 28.6426C90.3523 27.8711 90.8259 27.1094 91.3435 26.3574C91.8708 25.6055 92.408 24.8535 92.9548 24.1016C93.5115 23.3496 94.0632 22.5977 94.6101 21.8457C95.1667 21.084 95.6892 20.3125 96.1775 19.5312C96.6755 18.75 97.1296 17.9492 97.5398 17.1289C97.95 16.3086 98.2917 15.4639 98.5652 14.5947C98.8191 14.292 99.1218 13.9697 99.4734 13.6279C99.7664 13.335 100.128 12.998 100.557 12.6172C100.987 12.2363 101.475 11.8262 102.022 11.3867C101.915 11.6895 101.842 12.0361 101.802 12.4268C101.763 12.8174 101.734 13.1885 101.715 13.54C101.695 13.9502 101.695 14.3652 101.715 14.7852C101.724 15.0586 101.749 15.4883 101.788 16.0742C101.837 16.6602 101.89 17.3438 101.949 18.125C102.008 18.8965 102.076 19.7412 102.154 20.6592C102.242 21.5771 102.325 22.5049 102.403 23.4424C102.491 24.3799 102.579 25.3027 102.667 26.2109C102.755 27.1094 102.838 27.9346 102.916 28.6865C102.994 29.4287 103.067 30.0684 103.135 30.6055C103.204 31.1426 103.262 31.5186 103.311 31.7334C103.36 31.9775 103.443 32.1875 103.56 32.3633C103.677 32.5293 103.814 32.666 103.97 32.7734C104.127 32.8711 104.293 32.9443 104.469 32.9932C104.654 33.0322 104.84 33.0518 105.025 33.0518C105.289 33.0518 105.533 33.0176 105.758 32.9492C105.992 32.8711 106.187 32.7832 106.344 32.6855ZM126.28 26.4746C126.28 27.2852 126.168 28.0225 125.943 28.6865C125.719 29.3506 125.45 29.9316 125.137 30.4297C124.825 30.9277 124.508 31.3428 124.185 31.6748C123.863 32.0068 123.604 32.2461 123.409 32.3926C122.843 32.8027 122.261 33.2031 121.666 33.5938C121.07 33.9844 120.455 34.3359 119.82 34.6484C119.195 34.9512 118.551 35.1953 117.886 35.3809C117.222 35.5664 116.539 35.6592 115.836 35.6592C114.791 35.6592 113.8 35.5273 112.862 35.2637C111.934 35 111.119 34.6045 110.416 34.0771C109.722 33.5498 109.171 32.8857 108.76 32.085C108.36 31.2842 108.16 30.3467 108.16 29.2725C108.16 28.3252 108.321 27.4365 108.643 26.6064C108.975 25.7666 109.415 24.9951 109.962 24.292C110.518 23.5889 111.168 22.959 111.91 22.4023C112.652 21.8359 113.438 21.3574 114.268 20.9668C115.098 20.5762 115.953 20.2783 116.832 20.0732C117.711 19.8682 118.56 19.7656 119.381 19.7656C120.396 19.7656 121.324 19.9365 122.164 20.2783C123.013 20.6104 123.741 21.0791 124.346 21.6846C124.962 22.2803 125.435 22.9883 125.767 23.8086C126.109 24.6289 126.28 25.5176 126.28 26.4746ZM116.173 21.4648C115.675 21.4648 115.22 21.5576 114.81 21.7432C114.4 21.9189 114.034 22.1631 113.712 22.4756C113.399 22.7783 113.126 23.1348 112.891 23.5449C112.667 23.9453 112.476 24.3701 112.32 24.8193C112.174 25.2588 112.061 25.708 111.983 26.167C111.915 26.6162 111.881 27.041 111.881 27.4414C111.881 28.3496 112.047 29.1992 112.379 29.9902C112.711 30.7715 113.165 31.4551 113.741 32.041C114.327 32.627 115.006 33.0859 115.777 33.418C116.558 33.75 117.388 33.916 118.267 33.916C118.814 33.916 119.342 33.8135 119.849 33.6084C120.367 33.3936 120.821 33.0615 121.212 32.6123C121.612 32.1533 121.929 31.5674 122.164 30.8545C122.408 30.1318 122.53 29.2627 122.53 28.2471C122.53 27.3584 122.364 26.5039 122.032 25.6836C121.7 24.8633 121.246 24.1406 120.67 23.5156C120.094 22.8906 119.42 22.3926 118.648 22.0215C117.877 21.6504 117.052 21.4648 116.173 21.4648ZM146.993 26.2695C146.993 27.1289 146.827 27.9443 146.495 28.7158C146.163 29.4873 145.719 30.2051 145.162 30.8691C144.605 31.5332 143.961 32.1387 143.228 32.6855C142.506 33.2324 141.744 33.7061 140.943 34.1064C140.152 34.5068 139.351 34.8242 138.541 35.0586C137.73 35.3027 136.969 35.4541 136.256 35.5127C135.943 35.5322 135.572 35.5273 135.142 35.498C134.713 35.4688 134.268 35.3906 133.809 35.2637C133.36 35.1465 132.911 34.9658 132.462 34.7217C132.022 34.4678 131.627 34.1309 131.275 33.7109C130.924 33.291 130.64 32.7734 130.426 32.1582C130.211 31.5332 130.103 30.791 130.103 29.9316C130.103 29.2871 130.108 28.5352 130.118 27.6758C130.137 26.8164 130.157 25.8984 130.177 24.9219C130.196 23.9355 130.216 22.9199 130.235 21.875C130.264 20.8203 130.294 19.7803 130.323 18.7549C130.352 17.7295 130.377 16.7432 130.396 15.7959C130.426 14.8389 130.445 13.9697 130.455 13.1885C130.474 12.4072 130.489 11.7334 130.499 11.167C130.509 10.6006 130.509 10.1953 130.499 9.95117C130.469 9.59961 130.367 9.30176 130.191 9.05762C130.045 8.85254 129.82 8.69141 129.517 8.57422C129.224 8.44727 128.809 8.45703 128.272 8.60352C128.643 8.4082 129.019 8.20801 129.4 8.00293C129.781 7.78809 130.167 7.59766 130.557 7.43164C130.948 7.25586 131.339 7.11426 131.729 7.00684C132.12 6.88965 132.515 6.83105 132.916 6.83105C133.121 6.83105 133.316 6.85059 133.502 6.88965C133.697 6.92871 133.863 7.00195 134 7.10938C134.146 7.20703 134.263 7.33887 134.351 7.50488C134.439 7.6709 134.483 7.87598 134.483 8.12012C134.483 8.2959 134.478 8.62793 134.469 9.11621C134.459 9.60449 134.444 10.21 134.425 10.9326C134.415 11.6553 134.395 12.4658 134.366 13.3643C134.346 14.2627 134.322 15.2051 134.293 16.1914C134.273 17.168 134.249 18.1689 134.219 19.1943C134.2 20.21 134.176 21.1963 134.146 22.1533C134.664 21.8018 135.186 21.4795 135.714 21.1865C136.241 20.8838 136.778 20.6299 137.325 20.4248C137.882 20.21 138.443 20.0439 139.01 19.9268C139.586 19.7998 140.177 19.7363 140.782 19.7363C141.759 19.7363 142.633 19.917 143.404 20.2783C144.176 20.6396 144.825 21.123 145.352 21.7285C145.889 22.334 146.295 23.0322 146.568 23.8232C146.851 24.6045 146.993 25.4199 146.993 26.2695ZM134.029 29.0967C134.029 29.585 134.176 30.1025 134.469 30.6494C134.771 31.1865 135.172 31.6846 135.67 32.1436C136.168 32.6025 136.739 32.9834 137.384 33.2861C138.028 33.5889 138.702 33.7402 139.405 33.7402C140.089 33.7402 140.665 33.5742 141.134 33.2422C141.612 32.9102 141.998 32.4902 142.291 31.9824C142.584 31.4648 142.794 30.8984 142.921 30.2832C143.057 29.668 143.126 29.082 143.126 28.5254C143.126 27.627 142.979 26.7773 142.686 25.9766C142.393 25.166 141.978 24.458 141.441 23.8525C140.914 23.2373 140.279 22.7539 139.537 22.4023C138.795 22.041 137.979 21.8604 137.091 21.8604C136.729 21.8604 136.407 21.8848 136.124 21.9336C135.841 21.9824 135.621 22.0459 135.465 22.124C135.318 22.2021 135.177 22.3486 135.04 22.5635C134.913 22.7783 134.791 23.0371 134.674 23.3398C134.556 23.6426 134.449 23.9795 134.351 24.3506C134.254 24.7217 134.166 25.1025 134.088 25.4932C134.068 26.3525 134.053 27.1045 134.044 27.749C134.034 28.3936 134.029 28.8428 134.029 29.0967ZM155.855 7.63672C155.855 7.91992 155.86 8.19336 155.87 8.45703C155.88 8.71094 155.885 8.95996 155.885 9.2041C155.885 9.78027 155.836 10.2734 155.738 10.6836C155.64 11.0938 155.411 11.4209 155.05 11.665C154.835 11.8213 154.566 12.002 154.244 12.207C153.707 12.5586 152.843 13.0957 151.651 13.8184C151.768 13.5059 151.851 13.1299 151.9 12.6904C151.959 12.2412 151.998 11.8164 152.017 11.416C152.037 10.9473 152.037 10.459 152.017 9.95117C152.633 9.62891 153.175 9.33105 153.643 9.05762C154.112 8.77441 154.512 8.52539 154.844 8.31055C155.235 8.06641 155.572 7.8418 155.855 7.63672ZM161.011 32.5977C159.898 33.3301 158.951 33.9062 158.17 34.3262C157.398 34.7461 156.734 35.0586 156.177 35.2637C155.621 35.4688 155.152 35.5859 154.771 35.6152C154.39 35.6445 154.044 35.6299 153.731 35.5713C153.448 35.5225 153.17 35.4492 152.896 35.3516C152.623 35.2539 152.374 35.0781 152.149 34.8242C151.934 34.5605 151.759 34.1846 151.622 33.6963C151.485 33.208 151.417 32.5439 151.417 31.7041C151.417 31.001 151.436 30.3076 151.475 29.624C151.514 28.9307 151.553 28.2471 151.593 27.5732C151.641 26.8896 151.676 26.2158 151.695 25.5518C151.724 24.8779 151.729 24.209 151.71 23.5449C151.69 22.9004 151.573 22.4316 151.358 22.1387C151.143 21.8359 150.821 21.6846 150.391 21.6846C150.225 21.6846 150.045 21.7041 149.849 21.7432C149.654 21.7822 149.444 21.8408 149.219 21.9189C149.571 21.6748 149.932 21.4307 150.303 21.1865C150.675 20.9326 151.051 20.708 151.431 20.5127C151.812 20.3174 152.193 20.1611 152.574 20.0439C152.965 19.917 153.35 19.8535 153.731 19.8535C154.141 19.8535 154.498 19.9463 154.801 20.1318C155.113 20.3174 155.313 20.625 155.401 21.0547C155.43 21.2207 155.45 21.4648 155.46 21.7871C155.479 22.1094 155.489 22.4854 155.489 22.915C155.489 23.5498 155.474 24.2529 155.445 25.0244C155.426 25.7959 155.401 26.5576 155.372 27.3096C155.343 28.0518 155.313 28.7402 155.284 29.375C155.255 30 155.235 30.4834 155.225 30.8252C155.216 31.1475 155.274 31.4697 155.401 31.792C155.528 32.1143 155.714 32.4072 155.958 32.6709C156.212 32.9248 156.519 33.1348 156.881 33.3008C157.252 33.457 157.672 33.5352 158.14 33.5352C158.551 33.5352 158.995 33.4619 159.473 33.3154C159.952 33.1689 160.465 32.9297 161.011 32.5977ZM171.851 32.3047C170.875 32.9785 170.054 33.5352 169.39 33.9746C168.726 34.4043 168.145 34.7461 167.647 35C167.159 35.2637 166.715 35.4443 166.314 35.542C165.924 35.6396 165.509 35.6885 165.069 35.6885C164.688 35.6885 164.317 35.5957 163.956 35.4102C163.604 35.2344 163.287 34.9072 163.004 34.4287C162.73 33.9404 162.51 33.2764 162.344 32.4365C162.178 31.5869 162.095 30.4932 162.095 29.1553C162.095 27.8369 162.11 26.4551 162.139 25.0098C162.169 23.5645 162.198 22.1143 162.227 20.6592C162.266 19.2041 162.301 17.7783 162.33 16.3818C162.359 14.9854 162.374 13.6816 162.374 12.4707C162.374 11.2793 162.193 10.3516 161.832 9.6875C161.47 9.02344 160.919 8.69141 160.177 8.69141C159.952 8.69141 159.703 8.72559 159.429 8.79395C159.156 8.85254 158.868 8.95996 158.565 9.11621C158.946 8.84277 159.346 8.56445 159.766 8.28125C160.186 7.98828 160.611 7.72461 161.041 7.49023C161.48 7.25586 161.92 7.06543 162.359 6.91895C162.808 6.7627 163.253 6.68457 163.692 6.68457C164.249 6.68457 164.683 6.82617 164.996 7.10938C165.318 7.38281 165.552 7.72461 165.699 8.13477C165.855 8.54492 165.948 8.99414 165.977 9.48242C166.016 9.96094 166.036 10.4053 166.036 10.8154C166.026 11.4404 166.011 12.1924 165.992 13.0713C165.982 13.9502 165.968 14.8975 165.948 15.9131C165.928 16.9189 165.909 17.9639 165.889 19.0479C165.87 20.1318 165.85 21.1963 165.831 22.2412C165.811 23.2764 165.792 24.2627 165.772 25.2002C165.762 26.1377 165.748 26.9629 165.728 27.6758C165.709 28.6328 165.777 29.4629 165.933 30.166C166.09 30.8594 166.314 31.4307 166.607 31.8799C166.9 32.3291 167.252 32.6611 167.662 32.876C168.072 33.0908 168.526 33.1982 169.024 33.1982C169.923 33.1982 170.865 32.9004 171.851 32.3047ZM190.645 21.0254C189.522 21.5723 188.477 22.0605 187.51 22.4902C186.553 22.9102 185.709 23.2666 184.976 23.5596C184.127 23.9014 183.345 24.2041 182.633 24.4678C182.193 24.6533 181.705 24.8438 181.168 25.0391C180.64 25.2246 180.089 25.4102 179.512 25.5957C178.936 25.7715 178.345 25.9521 177.74 26.1377C177.144 26.3135 176.553 26.4893 175.968 26.665V26.958C175.968 27.9639 176.124 28.8672 176.436 29.668C176.759 30.4688 177.203 31.1523 177.769 31.7188C178.336 32.2754 179.014 32.7051 179.805 33.0078C180.596 33.3008 181.47 33.4473 182.427 33.4473C182.926 33.4473 183.419 33.4082 183.907 33.3301C184.405 33.252 184.874 33.1494 185.313 33.0225C185.762 32.8857 186.182 32.7246 186.573 32.5391C186.964 32.3535 187.31 32.1533 187.613 31.9385C186.871 32.6025 186.104 33.1592 185.313 33.6084C184.532 34.0576 183.746 34.4238 182.955 34.707C182.174 34.9805 181.397 35.1807 180.626 35.3076C179.864 35.4346 179.132 35.5029 178.428 35.5127C177.716 35.5322 177.012 35.4199 176.319 35.1758C175.635 34.9414 175.01 34.5801 174.444 34.0918C173.878 33.6035 173.399 32.998 173.009 32.2754C172.618 31.543 172.364 30.6934 172.247 29.7266C172.198 29.3848 172.174 29.0576 172.174 28.7451C172.183 28.4229 172.218 28.1055 172.276 27.793C171.934 27.9199 171.622 28.0371 171.339 28.1445C171.065 28.252 170.841 28.3594 170.665 28.4668C170.948 28.2715 171.231 28.0908 171.514 27.9248C171.798 27.749 172.076 27.5879 172.349 27.4414C172.515 26.6797 172.799 25.9521 173.199 25.2588C173.609 24.5654 174.097 23.9209 174.664 23.3252C175.24 22.7295 175.88 22.1924 176.583 21.7139C177.286 21.2256 178.013 20.8105 178.765 20.4688C179.527 20.127 180.299 19.8633 181.08 19.6777C181.861 19.4922 182.618 19.3994 183.35 19.3994C183.839 19.3994 184.249 19.4727 184.581 19.6191C184.923 19.7656 185.152 20.0244 185.269 20.3955C185.328 20.7861 185.186 21.2061 184.844 21.6553C184.698 21.8506 184.498 22.0605 184.244 22.2852C184 22.5 183.677 22.7295 183.277 22.9736C182.886 23.2178 182.413 23.4717 181.856 23.7354C181.309 23.999 180.66 24.2627 179.908 24.5264L190.645 21.0254ZM179.029 24.585C179.449 24.3994 179.825 24.1992 180.157 23.9844C180.499 23.7695 180.762 23.5449 180.948 23.3105C181.143 23.0762 181.246 22.832 181.256 22.5781C181.265 22.3242 181.163 22.0557 180.948 21.7725C180.802 21.5576 180.596 21.4111 180.333 21.333C180.079 21.2451 179.815 21.2012 179.542 21.2012C179.288 21.2012 179.044 21.2305 178.809 21.2891C178.575 21.3379 178.37 21.4062 178.194 21.4941C178.077 21.5625 177.916 21.7139 177.711 21.9482C177.506 22.1729 177.296 22.4707 177.081 22.8418C176.866 23.2031 176.661 23.6279 176.466 24.1162C176.28 24.5947 176.143 25.1221 176.055 25.6982C176.671 25.4736 177.227 25.2734 177.725 25.0977C178.223 24.9219 178.658 24.751 179.029 24.585Z" fill="white"/>
<path d="M92.0317 49.6143C92.0024 50.1904 91.9634 50.8984 91.9146 51.7383C91.8657 52.4609 91.8071 53.3691 91.7388 54.4629C91.6802 55.5469 91.5972 56.8311 91.4897 58.3154L87.7397 60.8057C87.8472 60.1611 87.9351 59.4775 88.0034 58.7549C88.0815 58.0225 88.145 57.2852 88.1938 56.543C88.2427 55.8008 88.2769 55.0684 88.2964 54.3457C88.3257 53.6133 88.3403 52.9297 88.3403 52.2949C88.3403 51.6895 88.311 51.0889 88.2524 50.4932C88.2036 49.8975 88.0718 49.3652 87.8569 48.8965C87.6519 48.4277 87.3394 48.0469 86.9194 47.7539C86.5093 47.4609 85.9429 47.3145 85.2202 47.3145C84.5757 47.3145 84.0239 47.4951 83.5649 47.8564C83.1157 48.2178 82.73 48.8281 82.4077 49.6875C82.0854 50.5469 81.8169 51.6846 81.6021 53.1006C81.397 54.5068 81.2212 56.2646 81.0747 58.374L77.5737 60.8936C77.6616 59.0088 77.73 57.4023 77.7788 56.0742C77.8276 54.7461 77.8618 53.6523 77.8813 52.793C77.9106 51.7871 77.9253 50.957 77.9253 50.3027C77.9741 49.1211 77.813 48.1982 77.4419 47.5342C77.0708 46.8604 76.5044 46.5234 75.7427 46.5234C75.4985 46.5234 75.2397 46.5625 74.9663 46.6406C74.7026 46.709 74.4194 46.8115 74.1167 46.9482C74.4976 46.6748 74.8979 46.3965 75.3179 46.1133C75.7378 45.8203 76.1675 45.5566 76.6069 45.3223C77.0464 45.0879 77.4858 44.8975 77.9253 44.751C78.3745 44.5947 78.814 44.5166 79.2437 44.5166C79.6538 44.5166 80.0249 44.5996 80.3569 44.7656C80.6987 44.9316 80.9575 45.21 81.1333 45.6006C81.2896 45.9424 81.4019 46.3379 81.4702 46.7871C81.5483 47.2266 81.5972 47.71 81.6167 48.2373C82.0366 47.7393 82.5103 47.2607 83.0376 46.8018C83.5747 46.333 84.1265 45.9277 84.6929 45.5859C85.269 45.2344 85.8452 44.9658 86.4214 44.7803C86.9976 44.585 87.5347 44.5166 88.0327 44.5752C88.3843 44.624 88.7505 44.7119 89.1313 44.8389C89.522 44.9658 89.8882 45.1514 90.23 45.3955C90.5815 45.6396 90.8989 45.9521 91.1821 46.333C91.4653 46.7041 91.6802 47.168 91.8267 47.7246C92.2466 47.2754 92.7104 46.8506 93.2183 46.4502C93.7261 46.04 94.2437 45.6885 94.771 45.3955C95.2983 45.1025 95.8208 44.8828 96.3384 44.7363C96.856 44.5801 97.3394 44.5264 97.7886 44.5752C98.228 44.6338 98.6821 44.7559 99.1509 44.9414C99.6294 45.1172 100.064 45.4004 100.455 45.791C100.845 46.1719 101.163 46.6748 101.407 47.2998C101.661 47.915 101.773 48.6865 101.744 49.6143C101.714 50.7178 101.661 51.7334 101.583 52.6611C101.514 53.5889 101.48 54.4043 101.48 55.1074C101.48 55.5273 101.514 55.9229 101.583 56.2939C101.661 56.665 101.788 56.9873 101.963 57.2607C102.139 57.5342 102.374 57.749 102.667 57.9053C102.959 58.0615 103.326 58.1396 103.765 58.1396C104.156 58.1396 104.566 58.0664 104.996 57.9199C105.435 57.7637 105.875 57.5293 106.314 57.2168C105.591 57.8516 104.932 58.3838 104.336 58.8135C103.75 59.2432 103.204 59.5898 102.696 59.8535C102.188 60.1172 101.714 60.3027 101.275 60.4102C100.845 60.5273 100.425 60.5811 100.015 60.5713C99.605 60.5615 99.2534 60.4785 98.9604 60.3223C98.6675 60.1758 98.4331 59.9463 98.2573 59.6338C98.0815 59.3115 97.9595 58.9014 97.8911 58.4033C97.8228 57.8955 97.7983 57.2754 97.8179 56.543C97.8472 55.8984 97.8813 55.1904 97.9204 54.4189C97.9692 53.6377 97.9937 52.8662 97.9937 52.1045C97.9937 51.4795 97.9644 50.8789 97.9058 50.3027C97.8569 49.7168 97.73 49.2041 97.5249 48.7646C97.3198 48.3252 97.0171 47.9736 96.6167 47.71C96.2163 47.4463 95.6694 47.3145 94.9761 47.3145C94.5952 47.3145 94.2534 47.3682 93.9507 47.4756C93.6479 47.583 93.3745 47.7393 93.1304 47.9443C92.896 48.1396 92.686 48.374 92.5005 48.6475C92.3247 48.9111 92.1685 49.2041 92.0317 49.5264V49.6143ZM127.334 57.7441C126.924 58.1543 126.48 58.5303 126.001 58.8721C125.533 59.2041 125.059 59.4922 124.581 59.7363C124.102 59.9805 123.638 60.1758 123.189 60.3223C122.74 60.4688 122.33 60.5518 121.958 60.5713C121.753 60.5908 121.49 60.5859 121.167 60.5566C120.845 60.5371 120.533 60.4541 120.23 60.3076C119.937 60.1611 119.683 59.9316 119.468 59.6191C119.253 59.3066 119.146 58.8623 119.146 58.2861V56.543C118.609 57.0703 118.042 57.5781 117.447 58.0664C116.851 58.5449 116.236 58.9746 115.601 59.3555C114.976 59.7266 114.341 60.0195 113.697 60.2344C113.052 60.459 112.417 60.5713 111.792 60.5713C110.992 60.5713 110.289 60.3906 109.683 60.0293C109.078 59.6777 108.57 59.2188 108.16 58.6523C107.75 58.0859 107.442 57.4512 107.237 56.748C107.032 56.0449 106.929 55.3467 106.929 54.6533C106.929 54.1357 106.968 53.6279 107.046 53.1299C107.125 52.6221 107.222 52.1436 107.339 51.6943C107.466 51.2451 107.608 50.8398 107.764 50.4785C107.93 50.1172 108.101 49.8193 108.277 49.585C108.599 49.1455 109.009 48.7207 109.507 48.3105C110.005 47.9004 110.547 47.5146 111.133 47.1533C111.729 46.792 112.359 46.4648 113.023 46.1719C113.687 45.8789 114.346 45.625 115 45.4102C115.665 45.1953 116.309 45.0293 116.934 44.9121C117.559 44.7949 118.135 44.7363 118.663 44.7363C119.209 44.7363 119.854 44.7656 120.596 44.8242C121.338 44.873 122.183 44.9805 123.13 45.1465C123.091 46.2695 123.057 47.2607 123.028 48.1201C122.999 48.9795 122.974 49.751 122.955 50.4346C122.935 51.1084 122.92 51.7236 122.911 52.2803C122.901 52.8369 122.896 53.3789 122.896 53.9062C122.896 54.4434 122.886 54.9707 122.867 55.4883C122.847 56.0059 122.886 56.4697 122.984 56.8799C123.082 57.29 123.272 57.6221 123.555 57.876C123.848 58.1299 124.297 58.2568 124.903 58.2568C125.264 58.2568 125.65 58.2129 126.06 58.125C126.47 58.0273 126.895 57.9004 127.334 57.7441ZM119.175 47.2559C118.589 47.0996 117.964 46.9922 117.3 46.9336C116.636 46.8652 116.001 46.8311 115.396 46.8311C115.064 46.8311 114.747 46.8408 114.444 46.8604C114.151 46.8799 113.882 46.9043 113.638 46.9336C113.394 46.9629 113.179 47.002 112.994 47.0508C112.808 47.0898 112.667 47.1387 112.569 47.1973C112.393 47.2852 112.188 47.5 111.954 47.8418C111.719 48.1738 111.495 48.5889 111.28 49.0869C111.065 49.585 110.879 50.1465 110.723 50.7715C110.577 51.3965 110.503 52.041 110.503 52.7051C110.503 53.3398 110.596 53.9795 110.782 54.624C110.967 55.2588 111.236 55.8301 111.587 56.3379C111.949 56.8457 112.388 57.2607 112.906 57.583C113.433 57.8955 114.034 58.0518 114.708 58.0518C115.342 58.0518 115.904 57.9492 116.392 57.7441C116.88 57.5391 117.305 57.2607 117.667 56.9092C118.028 56.5479 118.326 56.1279 118.56 55.6494C118.804 55.1709 119 54.6533 119.146 54.0967C119.146 53.6865 119.146 53.252 119.146 52.793C119.146 52.3242 119.146 51.8115 119.146 51.2549C119.146 50.6982 119.146 50.0928 119.146 49.4385C119.156 48.7744 119.166 48.0469 119.175 47.2559ZM141.587 54.0967C141.587 54.7705 141.407 55.4004 141.045 55.9863C140.694 56.5625 140.23 57.0947 139.654 57.583C139.078 58.0713 138.423 58.501 137.691 58.8721C136.968 59.2432 136.231 59.5557 135.479 59.8096C134.727 60.0635 134 60.249 133.296 60.3662C132.593 60.4834 131.978 60.5225 131.451 60.4834C130.992 60.4639 130.508 60.3906 130 60.2637C129.502 60.1465 129.058 60 128.667 59.8242C128.287 59.6484 127.999 59.458 127.803 59.2529C127.618 59.0479 127.613 58.8477 127.789 58.6523C127.964 58.4668 128.155 58.2812 128.36 58.0957C128.565 57.9102 128.809 57.7197 129.092 57.5244C129.375 57.3193 129.712 57.1045 130.103 56.8799C130.494 56.6553 130.962 56.4062 131.509 56.1328C131.333 56.4062 131.29 56.6455 131.377 56.8506C131.465 57.0557 131.626 57.2412 131.861 57.4072C132.105 57.5635 132.398 57.6953 132.74 57.8027C133.091 57.9102 133.433 57.998 133.765 58.0664C134.107 58.1348 134.415 58.1836 134.688 58.2129C134.971 58.2422 135.171 58.2568 135.289 58.2568C135.64 58.2568 135.987 58.2422 136.329 58.2129C136.68 58.1738 136.993 58.0957 137.266 57.9785C137.54 57.8613 137.759 57.6904 137.925 57.4658C138.101 57.2314 138.189 56.9141 138.189 56.5137C138.189 56.0254 138.052 55.6104 137.779 55.2686C137.515 54.9268 137.164 54.6436 136.724 54.4189C136.294 54.1846 135.811 53.999 135.274 53.8623C134.737 53.7256 134.2 53.6133 133.663 53.5254C133.135 53.4277 132.632 53.3496 132.154 53.291C131.685 53.2227 131.299 53.1494 130.997 53.0713C130.508 52.9443 130.098 52.7783 129.766 52.5732C129.444 52.3584 129.18 52.124 128.975 51.8701C128.78 51.6064 128.638 51.3281 128.55 51.0352C128.462 50.7422 128.418 50.4492 128.418 50.1562C128.418 49.502 128.594 48.8965 128.946 48.3398C129.297 47.7832 129.756 47.2803 130.323 46.8311C130.889 46.3818 131.529 45.9863 132.242 45.6445C132.964 45.3027 133.692 45.0146 134.424 44.7803C135.167 44.5459 135.884 44.3701 136.578 44.2529C137.271 44.1357 137.872 44.0771 138.379 44.0771C138.965 44.0771 139.483 44.1113 139.932 44.1797C140.391 44.2383 140.762 44.3115 141.045 44.3994C141.319 44.4873 141.49 44.5996 141.558 44.7363C141.636 44.873 141.636 45.0293 141.558 45.2051C141.49 45.3809 141.353 45.5713 141.148 45.7764C140.943 45.9814 140.699 46.1914 140.416 46.4062C140.191 46.582 139.952 46.748 139.698 46.9043C139.473 47.041 139.224 47.1826 138.951 47.3291C138.677 47.4658 138.394 47.5879 138.101 47.6953C138.248 47.5098 138.306 47.3438 138.277 47.1973C138.257 47.0508 138.169 46.9189 138.013 46.8018C137.857 46.6846 137.647 46.5869 137.383 46.5088C137.12 46.4209 136.827 46.3525 136.504 46.3037C136.182 46.2451 135.84 46.2061 135.479 46.1865C135.127 46.1572 134.781 46.1426 134.439 46.1426C134.107 46.1426 133.775 46.1572 133.443 46.1865C133.111 46.2061 132.813 46.2695 132.549 46.377C132.286 46.4746 132.071 46.6309 131.905 46.8457C131.739 47.0605 131.656 47.3535 131.656 47.7246C131.656 48.0273 131.724 48.3447 131.861 48.6768C131.998 48.999 132.198 49.3066 132.461 49.5996C132.735 49.8828 133.072 50.1367 133.472 50.3613C133.873 50.5859 134.336 50.7471 134.864 50.8447C135.274 50.9229 135.728 50.9814 136.226 51.0205C136.724 51.0596 137.222 51.1084 137.72 51.167C138.218 51.2256 138.697 51.3086 139.156 51.416C139.625 51.5234 140.04 51.6846 140.401 51.8994C140.762 52.1143 141.05 52.3975 141.265 52.749C141.48 53.1006 141.587 53.5498 141.587 54.0967ZM157.789 54.0967C157.789 54.7705 157.608 55.4004 157.247 55.9863C156.895 56.5625 156.431 57.0947 155.855 57.583C155.279 58.0713 154.625 58.501 153.892 58.8721C153.169 59.2432 152.432 59.5557 151.68 59.8096C150.928 60.0635 150.201 60.249 149.498 60.3662C148.794 60.4834 148.179 60.5225 147.652 60.4834C147.193 60.4639 146.709 60.3906 146.202 60.2637C145.704 60.1465 145.259 60 144.869 59.8242C144.488 59.6484 144.2 59.458 144.004 59.2529C143.819 59.0479 143.814 58.8477 143.99 58.6523C144.166 58.4668 144.356 58.2812 144.561 58.0957C144.766 57.9102 145.01 57.7197 145.293 57.5244C145.577 57.3193 145.914 57.1045 146.304 56.8799C146.695 56.6553 147.164 56.4062 147.71 56.1328C147.535 56.4062 147.491 56.6455 147.579 56.8506C147.667 57.0557 147.828 57.2412 148.062 57.4072C148.306 57.5635 148.599 57.6953 148.941 57.8027C149.292 57.9102 149.634 57.998 149.966 58.0664C150.308 58.1348 150.616 58.1836 150.889 58.2129C151.172 58.2422 151.373 58.2568 151.49 58.2568C151.841 58.2568 152.188 58.2422 152.53 58.2129C152.881 58.1738 153.194 58.0957 153.467 57.9785C153.741 57.8613 153.96 57.6904 154.126 57.4658C154.302 57.2314 154.39 56.9141 154.39 56.5137C154.39 56.0254 154.253 55.6104 153.98 55.2686C153.716 54.9268 153.365 54.6436 152.925 54.4189C152.496 54.1846 152.012 53.999 151.475 53.8623C150.938 53.7256 150.401 53.6133 149.864 53.5254C149.336 53.4277 148.833 53.3496 148.355 53.291C147.886 53.2227 147.5 53.1494 147.198 53.0713C146.709 52.9443 146.299 52.7783 145.967 52.5732C145.645 52.3584 145.381 52.124 145.176 51.8701C144.981 51.6064 144.839 51.3281 144.751 51.0352C144.664 50.7422 144.62 50.4492 144.62 50.1562C144.62 49.502 144.795 48.8965 145.147 48.3398C145.499 47.7832 145.958 47.2803 146.524 46.8311C147.09 46.3818 147.73 45.9863 148.443 45.6445C149.166 45.3027 149.893 45.0146 150.625 44.7803C151.368 44.5459 152.085 44.3701 152.779 44.2529C153.472 44.1357 154.073 44.0771 154.581 44.0771C155.167 44.0771 155.684 44.1113 156.133 44.1797C156.592 44.2383 156.963 44.3115 157.247 44.3994C157.52 44.4873 157.691 44.5996 157.759 44.7363C157.837 44.873 157.837 45.0293 157.759 45.2051C157.691 45.3809 157.554 45.5713 157.349 45.7764C157.144 45.9814 156.9 46.1914 156.617 46.4062C156.392 46.582 156.153 46.748 155.899 46.9043C155.674 47.041 155.425 47.1826 155.152 47.3291C154.878 47.4658 154.595 47.5879 154.302 47.6953C154.449 47.5098 154.507 47.3438 154.478 47.1973C154.458 47.0508 154.371 46.9189 154.214 46.8018C154.058 46.6846 153.848 46.5869 153.584 46.5088C153.321 46.4209 153.028 46.3525 152.706 46.3037C152.383 46.2451 152.042 46.2061 151.68 46.1865C151.329 46.1572 150.982 46.1426 150.64 46.1426C150.308 46.1426 149.976 46.1572 149.644 46.1865C149.312 46.2061 149.014 46.2695 148.75 46.377C148.487 46.4746 148.272 46.6309 148.106 46.8457C147.94 47.0605 147.857 47.3535 147.857 47.7246C147.857 48.0273 147.925 48.3447 148.062 48.6768C148.199 48.999 148.399 49.3066 148.663 49.5996C148.936 49.8828 149.273 50.1367 149.673 50.3613C150.074 50.5859 150.538 50.7471 151.065 50.8447C151.475 50.9229 151.929 50.9814 152.427 51.0205C152.925 51.0596 153.423 51.1084 153.921 51.167C154.419 51.2256 154.898 51.3086 155.357 51.416C155.826 51.5234 156.241 51.6846 156.602 51.8994C156.963 52.1143 157.251 52.3975 157.466 52.749C157.681 53.1006 157.789 53.5498 157.789 54.0967ZM181.006 57.7441C180.596 58.1543 180.152 58.5303 179.673 58.8721C179.205 59.2041 178.731 59.4922 178.252 59.7363C177.774 59.9805 177.31 60.1758 176.861 60.3223C176.412 60.4688 176.001 60.5518 175.63 60.5713C175.425 60.5908 175.162 60.5859 174.839 60.5566C174.517 60.5371 174.205 60.4541 173.902 60.3076C173.609 60.1611 173.355 59.9316 173.14 59.6191C172.925 59.3066 172.818 58.8623 172.818 58.2861V56.543C172.281 57.0703 171.714 57.5781 171.119 58.0664C170.523 58.5449 169.908 58.9746 169.273 59.3555C168.648 59.7266 168.013 60.0195 167.369 60.2344C166.724 60.459 166.089 60.5713 165.464 60.5713C164.664 60.5713 163.96 60.3906 163.355 60.0293C162.75 59.6777 162.242 59.2188 161.832 58.6523C161.421 58.0859 161.114 57.4512 160.909 56.748C160.704 56.0449 160.601 55.3467 160.601 54.6533C160.601 54.1357 160.64 53.6279 160.718 53.1299C160.796 52.6221 160.894 52.1436 161.011 51.6943C161.138 51.2451 161.28 50.8398 161.436 50.4785C161.602 50.1172 161.773 49.8193 161.949 49.585C162.271 49.1455 162.681 48.7207 163.179 48.3105C163.677 47.9004 164.219 47.5146 164.805 47.1533C165.401 46.792 166.031 46.4648 166.695 46.1719C167.359 45.8789 168.018 45.625 168.672 45.4102C169.336 45.1953 169.981 45.0293 170.606 44.9121C171.231 44.7949 171.807 44.7363 172.334 44.7363C172.881 44.7363 173.526 44.7656 174.268 44.8242C175.01 44.873 175.855 44.9805 176.802 45.1465C176.763 46.2695 176.729 47.2607 176.7 48.1201C176.67 48.9795 176.646 49.751 176.626 50.4346C176.607 51.1084 176.592 51.7236 176.583 52.2803C176.573 52.8369 176.568 53.3789 176.568 53.9062C176.568 54.4434 176.558 54.9707 176.539 55.4883C176.519 56.0059 176.558 56.4697 176.656 56.8799C176.753 57.29 176.944 57.6221 177.227 57.876C177.52 58.1299 177.969 58.2568 178.575 58.2568C178.936 58.2568 179.322 58.2129 179.732 58.125C180.142 58.0273 180.567 57.9004 181.006 57.7441ZM172.847 47.2559C172.261 47.0996 171.636 46.9922 170.972 46.9336C170.308 46.8652 169.673 46.8311 169.068 46.8311C168.736 46.8311 168.418 46.8408 168.116 46.8604C167.823 46.8799 167.554 46.9043 167.31 46.9336C167.066 46.9629 166.851 47.002 166.666 47.0508C166.48 47.0898 166.338 47.1387 166.241 47.1973C166.065 47.2852 165.86 47.5 165.625 47.8418C165.391 48.1738 165.167 48.5889 164.952 49.0869C164.737 49.585 164.551 50.1465 164.395 50.7715C164.249 51.3965 164.175 52.041 164.175 52.7051C164.175 53.3398 164.268 53.9795 164.454 54.624C164.639 55.2588 164.908 55.8301 165.259 56.3379C165.621 56.8457 166.06 57.2607 166.578 57.583C167.105 57.8955 167.706 58.0518 168.379 58.0518C169.014 58.0518 169.576 57.9492 170.064 57.7441C170.552 57.5391 170.977 57.2607 171.338 56.9092C171.7 56.5479 171.998 56.1279 172.232 55.6494C172.476 55.1709 172.671 54.6533 172.818 54.0967C172.818 53.6865 172.818 53.252 172.818 52.793C172.818 52.3242 172.818 51.8115 172.818 51.2549C172.818 50.6982 172.818 50.0928 172.818 49.4385C172.828 48.7744 172.837 48.0469 172.847 47.2559ZM198.013 45.2637C197.984 46.5137 197.959 47.6367 197.94 48.6328C197.92 49.6191 197.901 50.5029 197.881 51.2842C197.872 52.0654 197.862 52.749 197.852 53.335C197.842 53.9111 197.837 54.4092 197.837 54.8291C197.828 55.8057 197.828 56.499 197.837 56.9092C197.818 57.9932 197.803 58.9453 197.793 59.7656C197.784 60.5859 197.73 61.3184 197.632 61.9629C197.544 62.6074 197.388 63.1738 197.164 63.6621C196.949 64.1602 196.622 64.6191 196.182 65.0391C195.42 65.7715 194.625 66.499 193.794 67.2217C192.974 67.9541 192.12 68.6084 191.231 69.1846C190.352 69.7705 189.434 70.2393 188.477 70.5908C187.52 70.9521 186.529 71.1328 185.503 71.1328C184.888 71.1328 184.239 71.04 183.555 70.8545C182.872 70.6787 182.237 70.415 181.651 70.0635C181.075 69.7119 180.601 69.2725 180.23 68.7451C179.849 68.2178 179.659 67.6025 179.659 66.8994C179.659 66.3428 179.825 65.8008 180.157 65.2734C180.479 64.7559 180.962 64.2773 181.607 63.8379C181.978 63.5742 182.398 63.2764 182.867 62.9443C183.277 62.6611 183.765 62.3242 184.332 61.9336C184.908 61.543 185.557 61.1084 186.28 60.6299C185.538 60.5713 184.888 60.3564 184.332 59.9854C183.775 59.6143 183.306 59.1504 182.925 58.5938C182.554 58.0371 182.276 57.4268 182.09 56.7627C181.905 56.0889 181.812 55.4199 181.812 54.7559C181.812 54.2383 181.851 53.7256 181.929 53.2178C182.007 52.71 182.105 52.2363 182.222 51.7969C182.349 51.3477 182.491 50.9424 182.647 50.5811C182.813 50.21 182.984 49.9072 183.16 49.6729C183.501 49.2041 183.921 48.7598 184.419 48.3398C184.927 47.9102 185.479 47.5195 186.075 47.168C186.67 46.8066 187.295 46.4844 187.95 46.2012C188.604 45.918 189.253 45.6787 189.898 45.4834C190.542 45.2783 191.167 45.1221 191.773 45.0146C192.378 44.9072 192.93 44.8535 193.428 44.8535C193.975 44.8535 194.629 44.8828 195.391 44.9414C196.163 44.9902 197.037 45.0977 198.013 45.2637ZM194.058 47.3145C193.472 47.1777 192.847 47.0801 192.183 47.0215C191.519 46.9531 190.884 46.9189 190.279 46.9189C189.458 46.9189 188.741 47.002 188.125 47.168C187.52 47.334 187.012 47.6367 186.602 48.0762C186.202 48.5156 185.899 49.1162 185.694 49.8779C185.489 50.6396 185.386 51.6113 185.386 52.793C185.386 53.4375 185.479 54.0771 185.665 54.7119C185.85 55.3467 186.119 55.918 186.47 56.4258C186.832 56.9336 187.271 57.3486 187.789 57.6709C188.316 57.9834 188.917 58.1396 189.59 58.1396C190.245 58.1396 190.816 58.0371 191.304 57.832C191.802 57.627 192.227 57.3486 192.579 56.9971C192.93 56.6455 193.218 56.2354 193.443 55.7666C193.677 55.2979 193.863 54.7998 194 54.2725C194 53.4424 194.004 52.4658 194.014 51.3428C194.024 50.21 194.039 48.8672 194.058 47.3145ZM183.76 63.4131C183.243 63.9209 182.984 64.4531 182.984 65.0098C182.984 65.4395 183.096 65.8203 183.321 66.1523C183.555 66.4844 183.853 66.7773 184.214 67.0312C184.585 67.2852 185 67.4951 185.459 67.6611C185.918 67.8369 186.377 67.9785 186.836 68.0859C187.305 68.1934 187.75 68.2715 188.169 68.3203C188.589 68.3691 188.941 68.3936 189.224 68.3936C189.869 68.3936 190.464 68.335 191.011 68.2178C191.558 68.1006 191.983 67.9297 192.286 67.7051C192.618 67.4512 192.891 66.9824 193.106 66.2988C193.321 65.625 193.492 64.7949 193.619 63.8086C193.746 62.832 193.833 61.7334 193.882 60.5127C193.941 59.292 193.98 58.0127 194 56.6748C193.501 57.1631 192.979 57.6318 192.432 58.0811C191.895 58.5303 191.338 58.9355 190.762 59.2969C190.186 59.6484 189.6 59.9414 189.004 60.1758C188.409 60.4102 187.813 60.5615 187.217 60.6299C186.631 61.0693 186.119 61.4551 185.679 61.7871C185.25 62.1289 184.893 62.4219 184.61 62.666C184.278 62.9492 183.995 63.1982 183.76 63.4131ZM221.084 46.0254C219.961 46.5723 218.917 47.0605 217.95 47.4902C216.993 47.9102 216.148 48.2666 215.416 48.5596C214.566 48.9014 213.785 49.2041 213.072 49.4678C212.632 49.6533 212.144 49.8438 211.607 50.0391C211.08 50.2246 210.528 50.4102 209.952 50.5957C209.375 50.7715 208.785 50.9521 208.179 51.1377C207.583 51.3135 206.993 51.4893 206.407 51.665V51.958C206.407 52.9639 206.563 53.8672 206.875 54.668C207.198 55.4688 207.642 56.1523 208.208 56.7188C208.775 57.2754 209.454 57.7051 210.245 58.0078C211.036 58.3008 211.91 58.4473 212.867 58.4473C213.365 58.4473 213.858 58.4082 214.346 58.3301C214.844 58.252 215.313 58.1494 215.752 58.0225C216.202 57.8857 216.622 57.7246 217.012 57.5391C217.403 57.3535 217.75 57.1533 218.052 56.9385C217.31 57.6025 216.543 58.1592 215.752 58.6084C214.971 59.0576 214.185 59.4238 213.394 59.707C212.613 59.9805 211.836 60.1807 211.065 60.3076C210.303 60.4346 209.571 60.5029 208.868 60.5127C208.155 60.5322 207.452 60.4199 206.758 60.1758C206.075 59.9414 205.45 59.5801 204.883 59.0918C204.317 58.6035 203.838 57.998 203.448 57.2754C203.057 56.543 202.803 55.6934 202.686 54.7266C202.637 54.3848 202.613 54.0576 202.613 53.7451C202.623 53.4229 202.657 53.1055 202.715 52.793C202.374 52.9199 202.061 53.0371 201.778 53.1445C201.504 53.252 201.28 53.3594 201.104 53.4668C201.387 53.2715 201.67 53.0908 201.954 52.9248C202.237 52.749 202.515 52.5879 202.789 52.4414C202.955 51.6797 203.238 50.9521 203.638 50.2588C204.048 49.5654 204.537 48.9209 205.103 48.3252C205.679 47.7295 206.319 47.1924 207.022 46.7139C207.725 46.2256 208.453 45.8105 209.205 45.4688C209.966 45.127 210.738 44.8633 211.519 44.6777C212.3 44.4922 213.057 44.3994 213.79 44.3994C214.278 44.3994 214.688 44.4727 215.02 44.6191C215.362 44.7656 215.591 45.0244 215.708 45.3955C215.767 45.7861 215.625 46.2061 215.284 46.6553C215.137 46.8506 214.937 47.0605 214.683 47.2852C214.439 47.5 214.117 47.7295 213.716 47.9736C213.326 48.2178 212.852 48.4717 212.295 48.7354C211.749 48.999 211.099 49.2627 210.347 49.5264L221.084 46.0254ZM209.468 49.585C209.888 49.3994 210.264 49.1992 210.596 48.9844C210.938 48.7695 211.202 48.5449 211.387 48.3105C211.583 48.0762 211.685 47.832 211.695 47.5781C211.705 47.3242 211.602 47.0557 211.387 46.7725C211.241 46.5576 211.036 46.4111 210.772 46.333C210.518 46.2451 210.254 46.2012 209.981 46.2012C209.727 46.2012 209.483 46.2305 209.249 46.2891C209.014 46.3379 208.809 46.4062 208.633 46.4941C208.516 46.5625 208.355 46.7139 208.15 46.9482C207.945 47.1729 207.735 47.4707 207.52 47.8418C207.305 48.2031 207.1 48.6279 206.905 49.1162C206.719 49.5947 206.583 50.1221 206.495 50.6982C207.11 50.4736 207.667 50.2734 208.165 50.0977C208.663 49.9219 209.097 49.751 209.468 49.585Z" fill="white"/>
</svg>
