<svg width="202" height="77" viewBox="0 0 202 77" fill="none" xmlns="http://www.w3.org/2000/svg">
<mask id="path-1-inside-1_57:57" fill="white">
<path d="M10.0398 16.3702L10.7065 11.8143L9.55064 13.9216L8.62889 17.2303L8.26405 19.4398L7.86128 22.4906L7.72901 25.5518L7.97327 29.0847L8.44959 33.3529L9.63444 37.8905L10.9008 42.0277L12.0769 44.5834L13.6312 47.9607L16.3556 52.4948L18.8648 55.4068L20.7879 57.5072L23.6281 59.9836L26.1118 61.8008L28.3854 63.1616L31.012 64.3656L33.0535 64.9912L36.1776 65.7751L39.2576 66.0014L42.4586 65.3358L45.387 64.1934L47.2534 62.8219L48.4538 61.3888L49.0512 60.0311L49.3351 58.3385L48.953 56.5844L47.7971 58.6917L46.9892 59.4764L46.0982 60.3118L44.5679 60.8444L43.1872 60.6837L41.7487 59.9827L40.2661 58.7242L39.1765 56.9338L38.5858 55.0731L38.5004 53.0551L38.9063 50.8124L39.6947 48.981L40.9611 47.5905L42.0979 46.613L44.0046 45.7063L45.7001 45.3593L47.2821 45.5638L48.7812 45.8188L50.0932 46.1294L51.7408 47.0536L49.6941 45.2622L48.109 44.3584L46.358 43.5557L44.8984 42.8091L43.1059 42.0317L40.7933 41.2791L38.6887 40.5165L36.6482 40.1241L34.8157 39.7217L32.2756 39.2831L30.4456 39.4636L28.4517 40.2116L26.7087 41.2742L25.8019 43.2296L25.686 45.2873L26.2352 47.1733L27.5933 48.5078L29.0733 49.1835L30.1774 49.504L31.5693 49.0645L32.5013 48.0873L32.9327 46.8308L32.717 45.0921L33.3892 46.5525L33.2293 48.0526L32.7784 49.6132L31.2455 51.1321L29.6245 51.5358L27.8345 51.3413L26.5005 50.752L25.2279 49.9498L23.5347 48.1183L22.5686 46.0189L22.6419 43.7534L22.7988 41.5538L22.9556 39.3543L22.4474 37.3263L21.6073 35.5008L20.6452 34.334L19.4987 33.8057L18.2732 34.2605L17.6118 35.2482L17.8274 36.9869L18.8745 38.5694L17.75 38.3198L16.9144 37.5434L16.1373 35.8548L16.1927 34.2431L16.2255 32.236L16.5089 30.4269L16.1877 28.3434L15.5786 27.0199L14.3665 25.7717L12.9095 25.608L12.3701 25.9369L12.1256 27.1378L12.3807 28.3849L11.2516 27.0862L10.5585 25.5801L10.1544 23.5472L9.97311 20.1512L10.0398 16.3702Z"/>
</mask>
<path d="M10.0398 16.3702L10.7065 11.8143L9.55064 13.9216L8.62889 17.2303L8.26405 19.4398L7.86128 22.4906L7.72901 25.5518L7.97327 29.0847L8.44959 33.3529L9.63444 37.8905L10.9008 42.0277L12.0769 44.5834L13.6312 47.9607L16.3556 52.4948L18.8648 55.4068L20.7879 57.5072L23.6281 59.9836L26.1118 61.8008L28.3854 63.1616L31.012 64.3656L33.0535 64.9912L36.1776 65.7751L39.2576 66.0014L42.4586 65.3358L45.387 64.1934L47.2534 62.8219L48.4538 61.3888L49.0512 60.0311L49.3351 58.3385L48.953 56.5844L47.7971 58.6917L46.9892 59.4764L46.0982 60.3118L44.5679 60.8444L43.1872 60.6837L41.7487 59.9827L40.2661 58.7242L39.1765 56.9338L38.5858 55.0731L38.5004 53.0551L38.9063 50.8124L39.6947 48.981L40.9611 47.5905L42.0979 46.613L44.0046 45.7063L45.7001 45.3593L47.2821 45.5638L48.7812 45.8188L50.0932 46.1294L51.7408 47.0536L49.6941 45.2622L48.109 44.3584L46.358 43.5557L44.8984 42.8091L43.1059 42.0317L40.7933 41.2791L38.6887 40.5165L36.6482 40.1241L34.8157 39.7217L32.2756 39.2831L30.4456 39.4636L28.4517 40.2116L26.7087 41.2742L25.8019 43.2296L25.686 45.2873L26.2352 47.1733L27.5933 48.5078L29.0733 49.1835L30.1774 49.504L31.5693 49.0645L32.5013 48.0873L32.9327 46.8308L32.717 45.0921L33.3892 46.5525L33.2293 48.0526L32.7784 49.6132L31.2455 51.1321L29.6245 51.5358L27.8345 51.3413L26.5005 50.752L25.2279 49.9498L23.5347 48.1183L22.5686 46.0189L22.6419 43.7534L22.7988 41.5538L22.9556 39.3543L22.4474 37.3263L21.6073 35.5008L20.6452 34.334L19.4987 33.8057L18.2732 34.2605L17.6118 35.2482L17.8274 36.9869L18.8745 38.5694L17.75 38.3198L16.9144 37.5434L16.1373 35.8548L16.1927 34.2431L16.2255 32.236L16.5089 30.4269L16.1877 28.3434L15.5786 27.0199L14.3665 25.7717L12.9095 25.608L12.3701 25.9369L12.1256 27.1378L12.3807 28.3849L11.2516 27.0862L10.5585 25.5801L10.1544 23.5472L9.97311 20.1512L10.0398 16.3702Z" fill="white" stroke="white" stroke-width="2" mask="url(#path-1-inside-1_57:57)"/>
<path d="M89.3438 37.6855C88.9238 38.0957 88.4941 38.4863 88.0547 38.8574C87.625 39.2285 87.1953 39.5508 86.7656 39.8242C86.3359 40.0977 85.9111 40.3027 85.4912 40.4395C85.0713 40.5859 84.666 40.6299 84.2754 40.5713C83.875 40.5127 83.5674 40.3467 83.3525 40.0732C83.1377 39.8096 82.9766 39.4678 82.8691 39.0479C82.7617 38.6182 82.6885 38.1299 82.6494 37.583C82.6104 37.0361 82.5713 36.4502 82.5322 35.8252C82.4834 35.2979 82.415 34.4922 82.3271 33.4082C82.2881 32.9492 82.2393 32.4072 82.1807 31.7822C82.1318 31.1475 82.0732 30.4199 82.0049 29.5996C81.9463 28.7695 81.873 27.8418 81.7852 26.8164C81.6973 25.7812 81.6045 24.624 81.5068 23.3447C81.0088 23.9697 80.4814 24.6387 79.9248 25.3516C79.3682 26.0547 78.8164 26.7871 78.2695 27.5488C77.7324 28.3105 77.21 29.0918 76.7021 29.8926C76.2041 30.6934 75.7549 31.499 75.3545 32.3096C74.9639 33.1104 74.6367 33.9062 74.373 34.6973C74.1094 35.4785 73.9482 36.2354 73.8896 36.9678L70.623 40.3662C70.6426 40.0244 70.6328 39.6875 70.5938 39.3555C70.5547 39.0137 70.5059 38.7109 70.4473 38.4473C70.3789 38.1348 70.2959 37.8418 70.1982 37.5684C69.749 36.4258 69.2607 35.3027 68.7334 34.1992C68.2158 33.0957 67.6787 32.002 67.1221 30.918C66.5654 29.834 65.999 28.7598 65.4229 27.6953C64.8564 26.6309 64.2998 25.5615 63.7529 24.4873C63.5283 25.4639 63.3281 26.3623 63.1523 27.1826C62.9766 27.9932 62.8203 28.7012 62.6836 29.3066C62.5273 30.0098 62.3906 30.6445 62.2734 31.2109C61.4727 34.9121 61.2236 36.9531 61.5264 37.334C61.6045 37.4219 61.7314 37.5 61.9072 37.5684C62.083 37.627 62.2979 37.6562 62.5518 37.6562C62.8545 37.6562 63.1865 37.5977 63.5479 37.4805C63.9189 37.3535 64.3145 37.1338 64.7344 36.8213C64.1094 37.4072 63.5381 37.9492 63.0205 38.4473C62.5029 38.9453 62.0195 39.3652 61.5703 39.707C61.1211 40.0488 60.7012 40.293 60.3105 40.4395C59.9297 40.5859 59.5586 40.6006 59.1973 40.4834C58.9238 40.3857 58.7285 40.2148 58.6113 39.9707C58.4941 39.7266 58.4355 39.4043 58.4355 39.0039C58.4355 38.4473 58.5283 37.7539 58.7139 36.9238C58.9092 36.084 59.1191 35.1172 59.3438 34.0234C59.4805 33.418 59.6367 32.7148 59.8125 31.9141C59.9883 31.1035 60.1738 30.2539 60.3691 29.3652C60.5645 28.4766 60.7598 27.5732 60.9551 26.6553C61.1504 25.7275 61.3359 24.8486 61.5117 24.0186C61.6973 23.1885 61.8584 22.4316 61.9951 21.748C62.1416 21.0645 62.2588 20.5078 62.3467 20.0781C62.3857 19.9609 62.5322 19.7656 62.7861 19.4922C62.8936 19.375 63.0254 19.2383 63.1816 19.082C63.3477 18.916 63.543 18.7256 63.7676 18.5107C64.002 18.2959 64.2705 18.0518 64.5732 17.7783C64.8857 17.4951 65.2422 17.1826 65.6426 16.8408C65.5645 17.2021 65.5547 17.5879 65.6133 17.998C65.6719 18.4082 65.75 18.7891 65.8477 19.1406C65.9551 19.5508 66.0967 19.9561 66.2725 20.3564C66.4092 20.6689 66.6338 21.1377 66.9463 21.7627C67.2686 22.3877 67.6348 23.1006 68.0449 23.9014C68.4648 24.6924 68.9141 25.542 69.3926 26.4502C69.8711 27.3486 70.3301 28.2373 70.7695 29.1162C71.2188 29.9951 71.6338 30.8301 72.0146 31.6211C72.3955 32.4121 72.6982 33.0859 72.9229 33.6426C73.3525 32.8711 73.8262 32.1094 74.3438 31.3574C74.8711 30.6055 75.4082 29.8535 75.9551 29.1016C76.5117 28.3496 77.0635 27.5977 77.6104 26.8457C78.167 26.084 78.6895 25.3125 79.1777 24.5312C79.6758 23.75 80.1299 22.9492 80.54 22.1289C80.9502 21.3086 81.292 20.4639 81.5654 19.5947C81.8193 19.292 82.1221 18.9697 82.4736 18.6279C82.7666 18.335 83.1279 17.998 83.5576 17.6172C83.9873 17.2363 84.4756 16.8262 85.0225 16.3867C84.915 16.6895 84.8418 17.0361 84.8027 17.4268C84.7637 17.8174 84.7344 18.1885 84.7148 18.54C84.6953 18.9502 84.6953 19.3652 84.7148 19.7852C84.7246 20.0586 84.749 20.4883 84.7881 21.0742C84.8369 21.6602 84.8906 22.3438 84.9492 23.125C85.0078 23.8965 85.0762 24.7412 85.1543 25.6592C85.2422 26.5771 85.3252 27.5049 85.4033 28.4424C85.4912 29.3799 85.5791 30.3027 85.667 31.2109C85.7549 32.1094 85.8379 32.9346 85.916 33.6865C85.9941 34.4287 86.0674 35.0684 86.1357 35.6055C86.2041 36.1426 86.2627 36.5186 86.3115 36.7334C86.3604 36.9775 86.4434 37.1875 86.5605 37.3633C86.6777 37.5293 86.8145 37.666 86.9707 37.7734C87.127 37.8711 87.293 37.9443 87.4688 37.9932C87.6543 38.0322 87.8398 38.0518 88.0254 38.0518C88.2891 38.0518 88.5332 38.0176 88.7578 37.9492C88.9922 37.8711 89.1875 37.7832 89.3438 37.6855ZM109.28 31.4746C109.28 32.2852 109.168 33.0225 108.943 33.6865C108.719 34.3506 108.45 34.9316 108.138 35.4297C107.825 35.9277 107.508 36.3428 107.186 36.6748C106.863 37.0068 106.604 37.2461 106.409 37.3926C105.843 37.8027 105.262 38.2031 104.666 38.5938C104.07 38.9844 103.455 39.3359 102.82 39.6484C102.195 39.9512 101.551 40.1953 100.887 40.3809C100.223 40.5664 99.5391 40.6592 98.8359 40.6592C97.791 40.6592 96.7998 40.5273 95.8623 40.2637C94.9346 40 94.1191 39.6045 93.416 39.0771C92.7227 38.5498 92.1709 37.8857 91.7607 37.085C91.3604 36.2842 91.1602 35.3467 91.1602 34.2725C91.1602 33.3252 91.3213 32.4365 91.6436 31.6064C91.9756 30.7666 92.415 29.9951 92.9619 29.292C93.5186 28.5889 94.168 27.959 94.9102 27.4023C95.6523 26.8359 96.4385 26.3574 97.2686 25.9668C98.0986 25.5762 98.9531 25.2783 99.832 25.0732C100.711 24.8682 101.561 24.7656 102.381 24.7656C103.396 24.7656 104.324 24.9365 105.164 25.2783C106.014 25.6104 106.741 26.0791 107.347 26.6846C107.962 27.2803 108.436 27.9883 108.768 28.8086C109.109 29.6289 109.28 30.5176 109.28 31.4746ZM99.1729 26.4648C98.6748 26.4648 98.2207 26.5576 97.8105 26.7432C97.4004 26.9189 97.0342 27.1631 96.7119 27.4756C96.3994 27.7783 96.126 28.1348 95.8916 28.5449C95.667 28.9453 95.4766 29.3701 95.3203 29.8193C95.1738 30.2588 95.0615 30.708 94.9834 31.167C94.915 31.6162 94.8809 32.041 94.8809 32.4414C94.8809 33.3496 95.0469 34.1992 95.3789 34.9902C95.7109 35.7715 96.165 36.4551 96.7412 37.041C97.3271 37.627 98.0059 38.0859 98.7773 38.418C99.5586 38.75 100.389 38.916 101.268 38.916C101.814 38.916 102.342 38.8135 102.85 38.6084C103.367 38.3936 103.821 38.0615 104.212 37.6123C104.612 37.1533 104.93 36.5674 105.164 35.8545C105.408 35.1318 105.53 34.2627 105.53 33.2471C105.53 32.3584 105.364 31.5039 105.032 30.6836C104.7 29.8633 104.246 29.1406 103.67 28.5156C103.094 27.8906 102.42 27.3926 101.648 27.0215C100.877 26.6504 100.052 26.4648 99.1729 26.4648ZM129.993 31.2695C129.993 32.1289 129.827 32.9443 129.495 33.7158C129.163 34.4873 128.719 35.2051 128.162 35.8691C127.605 36.5332 126.961 37.1387 126.229 37.6855C125.506 38.2324 124.744 38.7061 123.943 39.1064C123.152 39.5068 122.352 39.8242 121.541 40.0586C120.73 40.3027 119.969 40.4541 119.256 40.5127C118.943 40.5322 118.572 40.5273 118.143 40.498C117.713 40.4688 117.269 40.3906 116.81 40.2637C116.36 40.1465 115.911 39.9658 115.462 39.7217C115.022 39.4678 114.627 39.1309 114.275 38.7109C113.924 38.291 113.641 37.7734 113.426 37.1582C113.211 36.5332 113.104 35.791 113.104 34.9316C113.104 34.2871 113.108 33.5352 113.118 32.6758C113.138 31.8164 113.157 30.8984 113.177 29.9219C113.196 28.9355 113.216 27.9199 113.235 26.875C113.265 25.8203 113.294 24.7803 113.323 23.7549C113.353 22.7295 113.377 21.7432 113.396 20.7959C113.426 19.8389 113.445 18.9697 113.455 18.1885C113.475 17.4072 113.489 16.7334 113.499 16.167C113.509 15.6006 113.509 15.1953 113.499 14.9512C113.47 14.5996 113.367 14.3018 113.191 14.0576C113.045 13.8525 112.82 13.6914 112.518 13.5742C112.225 13.4473 111.81 13.457 111.272 13.6035C111.644 13.4082 112.02 13.208 112.4 13.0029C112.781 12.7881 113.167 12.5977 113.558 12.4316C113.948 12.2559 114.339 12.1143 114.729 12.0068C115.12 11.8896 115.516 11.8311 115.916 11.8311C116.121 11.8311 116.316 11.8506 116.502 11.8896C116.697 11.9287 116.863 12.002 117 12.1094C117.146 12.207 117.264 12.3389 117.352 12.5049C117.439 12.6709 117.483 12.876 117.483 13.1201C117.483 13.2959 117.479 13.6279 117.469 14.1162C117.459 14.6045 117.444 15.21 117.425 15.9326C117.415 16.6553 117.396 17.4658 117.366 18.3643C117.347 19.2627 117.322 20.2051 117.293 21.1914C117.273 22.168 117.249 23.1689 117.22 24.1943C117.2 25.21 117.176 26.1963 117.146 27.1533C117.664 26.8018 118.187 26.4795 118.714 26.1865C119.241 25.8838 119.778 25.6299 120.325 25.4248C120.882 25.21 121.443 25.0439 122.01 24.9268C122.586 24.7998 123.177 24.7363 123.782 24.7363C124.759 24.7363 125.633 24.917 126.404 25.2783C127.176 25.6396 127.825 26.123 128.353 26.7285C128.89 27.334 129.295 28.0322 129.568 28.8232C129.852 29.6045 129.993 30.4199 129.993 31.2695ZM117.029 34.0967C117.029 34.585 117.176 35.1025 117.469 35.6494C117.771 36.1865 118.172 36.6846 118.67 37.1436C119.168 37.6025 119.739 37.9834 120.384 38.2861C121.028 38.5889 121.702 38.7402 122.405 38.7402C123.089 38.7402 123.665 38.5742 124.134 38.2422C124.612 37.9102 124.998 37.4902 125.291 36.9824C125.584 36.4648 125.794 35.8984 125.921 35.2832C126.058 34.668 126.126 34.082 126.126 33.5254C126.126 32.627 125.979 31.7773 125.687 30.9766C125.394 30.166 124.979 29.458 124.441 28.8525C123.914 28.2373 123.279 27.7539 122.537 27.4023C121.795 27.041 120.979 26.8604 120.091 26.8604C119.729 26.8604 119.407 26.8848 119.124 26.9336C118.841 26.9824 118.621 27.0459 118.465 27.124C118.318 27.2021 118.177 27.3486 118.04 27.5635C117.913 27.7783 117.791 28.0371 117.674 28.3398C117.557 28.6426 117.449 28.9795 117.352 29.3506C117.254 29.7217 117.166 30.1025 117.088 30.4932C117.068 31.3525 117.054 32.1045 117.044 32.749C117.034 33.3936 117.029 33.8428 117.029 34.0967ZM138.855 12.6367C138.855 12.9199 138.86 13.1934 138.87 13.457C138.88 13.7109 138.885 13.96 138.885 14.2041C138.885 14.7803 138.836 15.2734 138.738 15.6836C138.641 16.0938 138.411 16.4209 138.05 16.665C137.835 16.8213 137.566 17.002 137.244 17.207C136.707 17.5586 135.843 18.0957 134.651 18.8184C134.769 18.5059 134.852 18.1299 134.9 17.6904C134.959 17.2412 134.998 16.8164 135.018 16.416C135.037 15.9473 135.037 15.459 135.018 14.9512C135.633 14.6289 136.175 14.3311 136.644 14.0576C137.112 13.7744 137.513 13.5254 137.845 13.3105C138.235 13.0664 138.572 12.8418 138.855 12.6367ZM144.012 37.5977C142.898 38.3301 141.951 38.9062 141.17 39.3262C140.398 39.7461 139.734 40.0586 139.178 40.2637C138.621 40.4688 138.152 40.5859 137.771 40.6152C137.391 40.6445 137.044 40.6299 136.731 40.5713C136.448 40.5225 136.17 40.4492 135.896 40.3516C135.623 40.2539 135.374 40.0781 135.149 39.8242C134.935 39.5605 134.759 39.1846 134.622 38.6963C134.485 38.208 134.417 37.5439 134.417 36.7041C134.417 36.001 134.437 35.3076 134.476 34.624C134.515 33.9307 134.554 33.2471 134.593 32.5732C134.642 31.8896 134.676 31.2158 134.695 30.5518C134.725 29.8779 134.729 29.209 134.71 28.5449C134.69 27.9004 134.573 27.4316 134.358 27.1387C134.144 26.8359 133.821 26.6846 133.392 26.6846C133.226 26.6846 133.045 26.7041 132.85 26.7432C132.654 26.7822 132.444 26.8408 132.22 26.9189C132.571 26.6748 132.933 26.4307 133.304 26.1865C133.675 25.9326 134.051 25.708 134.432 25.5127C134.812 25.3174 135.193 25.1611 135.574 25.0439C135.965 24.917 136.351 24.8535 136.731 24.8535C137.142 24.8535 137.498 24.9463 137.801 25.1318C138.113 25.3174 138.313 25.625 138.401 26.0547C138.431 26.2207 138.45 26.4648 138.46 26.7871C138.479 27.1094 138.489 27.4854 138.489 27.915C138.489 28.5498 138.475 29.2529 138.445 30.0244C138.426 30.7959 138.401 31.5576 138.372 32.3096C138.343 33.0518 138.313 33.7402 138.284 34.375C138.255 35 138.235 35.4834 138.226 35.8252C138.216 36.1475 138.274 36.4697 138.401 36.792C138.528 37.1143 138.714 37.4072 138.958 37.6709C139.212 37.9248 139.52 38.1348 139.881 38.3008C140.252 38.457 140.672 38.5352 141.141 38.5352C141.551 38.5352 141.995 38.4619 142.474 38.3154C142.952 38.1689 143.465 37.9297 144.012 37.5977ZM154.852 37.3047C153.875 37.9785 153.055 38.5352 152.391 38.9746C151.727 39.4043 151.146 39.7461 150.647 40C150.159 40.2637 149.715 40.4443 149.314 40.542C148.924 40.6396 148.509 40.6885 148.069 40.6885C147.688 40.6885 147.317 40.5957 146.956 40.4102C146.604 40.2344 146.287 39.9072 146.004 39.4287C145.73 38.9404 145.511 38.2764 145.345 37.4365C145.179 36.5869 145.096 35.4932 145.096 34.1553C145.096 32.8369 145.11 31.4551 145.14 30.0098C145.169 28.5645 145.198 27.1143 145.228 25.6592C145.267 24.2041 145.301 22.7783 145.33 21.3818C145.359 19.9854 145.374 18.6816 145.374 17.4707C145.374 16.2793 145.193 15.3516 144.832 14.6875C144.471 14.0234 143.919 13.6914 143.177 13.6914C142.952 13.6914 142.703 13.7256 142.43 13.7939C142.156 13.8525 141.868 13.96 141.565 14.1162C141.946 13.8428 142.347 13.5645 142.767 13.2812C143.187 12.9883 143.611 12.7246 144.041 12.4902C144.48 12.2559 144.92 12.0654 145.359 11.9189C145.809 11.7627 146.253 11.6846 146.692 11.6846C147.249 11.6846 147.684 11.8262 147.996 12.1094C148.318 12.3828 148.553 12.7246 148.699 13.1348C148.855 13.5449 148.948 13.9941 148.978 14.4824C149.017 14.9609 149.036 15.4053 149.036 15.8154C149.026 16.4404 149.012 17.1924 148.992 18.0713C148.982 18.9502 148.968 19.8975 148.948 20.9131C148.929 21.9189 148.909 22.9639 148.89 24.0479C148.87 25.1318 148.851 26.1963 148.831 27.2412C148.812 28.2764 148.792 29.2627 148.772 30.2002C148.763 31.1377 148.748 31.9629 148.729 32.6758C148.709 33.6328 148.777 34.4629 148.934 35.166C149.09 35.8594 149.314 36.4307 149.607 36.8799C149.9 37.3291 150.252 37.6611 150.662 37.876C151.072 38.0908 151.526 38.1982 152.024 38.1982C152.923 38.1982 153.865 37.9004 154.852 37.3047ZM173.646 26.0254C172.522 26.5723 171.478 27.0605 170.511 27.4902C169.554 27.9102 168.709 28.2666 167.977 28.5596C167.127 28.9014 166.346 29.2041 165.633 29.4678C165.193 29.6533 164.705 29.8438 164.168 30.0391C163.641 30.2246 163.089 30.4102 162.513 30.5957C161.937 30.7715 161.346 30.9521 160.74 31.1377C160.145 31.3135 159.554 31.4893 158.968 31.665V31.958C158.968 32.9639 159.124 33.8672 159.437 34.668C159.759 35.4688 160.203 36.1523 160.77 36.7188C161.336 37.2754 162.015 37.7051 162.806 38.0078C163.597 38.3008 164.471 38.4473 165.428 38.4473C165.926 38.4473 166.419 38.4082 166.907 38.3301C167.405 38.252 167.874 38.1494 168.313 38.0225C168.763 37.8857 169.183 37.7246 169.573 37.5391C169.964 37.3535 170.311 37.1533 170.613 36.9385C169.871 37.6025 169.104 38.1592 168.313 38.6084C167.532 39.0576 166.746 39.4238 165.955 39.707C165.174 39.9805 164.397 40.1807 163.626 40.3076C162.864 40.4346 162.132 40.5029 161.429 40.5127C160.716 40.5322 160.013 40.4199 159.319 40.1758C158.636 39.9414 158.011 39.5801 157.444 39.0918C156.878 38.6035 156.399 37.998 156.009 37.2754C155.618 36.543 155.364 35.6934 155.247 34.7266C155.198 34.3848 155.174 34.0576 155.174 33.7451C155.184 33.4229 155.218 33.1055 155.276 32.793C154.935 32.9199 154.622 33.0371 154.339 33.1445C154.065 33.252 153.841 33.3594 153.665 33.4668C153.948 33.2715 154.231 33.0908 154.515 32.9248C154.798 32.749 155.076 32.5879 155.35 32.4414C155.516 31.6797 155.799 30.9521 156.199 30.2588C156.609 29.5654 157.098 28.9209 157.664 28.3252C158.24 27.7295 158.88 27.1924 159.583 26.7139C160.286 26.2256 161.014 25.8105 161.766 25.4688C162.527 25.127 163.299 24.8633 164.08 24.6777C164.861 24.4922 165.618 24.3994 166.351 24.3994C166.839 24.3994 167.249 24.4727 167.581 24.6191C167.923 24.7656 168.152 25.0244 168.27 25.3955C168.328 25.7861 168.187 26.2061 167.845 26.6553C167.698 26.8506 167.498 27.0605 167.244 27.2852C167 27.5 166.678 27.7295 166.277 27.9736C165.887 28.2178 165.413 28.4717 164.856 28.7354C164.31 28.999 163.66 29.2627 162.908 29.5264L173.646 26.0254ZM162.029 29.585C162.449 29.3994 162.825 29.1992 163.157 28.9844C163.499 28.7695 163.763 28.5449 163.948 28.3105C164.144 28.0762 164.246 27.832 164.256 27.5781C164.266 27.3242 164.163 27.0557 163.948 26.7725C163.802 26.5576 163.597 26.4111 163.333 26.333C163.079 26.2451 162.815 26.2012 162.542 26.2012C162.288 26.2012 162.044 26.2305 161.81 26.2891C161.575 26.3379 161.37 26.4062 161.194 26.4941C161.077 26.5625 160.916 26.7139 160.711 26.9482C160.506 27.1729 160.296 27.4707 160.081 27.8418C159.866 28.2031 159.661 28.6279 159.466 29.1162C159.28 29.5947 159.144 30.1221 159.056 30.6982C159.671 30.4736 160.228 30.2734 160.726 30.0977C161.224 29.9219 161.658 29.751 162.029 29.585Z" fill="white"/>
<path d="M72.0332 52.6118C72.0039 53.188 71.9648 53.896 71.916 54.7358C71.8672 55.4585 71.8086 56.3667 71.7402 57.4604C71.6816 58.5444 71.5986 59.8286 71.4912 61.313L67.7412 63.8032C67.8486 63.1587 67.9365 62.4751 68.0049 61.7524C68.083 61.02 68.1465 60.2827 68.1953 59.5405C68.2441 58.7983 68.2783 58.0659 68.2979 57.3433C68.3271 56.6108 68.3418 55.9272 68.3418 55.2925C68.3418 54.687 68.3125 54.0864 68.2539 53.4907C68.2051 52.895 68.0732 52.3628 67.8584 51.894C67.6533 51.4253 67.3408 51.0444 66.9209 50.7515C66.5107 50.4585 65.9443 50.312 65.2217 50.312C64.5771 50.312 64.0254 50.4927 63.5664 50.854C63.1172 51.2153 62.7314 51.8257 62.4092 52.6851C62.0869 53.5444 61.8184 54.6821 61.6035 56.0981C61.3984 57.5044 61.2227 59.2622 61.0762 61.3716L57.5752 63.8911C57.6631 62.0063 57.7314 60.3999 57.7803 59.0718C57.8291 57.7437 57.8633 56.6499 57.8828 55.7905C57.9121 54.7847 57.9268 53.9546 57.9268 53.3003C57.9756 52.1187 57.8145 51.1958 57.4434 50.5317C57.0723 49.8579 56.5059 49.521 55.7441 49.521C55.5 49.521 55.2412 49.5601 54.9678 49.6382C54.7041 49.7065 54.4209 49.8091 54.1182 49.9458C54.499 49.6724 54.8994 49.394 55.3193 49.1108C55.7393 48.8179 56.1689 48.5542 56.6084 48.3198C57.0479 48.0854 57.4873 47.895 57.9268 47.7485C58.376 47.5923 58.8154 47.5142 59.2451 47.5142C59.6553 47.5142 60.0264 47.5972 60.3584 47.7632C60.7002 47.9292 60.959 48.2075 61.1348 48.5981C61.291 48.9399 61.4033 49.3354 61.4717 49.7847C61.5498 50.2241 61.5986 50.7075 61.6182 51.2349C62.0381 50.7368 62.5117 50.2583 63.0391 49.7993C63.5762 49.3306 64.1279 48.9253 64.6943 48.5835C65.2705 48.2319 65.8467 47.9634 66.4229 47.7778C66.999 47.5825 67.5361 47.5142 68.0342 47.5728C68.3857 47.6216 68.752 47.7095 69.1328 47.8364C69.5234 47.9634 69.8896 48.1489 70.2314 48.3931C70.583 48.6372 70.9004 48.9497 71.1836 49.3306C71.4668 49.7017 71.6816 50.1655 71.8281 50.7222C72.248 50.2729 72.7119 49.8481 73.2197 49.4478C73.7275 49.0376 74.2451 48.686 74.7725 48.3931C75.2998 48.1001 75.8223 47.8804 76.3398 47.7339C76.8574 47.5776 77.3408 47.5239 77.79 47.5728C78.2295 47.6313 78.6836 47.7534 79.1523 47.939C79.6309 48.1147 80.0654 48.3979 80.4561 48.7886C80.8467 49.1694 81.1641 49.6724 81.4082 50.2974C81.6621 50.9126 81.7744 51.6841 81.7451 52.6118C81.7158 53.7153 81.6621 54.731 81.584 55.6587C81.5156 56.5864 81.4814 57.4019 81.4814 58.105C81.4814 58.5249 81.5156 58.9204 81.584 59.2915C81.6621 59.6626 81.7891 59.9849 81.9648 60.2583C82.1406 60.5317 82.375 60.7466 82.668 60.9028C82.9609 61.0591 83.3271 61.1372 83.7666 61.1372C84.1572 61.1372 84.5674 61.064 84.9971 60.9175C85.4365 60.7612 85.876 60.5269 86.3154 60.2144C85.5928 60.8491 84.9336 61.3813 84.3379 61.811C83.752 62.2407 83.2051 62.5874 82.6973 62.8511C82.1895 63.1147 81.7158 63.3003 81.2764 63.4077C80.8467 63.5249 80.4268 63.5786 80.0166 63.5688C79.6064 63.5591 79.2549 63.4761 78.9619 63.3198C78.6689 63.1733 78.4346 62.9438 78.2588 62.6313C78.083 62.3091 77.9609 61.8989 77.8926 61.4009C77.8242 60.8931 77.7998 60.2729 77.8193 59.5405C77.8486 58.896 77.8828 58.188 77.9219 57.4165C77.9707 56.6353 77.9951 55.8638 77.9951 55.1021C77.9951 54.4771 77.9658 53.8765 77.9072 53.3003C77.8584 52.7144 77.7314 52.2017 77.5264 51.7622C77.3213 51.3228 77.0186 50.9712 76.6182 50.7075C76.2178 50.4438 75.6709 50.312 74.9775 50.312C74.5967 50.312 74.2549 50.3657 73.9521 50.4731C73.6494 50.5806 73.376 50.7368 73.1318 50.9419C72.8975 51.1372 72.6875 51.3716 72.502 51.645C72.3262 51.9087 72.1699 52.2017 72.0332 52.5239V52.6118ZM107.336 60.7417C106.926 61.1519 106.481 61.5278 106.003 61.8696C105.534 62.2017 105.061 62.4897 104.582 62.7339C104.104 62.978 103.64 63.1733 103.19 63.3198C102.741 63.4663 102.331 63.5493 101.96 63.5688C101.755 63.5884 101.491 63.5835 101.169 63.5542C100.847 63.5347 100.534 63.4517 100.231 63.3052C99.9385 63.1587 99.6846 62.9292 99.4697 62.6167C99.2549 62.3042 99.1475 61.8599 99.1475 61.2837V59.5405C98.6104 60.0679 98.0439 60.5757 97.4482 61.064C96.8525 61.5425 96.2373 61.9722 95.6025 62.353C94.9775 62.7241 94.3428 63.0171 93.6982 63.2319C93.0537 63.4565 92.4189 63.5688 91.7939 63.5688C90.9932 63.5688 90.29 63.3882 89.6846 63.0269C89.0791 62.6753 88.5713 62.2163 88.1611 61.6499C87.751 61.0835 87.4434 60.4487 87.2383 59.7456C87.0332 59.0425 86.9307 58.3442 86.9307 57.6509C86.9307 57.1333 86.9697 56.6255 87.0479 56.1274C87.126 55.6196 87.2236 55.1411 87.3408 54.6919C87.4678 54.2427 87.6094 53.8374 87.7656 53.4761C87.9316 53.1147 88.1025 52.8169 88.2783 52.5825C88.6006 52.1431 89.0107 51.7183 89.5088 51.3081C90.0068 50.8979 90.5488 50.5122 91.1348 50.1509C91.7305 49.7896 92.3604 49.4624 93.0244 49.1694C93.6885 48.8765 94.3477 48.6226 95.002 48.4077C95.666 48.1929 96.3105 48.0269 96.9355 47.9097C97.5605 47.7925 98.1367 47.7339 98.6641 47.7339C99.2109 47.7339 99.8555 47.7632 100.598 47.8218C101.34 47.8706 102.185 47.978 103.132 48.144C103.093 49.2671 103.059 50.2583 103.029 51.1177C103 51.9771 102.976 52.7485 102.956 53.4321C102.937 54.106 102.922 54.7212 102.912 55.2778C102.902 55.8345 102.897 56.3765 102.897 56.9038C102.897 57.4409 102.888 57.9683 102.868 58.4858C102.849 59.0034 102.888 59.4673 102.985 59.8774C103.083 60.2876 103.273 60.6196 103.557 60.8735C103.85 61.1274 104.299 61.2544 104.904 61.2544C105.266 61.2544 105.651 61.2104 106.062 61.1226C106.472 61.0249 106.896 60.8979 107.336 60.7417ZM99.1768 50.2534C98.5908 50.0972 97.9658 49.9897 97.3018 49.9312C96.6377 49.8628 96.0029 49.8286 95.3975 49.8286C95.0654 49.8286 94.748 49.8384 94.4453 49.8579C94.1523 49.8774 93.8838 49.9019 93.6396 49.9312C93.3955 49.9604 93.1807 49.9995 92.9951 50.0483C92.8096 50.0874 92.668 50.1362 92.5703 50.1948C92.3945 50.2827 92.1895 50.4976 91.9551 50.8394C91.7207 51.1714 91.4961 51.5864 91.2812 52.0845C91.0664 52.5825 90.8809 53.144 90.7246 53.769C90.5781 54.394 90.5049 55.0386 90.5049 55.7026C90.5049 56.3374 90.5977 56.9771 90.7832 57.6216C90.9688 58.2563 91.2373 58.8276 91.5889 59.3354C91.9502 59.8433 92.3896 60.2583 92.9072 60.5806C93.4346 60.8931 94.0352 61.0493 94.709 61.0493C95.3438 61.0493 95.9053 60.9468 96.3936 60.7417C96.8818 60.5366 97.3066 60.2583 97.668 59.9067C98.0293 59.5454 98.3271 59.1255 98.5615 58.647C98.8057 58.1685 99.001 57.6509 99.1475 57.0942C99.1475 56.6841 99.1475 56.2495 99.1475 55.7905C99.1475 55.3218 99.1475 54.8091 99.1475 54.2524C99.1475 53.6958 99.1475 53.0903 99.1475 52.436C99.1572 51.772 99.167 51.0444 99.1768 50.2534ZM121.589 57.0942C121.589 57.7681 121.408 58.3979 121.047 58.9839C120.695 59.5601 120.231 60.0923 119.655 60.5806C119.079 61.0688 118.425 61.4985 117.692 61.8696C116.97 62.2407 116.232 62.5532 115.48 62.8071C114.729 63.061 114.001 63.2466 113.298 63.3638C112.595 63.481 111.979 63.52 111.452 63.481C110.993 63.4614 110.51 63.3882 110.002 63.2612C109.504 63.144 109.06 62.9976 108.669 62.8218C108.288 62.646 108 62.4556 107.805 62.2505C107.619 62.0454 107.614 61.8452 107.79 61.6499C107.966 61.4644 108.156 61.2788 108.361 61.0933C108.566 60.9077 108.811 60.7173 109.094 60.522C109.377 60.3169 109.714 60.1021 110.104 59.8774C110.495 59.6528 110.964 59.4038 111.511 59.1304C111.335 59.4038 111.291 59.6431 111.379 59.8481C111.467 60.0532 111.628 60.2388 111.862 60.4048C112.106 60.561 112.399 60.6929 112.741 60.8003C113.093 60.9077 113.435 60.9956 113.767 61.064C114.108 61.1323 114.416 61.1812 114.689 61.2104C114.973 61.2397 115.173 61.2544 115.29 61.2544C115.642 61.2544 115.988 61.2397 116.33 61.2104C116.682 61.1714 116.994 61.0933 117.268 60.9761C117.541 60.8589 117.761 60.688 117.927 60.4634C118.103 60.229 118.19 59.9116 118.19 59.5112C118.19 59.0229 118.054 58.6079 117.78 58.2661C117.517 57.9243 117.165 57.6411 116.726 57.4165C116.296 57.1821 115.812 56.9966 115.275 56.8599C114.738 56.7231 114.201 56.6108 113.664 56.5229C113.137 56.4253 112.634 56.3472 112.155 56.2886C111.687 56.2202 111.301 56.147 110.998 56.0688C110.51 55.9419 110.1 55.7759 109.768 55.5708C109.445 55.356 109.182 55.1216 108.977 54.8677C108.781 54.604 108.64 54.3257 108.552 54.0327C108.464 53.7397 108.42 53.4468 108.42 53.1538C108.42 52.4995 108.596 51.894 108.947 51.3374C109.299 50.7808 109.758 50.2778 110.324 49.8286C110.891 49.3794 111.53 48.9839 112.243 48.6421C112.966 48.3003 113.693 48.0122 114.426 47.7778C115.168 47.5435 115.886 47.3677 116.579 47.2505C117.272 47.1333 117.873 47.0747 118.381 47.0747C118.967 47.0747 119.484 47.1089 119.934 47.1772C120.393 47.2358 120.764 47.3091 121.047 47.397C121.32 47.4849 121.491 47.5972 121.56 47.7339C121.638 47.8706 121.638 48.0269 121.56 48.2026C121.491 48.3784 121.354 48.5688 121.149 48.7739C120.944 48.979 120.7 49.189 120.417 49.4038C120.192 49.5796 119.953 49.7456 119.699 49.9019C119.475 50.0386 119.226 50.1802 118.952 50.3267C118.679 50.4634 118.396 50.5854 118.103 50.6929C118.249 50.5073 118.308 50.3413 118.278 50.1948C118.259 50.0483 118.171 49.9165 118.015 49.7993C117.858 49.6821 117.648 49.5845 117.385 49.5063C117.121 49.4185 116.828 49.3501 116.506 49.3013C116.184 49.2427 115.842 49.2036 115.48 49.1841C115.129 49.1548 114.782 49.1401 114.44 49.1401C114.108 49.1401 113.776 49.1548 113.444 49.1841C113.112 49.2036 112.814 49.2671 112.551 49.3745C112.287 49.4722 112.072 49.6284 111.906 49.8433C111.74 50.0581 111.657 50.3511 111.657 50.7222C111.657 51.0249 111.726 51.3423 111.862 51.6743C111.999 51.9966 112.199 52.3042 112.463 52.5972C112.736 52.8804 113.073 53.1343 113.474 53.3589C113.874 53.5835 114.338 53.7446 114.865 53.8423C115.275 53.9204 115.729 53.979 116.228 54.0181C116.726 54.0571 117.224 54.106 117.722 54.1646C118.22 54.2231 118.698 54.3062 119.157 54.4136C119.626 54.521 120.041 54.6821 120.402 54.897C120.764 55.1118 121.052 55.395 121.267 55.7466C121.481 56.0981 121.589 56.5474 121.589 57.0942ZM137.79 57.0942C137.79 57.7681 137.609 58.3979 137.248 58.9839C136.896 59.5601 136.433 60.0923 135.856 60.5806C135.28 61.0688 134.626 61.4985 133.894 61.8696C133.171 62.2407 132.434 62.5532 131.682 62.8071C130.93 63.061 130.202 63.2466 129.499 63.3638C128.796 63.481 128.181 63.52 127.653 63.481C127.194 63.4614 126.711 63.3882 126.203 63.2612C125.705 63.144 125.261 62.9976 124.87 62.8218C124.489 62.646 124.201 62.4556 124.006 62.2505C123.82 62.0454 123.815 61.8452 123.991 61.6499C124.167 61.4644 124.357 61.2788 124.562 61.0933C124.768 60.9077 125.012 60.7173 125.295 60.522C125.578 60.3169 125.915 60.1021 126.306 59.8774C126.696 59.6528 127.165 59.4038 127.712 59.1304C127.536 59.4038 127.492 59.6431 127.58 59.8481C127.668 60.0532 127.829 60.2388 128.063 60.4048C128.308 60.561 128.601 60.6929 128.942 60.8003C129.294 60.9077 129.636 60.9956 129.968 61.064C130.31 61.1323 130.617 61.1812 130.891 61.2104C131.174 61.2397 131.374 61.2544 131.491 61.2544C131.843 61.2544 132.189 61.2397 132.531 61.2104C132.883 61.1714 133.195 61.0933 133.469 60.9761C133.742 60.8589 133.962 60.688 134.128 60.4634C134.304 60.229 134.392 59.9116 134.392 59.5112C134.392 59.0229 134.255 58.6079 133.981 58.2661C133.718 57.9243 133.366 57.6411 132.927 57.4165C132.497 57.1821 132.014 56.9966 131.477 56.8599C130.939 56.7231 130.402 56.6108 129.865 56.5229C129.338 56.4253 128.835 56.3472 128.356 56.2886C127.888 56.2202 127.502 56.147 127.199 56.0688C126.711 55.9419 126.301 55.7759 125.969 55.5708C125.646 55.356 125.383 55.1216 125.178 54.8677C124.982 54.604 124.841 54.3257 124.753 54.0327C124.665 53.7397 124.621 53.4468 124.621 53.1538C124.621 52.4995 124.797 51.894 125.148 51.3374C125.5 50.7808 125.959 50.2778 126.525 49.8286C127.092 49.3794 127.731 48.9839 128.444 48.6421C129.167 48.3003 129.895 48.0122 130.627 47.7778C131.369 47.5435 132.087 47.3677 132.78 47.2505C133.474 47.1333 134.074 47.0747 134.582 47.0747C135.168 47.0747 135.686 47.1089 136.135 47.1772C136.594 47.2358 136.965 47.3091 137.248 47.397C137.521 47.4849 137.692 47.5972 137.761 47.7339C137.839 47.8706 137.839 48.0269 137.761 48.2026C137.692 48.3784 137.556 48.5688 137.351 48.7739C137.146 48.979 136.901 49.189 136.618 49.4038C136.394 49.5796 136.154 49.7456 135.9 49.9019C135.676 50.0386 135.427 50.1802 135.153 50.3267C134.88 50.4634 134.597 50.5854 134.304 50.6929C134.45 50.5073 134.509 50.3413 134.479 50.1948C134.46 50.0483 134.372 49.9165 134.216 49.7993C134.06 49.6821 133.85 49.5845 133.586 49.5063C133.322 49.4185 133.029 49.3501 132.707 49.3013C132.385 49.2427 132.043 49.2036 131.682 49.1841C131.33 49.1548 130.983 49.1401 130.642 49.1401C130.31 49.1401 129.978 49.1548 129.646 49.1841C129.313 49.2036 129.016 49.2671 128.752 49.3745C128.488 49.4722 128.273 49.6284 128.107 49.8433C127.941 50.0581 127.858 50.3511 127.858 50.7222C127.858 51.0249 127.927 51.3423 128.063 51.6743C128.2 51.9966 128.4 52.3042 128.664 52.5972C128.938 52.8804 129.274 53.1343 129.675 53.3589C130.075 53.5835 130.539 53.7446 131.066 53.8423C131.477 53.9204 131.931 53.979 132.429 54.0181C132.927 54.0571 133.425 54.106 133.923 54.1646C134.421 54.2231 134.899 54.3062 135.358 54.4136C135.827 54.521 136.242 54.6821 136.604 54.897C136.965 55.1118 137.253 55.395 137.468 55.7466C137.683 56.0981 137.79 56.5474 137.79 57.0942ZM161.008 60.7417C160.598 61.1519 160.153 61.5278 159.675 61.8696C159.206 62.2017 158.732 62.4897 158.254 62.7339C157.775 62.978 157.312 63.1733 156.862 63.3198C156.413 63.4663 156.003 63.5493 155.632 63.5688C155.427 63.5884 155.163 63.5835 154.841 63.5542C154.519 63.5347 154.206 63.4517 153.903 63.3052C153.61 63.1587 153.356 62.9292 153.142 62.6167C152.927 62.3042 152.819 61.8599 152.819 61.2837V59.5405C152.282 60.0679 151.716 60.5757 151.12 61.064C150.524 61.5425 149.909 61.9722 149.274 62.353C148.649 62.7241 148.015 63.0171 147.37 63.2319C146.726 63.4565 146.091 63.5688 145.466 63.5688C144.665 63.5688 143.962 63.3882 143.356 63.0269C142.751 62.6753 142.243 62.2163 141.833 61.6499C141.423 61.0835 141.115 60.4487 140.91 59.7456C140.705 59.0425 140.603 58.3442 140.603 57.6509C140.603 57.1333 140.642 56.6255 140.72 56.1274C140.798 55.6196 140.896 55.1411 141.013 54.6919C141.14 54.2427 141.281 53.8374 141.438 53.4761C141.604 53.1147 141.774 52.8169 141.95 52.5825C142.272 52.1431 142.683 51.7183 143.181 51.3081C143.679 50.8979 144.221 50.5122 144.807 50.1509C145.402 49.7896 146.032 49.4624 146.696 49.1694C147.36 48.8765 148.02 48.6226 148.674 48.4077C149.338 48.1929 149.982 48.0269 150.607 47.9097C151.232 47.7925 151.809 47.7339 152.336 47.7339C152.883 47.7339 153.527 47.7632 154.27 47.8218C155.012 47.8706 155.856 47.978 156.804 48.144C156.765 49.2671 156.73 50.2583 156.701 51.1177C156.672 51.9771 156.647 52.7485 156.628 53.4321C156.608 54.106 156.594 54.7212 156.584 55.2778C156.574 55.8345 156.569 56.3765 156.569 56.9038C156.569 57.4409 156.56 57.9683 156.54 58.4858C156.521 59.0034 156.56 59.4673 156.657 59.8774C156.755 60.2876 156.945 60.6196 157.229 60.8735C157.521 61.1274 157.971 61.2544 158.576 61.2544C158.938 61.2544 159.323 61.2104 159.733 61.1226C160.144 61.0249 160.568 60.8979 161.008 60.7417ZM152.849 50.2534C152.263 50.0972 151.638 49.9897 150.974 49.9312C150.31 49.8628 149.675 49.8286 149.069 49.8286C148.737 49.8286 148.42 49.8384 148.117 49.8579C147.824 49.8774 147.556 49.9019 147.312 49.9312C147.067 49.9604 146.853 49.9995 146.667 50.0483C146.481 50.0874 146.34 50.1362 146.242 50.1948C146.066 50.2827 145.861 50.4976 145.627 50.8394C145.393 51.1714 145.168 51.5864 144.953 52.0845C144.738 52.5825 144.553 53.144 144.396 53.769C144.25 54.394 144.177 55.0386 144.177 55.7026C144.177 56.3374 144.27 56.9771 144.455 57.6216C144.641 58.2563 144.909 58.8276 145.261 59.3354C145.622 59.8433 146.062 60.2583 146.579 60.5806C147.106 60.8931 147.707 61.0493 148.381 61.0493C149.016 61.0493 149.577 60.9468 150.065 60.7417C150.554 60.5366 150.979 60.2583 151.34 59.9067C151.701 59.5454 151.999 59.1255 152.233 58.647C152.478 58.1685 152.673 57.6509 152.819 57.0942C152.819 56.6841 152.819 56.2495 152.819 55.7905C152.819 55.3218 152.819 54.8091 152.819 54.2524C152.819 53.6958 152.819 53.0903 152.819 52.436C152.829 51.772 152.839 51.0444 152.849 50.2534ZM178.015 48.2612C177.985 49.5112 177.961 50.6343 177.941 51.6304C177.922 52.6167 177.902 53.5005 177.883 54.2817C177.873 55.063 177.863 55.7466 177.854 56.3325C177.844 56.9087 177.839 57.4067 177.839 57.8267C177.829 58.8032 177.829 59.4966 177.839 59.9067C177.819 60.9907 177.805 61.9429 177.795 62.7632C177.785 63.5835 177.731 64.3159 177.634 64.9604C177.546 65.605 177.39 66.1714 177.165 66.6597C176.95 67.1577 176.623 67.6167 176.184 68.0366C175.422 68.769 174.626 69.4966 173.796 70.2192C172.976 70.9517 172.121 71.606 171.232 72.1821C170.354 72.7681 169.436 73.2368 168.479 73.5884C167.521 73.9497 166.53 74.1304 165.505 74.1304C164.89 74.1304 164.24 74.0376 163.557 73.8521C162.873 73.6763 162.238 73.4126 161.652 73.061C161.076 72.7095 160.603 72.27 160.231 71.7427C159.851 71.2153 159.66 70.6001 159.66 69.897C159.66 69.3403 159.826 68.7983 160.158 68.271C160.48 67.7534 160.964 67.2749 161.608 66.8354C161.979 66.5718 162.399 66.2739 162.868 65.9419C163.278 65.6587 163.767 65.3218 164.333 64.9312C164.909 64.5405 165.559 64.106 166.281 63.6274C165.539 63.5688 164.89 63.354 164.333 62.9829C163.776 62.6118 163.308 62.1479 162.927 61.5913C162.556 61.0347 162.277 60.4243 162.092 59.7603C161.906 59.0864 161.813 58.4175 161.813 57.7534C161.813 57.2358 161.853 56.7231 161.931 56.2153C162.009 55.7075 162.106 55.2339 162.224 54.7944C162.351 54.3452 162.492 53.9399 162.648 53.5786C162.814 53.2075 162.985 52.9048 163.161 52.6704C163.503 52.2017 163.923 51.7573 164.421 51.3374C164.929 50.9077 165.48 50.5171 166.076 50.1655C166.672 49.8042 167.297 49.4819 167.951 49.1987C168.605 48.9155 169.255 48.6763 169.899 48.481C170.544 48.2759 171.169 48.1196 171.774 48.0122C172.38 47.9048 172.932 47.8511 173.43 47.8511C173.977 47.8511 174.631 47.8804 175.393 47.939C176.164 47.9878 177.038 48.0952 178.015 48.2612ZM174.06 50.312C173.474 50.1753 172.849 50.0776 172.185 50.019C171.521 49.9507 170.886 49.9165 170.28 49.9165C169.46 49.9165 168.742 49.9995 168.127 50.1655C167.521 50.3315 167.014 50.6343 166.604 51.0737C166.203 51.5132 165.9 52.1138 165.695 52.8755C165.49 53.6372 165.388 54.6089 165.388 55.7905C165.388 56.4351 165.48 57.0747 165.666 57.7095C165.852 58.3442 166.12 58.9155 166.472 59.4233C166.833 59.9312 167.272 60.3462 167.79 60.6685C168.317 60.981 168.918 61.1372 169.592 61.1372C170.246 61.1372 170.817 61.0347 171.306 60.8296C171.804 60.6245 172.229 60.3462 172.58 59.9946C172.932 59.6431 173.22 59.2329 173.444 58.7642C173.679 58.2954 173.864 57.7974 174.001 57.27C174.001 56.4399 174.006 55.4634 174.016 54.3403C174.025 53.2075 174.04 51.8647 174.06 50.312ZM163.762 66.4106C163.244 66.9185 162.985 67.4507 162.985 68.0073C162.985 68.437 163.098 68.8179 163.322 69.1499C163.557 69.4819 163.854 69.7749 164.216 70.0288C164.587 70.2827 165.002 70.4927 165.461 70.6587C165.92 70.8345 166.379 70.9761 166.838 71.0835C167.307 71.1909 167.751 71.269 168.171 71.3179C168.591 71.3667 168.942 71.3911 169.226 71.3911C169.87 71.3911 170.466 71.3325 171.013 71.2153C171.56 71.0981 171.984 70.9272 172.287 70.7026C172.619 70.4487 172.893 69.98 173.107 69.2964C173.322 68.6226 173.493 67.7925 173.62 66.8062C173.747 65.8296 173.835 64.731 173.884 63.5103C173.942 62.2896 173.981 61.0103 174.001 59.6724C173.503 60.1606 172.98 60.6294 172.434 61.0786C171.896 61.5278 171.34 61.9331 170.764 62.2944C170.188 62.646 169.602 62.939 169.006 63.1733C168.41 63.4077 167.814 63.5591 167.219 63.6274C166.633 64.0669 166.12 64.4526 165.681 64.7847C165.251 65.1265 164.895 65.4194 164.611 65.6636C164.279 65.9468 163.996 66.1958 163.762 66.4106ZM201.086 49.0229C199.963 49.5698 198.918 50.0581 197.951 50.4878C196.994 50.9077 196.149 51.2642 195.417 51.5571C194.567 51.8989 193.786 52.2017 193.073 52.4653C192.634 52.6509 192.146 52.8413 191.608 53.0366C191.081 53.2222 190.529 53.4077 189.953 53.5933C189.377 53.769 188.786 53.9497 188.181 54.1353C187.585 54.311 186.994 54.4868 186.408 54.6626V54.9556C186.408 55.9614 186.564 56.8647 186.877 57.6655C187.199 58.4663 187.644 59.1499 188.21 59.7163C188.776 60.2729 189.455 60.7026 190.246 61.0054C191.037 61.2983 191.911 61.4448 192.868 61.4448C193.366 61.4448 193.859 61.4058 194.348 61.3276C194.846 61.2495 195.314 61.147 195.754 61.02C196.203 60.8833 196.623 60.7222 197.014 60.5366C197.404 60.3511 197.751 60.1509 198.054 59.936C197.312 60.6001 196.545 61.1567 195.754 61.606C194.973 62.0552 194.187 62.4214 193.396 62.7046C192.614 62.978 191.838 63.1782 191.066 63.3052C190.305 63.4321 189.572 63.5005 188.869 63.5103C188.156 63.5298 187.453 63.4175 186.76 63.1733C186.076 62.939 185.451 62.5776 184.885 62.0894C184.318 61.6011 183.84 60.9956 183.449 60.2729C183.059 59.5405 182.805 58.6909 182.688 57.7241C182.639 57.3823 182.614 57.0552 182.614 56.7427C182.624 56.4204 182.658 56.103 182.717 55.7905C182.375 55.9175 182.062 56.0347 181.779 56.1421C181.506 56.2495 181.281 56.3569 181.105 56.4644C181.389 56.269 181.672 56.0884 181.955 55.9224C182.238 55.7466 182.517 55.5854 182.79 55.439C182.956 54.6772 183.239 53.9497 183.64 53.2563C184.05 52.563 184.538 51.9185 185.104 51.3228C185.681 50.7271 186.32 50.1899 187.023 49.7114C187.727 49.2231 188.454 48.8081 189.206 48.4663C189.968 48.1245 190.739 47.8608 191.521 47.6753C192.302 47.4897 193.059 47.397 193.791 47.397C194.279 47.397 194.689 47.4702 195.021 47.6167C195.363 47.7632 195.593 48.022 195.71 48.3931C195.769 48.7837 195.627 49.2036 195.285 49.6528C195.139 49.8481 194.938 50.0581 194.685 50.2827C194.44 50.4976 194.118 50.7271 193.718 50.9712C193.327 51.2153 192.854 51.4692 192.297 51.7329C191.75 51.9966 191.101 52.2603 190.349 52.5239L201.086 49.0229ZM189.47 52.5825C189.89 52.397 190.266 52.1968 190.598 51.9819C190.939 51.7671 191.203 51.5425 191.389 51.3081C191.584 51.0737 191.687 50.8296 191.696 50.5757C191.706 50.3218 191.604 50.0532 191.389 49.77C191.242 49.5552 191.037 49.4087 190.773 49.3306C190.52 49.2427 190.256 49.1987 189.982 49.1987C189.729 49.1987 189.484 49.228 189.25 49.2866C189.016 49.3354 188.811 49.4038 188.635 49.4917C188.518 49.5601 188.356 49.7114 188.151 49.9458C187.946 50.1704 187.736 50.4683 187.521 50.8394C187.307 51.2007 187.102 51.6255 186.906 52.1138C186.721 52.5923 186.584 53.1196 186.496 53.6958C187.111 53.4712 187.668 53.271 188.166 53.0952C188.664 52.9194 189.099 52.7485 189.47 52.5825Z" fill="white"/>
</svg>
