<svg width="355" height="359" viewBox="0 0 355 359" fill="none" xmlns="http://www.w3.org/2000/svg">
<path d="M130.453 59.0812L132.599 58.1775L134.686 58.3282L136.939 59.7063L138.402 60.9072L139.5 62.3759L136.761 61.1024L135.121 61.5501L133.725 62.5766L132.678 64.6966L132.705 67.3745L133.42 69.21L134.884 71.1683L137.42 72.1698L140.705 72.7892L143.945 72.092L147.284 70.3947L149.931 68.0251L152.071 65.1018L153.037 62.6205L153.515 59.739L152.897 56.1461L151.653 53.3509L149.741 50.7943L147.08 48.3673L144.705 47.0785L141.479 45.6571L137.971 44.6123L134.565 44.0822L132.58 44.4461L128.106 45.8825L125.476 47.3958L123.253 49.4529L121.313 51.386L119.295 54.2201L118.328 56.4488L117.321 58.6232L116.763 61.9009L116.511 65.9652L116.825 69.7812L118.256 73.9572L120.556 77.6617L122.733 80.9506L125.659 83.8574L122.35 81.5699L119.728 78.6924L117.979 76.3534L116.573 73.8455L114.676 69.1702L113.706 62.9691L114.259 57.9243L116.009 53.3482L118.289 49.7317L121.097 46.5699L124.191 44.2938L129.676 42.1977L132.735 41.6343L137.962 41.5829L142.93 42.8188L144.959 43.5191L146.196 43.7897L147.998 43.3072L149.452 41.7312L149.812 39.9487L149.543 37.9542L148.648 36.7574L147.328 35.6207L144.711 34.5103L141.953 33.8408L138.811 33.538L134.454 33.3704L130.16 34.1681L126.394 35.168L123.035 36.7119L119.879 38.5277L116.543 41.4872L113.959 44.822L111.679 48.1861L109.385 54.1737L108.685 57.3871L108.208 60.5211L108.123 66.5702L109.762 72.7853L111.027 75.7338L112.432 78.2416L114.163 81.4371L116.418 83.5725L112.063 83.9099L107.932 84.9251L103.155 86.8372L96.8428 90.4689L91.9895 94.0392L87.7458 98.1731L84.6361 102.063L81.8932 106.695L80.0796 110.306L79.1168 113.797L78.5695 106.526L79.1149 98.7042L80.4598 86.9214L83.813 75.9378L86.224 68.5987L89.6078 61.3029L93.8638 54.293L97.3153 49.4771L101.9 44.1646L105.861 40.4073L110.633 36.4757L114.537 34.0252L119.129 31.4897L122.529 30.0003L128.543 28.3589L131.925 27.7258L135.168 27.7859L141.977 27.8363L147.512 29.0765L152.462 30.9164L157.008 33.727L160.483 36.9894L163.33 40.7972L165.063 44.4975L166.268 47.7432L166.992 53.113L166.823 57.791L165.263 65.0102L162.279 70.5779L160.098 73.1944L156.966 76.4259L153.994 78.6128L150.877 79.9782L146.281 81.5038L142.695 81.6125L139.635 81.4185L136.349 80.5467L133.873 78.9956L131.129 76.2074L128.503 71.8152L127.807 69.1233L127.356 67.2627L127.632 64.6141L127.952 63.2821L128.959 60.8553L130.453 59.0812Z" fill="white" fill-opacity="0.3" stroke="#8C775E"/>
<path d="M43.2271 116.616L44.3418 115.664L45.6659 115.371L47.3773 115.804L48.5593 116.274L49.5787 116.976L47.5915 116.697L46.6828 117.276L46.0597 118.165L45.9052 119.665L46.5445 121.309L47.4121 122.308L48.7713 123.244L50.5698 123.393L52.7417 123.168L54.5805 122.141L56.2478 120.479L57.3323 118.531L57.9744 116.336L57.9942 114.629L57.6201 112.766L56.4038 110.667L54.9863 109.174L53.2117 107.952L51.0045 106.949L49.2389 106.593L46.9168 106.312L44.5076 106.316L42.2815 106.618L41.1404 107.209L38.7114 108.919L37.439 110.337L36.5441 112.014L35.7954 113.563L35.2075 115.681L35.1286 117.232L35.0119 118.757L35.4287 120.879L36.2173 123.429L37.2982 125.722L39.1514 128.03L41.4324 129.888L43.541 131.512L46.0232 132.763L43.4482 131.964L41.1606 130.676L39.5371 129.557L38.0868 128.272L35.8289 125.742L33.7894 122.101L32.9589 118.892L32.9764 115.75L33.5438 113.102L34.543 110.636L35.9247 108.663L38.8249 106.36L40.5824 105.448L43.7986 104.452L47.1534 104.296L48.5685 104.353L49.3951 104.292L50.3958 103.662L50.9278 102.423L50.7358 101.259L50.1063 100.08L49.2756 99.5076L48.1963 99.051L46.3223 98.85L44.4639 98.9465L42.4536 99.3397L39.7242 100.041L37.2583 101.324L35.1651 102.635L33.4494 104.206L31.9225 105.907L30.5506 108.345L29.7296 110.876L29.1031 113.369L29.0781 117.481L29.3923 119.589L29.8255 121.608L31.1788 125.35L33.6345 128.876L35.1004 130.459L36.5507 131.744L38.3622 133.393L40.2509 134.292L37.6397 135.304L35.3248 136.692L32.8194 138.751L29.7655 142.153L27.5983 145.247L25.9382 148.577L24.9218 151.547L24.3042 154.906L24.0233 157.465L24.2398 159.793L22.2127 155.415L20.7323 150.497L18.8253 142.991L18.344 135.606L18.1277 130.64L18.5222 125.522L19.5216 120.419L20.534 116.815L22.1309 112.697L23.7038 109.651L25.7365 106.349L27.5779 104.119L29.8247 101.71L31.5782 100.165L34.9102 98.0442L36.8515 97.0301L38.8676 96.4688L43.0835 95.2435L46.7897 94.9859L50.2733 95.2059L53.7339 96.0982L56.6371 97.4667L59.2801 99.2867L61.2098 101.246L62.7077 103.023L64.4024 106.197L65.3847 109.11L66.0985 113.845L65.5498 117.825L64.8109 119.839L63.6279 122.408L62.3004 124.303L60.6931 125.72L58.2099 127.507L56.0206 128.236L54.0858 128.681L51.8548 128.751L49.9652 128.252L47.6235 127.041L44.9813 124.82L43.9259 123.29L43.2151 122.227L42.7703 120.545L42.6588 119.665L42.7164 117.985L43.2271 116.616Z" fill="white" fill-opacity="0.3" stroke="#8C775E"/>
<path d="M203.457 79.1824L204.115 81.4155L203.731 83.4731L202.109 85.5578L200.752 86.8766L199.17 87.8036L200.742 85.2242L200.481 83.5443L199.617 82.0428L197.628 80.7643L194.963 80.4922L193.059 80.9966L190.95 82.2326L189.67 84.6403L188.687 87.8348L189.017 91.1327L190.33 94.6405L192.389 97.537L195.054 99.9906L197.411 101.228L200.221 102.026L203.861 101.814L206.778 100.891L209.532 99.2769L212.242 96.904L213.788 94.6887L215.562 91.6422L216.993 88.2727L217.901 84.9477L217.762 82.9346L216.835 78.3276L215.626 75.5447L213.831 73.1052L212.127 70.9611L209.536 68.6381L207.43 67.4283L205.382 66.1841L202.187 65.2625L198.177 64.5571L194.35 64.4426L190.04 65.3963L186.101 67.2673L182.589 69.0629L179.373 71.6452L182.017 68.6127L185.169 66.3292L187.69 64.8528L190.339 63.7372L195.197 62.3748L201.468 62.1053L206.419 63.2198L210.771 65.4712L214.109 68.1414L216.937 71.2854L218.852 74.6148L220.321 80.3005L220.539 83.4026L220.004 88.6034L218.22 93.4019L217.297 95.339L216.89 96.5378L217.168 98.3826L218.571 100.004L220.302 100.562L222.314 100.517L223.603 99.7621L224.881 98.5773L226.277 96.1009L227.251 93.4355L227.904 90.3474L228.558 86.0364L228.246 81.6804L227.674 77.8259L226.516 74.3147L225.065 70.9753L222.497 67.3297L219.473 64.3883L216.385 61.7456L210.692 58.7965L207.577 57.741L204.516 56.9156L198.515 56.1546L192.155 57.0871L189.084 58.0137L186.434 59.1293L183.065 60.4921L180.69 62.4942L180.843 58.128L180.296 53.9094L178.931 48.9485L176.029 42.2695L173.024 37.0471L169.391 32.3672L165.874 28.8416L161.579 25.5975L158.193 23.391L154.832 22.0434L162.118 22.3136L169.83 23.7312L181.388 26.3866L191.927 30.9483L198.95 34.1658L205.822 38.3451L212.311 43.3591L216.71 47.3281L221.476 52.4789L224.766 56.8358L228.139 62.0171L230.137 66.1709L232.142 71.0186L233.242 74.5641L234.2 80.7238L234.45 84.1556L234.028 87.3709L233.215 94.1312L231.363 99.493L228.981 104.205L225.679 108.409L222.048 111.496L217.945 113.9L214.074 115.207L210.714 116.041L205.297 116.16L200.667 115.468L193.668 113.109L188.469 109.521L186.114 107.061L183.253 103.587L181.413 100.388L180.405 97.1384L179.403 92.4009L179.697 88.8249L180.232 85.8055L181.466 82.6386L183.285 80.3513L186.362 77.9372L191.021 75.8191L193.774 75.4283L195.673 75.1884L198.274 75.7594L199.562 76.227L201.861 77.4987L203.457 79.1824Z" fill="white" fill-opacity="0.3" stroke="#8C775E" stroke-opacity="0.3"/>
<path d="M271.224 66.8609L272.545 66.3548L273.874 66.5411L275.36 67.543L276.337 68.3953L277.095 69.4088L275.306 68.4555L274.286 68.6822L273.445 69.3004L272.871 70.6537L273.002 72.4194L273.533 73.6586L274.543 75.01L276.192 75.7756L278.299 76.3206L280.322 75.9962L282.365 75.0169L283.942 73.5658L285.173 71.7287L285.68 70.134L285.861 68.2552L285.317 65.862L284.411 63.9684L283.092 62.204L281.303 60.4939L279.744 59.5458L277.641 58.4748L275.374 57.6401L273.194 57.1489L271.952 57.306L269.179 58.0661L267.577 58.9536L266.256 60.2165L265.109 61.4094L263.95 63.1928L263.432 64.6211L262.887 66.0119L262.672 68.1484L262.684 70.816L263.045 73.3436L264.128 76.1548L265.742 78.6917L267.261 80.9496L269.237 82.9869L267.044 81.3417L265.261 79.3364L264.054 77.7222L263.058 76.0112L261.658 72.8514L260.781 68.725L260.917 65.4238L261.832 62.4814L263.123 60.1934L264.768 58.227L266.631 56.8561L270.017 55.7035L271.931 55.4597L275.24 55.6436L278.439 56.665L279.754 57.2109L280.549 57.4408L281.67 57.1979L282.525 56.2201L282.677 55.0605L282.422 53.7351L281.805 52.9092L280.92 52.1052L279.215 51.2645L277.44 50.7084L275.437 50.378L272.67 50.086L269.984 50.4327L267.64 50.9347L265.578 51.812L263.655 52.877L261.668 54.6882L260.172 56.7778L258.87 58.8995L257.671 62.7493L257.364 64.8376L257.194 66.8828L257.397 70.8652L258.698 75.0287L259.624 77.0243L260.62 78.7353L261.852 80.913L263.371 82.4141L260.627 82.4549L258.053 82.9518L255.108 84.0126L251.263 86.1427L248.34 88.2931L245.827 90.8402L244.022 93.2738L242.481 96.2116L241.485 98.5153L241.023 100.776L240.368 95.9618L240.382 90.8305L240.735 83.1225L242.394 76.0249L243.611 71.2894L245.445 66.623L247.844 62.1813L249.827 59.1517L252.506 55.8422L254.856 53.5315L257.712 51.1396L260.081 49.6876L262.883 48.2083L264.973 47.3685L268.713 46.5375L270.829 46.2613L272.885 46.4359L277.201 46.7529L280.76 47.8007L283.973 49.2193L286.972 51.2607L289.311 53.5552L291.276 56.1829L292.531 58.6933L293.431 60.8822L294.117 64.4507L294.208 67.5261L293.526 72.218L291.872 75.7624L290.601 77.3956L288.754 79.3945L286.963 80.7116L285.047 81.4814L282.201 82.2953L279.933 82.2174L277.987 81.9621L275.869 81.2507L274.234 80.1255L272.378 78.174L270.529 75.1704L269.973 73.3676L269.609 72.1228L269.672 70.3891L269.818 69.5248L270.353 67.9676L271.224 66.8609Z" fill="white" fill-opacity="0.3" stroke="#8C775E" stroke-opacity="0.3"/>
<path d="M208.225 157.86L209.545 157.354L210.874 157.541L212.36 158.543L213.337 159.395L214.095 160.408L212.306 159.455L211.286 159.682L210.445 160.3L209.872 161.653L210.003 163.419L210.533 164.658L211.543 166.01L213.192 166.775L215.299 167.32L217.322 166.996L219.365 166.016L220.942 164.565L222.174 162.728L222.68 161.134L222.861 159.255L222.317 156.861L221.411 154.968L220.092 153.204L218.303 151.493L216.744 150.545L214.641 149.474L212.374 148.64L210.194 148.148L208.952 148.306L206.179 149.066L204.577 149.953L203.256 151.216L202.109 152.409L200.95 154.192L200.432 155.621L199.887 157.011L199.672 159.148L199.684 161.816L200.045 164.343L201.128 167.154L202.742 169.691L204.261 171.949L206.237 173.986L204.044 172.341L202.261 170.336L201.054 168.722L200.058 167.011L198.658 163.851L197.781 159.724L197.918 156.423L198.832 153.481L200.123 151.193L201.768 149.226L203.631 147.856L207.017 146.703L208.931 146.459L212.24 146.643L215.44 147.665L216.754 148.21L217.549 148.44L218.67 148.197L219.525 147.22L219.677 146.06L219.422 144.735L218.805 143.909L217.92 143.105L216.215 142.264L214.44 141.708L212.437 141.377L209.67 141.086L206.984 141.432L204.641 141.934L202.578 142.811L200.656 143.877L198.668 145.688L197.172 147.777L195.87 149.899L194.671 153.749L194.364 155.837L194.194 157.882L194.397 161.865L195.698 166.028L196.624 168.024L197.62 169.735L198.853 171.913L200.372 173.414L197.627 173.454L195.053 173.951L192.108 175.012L188.264 177.142L185.34 179.293L182.827 181.84L181.022 184.273L179.481 187.211L178.485 189.515L178.023 191.775L177.368 186.961L177.383 181.83L177.735 174.122L179.394 167.024L180.611 162.289L182.445 157.622L184.844 153.181L186.827 150.151L189.506 146.842L191.856 144.531L194.712 142.139L197.081 140.687L199.883 139.208L201.974 138.368L205.713 137.537L207.829 137.261L209.886 137.435L214.201 137.752L217.76 138.8L220.973 140.219L223.972 142.26L226.311 144.555L228.276 147.182L229.531 149.693L230.431 151.882L231.117 155.45L231.208 158.526L230.526 163.218L228.872 166.762L227.601 168.395L225.754 170.394L223.964 171.711L222.047 172.481L219.201 173.295L216.933 173.217L214.987 172.962L212.869 172.25L211.234 171.125L209.378 169.173L207.529 166.17L206.973 164.367L206.609 163.122L206.672 161.389L206.818 160.524L207.353 158.967L208.225 157.86Z" fill="white" fill-opacity="0.3" stroke="#8C775E"/>
<path d="M245.453 291.081L247.599 290.177L249.686 290.328L251.939 291.706L253.402 292.907L254.5 294.376L251.761 293.102L250.121 293.55L248.726 294.577L247.678 296.697L247.706 299.374L248.42 301.21L249.884 303.168L252.42 304.17L255.705 304.789L258.945 304.092L262.284 302.395L264.932 300.025L267.071 297.102L268.037 294.621L268.515 291.739L267.897 288.146L266.653 285.351L264.741 282.794L262.08 280.367L259.706 279.078L256.48 277.657L252.971 276.612L249.565 276.082L247.58 276.446L243.106 277.883L240.476 279.396L238.253 281.453L236.313 283.386L234.295 286.22L233.328 288.449L232.321 290.623L231.763 293.901L231.511 297.965L231.826 301.781L233.256 305.957L235.556 309.662L237.733 312.951L240.66 315.857L237.35 313.57L234.728 310.692L232.979 308.353L231.574 305.846L229.676 301.17L228.706 294.969L229.259 289.924L231.009 285.348L233.289 281.732L236.097 278.57L239.191 276.294L244.676 274.198L247.735 273.634L252.963 273.583L257.931 274.819L259.959 275.519L261.196 275.79L262.998 275.307L264.452 273.731L264.812 271.949L264.543 269.954L263.648 268.757L262.328 267.621L259.711 266.51L256.953 265.841L253.811 265.538L249.454 265.37L245.16 266.168L241.394 267.168L238.035 268.712L234.879 270.528L231.544 273.487L228.959 276.822L226.679 280.186L224.386 286.174L223.685 289.387L223.208 292.521L223.123 298.57L224.762 304.785L226.027 307.734L227.432 310.242L229.163 313.437L231.419 315.573L227.063 315.91L222.932 316.925L218.155 318.837L211.843 322.469L206.99 326.039L202.746 330.173L199.636 334.063L196.893 338.695L195.08 342.306L194.117 345.797L193.57 338.526L194.115 330.704L195.46 318.921L198.813 307.938L201.224 300.599L204.608 293.303L208.864 286.293L212.315 281.477L216.9 276.165L220.862 272.407L225.633 268.476L229.537 266.025L234.129 263.49L237.53 262L243.543 260.359L246.926 259.726L250.168 259.786L256.977 259.836L262.512 261.076L267.462 262.916L272.009 265.727L275.483 268.989L278.33 272.797L280.063 276.498L281.268 279.743L281.992 285.113L281.823 289.791L280.263 297.01L277.279 302.578L275.098 305.194L271.966 308.426L268.994 310.613L265.877 311.978L261.281 313.504L257.695 313.612L254.635 313.419L251.35 312.547L248.873 310.996L246.13 308.207L243.503 303.815L242.807 301.123L242.356 299.263L242.632 296.614L242.952 295.282L243.959 292.855L245.453 291.081Z" fill="white" fill-opacity="0.3" stroke="#8C775E"/>
<path d="M303.406 238.473L305.303 239.823L306.273 241.677L306.285 244.319L306.033 246.194L305.361 247.901L305.004 244.901L303.761 243.741L302.154 243.094L299.8 243.318L297.536 244.75L296.351 246.322L295.455 248.598L295.937 251.281L297.137 254.401L299.434 256.79L302.633 258.738L306.041 259.744L309.653 260.027L312.271 259.543L314.974 258.435L317.705 256.02L319.428 253.492L320.597 250.521L321.262 246.982L321.11 244.284L320.623 240.793L319.666 237.259L318.326 234.083L316.973 232.587L313.399 229.536L310.729 228.095L307.81 227.285L305.145 226.652L301.673 226.425L299.269 226.775L296.89 227.062L293.809 228.311L290.219 230.234L287.139 232.508L284.339 235.92L282.398 239.825L280.745 243.406L279.811 247.424L280.017 243.406L281.086 239.663L282.155 236.945L283.549 234.431L286.528 230.358L291.293 226.272L295.875 224.09L300.688 223.173L304.962 223.21L309.128 223.936L312.691 225.37L317.359 228.934L319.446 231.239L322.239 235.659L323.8 240.535L324.271 242.628L324.691 243.822L326.049 245.101L328.154 245.51L329.86 244.879L331.415 243.601L331.962 242.21L332.235 240.49L331.803 237.68L330.922 234.982L329.528 232.15L327.379 228.356L324.443 225.124L321.612 222.446L318.532 220.4L315.328 218.671L311.057 217.39L306.862 216.945L302.801 216.775L296.502 217.972L293.401 219.067L290.484 220.308L285.294 223.418L280.87 228.079L279.027 230.706L277.632 233.22L275.825 236.373L275.194 239.414L272.617 235.886L269.581 232.906L265.443 229.849L259.035 226.389L253.446 224.139L247.698 222.703L242.754 222.103L237.372 222.206L233.347 222.562L229.871 223.579L235.768 219.29L242.708 215.641L253.437 210.589L264.543 207.665L272.053 205.857L280.038 204.899L288.239 204.833L294.15 205.236L301.08 206.343L306.359 207.736L312.212 209.727L316.349 211.759L320.921 214.332L323.975 216.441L328.534 220.693L330.851 223.237L332.505 226.027L336.042 231.845L337.898 237.205L338.936 242.383L338.936 247.728L337.988 252.399L336.246 256.823L334.01 260.243L331.883 262.974L327.696 266.414L323.628 268.73L316.667 271.199L310.363 271.589L306.99 271.11L302.595 270.145L299.172 268.767L296.371 266.833L292.657 263.727L290.679 260.733L289.234 258.028L288.249 254.776L288.266 251.853L289.195 248.054L291.549 243.51L293.473 241.502L294.818 240.14L297.217 238.983L298.518 238.555L301.111 238.135L303.406 238.473Z" fill="white" fill-opacity="0.3" stroke="#8C775E"/>
<path d="M142.224 197.86L143.545 197.354L144.874 197.541L146.359 198.543L147.337 199.395L148.095 200.408L146.306 199.455L145.286 199.682L144.445 200.3L143.871 201.653L144.002 203.419L144.533 204.658L145.543 206.01L147.192 206.775L149.299 207.32L151.322 206.996L153.365 206.016L154.942 204.565L156.173 202.728L156.68 201.134L156.861 199.255L156.317 196.861L155.411 194.968L154.091 193.204L152.303 191.493L150.744 190.545L148.64 189.474L146.374 188.64L144.194 188.148L142.952 188.306L140.179 189.066L138.577 189.953L137.255 191.216L136.109 192.409L134.95 194.192L134.432 195.621L133.886 197.011L133.672 199.148L133.684 201.816L134.045 204.343L135.128 207.154L136.742 209.691L138.26 211.949L140.237 213.986L138.044 212.341L136.261 210.336L135.054 208.722L134.058 207.011L132.658 203.851L131.781 199.724L131.917 196.423L132.832 193.481L134.123 191.193L135.768 189.226L137.631 187.856L141.017 186.703L142.931 186.459L146.24 186.643L149.439 187.665L150.754 188.21L151.549 188.44L152.67 188.197L153.525 187.22L153.677 186.06L153.422 184.735L152.804 183.909L151.92 183.105L150.215 182.264L148.44 181.708L146.437 181.377L143.67 181.086L140.984 181.432L138.64 181.934L136.578 182.811L134.655 183.877L132.668 185.688L131.172 187.777L129.87 189.899L128.671 193.749L128.364 195.837L128.194 197.882L128.397 201.865L129.698 206.028L130.624 208.024L131.62 209.735L132.852 211.913L134.371 213.414L131.626 213.454L129.053 213.951L126.108 215.012L122.263 217.142L119.34 219.293L116.827 221.84L115.022 224.273L113.481 227.211L112.485 229.515L112.023 231.775L111.368 226.961L111.382 221.83L111.735 214.122L113.394 207.024L114.61 202.289L116.445 197.622L118.844 193.181L120.826 190.151L123.506 186.842L125.856 184.531L128.712 182.139L131.081 180.687L133.883 179.208L135.973 178.368L139.713 177.537L141.829 177.261L143.885 177.435L148.2 177.752L151.759 178.8L154.973 180.219L157.972 182.26L160.311 184.555L162.276 187.182L163.53 189.693L164.431 191.882L165.117 195.45L165.208 198.526L164.526 203.218L162.872 206.762L161.601 208.395L159.754 210.394L157.963 211.711L156.047 212.481L153.2 213.295L150.933 213.217L148.986 212.962L146.868 212.25L145.234 211.125L143.378 209.173L141.528 206.17L140.973 204.367L140.609 203.122L140.671 201.389L140.818 200.524L141.353 198.967L142.224 197.86Z" fill="white" fill-opacity="0.3" stroke="#8C775E"/>
<path d="M130.288 298.275L132.255 299.52L133.324 301.319L133.48 303.956L133.329 305.842L132.751 307.583L132.232 304.607L130.927 303.516L129.288 302.957L126.949 303.308L124.767 304.86L123.668 306.495L122.897 308.815L123.523 311.469L124.891 314.519L127.314 316.78L130.614 318.552L134.071 319.372L137.693 319.459L140.281 318.834L142.92 317.581L145.516 315.022L147.1 312.404L148.107 309.375L148.579 305.804L148.281 303.119L147.605 299.659L146.459 296.182L144.949 293.084L143.517 291.662L139.782 288.81L137.038 287.515L134.08 286.865L131.385 286.377L127.906 286.339L125.524 286.818L123.164 287.233L120.155 288.647L116.675 290.762L113.722 293.199L111.111 296.758L109.384 300.762L107.928 304.428L107.213 308.49L107.2 304.467L108.065 300.671L108.986 297.899L110.242 295.314L112.996 291.086L117.532 286.748L121.989 284.321L126.745 283.144L131.016 282.95L135.215 283.449L138.85 284.689L143.704 287.994L145.913 290.183L148.941 294.445L150.764 299.229L151.347 301.294L151.831 302.464L153.257 303.668L155.381 303.961L157.05 303.239L158.533 301.879L159.005 300.461L159.184 298.728L158.6 295.945L157.575 293.299L156.029 290.547L153.678 286.875L150.571 283.806L147.6 281.285L144.414 279.41L141.121 277.856L136.786 276.808L132.573 276.592L128.509 276.641L122.284 278.178L119.247 279.439L116.401 280.837L111.388 284.222L107.222 289.117L105.524 291.839L104.268 294.425L102.634 297.671L102.169 300.742L99.4041 297.359L96.2114 294.548L91.9138 291.719L85.3276 288.611L79.625 286.667L73.8079 285.544L68.8389 285.213L63.4702 285.607L59.4704 286.181L56.0548 287.384L61.7106 282.782L68.4427 278.763L78.8829 273.137L89.814 269.617L97.2154 267.404L105.137 266.015L113.322 265.505L119.246 265.588L126.226 266.318L131.572 267.423L137.524 269.094L141.766 270.899L146.47 273.221L149.634 275.162L154.416 279.161L156.868 281.575L158.67 284.271L162.517 289.889L164.661 295.141L165.977 300.255L166.267 305.593L165.573 310.308L164.074 314.82L162.026 318.356L160.05 321.198L156.056 324.86L152.119 327.393L145.302 330.235L139.028 330.966L135.634 330.67L131.193 329.944L127.7 328.753L124.799 326.975L120.922 324.074L118.785 321.192L117.196 318.569L116.036 315.374L115.894 312.455L116.616 308.611L118.722 303.947L120.534 301.838L121.803 300.405L124.135 299.119L125.412 298.621L127.979 298.061L130.288 298.275Z" fill="white" fill-opacity="0.3" stroke="#8C775E"/>
<mask id="path-10-inside-1_68:34" fill="white">
<path d="M190.507 290.706L193.757 288.791L191.988 289.109L189.49 290.207L187.901 291.108L185.738 292.42L183.653 293.919L181.372 295.915L178.672 298.447L176.014 301.594L173.649 304.588L172.312 306.701L170.545 309.494L168.372 313.671L167.214 316.862L166.415 319.24L165.652 322.428L165.218 325.034L165.022 327.263L165.041 329.648L165.264 331.34L165.72 333.84L166.534 336.022L167.982 337.822L169.662 339.192L171.163 339.731L172.496 339.793L173.589 339.489L174.808 338.801L175.859 337.636L174.09 337.954L173.313 337.819L172.476 337.656L171.641 336.906L171.316 335.898L171.333 334.57L171.708 332.924L172.562 331.265L173.619 329.905L174.939 328.801L176.563 327.91L178.033 327.489L179.358 327.617L180.367 327.871L181.57 328.679L182.333 329.635L182.692 330.801L182.992 331.938L183.196 332.979L183.095 334.562L183.65 332.261L183.756 330.731L183.743 329.141L183.784 327.776L183.741 326.171L183.519 324.231L183.368 322.426L182.99 320.855L182.685 319.418L182.181 317.488L181.487 316.356L180.363 315.407L179.107 314.79L177.518 315.197L176.108 316.186L175.021 317.532L174.556 319.134L174.569 320.476L174.701 321.382L175.43 322.087L176.375 322.205L177.349 321.843L178.442 320.796L177.678 322.004L176.626 322.675L175.443 323.182L173.949 322.942L173.171 322.065L172.74 320.765L172.715 319.565L172.852 318.297L173.544 316.212L174.642 314.476L176.178 313.351L177.695 312.315L179.212 311.28L180.407 309.888L181.362 308.378L181.839 307.128L181.833 306.086L181.145 305.501L180.278 305.57L179.185 306.616L178.457 308.138L178.271 307.255L178.528 306.292L179.411 304.896L180.505 304.097L181.855 303.079L183.151 302.331L184.441 301.035L185.134 299.94L185.587 298.481L185.24 297.42L184.851 297.229L183.973 297.688L183.22 298.505L183.733 297.075L184.521 295.83L185.752 294.505L187.962 292.622L190.507 290.706Z"/>
</mask>
<path d="M190.507 290.706L193.757 288.791L191.988 289.109L189.49 290.207L187.901 291.108L185.738 292.42L183.653 293.919L181.372 295.915L178.672 298.447L176.014 301.594L173.649 304.588L172.312 306.701L170.545 309.494L168.372 313.671L167.214 316.862L166.415 319.24L165.652 322.428L165.218 325.034L165.022 327.263L165.041 329.648L165.264 331.34L165.72 333.84L166.534 336.022L167.982 337.822L169.662 339.192L171.163 339.731L172.496 339.793L173.589 339.489L174.808 338.801L175.859 337.636L174.09 337.954L173.313 337.819L172.476 337.656L171.641 336.906L171.316 335.898L171.333 334.57L171.708 332.924L172.562 331.265L173.619 329.905L174.939 328.801L176.563 327.91L178.033 327.489L179.358 327.617L180.367 327.871L181.57 328.679L182.333 329.635L182.692 330.801L182.992 331.938L183.196 332.979L183.095 334.562L183.65 332.261L183.756 330.731L183.743 329.141L183.784 327.776L183.741 326.171L183.519 324.231L183.368 322.426L182.99 320.855L182.685 319.418L182.181 317.488L181.487 316.356L180.363 315.407L179.107 314.79L177.518 315.197L176.108 316.186L175.021 317.532L174.556 319.134L174.569 320.476L174.701 321.382L175.43 322.087L176.375 322.205L177.349 321.843L178.442 320.796L177.678 322.004L176.626 322.675L175.443 323.182L173.949 322.942L173.171 322.065L172.74 320.765L172.715 319.565L172.852 318.297L173.544 316.212L174.642 314.476L176.178 313.351L177.695 312.315L179.212 311.28L180.407 309.888L181.362 308.378L181.839 307.128L181.833 306.086L181.145 305.501L180.278 305.57L179.185 306.616L178.457 308.138L178.271 307.255L178.528 306.292L179.411 304.896L180.505 304.097L181.855 303.079L183.151 302.331L184.441 301.035L185.134 299.94L185.587 298.481L185.24 297.42L184.851 297.229L183.973 297.688L183.22 298.505L183.733 297.075L184.521 295.83L185.752 294.505L187.962 292.622L190.507 290.706Z" fill="white" fill-opacity="0.3" stroke="#8C775E" stroke-opacity="0.3" stroke-width="2" mask="url(#path-10-inside-1_68:34)"/>
<mask id="path-11-inside-2_68:34" fill="white">
<path d="M210.661 329.884L208.312 328.114L209.121 329.39L210.684 330.912L211.809 331.792L213.397 332.954L215.079 333.973L217.15 334.934L219.712 335.998L222.657 336.763L225.403 337.36L227.229 337.516L229.642 337.722L233.089 337.656L235.552 337.203L237.366 336.815L239.692 336.049L241.529 335.271L243.041 334.465L244.58 333.42L245.601 332.512L247.066 331.069L248.202 329.477L248.875 327.544L249.191 325.61L249.029 324.178L248.614 323.087L248.045 322.344L247.184 321.667L246.07 321.331L246.879 322.607L247.057 323.286L247.236 324.025L247.035 325.015L246.492 325.711L245.626 326.27L244.431 326.681L243.065 326.715L241.823 326.457L240.658 325.879L239.527 324.966L238.753 323.974L238.384 322.86L238.205 321.944L238.319 320.635L238.678 319.612L239.312 318.822L239.946 318.092L240.551 317.48L241.612 316.877L239.932 317.427L238.903 318.003L237.877 318.699L236.978 319.256L235.953 319.982L234.772 320.997L233.653 321.897L232.763 322.877L231.936 323.741L230.857 324.976L230.36 326.019L230.128 327.327L230.156 328.596L230.961 329.691L232.083 330.39L233.326 330.677L234.523 330.358L235.388 329.768L235.93 329.271L236.139 328.384L235.893 327.579L235.326 326.957L234.276 326.536L235.319 326.625L236.112 327.175L236.844 327.902L237.198 329.199L236.895 330.199L236.199 331.104L235.43 331.642L234.561 332.08L232.974 332.427L231.474 332.299L230.221 331.558L229.033 330.793L227.845 330.027L226.535 329.674L225.231 329.562L224.259 329.72L223.585 330.176L223.44 330.978L223.78 331.64L224.831 332.062L226.066 331.987L225.557 332.516L224.846 332.727L223.639 332.624L222.749 332.095L221.629 331.456L220.702 330.743L219.423 330.272L218.477 330.191L217.377 330.459L216.807 331.194L216.816 331.587L217.413 332.091L218.199 332.339L217.097 332.547L216.022 332.454L214.743 332.043L212.77 331.09L210.661 329.884Z"/>
</mask>
<path d="M210.661 329.884L208.312 328.114L209.121 329.39L210.684 330.912L211.809 331.792L213.397 332.954L215.079 333.973L217.15 334.934L219.712 335.998L222.657 336.763L225.403 337.36L227.229 337.516L229.642 337.722L233.089 337.656L235.552 337.203L237.366 336.815L239.692 336.049L241.529 335.271L243.041 334.465L244.58 333.42L245.601 332.512L247.066 331.069L248.202 329.477L248.875 327.544L249.191 325.61L249.029 324.178L248.614 323.087L248.045 322.344L247.184 321.667L246.07 321.331L246.879 322.607L247.057 323.286L247.236 324.025L247.035 325.015L246.492 325.711L245.626 326.27L244.431 326.681L243.065 326.715L241.823 326.457L240.658 325.879L239.527 324.966L238.753 323.974L238.384 322.86L238.205 321.944L238.319 320.635L238.678 319.612L239.312 318.822L239.946 318.092L240.551 317.48L241.612 316.877L239.932 317.427L238.903 318.003L237.877 318.699L236.978 319.256L235.953 319.982L234.772 320.997L233.653 321.897L232.763 322.877L231.936 323.741L230.857 324.976L230.36 326.019L230.128 327.327L230.156 328.596L230.961 329.691L232.083 330.39L233.326 330.677L234.523 330.358L235.388 329.768L235.93 329.271L236.139 328.384L235.893 327.579L235.326 326.957L234.276 326.536L235.319 326.625L236.112 327.175L236.844 327.902L237.198 329.199L236.895 330.199L236.199 331.104L235.43 331.642L234.561 332.08L232.974 332.427L231.474 332.299L230.221 331.558L229.033 330.793L227.845 330.027L226.535 329.674L225.231 329.562L224.259 329.72L223.585 330.176L223.44 330.978L223.78 331.64L224.831 332.062L226.066 331.987L225.557 332.516L224.846 332.727L223.639 332.624L222.749 332.095L221.629 331.456L220.702 330.743L219.423 330.272L218.477 330.191L217.377 330.459L216.807 331.194L216.816 331.587L217.413 332.091L218.199 332.339L217.097 332.547L216.022 332.454L214.743 332.043L212.77 331.09L210.661 329.884Z" fill="white" fill-opacity="0.3" stroke="#8C775E" stroke-opacity="0.3" stroke-width="2" mask="url(#path-11-inside-2_68:34)"/>
<mask id="path-12-inside-3_68:34" fill="white">
<path d="M88.4474 196.13L90.6803 199.17L90.1858 197.442L88.8421 195.068L87.7856 193.577L86.2626 191.558L84.5617 189.634L82.3466 187.565L79.5554 185.133L76.1572 182.806L72.9405 180.754L70.7032 179.636L67.7468 178.159L63.3727 176.417L60.081 175.587L57.6347 175.031L54.3867 174.592L51.7496 174.422L49.512 174.452L47.1416 174.711L45.48 175.102L43.0386 175.808L40.9502 176.837L39.3051 178.459L38.1111 180.268L37.7253 181.816L37.7984 183.148L38.2105 184.205L39.0171 185.349L40.2826 186.278L39.7881 184.55L39.8437 183.763L39.9226 182.914L40.5841 182.007L41.5548 181.582L42.8772 181.465L44.5528 181.673L46.2888 182.356L47.7489 183.27L48.9798 184.473L50.0296 186L50.5966 187.419L50.6029 188.751L50.4508 189.78L49.7684 191.058L48.8937 191.913L47.7696 192.388L46.6688 192.801L45.6543 193.108L44.0689 193.168L46.4134 193.488L47.9472 193.44L49.5275 193.267L50.8899 193.17L52.4818 192.966L54.3895 192.55L56.1709 192.218L57.6959 191.684L59.0945 191.235L60.9637 190.54L62.0208 189.736L62.8512 188.522L63.3388 187.211L62.7747 185.67L61.6485 184.367L60.2 183.421L58.5592 183.119L57.2252 183.267L56.337 183.49L55.7091 184.286L55.6869 185.238L56.1455 186.171L57.2963 187.153L56.0178 186.514L55.2447 185.535L54.6212 184.409L54.7093 182.898L55.5035 182.036L56.7539 181.477L57.9449 181.331L59.221 181.34L61.3643 181.818L63.2021 182.737L64.4765 184.151L65.6593 185.557L66.8422 186.962L68.3474 188.01L69.9454 188.809L71.2368 189.158L72.2732 189.047L72.7864 188.304L72.6306 187.448L71.4799 186.466L69.8921 185.895L70.7519 185.621L71.7353 185.779L73.2135 186.518L74.1181 187.525L75.2675 188.766L76.1423 189.981L77.5611 191.134L78.7197 191.713L80.2174 192.017L81.2383 191.564L81.3892 191.159L80.8442 190.331L79.9551 189.664L81.4295 190.031L82.7479 190.69L84.1899 191.781L86.2852 193.79L88.4474 196.13Z"/>
</mask>
<path d="M88.4474 196.13L90.6803 199.17L90.1858 197.442L88.8421 195.068L87.7856 193.577L86.2626 191.558L84.5617 189.634L82.3466 187.565L79.5554 185.133L76.1572 182.806L72.9405 180.754L70.7032 179.636L67.7468 178.159L63.3727 176.417L60.081 175.587L57.6347 175.031L54.3867 174.592L51.7496 174.422L49.512 174.452L47.1416 174.711L45.48 175.102L43.0386 175.808L40.9502 176.837L39.3051 178.459L38.1111 180.268L37.7253 181.816L37.7984 183.148L38.2105 184.205L39.0171 185.349L40.2826 186.278L39.7881 184.55L39.8437 183.763L39.9226 182.914L40.5841 182.007L41.5548 181.582L42.8772 181.465L44.5528 181.673L46.2888 182.356L47.7489 183.27L48.9798 184.473L50.0296 186L50.5966 187.419L50.6029 188.751L50.4508 189.78L49.7684 191.058L48.8937 191.913L47.7696 192.388L46.6688 192.801L45.6543 193.108L44.0689 193.168L46.4134 193.488L47.9472 193.44L49.5275 193.267L50.8899 193.17L52.4818 192.966L54.3895 192.55L56.1709 192.218L57.6959 191.684L59.0945 191.235L60.9637 190.54L62.0208 189.736L62.8512 188.522L63.3388 187.211L62.7747 185.67L61.6485 184.367L60.2 183.421L58.5592 183.119L57.2252 183.267L56.337 183.49L55.7091 184.286L55.6869 185.238L56.1455 186.171L57.2963 187.153L56.0178 186.514L55.2447 185.535L54.6212 184.409L54.7093 182.898L55.5035 182.036L56.7539 181.477L57.9449 181.331L59.221 181.34L61.3643 181.818L63.2021 182.737L64.4765 184.151L65.6593 185.557L66.8422 186.962L68.3474 188.01L69.9454 188.809L71.2368 189.158L72.2732 189.047L72.7864 188.304L72.6306 187.448L71.4799 186.466L69.8921 185.895L70.7519 185.621L71.7353 185.779L73.2135 186.518L74.1181 187.525L75.2675 188.766L76.1423 189.981L77.5611 191.134L78.7197 191.713L80.2174 192.017L81.2383 191.564L81.3892 191.159L80.8442 190.331L79.9551 189.664L81.4295 190.031L82.7479 190.69L84.1899 191.781L86.2852 193.79L88.4474 196.13Z" fill="white" fill-opacity="0.3" stroke="#8C775E" stroke-opacity="0.3" stroke-width="2" mask="url(#path-12-inside-3_68:34)"/>
<path d="M91.3777 156.507L93.6928 156.753L95.4478 157.893L96.7549 160.188L97.4552 161.946L97.7074 163.763L95.9242 161.324L94.2719 160.924L92.5543 161.149L90.6128 162.499L89.3435 164.857L89.0823 166.809L89.4186 169.231L91.155 171.333L93.7316 173.462L96.9055 174.417L100.649 174.544L104.112 173.748L107.398 172.222L109.442 170.516L111.253 168.224L112.447 164.78L112.708 161.731L112.269 158.569L111.111 155.159L109.655 152.883L107.517 150.08L104.95 147.47L102.224 145.361L100.31 144.721L95.6986 143.817L92.6648 143.872L89.7244 144.599L87.0921 145.354L83.9557 146.861L82.0329 148.345L80.1007 149.763L78.0286 152.363L75.8446 155.8L74.2767 159.293L73.5116 163.64L73.7361 167.995L74.0538 171.927L75.2117 175.885L73.4191 172.284L72.5132 168.497L72.1116 165.604L72.0927 162.73L72.6896 157.72L74.8361 151.821L77.7575 147.672L81.5005 144.51L85.2435 142.445L89.2294 141.033L93.0379 140.535L98.8535 141.349L101.803 142.333L106.406 144.814L110.159 148.296L111.596 149.889L112.548 150.723L114.359 151.171L116.394 150.494L117.57 149.107L118.298 147.231L118.093 145.751L117.486 144.118L115.731 141.881L113.64 139.963L111.035 138.18L107.301 135.928L103.156 134.553L99.3756 133.609L95.6883 133.338L92.0478 133.403L87.6979 134.383L83.8241 136.054L80.2024 137.898L75.302 142.033L73.1365 144.509L71.2045 147.022L68.2085 152.278L66.6408 158.511L66.3237 161.704L66.3426 164.578L66.3149 168.212L67.258 171.172L63.2812 169.363L59.1738 168.256L54.0677 167.623L46.7866 167.753L40.8124 168.535L35.0996 170.105L30.4978 172.008L25.8586 174.739L22.5263 177.024L19.9968 179.616L23.0301 172.985L27.2861 166.4L34.1556 156.733L42.3975 148.736L48.0539 143.475L54.5412 138.721L61.6539 134.64L67.0025 132.09L73.5833 129.654L78.8666 128.277L84.9434 127.14L89.5455 126.88L94.7916 126.879L98.4882 127.217L104.547 128.685L107.814 129.765L110.624 131.383L116.561 134.717L120.809 138.477L124.254 142.479L126.877 147.136L128.343 151.671L128.997 156.381L128.726 160.458L128.213 163.881L126.254 168.933L123.846 172.947L118.992 178.514L113.69 181.948L110.516 183.185L106.213 184.502L102.554 184.981L99.1655 184.671L94.4046 183.786L91.212 182.149L88.6261 180.501L86.1709 178.15L84.7518 175.596L83.6966 171.829L83.5188 166.715L84.2093 164.022L84.7132 162.175L86.2346 159.989L87.1586 158.977L89.2121 157.339L91.3777 156.507Z" fill="white" fill-opacity="0.3" stroke="#8C775E"/>
<path d="M305.908 157.308L308.2 156.897L310.203 157.502L312.1 159.341L313.263 160.833L314.012 162.507L311.619 160.664L309.921 160.741L308.334 161.436L306.847 163.275L306.287 165.894L306.582 167.841L307.581 170.073L309.835 171.606L312.904 172.931L316.218 172.961L319.848 172.037L322.951 170.306L325.68 167.923L327.166 165.714L328.265 163.008L328.45 159.367L327.849 156.367L326.544 153.453L324.48 150.501L322.446 148.723L319.61 146.629L316.416 144.84L313.209 143.576L311.193 143.496L306.513 143.916L303.615 144.816L300.995 146.335L298.678 147.796L296.087 150.118L294.656 152.081L293.196 153.982L291.933 157.057L290.796 160.967L290.266 164.759L290.745 169.147L292.177 173.266L293.58 176.952L295.798 180.43L293.071 177.473L291.143 174.09L289.95 171.424L289.129 168.669L288.303 163.692L288.716 157.429L290.362 152.628L293.073 148.547L296.091 145.519L299.523 143.05L303.041 141.507L308.853 140.665L311.96 140.786L317.072 141.883L321.648 144.178L323.474 145.306L324.621 145.841L326.485 145.766L328.25 144.547L328.992 142.887L329.167 140.882L328.556 139.518L327.517 138.119L325.207 136.462L322.663 135.204L319.665 134.22L315.45 133.101L311.086 132.937L307.192 133.087L303.576 133.857L300.099 134.936L296.196 137.092L292.943 139.779L289.98 142.561L286.43 147.9L285.042 150.882L283.889 153.835L282.48 159.718L282.715 166.141L283.303 169.295L284.124 172.05L285.112 175.548L286.844 178.126L282.521 177.5L278.268 177.584L273.188 178.402L266.233 180.561L260.715 182.98L255.668 186.083L251.781 189.196L248.089 193.114L245.527 196.239L243.822 199.434L244.883 192.22L247.13 184.708L251.027 173.507L256.707 163.526L260.669 156.895L265.57 150.518L271.26 144.613L275.683 140.671L281.322 136.493L286.01 133.696L291.528 130.906L295.874 129.372L300.911 127.905L304.555 127.198L310.782 126.915L314.221 127.039L317.371 127.809L324.003 129.351L329.132 131.775L333.558 134.655L337.377 138.395L340.052 142.34L341.995 146.679L342.874 150.67L343.338 154.1L342.867 159.498L341.676 164.025L338.57 170.727L334.438 175.505L331.737 177.579L327.972 180.045L324.592 181.527L321.252 182.175L316.434 182.656L312.911 181.976L309.968 181.115L306.954 179.544L304.878 177.488L302.812 174.166L301.213 169.305L301.124 166.526L301.092 164.611L301.942 162.088L302.547 160.858L304.061 158.711L305.908 157.308Z" fill="white" fill-opacity="0.3" stroke="#8C775E"/>
<mask id="path-15-inside-4_68:34" fill="white">
<path d="M285.236 193.51L281.211 191.211L282.582 192.814L285.251 194.763L287.179 195.904L289.9 197.415L292.787 198.758L296.35 200.055L300.758 201.507L305.838 202.617L310.578 203.512L313.734 203.813L317.904 204.211L323.873 204.339L328.146 203.937L331.294 203.575L335.338 202.783L338.536 201.947L341.171 201.058L343.858 199.879L345.647 198.835L348.216 197.166L350.22 195.296L351.43 192.982L352.02 190.645L351.774 188.892L351.081 187.537L350.113 186.598L348.639 185.721L346.719 185.243L348.089 186.847L348.381 187.684L348.674 188.596L348.303 189.79L347.347 190.604L345.835 191.233L343.758 191.66L341.393 191.619L339.249 191.23L337.245 190.455L335.309 189.274L333.993 188.018L333.38 186.639L333.092 185.512L333.319 183.924L333.965 182.701L335.08 181.777L336.195 180.926L337.256 180.217L339.106 179.547L336.185 180.115L334.392 180.754L332.6 181.54L331.032 182.163L329.24 182.986L327.172 184.151L325.214 185.178L323.652 186.318L322.201 187.32L320.304 188.759L319.419 190L318.988 191.578L319.007 193.126L320.375 194.508L322.3 195.428L324.444 195.854L326.523 195.537L328.035 194.871L328.985 194.299L329.366 193.231L328.96 192.235L327.993 191.444L326.185 190.866L327.988 191.038L329.348 191.757L330.598 192.686L331.18 194.288L330.632 195.487L329.407 196.548L328.063 197.156L326.549 197.637L323.795 197.963L321.202 197.716L319.051 196.738L317.012 195.733L314.973 194.729L312.715 194.219L310.461 194.003L308.774 194.137L307.598 194.65L307.329 195.619L307.902 196.446L309.71 197.024L311.849 197.007L310.956 197.621L309.72 197.835L307.635 197.636L306.106 196.937L304.182 196.091L302.594 195.167L300.391 194.515L298.757 194.359L296.846 194.618L295.843 195.479L295.849 195.958L296.87 196.608L298.226 196.958L296.314 197.144L294.454 196.966L292.252 196.388L288.858 195.107L285.236 193.51Z"/>
</mask>
<path d="M285.236 193.51L281.211 191.211L282.582 192.814L285.251 194.763L287.179 195.904L289.9 197.415L292.787 198.758L296.35 200.055L300.758 201.507L305.838 202.617L310.578 203.512L313.734 203.813L317.904 204.211L323.873 204.339L328.146 203.937L331.294 203.575L335.338 202.783L338.536 201.947L341.171 201.058L343.858 199.879L345.647 198.835L348.216 197.166L350.22 195.296L351.43 192.982L352.02 190.645L351.774 188.892L351.081 187.537L350.113 186.598L348.639 185.721L346.719 185.243L348.089 186.847L348.381 187.684L348.674 188.596L348.303 189.79L347.347 190.604L345.835 191.233L343.758 191.66L341.393 191.619L339.249 191.23L337.245 190.455L335.309 189.274L333.993 188.018L333.38 186.639L333.092 185.512L333.319 183.924L333.965 182.701L335.08 181.777L336.195 180.926L337.256 180.217L339.106 179.547L336.185 180.115L334.392 180.754L332.6 181.54L331.032 182.163L329.24 182.986L327.172 184.151L325.214 185.178L323.652 186.318L322.201 187.32L320.304 188.759L319.419 190L318.988 191.578L319.007 193.126L320.375 194.508L322.3 195.428L324.444 195.854L326.523 195.537L328.035 194.871L328.985 194.299L329.366 193.231L328.96 192.235L327.993 191.444L326.185 190.866L327.988 191.038L329.348 191.757L330.598 192.686L331.18 194.288L330.632 195.487L329.407 196.548L328.063 197.156L326.549 197.637L323.795 197.963L321.202 197.716L319.051 196.738L317.012 195.733L314.973 194.729L312.715 194.219L310.461 194.003L308.774 194.137L307.598 194.65L307.329 195.619L307.902 196.446L309.71 197.024L311.849 197.007L310.956 197.621L309.72 197.835L307.635 197.636L306.106 196.937L304.182 196.091L302.594 195.167L300.391 194.515L298.757 194.359L296.846 194.618L295.843 195.479L295.849 195.958L296.87 196.608L298.226 196.958L296.314 197.144L294.454 196.966L292.252 196.388L288.858 195.107L285.236 193.51Z" fill="white" fill-opacity="0.3" stroke="#8C775E" stroke-opacity="0.3" stroke-width="2" mask="url(#path-15-inside-4_68:34)"/>
<mask id="path-16-inside-5_68:34" fill="white">
<path d="M242.604 56.5627L243.024 60.3119L243.457 58.5673L243.475 55.839L243.302 54.0203L242.988 51.5102L242.472 48.9948L241.583 46.0967L240.375 42.5978L238.588 38.8864L236.822 35.5047L235.439 33.4204L233.613 30.6663L230.688 26.9766L228.248 24.6163L226.404 22.9152L223.807 20.9165L221.605 19.4549L219.65 18.3654L217.466 17.409L215.831 16.9204L213.362 16.3151L211.039 16.1671L208.804 16.753L206.867 17.727L205.762 18.8762L205.161 20.0677L204.992 21.1899L205.121 22.5833L205.755 24.0189L206.188 22.2744L206.628 21.6201L207.12 20.9232L208.145 20.467L209.198 20.582L210.403 21.1399L211.752 22.1552L212.917 23.6119L213.727 25.1326L214.195 26.7886L214.344 28.6352L214.129 30.1487L213.471 31.3061L212.826 32.1227L211.597 32.8907L210.413 33.1964L209.201 33.048L208.041 32.857L207.009 32.6181L205.605 31.8794L207.478 33.3252L208.831 34.048L210.288 34.6856L211.517 35.2807L212.999 35.897L214.86 36.4866L216.57 37.0869L218.158 37.3841L219.594 37.692L221.561 38.0209L222.879 37.8502L224.204 37.2115L225.28 36.3176L225.559 34.7008L225.232 33.0097L224.447 31.4677L223.175 30.3886L221.945 29.8519L221.064 29.6023L220.122 29.9803L219.629 30.7942L219.562 31.8313L220.07 33.2564L219.28 32.0654L219.097 30.8316L219.118 29.5446L219.947 28.2785L221.065 27.9271L222.428 28.0648L223.533 28.5324L224.635 29.1755L226.255 30.6586L227.391 32.3706L227.791 34.2319L228.116 36.0399L228.441 37.848L229.224 39.507L230.211 40.9957L231.157 41.942L232.111 42.3618L232.926 41.9732L233.217 41.1541L232.709 39.729L231.617 38.4424L232.499 38.6335L233.273 39.2608L234.186 40.6378L234.469 41.962L234.847 43.6105L235 45.0995L235.655 46.8064L236.371 47.8857L237.518 48.8958L238.629 49.0123L238.962 48.7356L238.902 47.7465L238.463 46.7255L239.559 47.7781L240.373 49.0063L241.08 50.6706L241.895 53.4571L242.604 56.5627Z"/>
</mask>
<path d="M242.604 56.5627L243.024 60.3119L243.457 58.5673L243.475 55.839L243.302 54.0203L242.988 51.5102L242.472 48.9948L241.583 46.0967L240.375 42.5978L238.588 38.8864L236.822 35.5047L235.439 33.4204L233.613 30.6663L230.688 26.9766L228.248 24.6163L226.404 22.9152L223.807 20.9165L221.605 19.4549L219.65 18.3654L217.466 17.409L215.831 16.9204L213.362 16.3151L211.039 16.1671L208.804 16.753L206.867 17.727L205.762 18.8762L205.161 20.0677L204.992 21.1899L205.121 22.5833L205.755 24.0189L206.188 22.2744L206.628 21.6201L207.12 20.9232L208.145 20.467L209.198 20.582L210.403 21.1399L211.752 22.1552L212.917 23.6119L213.727 25.1326L214.195 26.7886L214.344 28.6352L214.129 30.1487L213.471 31.3061L212.826 32.1227L211.597 32.8907L210.413 33.1964L209.201 33.048L208.041 32.857L207.009 32.6181L205.605 31.8794L207.478 33.3252L208.831 34.048L210.288 34.6856L211.517 35.2807L212.999 35.897L214.86 36.4866L216.57 37.0869L218.158 37.3841L219.594 37.692L221.561 38.0209L222.879 37.8502L224.204 37.2115L225.28 36.3176L225.559 34.7008L225.232 33.0097L224.447 31.4677L223.175 30.3886L221.945 29.8519L221.064 29.6023L220.122 29.9803L219.629 30.7942L219.562 31.8313L220.07 33.2564L219.28 32.0654L219.097 30.8316L219.118 29.5446L219.947 28.2785L221.065 27.9271L222.428 28.0648L223.533 28.5324L224.635 29.1755L226.255 30.6586L227.391 32.3706L227.791 34.2319L228.116 36.0399L228.441 37.848L229.224 39.507L230.211 40.9957L231.157 41.942L232.111 42.3618L232.926 41.9732L233.217 41.1541L232.709 39.729L231.617 38.4424L232.499 38.6335L233.273 39.2608L234.186 40.6378L234.469 41.962L234.847 43.6105L235 45.0995L235.655 46.8064L236.371 47.8857L237.518 48.8958L238.629 49.0123L238.962 48.7356L238.902 47.7465L238.463 46.7255L239.559 47.7781L240.373 49.0063L241.08 50.6706L241.895 53.4571L242.604 56.5627Z" fill="white" fill-opacity="0.3" stroke="#8C775E" stroke-opacity="0.3" stroke-width="2" mask="url(#path-16-inside-5_68:34)"/>
<mask id="path-17-inside-6_68:34" fill="white">
<path d="M52.7516 209.846L49.8075 207.487L50.7325 209.028L52.6451 210.974L54.0516 212.14L56.0455 213.697L58.1864 215.114L60.8618 216.54L64.1874 218.166L68.0724 219.534L71.7105 220.683L74.161 221.183L77.3991 221.845L82.075 222.395L85.4695 222.345L87.9763 222.248L91.227 221.831L93.8182 221.312L95.9719 220.704L98.1943 219.84L99.6979 219.032L101.873 217.719L103.624 216.183L104.793 214.191L105.478 212.134L105.45 210.54L105.035 209.272L104.363 208.357L103.288 207.461L101.825 206.892L102.75 208.433L102.9 209.207L103.043 210.048L102.639 211.095L101.812 211.757L100.564 212.212L98.8922 212.445L97.0387 212.235L95.3916 211.73L93.8913 210.887L92.4821 209.684L91.5668 208.46L91.216 207.175L91.0964 206.142L91.4247 204.731L92.0481 203.678L93.0109 202.928L93.9674 202.245L94.8677 201.685L96.3837 201.217L94.0363 201.515L92.5671 201.959L91.0855 202.535L89.7946 202.981L88.3098 203.59L86.575 204.486L84.9401 205.268L83.6054 206.178L82.3706 206.974L80.7452 208.129L79.9324 209.18L79.4446 210.568L79.3132 211.96L80.2569 213.302L81.6821 214.27L83.3262 214.808L84.989 214.675L86.2394 214.187L87.0396 213.742L87.4398 212.809L87.2148 211.885L86.5304 211.102L85.1646 210.452L86.5648 210.738L87.565 211.483L88.4588 212.409L88.7649 213.891L88.2209 214.929L87.1581 215.794L86.0453 216.243L84.8106 216.565L82.6164 216.658L80.6035 216.246L79.0065 215.21L77.5 214.159L75.9936 213.107L74.2683 212.485L72.518 212.127L71.1802 212.124L70.208 212.5L69.9048 213.351L70.2766 214.137L71.6425 214.787L73.324 214.928L72.5644 215.415L71.5736 215.517L69.9545 215.186L68.82 214.447L67.3886 213.547L66.2291 212.6L64.5601 211.853L63.2911 211.594L61.7657 211.688L60.8967 212.389L60.856 212.82L61.5967 213.479L62.6282 213.892L61.1091 213.92L59.6651 213.625L57.9898 212.945L55.4457 211.546L52.7516 209.846Z"/>
</mask>
<path d="M52.7516 209.846L49.8075 207.487L50.7325 209.028L52.6451 210.974L54.0516 212.14L56.0455 213.697L58.1864 215.114L60.8618 216.54L64.1874 218.166L68.0724 219.534L71.7105 220.683L74.161 221.183L77.3991 221.845L82.075 222.395L85.4695 222.345L87.9763 222.248L91.227 221.831L93.8182 221.312L95.9719 220.704L98.1943 219.84L99.6979 219.032L101.873 217.719L103.624 216.183L104.793 214.191L105.478 212.134L105.45 210.54L105.035 209.272L104.363 208.357L103.288 207.461L101.825 206.892L102.75 208.433L102.9 209.207L103.043 210.048L102.639 211.095L101.812 211.757L100.564 212.212L98.8922 212.445L97.0387 212.235L95.3916 211.73L93.8913 210.887L92.4821 209.684L91.5668 208.46L91.216 207.175L91.0964 206.142L91.4247 204.731L92.0481 203.678L93.0109 202.928L93.9674 202.245L94.8677 201.685L96.3837 201.217L94.0363 201.515L92.5671 201.959L91.0855 202.535L89.7946 202.981L88.3098 203.59L86.575 204.486L84.9401 205.268L83.6054 206.178L82.3706 206.974L80.7452 208.129L79.9324 209.18L79.4446 210.568L79.3132 211.96L80.2569 213.302L81.6821 214.27L83.3262 214.808L84.989 214.675L86.2394 214.187L87.0396 213.742L87.4398 212.809L87.2148 211.885L86.5304 211.102L85.1646 210.452L86.5648 210.738L87.565 211.483L88.4588 212.409L88.7649 213.891L88.2209 214.929L87.1581 215.794L86.0453 216.243L84.8106 216.565L82.6164 216.658L80.6035 216.246L79.0065 215.21L77.5 214.159L75.9936 213.107L74.2683 212.485L72.518 212.127L71.1802 212.124L70.208 212.5L69.9048 213.351L70.2766 214.137L71.6425 214.787L73.324 214.928L72.5644 215.415L71.5736 215.517L69.9545 215.186L68.82 214.447L67.3886 213.547L66.2291 212.6L64.5601 211.853L63.2911 211.594L61.7657 211.688L60.8967 212.389L60.856 212.82L61.5967 213.479L62.6282 213.892L61.1091 213.92L59.6651 213.625L57.9898 212.945L55.4457 211.546L52.7516 209.846Z" fill="white" fill-opacity="0.3" stroke="#8C775E" stroke-opacity="0.3" stroke-width="2" mask="url(#path-17-inside-6_68:34)"/>
<mask id="path-18-inside-7_68:34" fill="white">
<path d="M268.507 101.706L271.757 99.7909L269.988 100.109L267.49 101.207L265.901 102.108L263.738 103.42L261.653 104.919L259.371 106.915L256.672 109.447L254.014 112.594L251.649 115.588L250.312 117.701L248.544 120.494L246.372 124.671L245.214 127.862L244.415 130.24L243.652 133.428L243.218 136.034L243.022 138.263L243.041 140.648L243.264 142.34L243.72 144.84L244.534 147.022L245.982 148.822L247.662 150.192L249.163 150.731L250.496 150.793L251.589 150.489L252.808 149.801L253.859 148.636L252.09 148.954L251.313 148.819L250.476 148.656L249.641 147.906L249.315 146.898L249.333 145.57L249.708 143.924L250.562 142.265L251.619 140.905L252.939 139.801L254.563 138.91L256.033 138.489L257.358 138.617L258.367 138.871L259.57 139.679L260.333 140.635L260.692 141.801L260.992 142.938L261.196 143.979L261.095 145.562L261.65 143.261L261.756 141.731L261.743 140.141L261.784 138.776L261.741 137.171L261.519 135.231L261.368 133.426L260.99 131.855L260.684 130.418L260.181 128.488L259.487 127.356L258.363 126.407L257.107 125.79L255.517 126.197L254.108 127.186L253.021 128.532L252.556 130.134L252.568 131.476L252.701 132.382L253.43 133.087L254.375 133.205L255.349 132.843L256.442 131.796L255.678 133.004L254.626 133.675L253.443 134.182L251.949 133.942L251.171 133.065L250.74 131.765L250.715 130.565L250.852 129.297L251.543 127.212L252.642 125.476L254.177 124.351L255.695 123.315L257.212 122.28L258.407 120.888L259.362 119.378L259.839 118.128L259.833 117.086L259.145 116.501L258.278 116.57L257.185 117.616L256.457 119.138L256.271 118.255L256.528 117.292L257.411 115.896L258.504 115.097L259.855 114.079L261.151 113.331L262.441 112.035L263.134 110.94L263.587 109.481L263.24 108.42L262.851 108.229L261.973 108.688L261.22 109.505L261.733 108.075L262.521 106.83L263.752 105.505L265.962 103.622L268.507 101.706Z"/>
</mask>
<path d="M268.507 101.706L271.757 99.7909L269.988 100.109L267.49 101.207L265.901 102.108L263.738 103.42L261.653 104.919L259.371 106.915L256.672 109.447L254.014 112.594L251.649 115.588L250.312 117.701L248.544 120.494L246.372 124.671L245.214 127.862L244.415 130.24L243.652 133.428L243.218 136.034L243.022 138.263L243.041 140.648L243.264 142.34L243.72 144.84L244.534 147.022L245.982 148.822L247.662 150.192L249.163 150.731L250.496 150.793L251.589 150.489L252.808 149.801L253.859 148.636L252.09 148.954L251.313 148.819L250.476 148.656L249.641 147.906L249.315 146.898L249.333 145.57L249.708 143.924L250.562 142.265L251.619 140.905L252.939 139.801L254.563 138.91L256.033 138.489L257.358 138.617L258.367 138.871L259.57 139.679L260.333 140.635L260.692 141.801L260.992 142.938L261.196 143.979L261.095 145.562L261.65 143.261L261.756 141.731L261.743 140.141L261.784 138.776L261.741 137.171L261.519 135.231L261.368 133.426L260.99 131.855L260.684 130.418L260.181 128.488L259.487 127.356L258.363 126.407L257.107 125.79L255.517 126.197L254.108 127.186L253.021 128.532L252.556 130.134L252.568 131.476L252.701 132.382L253.43 133.087L254.375 133.205L255.349 132.843L256.442 131.796L255.678 133.004L254.626 133.675L253.443 134.182L251.949 133.942L251.171 133.065L250.74 131.765L250.715 130.565L250.852 129.297L251.543 127.212L252.642 125.476L254.177 124.351L255.695 123.315L257.212 122.28L258.407 120.888L259.362 119.378L259.839 118.128L259.833 117.086L259.145 116.501L258.278 116.57L257.185 117.616L256.457 119.138L256.271 118.255L256.528 117.292L257.411 115.896L258.504 115.097L259.855 114.079L261.151 113.331L262.441 112.035L263.134 110.94L263.587 109.481L263.24 108.42L262.851 108.229L261.973 108.688L261.22 109.505L261.733 108.075L262.521 106.83L263.752 105.505L265.962 103.622L268.507 101.706Z" fill="white" fill-opacity="0.3" stroke="#8C775E" stroke-opacity="0.3" stroke-width="2" mask="url(#path-18-inside-7_68:34)"/>
<mask id="path-19-inside-8_68:34" fill="white">
<path d="M137.236 161.541L134.585 159.881L135.557 161.156L137.351 162.624L138.624 163.454L140.412 164.54L142.288 165.466L144.572 166.298L147.386 167.194L150.58 167.74L153.549 168.126L155.501 168.129L158.08 168.132L161.734 167.755L164.308 167.057L166.199 166.487L168.599 165.47L170.481 164.485L172.014 163.5L173.555 162.259L174.558 161.209L175.985 159.555L177.049 157.772L177.592 155.67L177.755 153.599L177.456 152.102L176.919 150.986L176.249 150.252L175.275 149.614L174.063 149.357L175.035 150.633L175.284 151.334L175.539 152.099L175.414 153.163L174.9 153.946L174.03 154.614L172.798 155.154L171.351 155.311L170.01 155.15L168.721 154.643L167.44 153.779L166.53 152.8L166.039 151.656L165.768 150.704L165.773 149.311L166.064 148.199L166.666 147.308L167.275 146.481L167.862 145.781L168.934 145.049L167.2 145.78L166.159 146.479L165.132 147.306L164.227 147.974L163.204 148.833L162.04 150.01L160.932 151.06L160.075 152.174L159.274 153.16L158.238 154.561L157.802 155.707L157.673 157.108L157.815 158.447L158.767 159.531L160.02 160.17L161.365 160.363L162.607 159.919L163.473 159.219L164.005 158.646L164.147 157.691L163.815 156.862L163.158 156.256L162.005 155.904L163.12 155.905L164.011 156.416L164.853 157.118L165.344 158.457L165.11 159.54L164.452 160.558L163.684 161.195L162.8 161.735L161.147 162.242L159.543 162.24L158.148 161.569L156.818 160.867L155.489 160.164L154.068 159.907L152.674 159.905L151.655 160.159L150.981 160.699L150.898 161.559L151.318 162.229L152.471 162.581L153.775 162.392L153.281 162.996L152.545 163.282L151.256 163.28L150.264 162.801L149.018 162.226L147.97 161.555L146.57 161.171L145.56 161.17L144.415 161.551L143.876 162.378L143.92 162.792L144.599 163.271L145.455 163.464L144.304 163.781L143.154 163.779L141.761 163.459L139.582 162.627L137.236 161.541Z"/>
</mask>
<path d="M137.236 161.541L134.585 159.881L135.557 161.156L137.351 162.624L138.624 163.454L140.412 164.54L142.288 165.466L144.572 166.298L147.386 167.194L150.58 167.74L153.549 168.126L155.501 168.129L158.08 168.132L161.734 167.755L164.308 167.057L166.199 166.487L168.599 165.47L170.481 164.485L172.014 163.5L173.555 162.259L174.558 161.209L175.985 159.555L177.049 157.772L177.592 155.67L177.755 153.599L177.456 152.102L176.919 150.986L176.249 150.252L175.275 149.614L174.063 149.357L175.035 150.633L175.284 151.334L175.539 152.099L175.414 153.163L174.9 153.946L174.03 154.614L172.798 155.154L171.351 155.311L170.01 155.15L168.721 154.643L167.44 153.779L166.53 152.8L166.039 151.656L165.768 150.704L165.773 149.311L166.064 148.199L166.666 147.308L167.275 146.481L167.862 145.781L168.934 145.049L167.2 145.78L166.159 146.479L165.132 147.306L164.227 147.974L163.204 148.833L162.04 150.01L160.932 151.06L160.075 152.174L159.274 153.16L158.238 154.561L157.802 155.707L157.673 157.108L157.815 158.447L158.767 159.531L160.02 160.17L161.365 160.363L162.607 159.919L163.473 159.219L164.005 158.646L164.147 157.691L163.815 156.862L163.158 156.256L162.005 155.904L163.12 155.905L164.011 156.416L164.853 157.118L165.344 158.457L165.11 159.54L164.452 160.558L163.684 161.195L162.8 161.735L161.147 162.242L159.543 162.24L158.148 161.569L156.818 160.867L155.489 160.164L154.068 159.907L152.674 159.905L151.655 160.159L150.981 160.699L150.898 161.559L151.318 162.229L152.471 162.581L153.775 162.392L153.281 162.996L152.545 163.282L151.256 163.28L150.264 162.801L149.018 162.226L147.97 161.555L146.57 161.171L145.56 161.17L144.415 161.551L143.876 162.378L143.92 162.792L144.599 163.271L145.455 163.464L144.304 163.781L143.154 163.779L141.761 163.459L139.582 162.627L137.236 161.541Z" fill="white" fill-opacity="0.3" stroke="#8C775E" stroke-opacity="0.3" stroke-width="2" mask="url(#path-19-inside-8_68:34)"/>
<mask id="path-20-inside-9_68:34" fill="white">
<path d="M243.908 167.749L247.177 165.865L245.405 166.166L242.897 167.24L241.299 168.126L239.124 169.417L237.024 170.895L234.723 172.869L231.999 175.375L229.311 178.496L226.918 181.467L225.56 183.568L223.766 186.343L221.553 190.499L220.365 193.679L219.542 196.049L218.749 199.229L218.289 201.831L218.072 204.059L218.068 206.443L218.274 208.138L218.706 210.642L219.499 212.831L220.93 214.645L222.597 216.031L224.092 216.585L225.424 216.659L226.521 216.366L227.746 215.69L228.809 214.535L227.037 214.836L226.261 214.694L225.426 214.522L224.598 213.765L224.282 212.753L224.312 211.426L224.703 209.783L225.573 208.133L226.643 206.783L227.974 205.692L229.606 204.817L231.08 204.41L232.404 204.55L233.41 204.815L234.605 205.634L235.359 206.597L235.707 207.767L235.996 208.907L236.19 209.949L236.074 211.531L236.65 209.236L236.772 207.706L236.774 206.117L236.828 204.752L236.801 203.147L236.597 201.205L236.464 199.398L236.101 197.824L235.809 196.384L235.325 194.45L234.641 193.31L233.526 192.351L232.277 191.722L230.683 192.113L229.264 193.089L228.164 194.424L227.684 196.022L227.683 197.364L227.807 198.271L228.53 198.983L229.473 199.11L230.45 198.757L231.553 197.721L230.778 198.922L229.72 199.582L228.532 200.078L227.04 199.824L226.271 198.939L225.852 197.635L225.839 196.435L225.988 195.168L226.7 193.09L227.815 191.365L229.361 190.254L230.888 189.233L232.416 188.213L233.624 186.832L234.593 185.332L235.083 184.087L235.086 183.044L234.404 182.452L233.537 182.513L232.434 183.548L231.691 185.064L231.514 184.179L231.779 183.219L232.676 181.831L233.777 181.043L235.137 180.037L236.441 179.302L237.743 178.019L238.446 176.931L238.914 175.476L238.577 174.411L238.19 174.217L237.307 174.667L236.547 175.477L237.074 174.052L237.874 172.815L239.117 171.502L241.345 169.641L243.908 167.749Z"/>
</mask>
<path d="M243.908 167.749L247.177 165.865L245.405 166.166L242.897 167.24L241.299 168.126L239.124 169.417L237.024 170.895L234.723 172.869L231.999 175.375L229.311 178.496L226.918 181.467L225.56 183.568L223.766 186.343L221.553 190.499L220.365 193.679L219.542 196.049L218.749 199.229L218.289 201.831L218.072 204.059L218.068 206.443L218.274 208.138L218.706 210.642L219.499 212.831L220.93 214.645L222.597 216.031L224.092 216.585L225.424 216.659L226.521 216.366L227.746 215.69L228.809 214.535L227.037 214.836L226.261 214.694L225.426 214.522L224.598 213.765L224.282 212.753L224.312 211.426L224.703 209.783L225.573 208.133L226.643 206.783L227.974 205.692L229.606 204.817L231.08 204.41L232.404 204.55L233.41 204.815L234.605 205.634L235.359 206.597L235.707 207.767L235.996 208.907L236.19 209.949L236.074 211.531L236.65 209.236L236.772 207.706L236.774 206.117L236.828 204.752L236.801 203.147L236.597 201.205L236.464 199.398L236.101 197.824L235.809 196.384L235.325 194.45L234.641 193.31L233.526 192.351L232.277 191.722L230.683 192.113L229.264 193.089L228.164 194.424L227.684 196.022L227.683 197.364L227.807 198.271L228.53 198.983L229.473 199.11L230.45 198.757L231.553 197.721L230.778 198.922L229.72 199.582L228.532 200.078L227.04 199.824L226.271 198.939L225.852 197.635L225.839 196.435L225.988 195.168L226.7 193.09L227.815 191.365L229.361 190.254L230.888 189.233L232.416 188.213L233.624 186.832L234.593 185.332L235.083 184.087L235.086 183.044L234.404 182.452L233.537 182.513L232.434 183.548L231.691 185.064L231.514 184.179L231.779 183.219L232.676 181.831L233.777 181.043L235.137 180.037L236.441 179.302L237.743 178.019L238.446 176.931L238.914 175.476L238.577 174.411L238.19 174.217L237.307 174.667L236.547 175.477L237.074 174.052L237.874 172.815L239.117 171.502L241.345 169.641L243.908 167.749Z" fill="white" fill-opacity="0.3" stroke="#8C775E" stroke-opacity="0.3" stroke-width="2" mask="url(#path-20-inside-9_68:34)"/>
<mask id="path-21-inside-10_68:34" fill="white">
<path d="M169.426 207.265L165.788 206.264L167.248 207.313L169.775 208.343L171.528 208.857L173.975 209.497L176.502 209.951L179.523 210.201L183.221 210.378L187.33 210.096L191.126 209.711L193.574 209.201L196.81 208.527L201.321 207.181L204.419 205.791L206.683 204.71L209.503 203.04L211.677 201.538L213.414 200.127L215.113 198.454L216.174 197.116L217.652 195.049L218.651 192.946L218.937 190.654L218.751 188.494L218.094 187.041L217.211 186.041L216.232 185.467L214.89 185.07L213.321 185.126L214.781 186.175L215.225 186.827L215.69 187.542L215.733 188.663L215.235 189.599L214.27 190.511L212.826 191.386L211.041 191.928L209.328 192.115L207.617 191.935L205.847 191.389L204.522 190.627L203.691 189.586L203.172 188.684L202.915 187.258L203.071 186.045L203.658 184.975L204.266 183.969L204.871 183.099L206.078 182.069L204.04 183.272L202.867 184.261L201.734 185.376L200.725 186.297L199.603 187.444L198.365 188.954L197.173 190.319L196.307 191.683L195.489 192.902L194.453 194.607L194.123 195.893L194.224 197.361L194.655 198.692L196.053 199.551L197.744 199.875L199.467 199.719L200.941 198.938L201.896 197.994L202.455 197.269L202.454 196.255L201.881 195.494L200.943 195.047L199.431 194.99L200.83 194.698L202.043 194.987L203.231 195.484L204.099 196.724L204.01 197.892L203.376 199.107L202.532 199.959L201.526 200.744L199.548 201.698L197.536 202.117L195.659 201.798L193.86 201.428L192.06 201.059L190.229 201.17L188.48 201.535L187.251 202.062L186.507 202.792L186.565 203.693L187.218 204.267L188.73 204.324L190.33 203.788L189.825 204.536L188.955 205.022L187.337 205.359L186.003 205.129L184.332 204.869L182.892 204.458L181.064 204.433L179.796 204.698L178.433 205.388L177.912 206.376L178.046 206.788L178.986 207.099L180.097 207.071L178.713 207.697L177.27 207.998L175.463 208.037L172.573 207.759L169.426 207.265Z"/>
</mask>
<path d="M169.426 207.265L165.788 206.264L167.248 207.313L169.775 208.343L171.528 208.857L173.975 209.497L176.502 209.951L179.523 210.201L183.221 210.378L187.33 210.096L191.126 209.711L193.574 209.201L196.81 208.527L201.321 207.181L204.419 205.791L206.683 204.71L209.503 203.04L211.677 201.538L213.414 200.127L215.113 198.454L216.174 197.116L217.652 195.049L218.651 192.946L218.937 190.654L218.751 188.494L218.094 187.041L217.211 186.041L216.232 185.467L214.89 185.07L213.321 185.126L214.781 186.175L215.225 186.827L215.69 187.542L215.733 188.663L215.235 189.599L214.27 190.511L212.826 191.386L211.041 191.928L209.328 192.115L207.617 191.935L205.847 191.389L204.522 190.627L203.691 189.586L203.172 188.684L202.915 187.258L203.071 186.045L203.658 184.975L204.266 183.969L204.871 183.099L206.078 182.069L204.04 183.272L202.867 184.261L201.734 185.376L200.725 186.297L199.603 187.444L198.365 188.954L197.173 190.319L196.307 191.683L195.489 192.902L194.453 194.607L194.123 195.893L194.224 197.361L194.655 198.692L196.053 199.551L197.744 199.875L199.467 199.719L200.941 198.938L201.896 197.994L202.455 197.269L202.454 196.255L201.881 195.494L200.943 195.047L199.431 194.99L200.83 194.698L202.043 194.987L203.231 195.484L204.099 196.724L204.01 197.892L203.376 199.107L202.532 199.959L201.526 200.744L199.548 201.698L197.536 202.117L195.659 201.798L193.86 201.428L192.06 201.059L190.229 201.17L188.48 201.535L187.251 202.062L186.507 202.792L186.565 203.693L187.218 204.267L188.73 204.324L190.33 203.788L189.825 204.536L188.955 205.022L187.337 205.359L186.003 205.129L184.332 204.869L182.892 204.458L181.064 204.433L179.796 204.698L178.433 205.388L177.912 206.376L178.046 206.788L178.986 207.099L180.097 207.071L178.713 207.697L177.27 207.998L175.463 208.037L172.573 207.759L169.426 207.265Z" fill="white" fill-opacity="0.3" stroke="#8C775E" stroke-opacity="0.3" stroke-width="2" mask="url(#path-21-inside-10_68:34)"/>
<mask id="path-22-inside-11_68:34" fill="white">
<path d="M274.938 311.866L271.588 311.711L273.037 312.32L275.418 312.71L277.038 312.812L279.287 312.888L281.576 312.792L284.265 312.43L287.536 311.878L291.093 310.861L294.359 309.815L296.423 308.92L299.151 307.736L302.889 305.743L305.381 303.982L307.191 302.639L309.394 300.694L311.058 299.012L312.353 297.491L313.572 295.756L314.286 294.425L315.248 292.398L315.786 290.432L315.665 288.442L315.154 286.653L314.344 285.55L313.408 284.873L312.456 284.574L311.216 284.493L309.85 284.838L311.299 285.448L311.793 285.914L312.316 286.43L312.535 287.368L312.25 288.253L311.551 289.206L310.426 290.22L308.949 291.016L307.477 291.499L305.948 291.672L304.308 291.546L303.023 291.154L302.126 290.432L301.526 289.769L301.07 288.614L301.011 287.559L301.353 286.544L301.724 285.579L302.114 284.729L303.006 283.63L301.413 285.033L300.544 286.091L299.731 287.248L298.995 288.217L298.196 289.399L297.354 290.909L296.53 292.288L295.991 293.605L295.47 294.79L294.838 296.426L294.756 297.575L295.081 298.796L295.674 299.838L297.038 300.298L298.574 300.251L300.059 299.792L301.225 298.853L301.91 297.875L302.283 297.156L302.118 296.3L301.493 295.766L300.599 295.567L299.264 295.805L300.443 295.293L301.554 295.307L302.675 295.501L303.636 296.384L303.747 297.388L303.388 298.534L302.785 299.414L302.029 300.268L300.449 301.449L298.753 302.184L297.056 302.271L295.419 302.3L293.781 302.33L292.194 302.771L290.719 303.411L289.726 304.089L289.192 304.847L289.389 305.597L290.054 305.959L291.388 305.72L292.704 304.963L292.383 305.691L291.699 306.266L290.335 306.858L289.128 306.917L287.621 307.014L286.292 306.941L284.685 307.266L283.616 307.73L282.532 308.572L282.235 309.505L282.419 309.828L283.294 309.912L284.263 309.677L283.151 310.469L281.935 310.997L280.356 311.373L277.777 311.687L274.938 311.866Z"/>
</mask>
<path d="M274.938 311.866L271.588 311.711L273.037 312.32L275.418 312.71L277.038 312.812L279.287 312.888L281.576 312.792L284.265 312.43L287.536 311.878L291.093 310.861L294.359 309.815L296.423 308.92L299.151 307.736L302.889 305.743L305.381 303.982L307.191 302.639L309.394 300.694L311.058 299.012L312.353 297.491L313.572 295.756L314.286 294.425L315.248 292.398L315.786 290.432L315.665 288.442L315.154 286.653L314.344 285.55L313.408 284.873L312.456 284.574L311.216 284.493L309.85 284.838L311.299 285.448L311.793 285.914L312.316 286.43L312.535 287.368L312.25 288.253L311.551 289.206L310.426 290.22L308.949 291.016L307.477 291.499L305.948 291.672L304.308 291.546L303.023 291.154L302.126 290.432L301.526 289.769L301.07 288.614L301.011 287.559L301.353 286.544L301.724 285.579L302.114 284.729L303.006 283.63L301.413 285.033L300.544 286.091L299.731 287.248L298.995 288.217L298.196 289.399L297.354 290.909L296.53 292.288L295.991 293.605L295.47 294.79L294.838 296.426L294.756 297.575L295.081 298.796L295.674 299.838L297.038 300.298L298.574 300.251L300.059 299.792L301.225 298.853L301.91 297.875L302.283 297.156L302.118 296.3L301.493 295.766L300.599 295.567L299.264 295.805L300.443 295.293L301.554 295.307L302.675 295.501L303.636 296.384L303.747 297.388L303.388 298.534L302.785 299.414L302.029 300.268L300.449 301.449L298.753 302.184L297.056 302.271L295.419 302.3L293.781 302.33L292.194 302.771L290.719 303.411L289.726 304.089L289.192 304.847L289.389 305.597L290.054 305.959L291.388 305.72L292.704 304.963L292.383 305.691L291.699 306.266L290.335 306.858L289.128 306.917L287.621 307.014L286.292 306.941L284.685 307.266L283.616 307.73L282.532 308.572L282.235 309.505L282.419 309.828L283.294 309.912L284.263 309.677L283.151 310.469L281.935 310.997L280.356 311.373L277.777 311.687L274.938 311.866Z" fill="white" fill-opacity="0.3" stroke="#8C775E" stroke-opacity="0.3" stroke-width="2" mask="url(#path-22-inside-11_68:34)"/>
<path d="M86.1794 261.358L74.7197 262.319L66.5 263.299L52 263.615L40.5 263.16L36 256.654L32 248.309L28 239.678L24.5 230.278L22.5 221.085L19.5 209L17.5 201L16 188L16 182L26 188L36 195.5L46.5 203.501L57.5 209L72 217.498L82 222.513L93.5 225.432L101 227.38L108.417 227.38L115.682 224.262L124.567 222.513L135.612 222.59L144.58 221.838L153.549 221.085L162.517 220.333L172.482 219.497L184.357 217.498L193.116 214.254L199.51 212.714L207.482 212.046L213.461 211.544L219.151 213.576L219.443 217.063L216.83 221.798L212.056 224.708L205.248 227.286L199.478 230.278L192.13 232.4L184.325 235.062L178.015 237.598L171.165 239.678L167.429 243.002L170.13 245.284L176.774 246.734L181.924 248.309L189.066 249.717L196.293 252.121L203.934 253.487L210.867 252.404L216.846 251.902L222.202 249.948L227.059 248.035L232.456 246.579L239.223 243.503L243.041 241.175L248.522 240.716L250.682 242.541L248.982 246.196L247.696 248.813L245.539 253.008L249.442 251.677L254.215 248.768L258.076 246.939L262.309 243.573L266.71 242.2L270.612 240.87L274.682 241.532L276.884 243.856L274.643 247.054L269.953 250.96L263.685 253.995L259.079 258.897L255.344 262.221L262.194 260.141L270.539 257.935L274.399 256.106L280.751 254.068L285.608 252.156L291.378 249.163L296.277 247.748L301.343 248.327L301.552 250.818L301.803 253.808L299.064 257.048L293.834 260.497L286.569 263.615L280.758 266.11L271.625 270.89L257.343 274.095L269.468 275.085L275.946 274.542L283.918 273.873L291.89 273.204L297.496 274.239L300.778 277.476L301.029 280.466L298.29 283.706L292.934 285.66L282.68 289.029L268.729 290.2L257.768 291.119L241.615 289.965L222.556 290.059L210.598 291.062L197.02 290.695L188.839 288.873L180.201 287.59L170.94 284.855L158.522 280.377L144.485 274.53L126.419 268.519L115.621 265.411L104.907 263.299L96.228 261.518L86.1794 261.358Z" fill="white"/>
<path d="M257.343 274.095L269.468 275.085L275.946 274.542L283.918 273.873L291.89 273.204L297.496 274.239L300.778 277.476L301.029 280.466L298.29 283.706L292.934 285.66L282.68 289.029L268.729 290.2L257.768 291.119L241.615 289.965L222.556 290.059L210.598 291.062L197.02 290.695L188.839 288.873L180.201 287.59L170.94 284.855L158.522 280.377L144.485 274.53L126.419 268.519L115.621 265.411L104.907 263.299L96.228 261.518L86.1794 261.358L74.7197 262.319L66.5 263.299L52 263.615L40.5 263.16L36 256.654L32 248.309L28 239.678L24.5 230.278L22.5 221.085L19.5 209L17.5 201L16 188L16 182L26 188L36 195.5L46.5 203.501L57.5 209L72 217.498L82 222.513L93.5 225.432L101 227.38L108.417 227.38M257.343 274.095L251.281 273.6L241.73 273.398L231.598 272.24L226.448 270.665L220.717 268.136M257.343 274.095L271.625 270.89L280.758 266.11L286.569 263.615L293.834 260.497L299.064 257.048L301.803 253.808L301.552 250.818L301.343 248.327L296.277 247.748L291.378 249.163L285.608 252.156L280.751 254.068L274.399 256.106L270.539 257.935L262.194 260.141L255.344 262.221M208.257 263.16L218.1 266.85L220.717 268.136M208.257 263.16L200.035 260.839L191.854 259.016L184.129 256.654L177.359 253.709L169.468 249.354L166.144 245.619L167.429 243.002M208.257 263.16L215.979 259.502L220.836 257.589L226.191 255.634L232.212 255.631L240.184 254.962L245.539 253.008M167.429 243.002L171.165 239.678L178.015 237.598L184.325 235.062L192.13 232.4L199.478 230.278L205.248 227.286L212.056 224.708L216.83 221.798L219.443 217.063L219.151 213.576L213.461 211.544L207.482 212.046L199.51 212.714L193.116 214.254L184.357 217.498L172.482 219.497L162.517 220.333L153.549 221.085L144.58 221.838L135.612 222.59L124.567 222.513L115.682 224.262L108.417 227.38M167.429 243.002L170.13 245.284L176.774 246.734L181.924 248.309L189.066 249.717L196.293 252.121L203.934 253.487L210.867 252.404L216.846 251.902L222.202 249.948L227.059 248.035L232.456 246.579L239.223 243.503L243.041 241.175L248.522 240.716L250.682 242.541L248.982 246.196L247.696 248.813L245.539 253.008M108.417 227.38L117.305 231.652M255.344 262.221L250.486 264.133L246.5 264.468L241.02 264.927L233.048 265.596L226.072 266.181L220.717 268.136M255.344 262.221L259.079 258.897L263.685 253.995L269.953 250.96L274.643 247.054L276.884 243.856L274.682 241.532L270.612 240.87L266.71 242.2L262.309 243.573L258.076 246.939L254.215 248.768L249.442 251.677L245.539 253.008" stroke="#8C775E"/>
<path d="M270.369 80.6145L281.441 77.5047L289.327 74.9887L303.506 71.9377L314.885 70.2116L320.533 75.7498L326.039 83.1883L331.598 90.9076L336.811 99.4763L340.513 108.126L345.743 119.426L349.218 126.904L353.148 139.386L354.282 145.278L343.329 141.276L332.091 135.801L320.533 130.46L308.427 126.608L292.583 121.004L281.815 117.969L269.971 117.276L262.238 116.781L254.954 118.183L248.41 122.618L240.015 126.014L229.155 128.026L220.49 130.46L211.825 132.894L203.161 135.327L193.533 138.031L182.251 142.239L174.262 147.08L168.275 149.8L160.573 151.964L154.796 153.586L148.825 152.667L147.879 149.297L149.55 144.153L153.688 140.394L159.886 136.576L164.987 132.547L171.801 129.074L178.963 124.986L184.68 121.302L191.013 117.965L194.053 113.995L190.97 112.265L184.171 112.097L178.817 111.523L171.537 111.491L163.986 110.496L156.225 110.598L149.621 112.973L143.844 114.595L138.955 117.526L134.547 120.323L129.522 122.773L123.459 127.073L120.149 130.08L114.854 131.567L112.388 130.182L113.367 126.272L114.135 123.459L115.46 118.932L111.879 120.977L107.742 124.736L104.296 127.262L100.775 131.367L96.7132 133.546L93.1326 135.591L89.0113 135.71L86.4097 133.844L88.0053 130.279L91.8726 125.558L97.4544 121.393L101.051 115.709L104.091 111.739L97.7573 115.076L89.9797 118.818L86.5343 121.344L80.6821 124.546L76.274 127.342L71.1736 131.372L66.6303 133.686L61.5462 134.076L60.8701 131.669L60.0589 128.781L62.1359 125.081L66.6197 120.706L73.1642 116.271L78.3998 112.723L86.4642 106.303L99.8832 100.456L87.7894 101.776L81.5316 103.533L73.8296 105.697L66.1277 107.86L60.427 107.903L56.5923 105.345L55.781 102.457L57.858 98.7573L62.7475 95.8259L72.1802 90.5796L85.6586 86.7938L96.2488 83.8192L112.329 81.8993L131.026 78.2055L142.579 74.9605L155.982 72.754L164.36 72.9975L173.084 72.6244L182.695 73.5603L195.736 75.6103L210.626 78.6989L229.502 81.1872L240.692 82.1988L251.612 82.2476L260.472 82.3559L270.369 80.6145Z" fill="white"/>
<path d="M99.8832 100.456L87.7894 101.776L81.5316 103.533L73.8296 105.697L66.1277 107.86L60.427 107.903L56.5923 105.345L55.781 102.457L57.858 98.7573L62.7475 95.8259L72.1802 90.5796L85.6586 86.7938L96.2488 83.8192L112.329 81.8993L131.026 78.2055L142.579 74.9605L155.982 72.754L164.36 72.9975L173.084 72.6244L182.695 73.5603L195.736 75.6103L210.626 78.6989L229.502 81.1872L240.692 82.1988L251.612 82.2476L260.472 82.3559L270.369 80.6145L281.441 77.5047L289.327 74.9887L303.506 71.9377L314.885 70.2116L320.533 75.7498L326.039 83.1883L331.598 90.9076L336.811 99.4763L340.513 108.126L345.743 119.426L349.218 126.904L353.148 139.386L354.282 145.278L343.329 141.276L332.091 135.801L320.533 130.46L308.427 126.608L292.583 121.004L281.815 117.969L269.971 117.276L262.238 116.781L254.954 118.183M99.8832 100.456L105.93 99.7965L115.347 98.1902L125.515 97.4115L130.869 97.9849L136.976 99.3859M99.8832 100.456L86.4642 106.303L78.3998 112.723L73.1642 116.271L66.6197 120.706L62.1359 125.081L60.0589 128.781L60.8701 131.669L61.5462 134.076L66.6303 133.686L71.1736 131.372L76.274 127.342L80.6821 124.546L86.5343 121.344L89.9797 118.818L97.7573 115.076L104.091 111.739M150.151 101.917L139.788 100.154L136.976 99.3859M150.151 101.917L158.664 102.642L167.042 102.886L175.074 103.746L182.278 105.358L190.851 108.143L194.821 111.183L194.053 113.995M150.151 101.917L143.26 106.969L138.852 109.765L133.963 112.696L128.051 113.838L120.349 116.001L115.46 118.932M194.053 113.995L191.013 117.965L184.68 121.302L178.963 124.986L171.801 129.074L164.987 132.547L159.886 136.576L153.688 140.394L149.55 144.153L147.879 149.297L148.825 152.667L154.796 153.586L160.573 151.964L168.275 149.8L174.262 147.08L182.251 142.239L193.533 138.031L203.161 135.327L211.825 132.894L220.49 130.46L229.155 128.026L240.015 126.014L248.41 122.618L254.954 118.183M194.053 113.995L190.97 112.265L184.171 112.097L178.817 111.523L171.537 111.491L163.986 110.496L156.225 110.598L149.621 112.973L143.844 114.595L138.955 117.526L134.547 120.323L129.522 122.773L123.459 127.073L120.149 130.08L114.854 131.567L112.388 130.182L113.367 126.272L114.135 123.459L115.46 118.932M254.954 118.183L245.419 115.668M104.091 111.739L108.499 108.943L112.35 107.861L117.645 106.374L125.347 104.21L132.086 102.317L136.976 99.3859M104.091 111.739L101.051 115.709L97.4544 121.393L91.8726 125.558L88.0053 130.279L86.4097 133.844L89.0113 135.71L93.1326 135.591L96.7132 133.546L100.775 131.367L104.296 127.262L107.742 124.736L111.879 120.977L115.46 118.932" stroke="#8C775E"/>
<path d="M152.109 194.305C151.484 194.82 150.773 195.359 149.977 195.922C149.195 196.469 148.359 196.969 147.469 197.422C146.578 197.891 145.641 198.273 144.656 198.57C143.688 198.867 142.703 199.016 141.703 199.016C141.391 199.016 141.086 198.977 140.789 198.898C140.492 198.82 140.227 198.68 139.992 198.477C139.758 198.289 139.57 198.031 139.43 197.703C139.289 197.375 139.227 196.961 139.242 196.461C139.242 195.867 139.273 194.398 139.336 192.055C139.352 191.055 139.375 189.812 139.406 188.328C139.453 186.828 139.5 185.023 139.547 182.914C139.609 180.805 139.68 178.352 139.758 175.555C139.836 172.742 139.922 169.523 140.016 165.898C138.547 166.07 137.086 166.211 135.633 166.32C134.195 166.414 132.742 166.461 131.273 166.461C129.93 166.461 128.812 166.383 127.922 166.227C127.031 166.07 126.406 165.797 126.047 165.406C125.844 165.062 125.906 164.633 126.234 164.117C126.375 163.898 126.578 163.648 126.844 163.367C127.109 163.086 127.469 162.773 127.922 162.43C128.391 162.086 128.961 161.711 129.633 161.305C130.305 160.898 131.109 160.461 132.047 159.992C131.797 160.305 131.68 160.57 131.695 160.789C131.711 160.992 131.773 161.164 131.883 161.305C132.008 161.477 132.188 161.617 132.422 161.727C132.875 161.898 133.562 162.055 134.484 162.195C135.422 162.32 136.719 162.383 138.375 162.383C140.188 162.383 141.969 162.312 143.719 162.172C145.484 162.031 147.219 161.875 148.922 161.703C150.641 161.516 152.344 161.352 154.031 161.211C155.734 161.07 157.43 161 159.117 161C159.57 161 159.969 161.016 160.312 161.047C160.672 161.062 160.945 161.109 161.133 161.188C161.43 161.297 161.531 161.477 161.438 161.727C161.344 161.961 161.117 162.234 160.758 162.547C160.414 162.844 159.984 163.164 159.469 163.508C158.953 163.836 158.422 164.148 157.875 164.445C157.328 164.742 156.805 165.008 156.305 165.242C155.805 165.461 155.414 165.617 155.133 165.711C155.273 165.227 155.18 164.891 154.852 164.703C154.523 164.5 153.836 164.438 152.789 164.516C150.445 164.703 148.141 164.938 145.875 165.219L144.961 194.305C145.32 194.57 145.75 194.758 146.25 194.867C146.75 194.977 147.266 195.031 147.797 195.031C148.328 195.031 148.852 195 149.367 194.938C149.883 194.859 150.344 194.773 150.75 194.68C151.234 194.57 151.688 194.445 152.109 194.305ZM193.055 193.391C192.398 194.047 191.688 194.648 190.922 195.195C190.172 195.727 189.414 196.188 188.648 196.578C187.883 196.969 187.141 197.281 186.422 197.516C185.703 197.75 185.047 197.883 184.453 197.914C184.125 197.945 183.703 197.938 183.188 197.891C182.672 197.859 182.172 197.727 181.688 197.492C181.219 197.258 180.812 196.891 180.469 196.391C180.125 195.891 179.953 195.18 179.953 194.258V191.469C179.094 192.312 178.188 193.125 177.234 193.906C176.281 194.672 175.297 195.359 174.281 195.969C173.281 196.562 172.266 197.031 171.234 197.375C170.203 197.734 169.188 197.914 168.188 197.914C166.906 197.914 165.781 197.625 164.812 197.047C163.844 196.484 163.031 195.75 162.375 194.844C161.719 193.938 161.227 192.922 160.898 191.797C160.57 190.672 160.406 189.555 160.406 188.445C160.406 187.617 160.469 186.805 160.594 186.008C160.719 185.195 160.875 184.43 161.062 183.711C161.266 182.992 161.492 182.344 161.742 181.766C162.008 181.188 162.281 180.711 162.562 180.336C163.078 179.633 163.734 178.953 164.531 178.297C165.328 177.641 166.195 177.023 167.133 176.445C168.086 175.867 169.094 175.344 170.156 174.875C171.219 174.406 172.273 174 173.32 173.656C174.383 173.312 175.414 173.047 176.414 172.859C177.414 172.672 178.336 172.578 179.18 172.578C180.055 172.578 181.086 172.625 182.273 172.719C183.461 172.797 184.812 172.969 186.328 173.234C186.266 175.031 186.211 176.617 186.164 177.992C186.117 179.367 186.078 180.602 186.047 181.695C186.016 182.773 185.992 183.758 185.977 184.648C185.961 185.539 185.953 186.406 185.953 187.25C185.953 188.109 185.938 188.953 185.906 189.781C185.875 190.609 185.938 191.352 186.094 192.008C186.25 192.664 186.555 193.195 187.008 193.602C187.477 194.008 188.195 194.211 189.164 194.211C189.742 194.211 190.359 194.141 191.016 194C191.672 193.844 192.352 193.641 193.055 193.391ZM180 176.609C179.062 176.359 178.062 176.188 177 176.094C175.938 175.984 174.922 175.93 173.953 175.93C173.422 175.93 172.914 175.945 172.43 175.977C171.961 176.008 171.531 176.047 171.141 176.094C170.75 176.141 170.406 176.203 170.109 176.281C169.812 176.344 169.586 176.422 169.43 176.516C169.148 176.656 168.82 177 168.445 177.547C168.07 178.078 167.711 178.742 167.367 179.539C167.023 180.336 166.727 181.234 166.477 182.234C166.242 183.234 166.125 184.266 166.125 185.328C166.125 186.344 166.273 187.367 166.57 188.398C166.867 189.414 167.297 190.328 167.859 191.141C168.438 191.953 169.141 192.617 169.969 193.133C170.812 193.633 171.773 193.883 172.852 193.883C173.867 193.883 174.766 193.719 175.547 193.391C176.328 193.062 177.008 192.617 177.586 192.055C178.164 191.477 178.641 190.805 179.016 190.039C179.406 189.273 179.719 188.445 179.953 187.555C179.953 186.898 179.953 186.203 179.953 185.469C179.953 184.719 179.953 183.898 179.953 183.008C179.953 182.117 179.953 181.148 179.953 180.102C179.969 179.039 179.984 177.875 180 176.609ZM216.914 191.633C215.695 192.617 214.492 193.5 213.305 194.281C212.117 195.062 210.961 195.719 209.836 196.25C208.727 196.781 207.656 197.172 206.625 197.422C205.609 197.688 204.656 197.789 203.766 197.727C202.859 197.664 202.023 197.445 201.258 197.07C200.508 196.695 199.859 196.133 199.312 195.383C198.766 194.633 198.344 193.672 198.047 192.5C197.75 191.328 197.625 189.914 197.672 188.258C197.688 187.367 197.719 186.312 197.766 185.094C197.797 184.047 197.828 182.75 197.859 181.203C197.891 179.656 197.922 177.852 197.953 175.789C197.625 175.82 197.219 175.859 196.734 175.906C196.266 175.953 195.75 176.039 195.188 176.164C194.641 176.273 194.07 176.43 193.477 176.633C192.883 176.82 192.297 177.062 191.719 177.359C192.188 177.062 192.656 176.758 193.125 176.445C193.609 176.133 194.047 175.844 194.438 175.578C194.891 175.281 195.328 174.984 195.75 174.688C196.172 174.469 196.547 174.07 196.875 173.492C197.156 172.992 197.414 172.281 197.648 171.359C197.883 170.438 198 169.195 198 167.633C199.094 167.086 200.016 166.586 200.766 166.133C201.516 165.68 202.125 165.297 202.594 164.984C203.141 164.609 203.578 164.289 203.906 164.023L203.812 171.898C204.219 171.914 204.617 171.93 205.008 171.945C205.398 171.945 205.742 171.945 206.039 171.945H207.023C208.367 171.977 209.641 171.961 210.844 171.898C211.359 171.883 211.883 171.852 212.414 171.805C212.961 171.758 213.484 171.703 213.984 171.641C214.484 171.562 214.945 171.469 215.367 171.359C215.805 171.25 216.172 171.125 216.469 170.984C215.625 171.828 214.695 172.539 213.68 173.117C212.68 173.695 211.633 174.172 210.539 174.547C209.445 174.906 208.32 175.18 207.164 175.367C206.023 175.555 204.891 175.68 203.766 175.742C203.734 177.977 203.711 180.172 203.695 182.328C203.68 184.484 203.672 186.609 203.672 188.703C203.688 189.391 203.859 190.039 204.188 190.648C204.516 191.258 204.969 191.789 205.547 192.242C206.141 192.695 206.836 193.062 207.633 193.344C208.43 193.609 209.312 193.742 210.281 193.742C211.266 193.742 212.32 193.578 213.445 193.25C214.586 192.922 215.742 192.383 216.914 191.633ZM242.93 174.922C242.93 175.609 242.836 176.398 242.648 177.289C242.477 178.18 242.148 179.164 241.664 180.242C241.195 181.32 240.547 182.492 239.719 183.758C238.891 185.023 237.82 186.367 236.508 187.789C234.836 189.617 233.117 191.453 231.352 193.297C229.586 195.141 227.898 196.914 226.289 198.617C224.68 200.32 223.219 201.914 221.906 203.398C220.594 204.898 219.555 206.219 218.789 207.359C218.023 208.5 217.43 209.508 217.008 210.383C216.602 211.258 216.312 212.016 216.141 212.656C215.969 213.297 215.883 213.844 215.883 214.297C215.883 214.75 215.922 215.125 216 215.422C216.047 215.609 216.047 215.781 216 215.938C215.969 216.109 215.906 216.258 215.812 216.383C215.719 216.508 215.602 216.602 215.461 216.664C215.32 216.742 215.18 216.781 215.039 216.781C214.852 216.781 214.664 216.688 214.477 216.5C214.289 216.328 214.141 216.039 214.031 215.633C213.922 215.148 213.977 214.492 214.195 213.664C214.414 212.852 214.758 211.961 215.227 210.992C215.695 210.039 216.266 209.047 216.938 208.016C217.609 207 218.359 206.031 219.188 205.109C220.203 203.984 221.359 202.688 222.656 201.219C223.953 199.766 225.289 198.234 226.664 196.625C226.492 195.5 226.25 194.211 225.938 192.758C225.641 191.289 225.281 189.797 224.859 188.281C224.453 186.75 223.977 185.25 223.43 183.781C222.898 182.312 222.305 181.008 221.648 179.867C220.992 178.711 220.281 177.781 219.516 177.078C218.75 176.375 217.93 176.023 217.055 176.023C216.695 176.023 216.328 176.094 215.953 176.234C215.578 176.359 215.195 176.531 214.805 176.75C215.258 176.312 215.773 175.82 216.352 175.273C216.93 174.727 217.539 174.219 218.18 173.75C218.82 173.281 219.477 172.891 220.148 172.578C220.836 172.25 221.508 172.086 222.164 172.086C222.617 172.086 223.039 172.203 223.43 172.438C223.836 172.672 224.211 173.055 224.555 173.586C224.883 174.117 225.336 174.898 225.914 175.93C226.508 176.945 227.141 178.18 227.812 179.633C228.5 181.086 229.172 182.742 229.828 184.602C230.5 186.445 231.078 188.453 231.562 190.625C232.406 189.531 233.188 188.461 233.906 187.414C234.625 186.352 235.25 185.344 235.781 184.391C236.328 183.438 236.75 182.555 237.047 181.742C237.359 180.914 237.516 180.18 237.516 179.539C237.516 178.961 237.453 178.445 237.328 177.992C237.219 177.523 237.055 177.141 236.836 176.844C236.617 176.531 236.336 176.312 235.992 176.188C235.648 176.062 235.258 176.039 234.82 176.117C235.18 175.68 235.594 175.195 236.062 174.664C236.547 174.133 237.055 173.641 237.586 173.188C238.133 172.719 238.695 172.336 239.273 172.039C239.867 171.727 240.461 171.57 241.055 171.57C241.477 171.57 241.812 171.688 242.062 171.922C242.312 172.156 242.5 172.445 242.625 172.789C242.75 173.133 242.828 173.5 242.859 173.891C242.906 174.281 242.93 174.625 242.93 174.922ZM279.492 193.391C278.836 194.047 278.125 194.648 277.359 195.195C276.609 195.727 275.852 196.188 275.086 196.578C274.32 196.969 273.578 197.281 272.859 197.516C272.141 197.75 271.484 197.883 270.891 197.914C270.562 197.945 270.141 197.938 269.625 197.891C269.109 197.859 268.609 197.727 268.125 197.492C267.656 197.258 267.25 196.891 266.906 196.391C266.562 195.891 266.391 195.18 266.391 194.258V191.469C265.531 192.312 264.625 193.125 263.672 193.906C262.719 194.672 261.734 195.359 260.719 195.969C259.719 196.562 258.703 197.031 257.672 197.375C256.641 197.734 255.625 197.914 254.625 197.914C253.344 197.914 252.219 197.625 251.25 197.047C250.281 196.484 249.469 195.75 248.812 194.844C248.156 193.938 247.664 192.922 247.336 191.797C247.008 190.672 246.844 189.555 246.844 188.445C246.844 187.617 246.906 186.805 247.031 186.008C247.156 185.195 247.312 184.43 247.5 183.711C247.703 182.992 247.93 182.344 248.18 181.766C248.445 181.188 248.719 180.711 249 180.336C249.516 179.633 250.172 178.953 250.969 178.297C251.766 177.641 252.633 177.023 253.57 176.445C254.523 175.867 255.531 175.344 256.594 174.875C257.656 174.406 258.711 174 259.758 173.656C260.82 173.312 261.852 173.047 262.852 172.859C263.852 172.672 264.773 172.578 265.617 172.578C266.492 172.578 267.523 172.625 268.711 172.719C269.898 172.797 271.25 172.969 272.766 173.234C272.703 175.031 272.648 176.617 272.602 177.992C272.555 179.367 272.516 180.602 272.484 181.695C272.453 182.773 272.43 183.758 272.414 184.648C272.398 185.539 272.391 186.406 272.391 187.25C272.391 188.109 272.375 188.953 272.344 189.781C272.312 190.609 272.375 191.352 272.531 192.008C272.688 192.664 272.992 193.195 273.445 193.602C273.914 194.008 274.633 194.211 275.602 194.211C276.18 194.211 276.797 194.141 277.453 194C278.109 193.844 278.789 193.641 279.492 193.391ZM266.438 176.609C265.5 176.359 264.5 176.188 263.438 176.094C262.375 175.984 261.359 175.93 260.391 175.93C259.859 175.93 259.352 175.945 258.867 175.977C258.398 176.008 257.969 176.047 257.578 176.094C257.188 176.141 256.844 176.203 256.547 176.281C256.25 176.344 256.023 176.422 255.867 176.516C255.586 176.656 255.258 177 254.883 177.547C254.508 178.078 254.148 178.742 253.805 179.539C253.461 180.336 253.164 181.234 252.914 182.234C252.68 183.234 252.562 184.266 252.562 185.328C252.562 186.344 252.711 187.367 253.008 188.398C253.305 189.414 253.734 190.328 254.297 191.141C254.875 191.953 255.578 192.617 256.406 193.133C257.25 193.633 258.211 193.883 259.289 193.883C260.305 193.883 261.203 193.719 261.984 193.391C262.766 193.062 263.445 192.617 264.023 192.055C264.602 191.477 265.078 190.805 265.453 190.039C265.844 189.273 266.156 188.445 266.391 187.555C266.391 186.898 266.391 186.203 266.391 185.469C266.391 184.719 266.391 183.898 266.391 183.008C266.391 182.117 266.391 181.148 266.391 180.102C266.406 179.039 266.422 177.875 266.438 176.609ZM289.805 194.398L284.203 198.43C284.344 195.414 284.453 192.844 284.531 190.719C284.609 188.594 284.664 186.844 284.695 185.469C284.742 183.859 284.766 182.531 284.766 181.484C284.844 179.594 284.586 178.117 283.992 177.055C283.398 175.977 282.492 175.438 281.273 175.438C280.883 175.438 280.469 175.5 280.031 175.625C279.609 175.734 279.156 175.898 278.672 176.117C279.281 175.68 279.922 175.234 280.594 174.781C281.266 174.312 281.953 173.891 282.656 173.516C283.359 173.141 284.062 172.836 284.766 172.602C285.484 172.352 286.188 172.227 286.875 172.227C287.531 172.227 288.125 172.359 288.656 172.625C289.203 172.891 289.617 173.336 289.898 173.961C290.148 174.492 290.32 175.086 290.414 175.742C290.523 176.398 290.594 177.117 290.625 177.898C291.422 177.055 292.312 176.266 293.297 175.531C294.297 174.797 295.336 174.172 296.414 173.656C297.492 173.141 298.578 172.758 299.672 172.508C300.766 172.258 301.797 172.195 302.766 172.32C303.469 172.414 304.195 172.609 304.945 172.906C305.711 173.203 306.406 173.656 307.031 174.266C307.672 174.875 308.188 175.68 308.578 176.68C308.969 177.664 309.148 178.898 309.117 180.383C309.07 182.133 308.992 183.742 308.883 185.211C308.773 186.664 308.719 187.953 308.719 189.078C308.719 189.75 308.773 190.391 308.883 191C308.992 191.594 309.18 192.117 309.445 192.57C309.727 193.008 310.102 193.359 310.57 193.625C311.039 193.891 311.625 194.023 312.328 194.023C312.953 194.023 313.609 193.906 314.297 193.672C315 193.422 315.703 193.047 316.406 192.547C315.266 193.562 314.219 194.414 313.266 195.102C312.328 195.789 311.453 196.344 310.641 196.766C309.828 197.188 309.07 197.484 308.367 197.656C307.664 197.844 306.984 197.93 306.328 197.914C305.672 197.898 305.109 197.766 304.641 197.516C304.172 197.281 303.797 196.914 303.516 196.414C303.234 195.898 303.039 195.242 302.93 194.445C302.82 193.633 302.781 192.641 302.812 191.469C302.859 190.438 302.922 189.305 303 188.07C303.078 186.82 303.117 185.586 303.117 184.367C303.117 182.977 303.023 181.781 302.836 180.781C302.648 179.781 302.305 178.961 301.805 178.32C301.32 177.664 300.641 177.18 299.766 176.867C298.906 176.555 297.797 176.398 296.438 176.398C295.453 176.398 294.617 176.594 293.93 176.984C293.242 177.359 292.672 177.875 292.219 178.531C291.766 179.188 291.406 179.953 291.141 180.828C290.891 181.688 290.695 182.609 290.555 183.594C290.43 184.562 290.344 185.562 290.297 186.594C290.25 187.609 290.211 188.594 290.18 189.547C290.164 190.5 290.133 191.398 290.086 192.242C290.039 193.07 289.945 193.789 289.805 194.398ZM350.086 193.391C349.43 194.047 348.719 194.648 347.953 195.195C347.203 195.727 346.445 196.188 345.68 196.578C344.914 196.969 344.172 197.281 343.453 197.516C342.734 197.75 342.078 197.883 341.484 197.914C341.156 197.945 340.734 197.938 340.219 197.891C339.703 197.859 339.203 197.727 338.719 197.492C338.25 197.258 337.844 196.891 337.5 196.391C337.156 195.891 336.984 195.18 336.984 194.258V191.469C336.125 192.312 335.219 193.125 334.266 193.906C333.312 194.672 332.328 195.359 331.312 195.969C330.312 196.562 329.297 197.031 328.266 197.375C327.234 197.734 326.219 197.914 325.219 197.914C323.938 197.914 322.812 197.625 321.844 197.047C320.875 196.484 320.062 195.75 319.406 194.844C318.75 193.938 318.258 192.922 317.93 191.797C317.602 190.672 317.438 189.555 317.438 188.445C317.438 187.617 317.5 186.805 317.625 186.008C317.75 185.195 317.906 184.43 318.094 183.711C318.297 182.992 318.523 182.344 318.773 181.766C319.039 181.188 319.312 180.711 319.594 180.336C320.109 179.633 320.766 178.953 321.562 178.297C322.359 177.641 323.227 177.023 324.164 176.445C325.117 175.867 326.125 175.344 327.188 174.875C328.25 174.406 329.305 174 330.352 173.656C331.414 173.312 332.445 173.047 333.445 172.859C334.445 172.672 335.367 172.578 336.211 172.578C337.086 172.578 338.117 172.625 339.305 172.719C340.492 172.797 341.844 172.969 343.359 173.234C343.297 175.031 343.242 176.617 343.195 177.992C343.148 179.367 343.109 180.602 343.078 181.695C343.047 182.773 343.023 183.758 343.008 184.648C342.992 185.539 342.984 186.406 342.984 187.25C342.984 188.109 342.969 188.953 342.938 189.781C342.906 190.609 342.969 191.352 343.125 192.008C343.281 192.664 343.586 193.195 344.039 193.602C344.508 194.008 345.227 194.211 346.195 194.211C346.773 194.211 347.391 194.141 348.047 194C348.703 193.844 349.383 193.641 350.086 193.391ZM337.031 176.609C336.094 176.359 335.094 176.188 334.031 176.094C332.969 175.984 331.953 175.93 330.984 175.93C330.453 175.93 329.945 175.945 329.461 175.977C328.992 176.008 328.562 176.047 328.172 176.094C327.781 176.141 327.438 176.203 327.141 176.281C326.844 176.344 326.617 176.422 326.461 176.516C326.18 176.656 325.852 177 325.477 177.547C325.102 178.078 324.742 178.742 324.398 179.539C324.055 180.336 323.758 181.234 323.508 182.234C323.273 183.234 323.156 184.266 323.156 185.328C323.156 186.344 323.305 187.367 323.602 188.398C323.898 189.414 324.328 190.328 324.891 191.141C325.469 191.953 326.172 192.617 327 193.133C327.844 193.633 328.805 193.883 329.883 193.883C330.898 193.883 331.797 193.719 332.578 193.391C333.359 193.062 334.039 192.617 334.617 192.055C335.195 191.477 335.672 190.805 336.047 190.039C336.438 189.273 336.75 188.445 336.984 187.555C336.984 186.898 336.984 186.203 336.984 185.469C336.984 184.719 336.984 183.898 336.984 183.008C336.984 182.117 336.984 181.148 336.984 180.102C337 179.039 337.016 177.875 337.031 176.609Z" fill="white"/>
</svg>
